<?xml version="1.0" encoding="iso-8859-1"?>
<!-- Generator: Adobe Illustrator 19.0.0, SVG Export Plug-In . SVG Version: 6.00 Build 0)  -->
<svg version="1.1" id="Capa_1" xmlns="http://www.w3.org/2000/svg" xmlns:xlink="http://www.w3.org/1999/xlink" x="0px" y="0px"
	 viewBox="0 0 512 512" style="enable-background:new 0 0 512 512;" xml:space="preserve">
<circle style="fill:#662B5A;" cx="256" cy="256" r="256"/>
<rect x="133.865" y="435.346" transform="matrix(-0.866 -0.5 0.5 -0.866 51.6999 910.745)" style="fill:#CEDDF7;" width="28.009" height="26.199"/>
<g>
	
		<rect x="200.458" y="235.357" transform="matrix(-0.866 -0.5 0.5 -0.866 366.9742 596.176)" style="fill:#AAC5EE;" width="125.807" height="27.129"/>
	
		<rect x="149.126" y="324.251" transform="matrix(-0.866 -0.5 0.5 -0.866 226.74 736.3882)" style="fill:#AAC5EE;" width="125.807" height="27.129"/>
</g>
<g>
	
		<rect x="258.86" y="251.005" transform="matrix(-0.866 -0.5 0.5 -0.866 409.7234 638.9267)" style="fill:#CEDDF7;" width="63.209" height="27.129"/>
	
		<rect x="207.538" y="339.897" transform="matrix(-0.866 -0.5 0.5 -0.866 269.5088 779.1402)" style="fill:#CEDDF7;" width="63.209" height="27.129"/>
	
		<rect x="313.17" y="125.115" transform="matrix(-0.866 -0.5 0.5 -0.866 541.5679 420.8955)" style="fill:#CEDDF7;" width="28.009" height="25.549"/>
</g>
<path style="fill:#7477AD;" d="M364.59,109.652l50.355-87.218c2.299-3.981,0.934-9.072-3.047-11.371L394.67,1.117
	c-3.981-2.299-9.072-0.934-11.371,3.047l-50.355,87.218L364.59,109.652z"/>
<path style="fill:#65669E;" d="M399.272,13.385c2.298-3.981,5.76-6.286,7.732-5.147L394.67,1.117
	c-3.981-2.299-9.072-0.935-11.37,3.047l-50.355,87.218l15.973,9.222l0,0L399.272,13.385z"/>
<path style="fill:#CEDDF7;" d="M373.372,178.241L269.153,118.07c-14.006-8.087-31.98-3.271-40.066,10.736L90.873,368.2
	c-8.087,14.006-3.271,31.98,10.736,40.066l104.218,60.171c14.007,8.087,31.98,3.271,40.067-10.736l138.214-239.394
	C392.194,204.301,387.378,186.328,373.372,178.241z M357.988,207.525L223.496,440.472c-1.636,2.833-5.258,3.803-8.09,2.168
	l-96.246-55.568c-2.833-1.635-3.803-5.258-2.168-8.09l134.492-232.947c1.635-2.833,5.258-3.803,8.09-2.168l96.246,55.568
	C358.653,201.07,359.624,204.692,357.988,207.525z"/>
<rect x="198.25" y="305.888" transform="matrix(-0.5 0.866 -0.866 -0.5 610.1899 323.1359)" style="fill:#AAC5EE;" width="27.129" height="63.649"/>
<g>
	<path style="fill:#8FB1DB;" d="M202.611,332.383c3.548-6.146,11.177-8.455,17.487-5.499c0.012-0.016,0.026-0.03,0.038-0.046
		l-29.089-16.794l-13.565,23.495l30.094,17.374C201.088,347.166,198.865,338.871,202.611,332.383L202.611,332.383z"/>
	<path style="fill:#8FB1DB;" d="M239.389,353.617L239.389,353.617L239.389,353.617z"/>
</g>
<rect x="249.588" y="216.986" transform="matrix(-0.5 0.866 -0.866 -0.5 610.2062 145.3229)" style="fill:#AAC5EE;" width="27.129" height="63.649"/>
<g>
	<path style="fill:#8FB1DB;" d="M253.937,243.483c3.746-6.488,12.042-8.711,18.53-4.965l-30.094-17.375l-13.565,23.495
		l30.094,17.375C252.415,258.267,250.192,249.971,253.937,243.483z"/>
	<polygon style="fill:#8FB1DB;" points="259.435,262.32 259.435,262.32 258.902,262.013 258.903,262.013 	"/>
</g>
<path style="fill:#7477AD;" d="M379.309,117.82l-60.798-35.102c-3.158-1.823-7.209-0.718-9.049,2.468l-9.395,16.272
	c-1.84,3.186-0.771,7.247,2.387,9.07l60.798,35.102c3.158,1.823,7.209,0.718,9.049-2.468l9.395-16.272
	C383.536,123.704,382.467,119.643,379.309,117.82z"/>
<path style="fill:#65669E;" d="M332.049,120.189l9.625-16.671c1.487-2.575,4.007-4.032,6.229-3.83l-29.393-16.97
	c-3.158-1.823-7.209-0.718-9.049,2.468l-9.395,16.272c-1.84,3.186-0.771,7.247,2.387,9.07l29.439,16.997
	C330.578,125.705,330.552,122.783,332.049,120.189z"/>
<path style="fill:#7477AD;" d="M172.526,475.979l-60.798-35.102c-3.158-1.823-7.212-0.714-9.054,2.477l-7.034,12.184
	c21.606,17.386,46.084,31.346,72.624,41.028l6.644-11.508C176.75,481.867,175.684,477.802,172.526,475.979z"/>
<path style="fill:#AAC5EE;" d="M115.214,409.4c0-8.284,6.716-15,15-15c0.631,0,1.248,0.051,1.858,0.127l-12.912-7.455
	c-2.833-1.635-3.803-5.258-2.168-8.09l134.492-232.947c1.635-2.833,5.258-3.803,8.09-2.168l12.361,7.137
	c-1.737-2.448-2.769-5.433-2.769-8.663c0-8.284,6.716-15,15-15c0.386,0,0.764,0.029,1.142,0.058l-16.156-9.328
	c-14.006-8.087-31.98-3.271-40.066,10.736L90.873,368.2c-8.087,14.006-3.271,31.98,10.736,40.066l15.992,9.233
	C116.097,415.162,115.214,412.387,115.214,409.4z"/>
<path style="fill:#65669E;" d="M111.728,440.877c-3.158-1.823-7.212-0.714-9.054,2.477l-7.034,12.184
	c9.663,7.776,19.905,14.86,30.645,21.19l8.82-15.276c1.342-2.324,3.518-3.736,5.567-3.865L111.728,440.877z"/>
<g>
</g>
<g>
</g>
<g>
</g>
<g>
</g>
<g>
</g>
<g>
</g>
<g>
</g>
<g>
</g>
<g>
</g>
<g>
</g>
<g>
</g>
<g>
</g>
<g>
</g>
<g>
</g>
<g>
</g>
</svg>
