<?xml version="1.0" encoding="iso-8859-1"?>
<!-- Generator: Adobe Illustrator 19.0.0, SVG Export Plug-In . SVG Version: 6.00 Build 0)  -->
<svg version="1.1" id="Capa_1" xmlns="http://www.w3.org/2000/svg" xmlns:xlink="http://www.w3.org/1999/xlink" x="0px" y="0px"
	 viewBox="0 0 512 512" style="enable-background:new 0 0 512 512;" xml:space="preserve">
<circle style="fill:#FDBF49;" cx="256" cy="256" r="256"/>
<path style="fill:#65669E;" d="M368.146,109.894l50.436-87.357c2.302-3.988,0.936-9.086-3.052-11.389l-17.256-9.963
	c-3.988-2.302-9.086-0.936-11.389,3.052L336.45,91.594L368.146,109.894z"/>
<path style="fill:#504A7F;" d="M402.25,13.108c2.302-3.987,5.834-6.258,7.888-5.072l-11.864-6.85
	c-3.988-2.302-9.086-0.936-11.389,3.052L336.45,91.594l15.365,8.871l0,0L402.25,13.108z"/>
<path style="fill:#AAC5EE;" d="M320.635,183.791c2.616-2.244,4.817-4.895,6.539-7.879l22.891-39.649l-27.606-15.938l-22.766,39.431
	l-20.333,17.435c-7.177,6.154-11.523,14.735-12.239,24.161l-2.836,37.38c-0.275,3.61-2.045,6.989-4.857,9.27l-27.511,22.316
	c-8.506,6.9-14.139,16.657-15.862,27.473l-5.57,34.983c-0.57,3.576-2.611,6.798-5.599,8.84l-30.954,21.147
	c-7.805,5.333-13.064,13.387-14.805,22.68l-4.933,26.327l-22.766,39.431l27.606,15.938l22.891-39.649
	c1.723-2.983,2.919-6.215,3.554-9.605l4.978-26.572c0.172-0.913,0.689-1.705,1.456-2.229l30.955-21.148
	c10.194-6.966,17.154-17.954,19.096-30.146l5.57-34.983c0.485-3.044,2.07-5.789,4.464-7.731l27.511-22.316
	c9.588-7.778,15.624-19.299,16.56-31.611l2.837-37.381c0.071-0.927,0.498-1.771,1.203-2.376L320.635,183.791z"/>
<path style="fill:#8FB1DB;" d="M168.235,419.874l5.826-25.811c2.057-9.11,7.262-17.195,14.656-22.766l29.322-22.089
	c2.831-2.133,4.856-5.364,5.556-8.865l6.844-34.248c2.116-10.59,7.749-20.346,15.862-27.473l26.238-23.051
	c2.682-2.356,4.467-5.726,4.9-9.245l4.468-36.437c1.128-9.189,5.526-17.739,12.388-24.075l19.439-17.951l22.766-39.431l-14.04-8.106
	l-22.766,39.431l-20.333,17.435c-7.177,6.154-11.522,14.735-12.239,24.161l-2.836,37.38c-0.275,3.61-2.045,6.989-4.857,9.27
	l-27.511,22.316c-8.507,6.9-14.139,16.657-15.862,27.473l-5.571,34.983c-0.57,3.576-2.611,6.798-5.599,8.84l-30.954,21.147
	c-7.805,5.333-13.063,13.387-14.805,22.68l-4.933,26.327L131.428,451.2l14.04,8.106L168.235,419.874z"/>
<path style="fill:#CEDDF7;" d="M320.635,183.791c2.499-2.144,4.607-4.669,6.293-7.491l-27.806-16.054l-19.762,16.945
	c-7.177,6.154-11.523,14.735-12.239,24.161l-2.836,37.38c-0.275,3.61-2.045,6.989-4.857,9.27l-13.567,11.005l29.561,17.067
	l4.088-3.316c9.588-7.778,15.624-19.299,16.56-31.611l2.837-37.381c0.071-0.927,0.498-1.771,1.203-2.376L320.635,183.791z"/>
<path style="fill:#AAC5EE;" d="M259.599,266.939c9.645-9.471,16.772-11.933,17.839-20.613l4.468-36.437
	c1.128-9.189,5.526-17.739,12.388-24.075l18.893-17.446l-14.065-8.121c-18.442,15.813-30.604,22.718-32.001,41.106
	c-3.048,40.176-2.82,37.683-3.008,38.721c-1.397,7.704-7.655,9.447-18.251,18.934L259.599,266.939z"/>
<path style="fill:#CEDDF7;" d="M185.48,417.886c-0.607,3.237-1.74,6.324-3.341,9.196l-27.806-16.054l4.794-25.587
	c1.741-9.292,7-17.346,14.805-22.68l30.954-21.146c2.989-2.043,5.03-5.265,5.6-8.841l2.747-17.252l29.561,17.067
	c-0.677,1.973-0.647,22.172-19.924,35.346l-30.954,21.147c-0.768,0.525-1.285,1.317-1.456,2.229L185.48,417.886z"/>
<path style="fill:#AAC5EE;" d="M154.333,411.028l14.065,8.121l5.662-25.085c2.057-9.11,7.262-17.195,14.656-22.766l29.322-22.089
	c6.997-5.272,5.562-12.71,8.931-25.754l-13.738-7.932l-2.747,17.252c-0.57,3.576-2.611,6.798-5.6,8.841l-30.954,21.146
	c-1.951,1.333-3.743,2.837-5.361,4.487c-4.853,4.951-8.137,11.223-9.443,18.193L154.333,411.028z"/>
<path style="fill:#7477AD;" d="M382.911,118.036l-60.895-35.158c-3.163-1.826-7.253-0.662-9.136,2.599l-9.616,16.656
	c-1.883,3.261-0.845,7.386,2.317,9.212l60.895,35.158c3.163,1.826,7.253,0.662,9.136-2.599l9.616-16.656
	C387.111,123.986,386.073,119.862,382.911,118.036z"/>
<path style="fill:#65669E;" d="M332.975,119.616l9.9-17.148c1.488-2.577,4.119-3.988,6.551-3.764l-27.411-15.826
	c-3.163-1.826-7.253-0.663-9.136,2.599l-9.616,16.656c-1.883,3.261-0.845,7.386,2.318,9.212l27.411,15.826
	C331.582,125.177,331.487,122.193,332.975,119.616z"/>
<path style="fill:#7477AD;" d="M176.033,476.359l-60.895-35.158c-3.163-1.826-7.248-0.672-9.124,2.578l-7.925,13.727
	c21.845,17.143,46.555,30.795,73.281,40.155l6.992-12.111C180.238,482.3,179.195,478.186,176.033,476.359z"/>
<path style="fill:#65669E;" d="M115.138,441.202c-3.163-1.826-7.248-0.672-9.124,2.578l-7.925,13.727
	c9.418,7.391,19.372,14.129,29.787,20.158l9.349-16.192c1.422-2.463,3.841-3.892,6.189-3.945L115.138,441.202z"/>
<g>
</g>
<g>
</g>
<g>
</g>
<g>
</g>
<g>
</g>
<g>
</g>
<g>
</g>
<g>
</g>
<g>
</g>
<g>
</g>
<g>
</g>
<g>
</g>
<g>
</g>
<g>
</g>
<g>
</g>
</svg>
