<?xml version="1.0" encoding="iso-8859-1"?>
<!-- Generator: Adobe Illustrator 19.0.0, SVG Export Plug-In . SVG Version: 6.00 Build 0)  -->
<svg version="1.1" id="Capa_1" xmlns="http://www.w3.org/2000/svg" xmlns:xlink="http://www.w3.org/1999/xlink" x="0px" y="0px"
	 viewBox="0 0 512 512" style="enable-background:new 0 0 512 512;" xml:space="preserve">
<circle style="fill:#61CBF8;" cx="256" cy="256.419" r="255.581"/>
<path style="fill:#65669E;" d="M358.079,108.394l49.81-86.274c2.273-3.939,0.938-8.965-2.982-11.23l-16.966-9.795
	c-3.921-2.263-8.942-0.907-11.216,3.032l-49.81,86.274L358.079,108.394z"/>
<path style="fill:#504A7F;" d="M399.509,7.774l-11.568-6.679c-3.921-2.263-8.942-0.907-11.216,3.032l-49.81,86.274l15.104,8.721
	l49.81-86.273c2.236-3.875,5.64-6.104,7.673-5.065C399.504,7.78,399.507,7.777,399.509,7.774z"/>
<rect x="51.928" y="272.628" transform="matrix(-0.5 0.866 -0.866 -0.5 599.821 230.2941)" style="fill:#AAC5EE;" width="363.006" height="31.341"/>
<rect x="45.138" y="276.544" transform="matrix(-0.5 0.866 -0.866 -0.5 586.2415 230.2966)" style="fill:#8FB1DB;" width="363.006" height="15.671"/>
<path style="fill:#65669E;" d="M367.646,113.363L317.827,84.6c-3.11-1.795-7.086-0.73-8.881,2.38l-4.584,7.941l61.081,35.265
	l4.584-7.941C371.821,119.136,370.756,115.159,367.646,113.363z"/>
<path style="fill:#504A7F;" d="M333.028,106.695L333.028,106.695l2.516-4.358c1.795-3.11,4.674-4.809,6.429-3.796l0,0L317.827,84.6
	c-3.11-1.795-7.086-0.73-8.881,2.38l-4.584,7.941l26.578,15.345L333.028,106.695z"/>
<path style="fill:#65669E;" d="M96.283,455.322c-0.083,0.143-0.153,0.29-0.224,0.436c18.23,14.646,38.5,26.855,60.333,36.103
	c0.365-0.377,0.696-0.799,0.97-1.274l4.584-7.941l-61.081-35.265L96.283,455.322z"/>
<path style="fill:#504A7F;" d="M125.79,461.771l-24.922-14.389l-4.584,7.941c-0.083,0.143-0.153,0.29-0.224,0.436
	c7.424,5.964,15.192,11.517,23.26,16.638L125.79,461.771z"/>
<rect x="229.352" y="232.458" transform="matrix(-0.5 0.866 -0.866 -0.5 599.8309 149.9485)" style="fill:#CEDDF7;" width="54.556" height="31.341"/>
<rect x="222.561" y="236.374" transform="matrix(-0.5 0.866 -0.866 -0.5 586.2513 149.951)" style="fill:#AAC5EE;" width="54.556" height="15.671"/>
<rect x="182.388" y="313.782" transform="matrix(-0.5 0.866 -0.866 -0.5 599.8136 312.6076)" style="fill:#CEDDF7;" width="54.556" height="31.341"/>
<rect x="175.606" y="317.703" transform="matrix(-0.5 0.866 -0.866 -0.5 586.2504 312.6101)" style="fill:#AAC5EE;" width="54.556" height="15.67"/>
<path style="fill:#7477AD;" d="M364.999,129.556l-59.873-34.567c-3.11-1.795-7.101-0.704-8.915,2.438l-9.264,16.046
	c-1.814,3.142-0.764,7.144,2.346,8.94l59.873,34.567c3.11,1.795,7.101,0.704,8.915-2.438l9.264-16.046
	C369.159,135.354,368.109,131.352,364.999,129.556z"/>
<path style="fill:#65669E;" d="M313.776,129.238l9.503-16.461c1.458-2.524,3.957-3.939,6.192-3.734l-24.344-14.055
	c-3.11-1.795-7.101-0.704-8.915,2.438l-9.264,16.046c-1.814,3.142-0.764,7.144,2.346,8.94l24.384,14.078
	C312.359,134.66,312.309,131.779,313.776,129.238z"/>
<path style="fill:#7477AD;" d="M161.282,482.404l-59.873-34.567c-3.11-1.795-4.169-5.781-2.367-8.903l9.205-15.943
	c1.802-3.122,5.785-4.197,8.894-2.402l59.873,34.567c3.11,1.795,4.169,5.781,2.367,8.903l-9.205,15.943
	C168.375,483.123,164.392,484.199,161.282,482.404z"/>
<path style="fill:#65669E;" d="M125.881,454.832l9.503-16.461c1.458-2.524,3.958-3.939,6.192-3.734l-24.344-14.055
	c-3.11-1.795-7.101-0.704-8.915,2.438l-9.264,16.046c-1.814,3.142-0.764,7.144,2.346,8.94l24.384,14.078
	C124.464,460.254,124.415,457.373,125.881,454.832z"/>
<g>
</g>
<g>
</g>
<g>
</g>
<g>
</g>
<g>
</g>
<g>
</g>
<g>
</g>
<g>
</g>
<g>
</g>
<g>
</g>
<g>
</g>
<g>
</g>
<g>
</g>
<g>
</g>
<g>
</g>
</svg>
