<?xml version="1.0" encoding="iso-8859-1"?>
<!-- Generator: Adobe Illustrator 19.0.0, SVG Export Plug-In . SVG Version: 6.00 Build 0)  -->
<svg version="1.1" id="Capa_1" xmlns="http://www.w3.org/2000/svg" xmlns:xlink="http://www.w3.org/1999/xlink" x="0px" y="0px"
	 viewBox="0 0 512 512" style="enable-background:new 0 0 512 512;" xml:space="preserve">
<circle style="fill:#FF5252;" cx="256" cy="256" r="256"/>
<path style="fill:#FBCC68;" d="M169.949,452.259C120.705,480.69,57.511,463.757,29.08,414.513S17.582,302.075,66.826,273.644
	s112.438-11.498,140.869,37.746S219.193,423.828,169.949,452.259z M80.563,297.437c-36.125,20.857-48.546,67.215-27.689,103.34
	s67.215,48.547,103.34,27.69s48.546-67.215,27.689-103.34S116.687,276.58,80.563,297.437z"/>
<path style="fill:#FDBF49;" d="M121.997,438.485c-27.366,1.262-54.508-12.392-69.124-37.709
	c-14.616-25.316-12.87-55.648,1.906-78.717c4.113-21.679,15.112-41.953,32.041-57.285c-6.831,2.198-13.533,5.14-19.994,8.87
	C17.582,302.075,0.65,365.269,29.081,414.513s91.625,66.177,140.869,37.746c6.461-3.73,12.359-8.064,17.678-12.88
	C165.886,446.374,142.828,445.763,121.997,438.485z"/>
<path style="fill:#FFB229;" d="M68.531,272.709l13.322,24.028c10.838-6.004,23.292-9.435,36.535-9.435s25.697,3.431,36.535,9.435
	l13.322-24.028c-14.786-8.202-31.784-12.881-49.857-12.881S83.317,264.508,68.531,272.709z"/>
<path style="fill:#F2A120;" d="M130.983,278.283c0-7.695,5.635-14.056,12.999-15.229c-8.187-2.101-16.761-3.225-25.594-3.225
	c-18.073,0-35.071,4.679-49.857,12.88l13.322,24.028c10.839-6.004,23.292-9.435,36.535-9.435c5.92,0,11.681,0.69,17.212,1.985
	C132.752,286.485,130.983,282.592,130.983,278.283z"/>
<path style="fill:#FBCC68;" d="M445.173,452.259c-49.244,28.431-112.438,11.498-140.869-37.746
	c-28.431-49.244-11.499-112.438,37.745-140.869s112.438-11.498,140.869,37.746S494.417,423.828,445.173,452.259z M355.787,297.437
	c-36.125,20.857-48.546,67.215-27.689,103.34s67.215,48.547,103.34,27.69s48.546-67.215,27.69-103.34
	S391.911,276.58,355.787,297.437z"/>
<path style="fill:#FDBF49;" d="M397.221,438.485c-27.366,1.262-54.508-12.392-69.124-37.709
	c-14.616-25.316-12.87-55.648,1.906-78.717c4.113-21.679,15.112-41.953,32.041-57.285c-6.831,2.198-13.533,5.14-19.994,8.87
	c-49.244,28.431-66.176,91.625-37.745,140.869s91.625,66.177,140.869,37.746c6.461-3.73,12.359-8.064,17.678-12.88
	C441.11,446.374,418.052,445.763,397.221,438.485z"/>
<path style="fill:#FFB229;" d="M343.755,272.709l13.322,24.028c10.839-6.004,23.292-9.435,36.535-9.435s25.697,3.431,36.535,9.435
	l13.322-24.028c-14.786-8.202-31.784-12.881-49.857-12.881S358.541,264.508,343.755,272.709z"/>
<path style="fill:#F2A120;" d="M406.207,278.283c0-7.695,5.635-14.056,12.999-15.229c-8.187-2.101-16.761-3.225-25.594-3.225
	c-18.073,0-35.071,4.679-49.857,12.88l13.322,24.028c10.839-6.004,23.292-9.435,36.535-9.435c5.92,0,11.681,0.69,17.212,1.985
	C407.976,286.485,406.207,282.592,406.207,278.283z"/>
<g>
	<path style="fill:#CEDDF7;" d="M118.388,296.677c-4.215,0-7.631-3.416-7.631-7.631V48.307c0-4.215,3.417-7.631,7.631-7.631
		s7.631,3.416,7.631,7.631v240.739C126.019,293.261,122.603,296.677,118.388,296.677z"/>
	<path style="fill:#CEDDF7;" d="M393.612,296.677c-4.215,0-7.631-3.416-7.631-7.631V48.307c0-4.215,3.417-7.631,7.631-7.631
		s7.631,3.416,7.631,7.631v240.739C401.243,293.261,397.827,296.677,393.612,296.677z"/>
</g>
<path style="fill:#7B3C47;" d="M413.804,54.412C370.321,20.325,315.535,0,256,0S141.679,20.325,98.196,54.412H413.804z"/>
<path style="fill:#66313E;" d="M231,27.206c0-11.761,6.66-21.96,16.411-27.05C191.203,2.01,139.579,21.972,98.196,54.412h149.519
	C237.799,49.376,231,39.088,231,27.206z"/>
<g>
	<path style="fill:#8C4F5C;" d="M104.651,49.531v5.988c0,3.603,2.921,6.524,6.524,6.524h14.426c3.603,0,6.524-2.921,6.524-6.524
		V31.933C122.576,37.223,113.402,43.105,104.651,49.531z"/>
	<path style="fill:#8C4F5C;" d="M379.875,31.932v23.587c0,3.603,2.921,6.524,6.524,6.524h14.426c3.603,0,6.524-2.921,6.524-6.524
		V49.53C398.597,43.105,389.424,37.223,379.875,31.932z"/>
	<path style="fill:#8C4F5C;" d="M323.746,34.57H188.254c-4.215,0-7.631-3.416-7.631-7.631s3.417-7.631,7.631-7.631h135.493
		c4.215,0,7.631,3.416,7.631,7.631S327.961,34.57,323.746,34.57z"/>
</g>
<path style="fill:#7B3C47;" d="M225.622,26.939c0-4.215,3.417-7.631,7.631-7.631h-45c-4.215,0-7.631,3.416-7.631,7.631
	s3.417,7.631,7.631,7.631h45C229.039,34.57,225.622,31.154,225.622,26.939z"/>
<g>
</g>
<g>
</g>
<g>
</g>
<g>
</g>
<g>
</g>
<g>
</g>
<g>
</g>
<g>
</g>
<g>
</g>
<g>
</g>
<g>
</g>
<g>
</g>
<g>
</g>
<g>
</g>
<g>
</g>
</svg>
