<?xml version="1.0" encoding="iso-8859-1"?>
<!-- Generator: Adobe Illustrator 19.0.0, SVG Export Plug-In . SVG Version: 6.00 Build 0)  -->
<svg version="1.1" id="Capa_1" xmlns="http://www.w3.org/2000/svg" xmlns:xlink="http://www.w3.org/1999/xlink" x="0px" y="0px"
	 viewBox="0 0 512.007 512.007" style="enable-background:new 0 0 512.007 512.007;" xml:space="preserve">
<ellipse style="fill:#BCCC23;" cx="256.027" cy="255.864" rx="255.822" ry="255.822"/>
<path style="fill:#504A7F;" d="M102.049,80.058c-32.754,18.91-59.704,44.007-80.25,72.954
	C-9.744,224.997-7.827,310.507,34.483,383.79c90.555,156.846,311.152,172.16,422.675,30.281
	c36.716-73.834,36.937-164.077-7.381-240.838C379.483,51.481,223.8,9.766,102.049,80.058z"/>
<path style="fill:#3B3868;" d="M114.959,213.635c0-60.133,19.841-115.632,53.33-160.311c-22.691,5.614-44.984,14.461-66.24,26.734
	c-32.754,18.91-59.704,44.007-80.25,72.954C-9.744,224.997-7.827,310.507,34.483,383.79
	c69.375,120.161,221.505,162.74,342.832,97.329C231.951,478.35,114.959,359.662,114.959,213.635z"/>
<path style="fill:#65669E;" d="M361.841,83.12c-71.815-29.285-163.355-23.214-244.409,23.582
	C66.113,136.331,26.837,177.765,2.246,223.678C-20.939,405.348,150.821,553.926,328.54,501.257
	c89.498-46.452,144.386-127.233,155.308-206.813c-0.947-41.286-11.967-82.926-34.071-121.211
	C427.673,134.946,397.121,104.583,361.841,83.12z"/>
<path style="fill:#504A7F;" d="M328.582,501.235c11.613-6.03,23.084-12.857,34.537-20.765
	c-138.709-9.937-248.159-125.593-248.159-266.835c0-43.33,10.304-84.252,28.591-120.455c-8.8,4.054-17.518,8.556-26.117,13.521
	c-51.319,29.63-90.595,71.064-115.186,116.977C-21.148,407.003,152.053,553.599,328.582,501.235z"/>
<path style="fill:#7477AD;" d="M475.932,252.254c-3.23-27.357-11.79-54.142-26.155-79.023
	c-14.364-24.88-33.282-45.686-55.358-62.162c-64.568-12.498-154.999,6.63-241.729,56.702
	C86.566,205.949,34.97,254.985,4.662,303.681c15.039,79.07,67.854,150.772,147.737,186.09
	c48.275-7.632,101.581-26.513,153.562-56.525C392.691,383.174,454.47,314.42,475.932,252.254z"/>
<path style="fill:#65669E;" d="M152.4,489.771c35.796-5.659,74.358-17.509,113.095-35.49
	C176.373,410.874,114.96,319.434,114.96,213.635c0-7.576,0.322-15.076,0.939-22.493C67.353,224.968,29.09,264.433,4.663,303.68
	C19.918,384.162,74.273,455.23,152.4,489.771z"/>
<g>
	<path style="fill:#61CBF8;" d="M298.89,233.338l-14.482-25.083c-2.008-3.478-5.871-5.379-9.726-4.836
		c-26.452,3.725-55.644,13.787-84,30.158s-51.665,36.622-68.118,57.667c-2.397,3.067-2.682,7.363-0.675,10.841l14.482,25.083
		L298.89,233.338z"/>
	<path style="fill:#61CBF8;" d="M160.125,368.309l98.57,10.02c9.905,1.007,19.259-4.393,23.34-13.476l40.608-90.375L160.125,368.309
		z"/>
</g>
<g>
	<path style="fill:#52AFE5;" d="M181.989,300.83l-0.482,0.278l-14.482-25.083c-2.008-3.478-2.658-7.234-1.671-9.487
		c6.34-14.459,16.786-27.128,30.847-36.062c-1.843,1.007-3.683,2.039-5.518,3.099c-28.356,16.371-51.665,36.622-68.118,57.667
		c-2.397,3.067-2.682,7.363-0.675,10.841l14.482,25.083L181.989,300.83L181.989,300.83z"/>
	<path style="fill:#52AFE5;" d="M272.365,370.245L206.77,341.38l-46.644,26.93l98.57,10.02c7.205,0.733,14.108-1.938,18.912-6.936
		C276.027,371.442,274.266,371.082,272.365,370.245z"/>
</g>
<path style="fill:#CAE03C;" d="M314.684,222.015L118.67,335.184c-2.59,1.496-3.479,4.809-1.983,7.399l19.882,34.437
	c1.496,2.59,4.809,3.479,7.399,1.983l196.015-113.169c2.59-1.496,3.478-4.809,1.983-7.399l-19.882-34.437
	C320.587,221.408,317.275,220.52,314.684,222.015z"/>
<path style="fill:#BCCC23;" d="M191.373,345.379l-19.882-34.437c-1.496-2.59-1.555-5.356-0.133-6.178l-52.687,30.419
	c-2.59,1.496-3.479,4.809-1.983,7.399l19.882,34.437c1.496,2.59,4.809,3.479,7.399,1.983l52.687-30.419
	C195.234,349.404,192.868,347.97,191.373,345.379z"/>
<g>
</g>
<g>
</g>
<g>
</g>
<g>
</g>
<g>
</g>
<g>
</g>
<g>
</g>
<g>
</g>
<g>
</g>
<g>
</g>
<g>
</g>
<g>
</g>
<g>
</g>
<g>
</g>
<g>
</g>
</svg>
