<?xml version="1.0" encoding="iso-8859-1"?>
<!-- Generator: Adobe Illustrator 19.0.0, SVG Export Plug-In . SVG Version: 6.00 Build 0)  -->
<svg version="1.1" id="Capa_1" xmlns="http://www.w3.org/2000/svg" xmlns:xlink="http://www.w3.org/1999/xlink" x="0px" y="0px"
	 viewBox="0 0 512 512" style="enable-background:new 0 0 512 512;" xml:space="preserve">
<circle style="fill:#BCCC23;" cx="256" cy="262.95" r="249.05"/>
<path style="fill:#65669E;" d="M256,512c91.902,0,172.167-49.785,215.325-123.85l29.477-255.735
	c3.992-34.641-23.079-65.276-58.184-65.276h-42.6c-22.354,0-43.346-10.125-57.817-27.164C321.444,15.534,290.503,0,256,0
	s-65.443,15.534-86.2,39.975c-14.804,17.431-36.754,27.164-59.623,27.164H69.384c-34.868,0-62.204,30.4-58.184,65.276
	l29.477,255.739C83.836,462.217,164.1,512,256,512z"/>
<path style="fill:#504A7F;" d="M78.771,140.751c-3.4-29.5,9.238-56.706,30.542-73.612h-39.93c-34.868,0-62.204,30.4-58.184,65.276
	l29.477,255.739c18.913,32.456,44.953,60.248,75.974,81.232L78.771,140.751z"/>
<path style="fill:#61CBF8;" d="M442.618,97.703h-58.527c-8.373,0-15.021,6.848-15.01,15.221c0,0.052,0,0.104,0,0.156
	c0,62.354-50.728,113.082-113.081,113.082S142.92,175.434,142.92,113.08c0-0.052,0-0.104,0-0.156
	c0.011-8.373-6.637-15.221-15.01-15.221H69.384c-16.914,0-29.721,14.725-27.821,31.212l35.402,307.143
	c24.736,25.581,54.905,45.873,88.646,59.023h180.778c33.742-13.15,63.911-33.443,88.648-59.025l35.402-307.141
	C472.343,112.403,459.513,97.703,442.618,97.703z"/>
<path style="fill:#52AFE5;" d="M78.771,140.751c-1.769-15.347,0.811-30.069,6.686-43.048H69.384
	c-16.915,0-29.721,14.725-27.821,31.212L76.961,436.02c12.017,12.441,25.281,23.599,39.687,33.342L78.771,140.751z"/>
<path style="fill:#504A7F;" d="M312.54,211.012c-53.999,31.177-123.295,12.609-154.472-41.391
	C126.893,115.622,145.46,46.326,199.46,15.15S322.755,2.541,353.931,56.54S366.54,179.835,312.54,211.012z"/>
<path style="fill:#3B3868;" d="M211.474,138.787C185.64,94.042,193.963,38.793,228.299,3.434
	c-9.883,2.493-19.586,6.374-28.839,11.716c-53.999,31.177-72.567,100.472-41.391,154.471c31.177,54,100.472,72.568,154.472,41.391
	c9.253-5.342,17.465-11.805,24.566-19.117C289.316,203.95,237.308,183.533,211.474,138.787z"/>
<path style="fill:#61CBF8;" d="M255.999,30.564c-45.5,0-82.517,37.017-82.517,82.516c0,45.5,37.017,82.517,82.517,82.517
	s82.517-37.017,82.517-82.517C338.516,67.581,301.499,30.564,255.999,30.564z"/>
<path style="fill:#52AFE5;" d="M211.474,138.787c-15.762-27.3-18.787-58.505-10.969-86.723
	c-16.592,15.104-27.023,36.864-27.023,61.016c0,45.5,37.017,82.518,82.517,82.518c8.769,0,17.218-1.388,25.153-3.934
	C252.782,184.336,227.247,166.107,211.474,138.787z"/>
<g>
	<path style="fill:#86DDFC;" d="M232.434,432.264H121.889c-4.689,0-8.49-3.801-8.49-8.49s3.801-8.49,8.49-8.49h110.545
		c4.689,0,8.49,3.801,8.49,8.49S237.123,432.264,232.434,432.264z"/>
	<path style="fill:#86DDFC;" d="M232.434,364.507H113.006c-4.689,0-8.49-3.801-8.49-8.49s3.801-8.49,8.49-8.49h119.427
		c4.689,0,8.49,3.801,8.49,8.49C240.924,360.706,237.123,364.507,232.434,364.507z"/>
	<path style="fill:#86DDFC;" d="M232.434,398.385H117.448c-4.689,0-8.49-3.801-8.49-8.49s3.801-8.49,8.49-8.49h114.986
		c4.689,0,8.49,3.801,8.49,8.49S237.123,398.385,232.434,398.385z"/>
	<path style="fill:#86DDFC;" d="M215.454,296.75h-111.33c-4.689,0-8.49-3.801-8.49-8.49s3.801-8.49,8.49-8.49h111.33
		c4.689,0,8.49,3.801,8.49,8.49S220.143,296.75,215.454,296.75z"/>
	<path style="fill:#86DDFC;" d="M215.454,330.628H108.565c-4.689,0-8.49-3.801-8.49-8.49s3.801-8.49,8.49-8.49h106.889
		c4.689,0,8.49,3.801,8.49,8.49S220.143,330.628,215.454,330.628z"/>
	<path style="fill:#86DDFC;" d="M149.574,228.992H95.24c-4.689,0-8.49-3.801-8.49-8.49s3.801-8.49,8.49-8.49h54.334
		c4.689,0,8.49,3.801,8.49,8.49S154.263,228.992,149.574,228.992z"/>
	<path style="fill:#86DDFC;" d="M189.022,262.87h-89.34c-4.689,0-8.49-3.801-8.49-8.49c0-4.689,3.801-8.49,8.49-8.49h89.34
		c4.689,0,8.49,3.801,8.49,8.49C197.512,259.07,193.711,262.87,189.022,262.87z"/>
	<path style="fill:#86DDFC;" d="M390.111,432.264H279.566c-4.689,0-8.49-3.801-8.49-8.49s3.801-8.49,8.49-8.49h110.545
		c4.689,0,8.49,3.801,8.49,8.49S394.8,432.264,390.111,432.264z"/>
	<path style="fill:#86DDFC;" d="M398.994,364.507H279.566c-4.689,0-8.49-3.801-8.49-8.49s3.801-8.49,8.49-8.49h119.428
		c4.689,0,8.49,3.801,8.49,8.49S403.683,364.507,398.994,364.507z"/>
	<path style="fill:#86DDFC;" d="M394.553,398.385H279.566c-4.689,0-8.49-3.801-8.49-8.49s3.801-8.49,8.49-8.49h114.987
		c4.689,0,8.49,3.801,8.49,8.49S399.242,398.385,394.553,398.385z"/>
	<path style="fill:#86DDFC;" d="M407.877,296.75H296.546c-4.689,0-8.49-3.801-8.49-8.49s3.801-8.49,8.49-8.49h111.331
		c4.689,0,8.49,3.801,8.49,8.49C416.367,292.949,412.566,296.75,407.877,296.75z"/>
	<path style="fill:#86DDFC;" d="M403.436,330.628h-106.89c-4.689,0-8.49-3.801-8.49-8.49s3.801-8.49,8.49-8.49h106.89
		c4.689,0,8.49,3.801,8.49,8.49S408.125,330.628,403.436,330.628z"/>
	<path style="fill:#86DDFC;" d="M416.76,228.992h-54.334c-4.689,0-8.49-3.801-8.49-8.49s3.801-8.49,8.49-8.49h54.334
		c4.689,0,8.49,3.801,8.49,8.49S421.449,228.992,416.76,228.992z"/>
	<path style="fill:#86DDFC;" d="M412.319,262.87h-89.341c-4.689,0-8.49-3.801-8.49-8.49c0-4.689,3.801-8.49,8.49-8.49h89.341
		c4.689,0,8.49,3.801,8.49,8.49C420.809,259.07,417.008,262.87,412.319,262.87z"/>
</g>
<path style="fill:#52AFE5;" d="M330.784,464.517H181.216c-6.928,0-12.544,5.616-12.544,12.544v18.02h174.657v-18.02
	C343.328,470.133,337.712,464.517,330.784,464.517z"/>
<path style="fill:#4BA1DB;" d="M268.544,464.517h-87.328c-6.928,0-12.544,5.616-12.544,12.544v18.02H256v-18.02
	C256,470.133,261.616,464.517,268.544,464.517z"/>
<path style="fill:#86DDFC;" d="M277.225,169.581h-42.45c-4.689,0-8.49-3.801-8.49-8.49s3.801-8.49,8.49-8.49h42.45
	c4.689,0,8.49,3.801,8.49,8.49S281.914,169.581,277.225,169.581z"/>
<path style="fill:#FF5252;" d="M269.689,134.66c-8.197,5.543-19.303,5.736-27.834-0.346l0,0
	c-10.972-7.822-13.525-23.057-5.703-34.029l17.241-24.183c1.272-1.784,3.921-1.784,5.193,0l17.266,24.218
	C283.726,111.368,281.121,126.912,269.689,134.66z"/>
<path style="fill:#EA3D3D;" d="M254.173,110.391l2.328-32.842c0.067-0.941,0.488-1.744,1.107-2.323
	c-1.365-0.808-3.213-0.527-4.215,0.877l-17.241,24.183c-7.822,10.972-5.269,26.207,5.703,34.028
	c7.885,5.621,17.965,5.871,25.92,1.502C259.017,130.825,253.413,121.118,254.173,110.391z"/>
<path style="fill:#FF7171;" d="M255.999,122.115c-4.465,0-8.49-3.599-8.49-8.501c0-5.289,4.856-9.36,10.154-8.32
	c4.079,0.864,6.826,4.326,6.826,8.32C264.489,118.405,260.568,122.115,255.999,122.115z"/>
<g>
	<path style="fill:#4BA1DB;" d="M199.299,80.344c2.344-4.062,0.952-9.254-3.109-11.598l-6.986-4.033
		c-3.317,4.568-6.173,9.488-8.51,14.693l7.007,4.044C191.744,85.784,196.944,84.423,199.299,80.344z"/>
	<path style="fill:#4BA1DB;" d="M182.036,121.571c4.689,0,8.49-3.801,8.49-8.49c0-4.689-3.801-8.49-8.49-8.49h-8.119
		c-0.287,2.791-0.435,5.623-0.435,8.489c0,2.867,0.149,5.699,0.435,8.491H182.036z"/>
	<path style="fill:#4BA1DB;" d="M321.474,113.081c0,4.689,3.801,8.49,8.49,8.49h8.117c0.287-2.792,0.435-5.625,0.435-8.491
		s-0.148-5.698-0.435-8.489h-8.117C325.275,104.591,321.474,108.392,321.474,113.081z"/>
	<path style="fill:#4BA1DB;" d="M211.665,53.271c2.356,4.082,7.555,5.441,11.598,3.109c4.061-2.344,5.453-7.536,3.109-11.596
		l-4.044-7.007c-5.205,2.336-10.125,5.192-14.694,8.509L211.665,53.271z"/>
	<path style="fill:#4BA1DB;" d="M324.3,83.451l7.004-4.043c-2.337-5.205-5.192-10.125-8.51-14.693l-6.984,4.032
		c-4.06,2.344-5.452,7.536-3.108,11.598C315.053,84.417,320.25,85.788,324.3,83.451z"/>
	<path style="fill:#4BA1DB;" d="M292.974,57.518c2.934,0,5.788-1.522,7.36-4.246l4.032-6.984c-4.569-3.318-9.489-6.174-14.693-8.51
		l-4.044,7.004C282.347,50.468,286.506,57.518,292.974,57.518z"/>
	<path style="fill:#4BA1DB;" d="M264.49,39.117V31c-2.792-0.287-5.625-0.436-8.491-0.436s-5.698,0.148-8.489,0.435v8.118
		c0,4.689,3.801,8.49,8.49,8.49C260.689,47.607,264.49,43.807,264.49,39.117z"/>
</g>
<g>
</g>
<g>
</g>
<g>
</g>
<g>
</g>
<g>
</g>
<g>
</g>
<g>
</g>
<g>
</g>
<g>
</g>
<g>
</g>
<g>
</g>
<g>
</g>
<g>
</g>
<g>
</g>
<g>
</g>
</svg>
