<?xml version="1.0" encoding="iso-8859-1"?>
<!-- Generator: Adobe Illustrator 19.0.0, SVG Export Plug-In . SVG Version: 6.00 Build 0)  -->
<svg version="1.1" id="Capa_1" xmlns="http://www.w3.org/2000/svg" xmlns:xlink="http://www.w3.org/1999/xlink" x="0px" y="0px"
	 viewBox="0 0 512.001 512.001" style="enable-background:new 0 0 512.001 512.001;" xml:space="preserve">
<circle style="fill:#504A7F;" cx="256" cy="256.001" r="256"/>
<path style="fill:#3B3868;" d="M19.152,353.285C57.448,446.418,149.058,512.001,256,512.001s198.552-65.583,236.847-158.716H19.152z
	"/>
<path style="fill:#31315B;" d="M247.435,353.285H19.152c36.652,89.136,122.142,153.026,223.167,158.348
	C140.291,506.016,144.993,353.285,247.435,353.285z"/>
<path id="SVGCleanerId_0" style="fill:#61CBF8;" d="M266.223,106.022L266.223,106.022c-54.638,24.012-106.479,53.939-154.596,89.245
	l-0.072,0.052l-10.042,5.798l31.446,54.466l10.042-5.798l0.081-0.036c54.635-24.017,106.473-53.95,154.587-89.262l0,0l10.119-5.842
	l-31.446-54.466L266.223,106.022z"/>
<g>
	<path id="SVGCleanerId_0_1_" style="fill:#61CBF8;" d="M266.223,106.022L266.223,106.022
		c-54.638,24.012-106.479,53.939-154.596,89.245l-0.072,0.052l-10.042,5.798l31.446,54.466l10.042-5.798l0.081-0.036
		c54.635-24.017,106.473-53.95,154.587-89.262l0,0l10.119-5.842l-31.446-54.466L266.223,106.022z"/>
</g>
<path style="fill:#5ABDEE;" d="M128.717,224.84l0.074-0.049c50.088-33.057,102.438-63.279,156.111-90.125l8.513-4.915
	l-17.073-29.572l-10.119,5.843c-54.637,24.012-106.479,53.938-154.596,89.245l-0.072,0.052l-10.042,5.798l17.073,29.571
	L128.717,224.84z"/>
<g>
	<path style="fill:#86DDFC;" d="M111.555,195.32L81.5,177.967c-15.576-8.992-34.766-8.992-50.341,0L8.29,191.17
		C2.886,211.877,0,233.601,0,256.001c0,29.062,4.852,56.988,13.774,83.025l17.384,10.037c15.576,8.993,34.766,8.992,50.341,0
		l36.33-20.975C133.405,319.095,143,302.476,143,284.491v-34.705L111.555,195.32z"/>
	<path style="fill:#86DDFC;" d="M414.396,27.721L378.065,6.745c-15.576-8.992-34.765-8.993-50.341,0l-36.33,20.975
		c-15.576,8.993-25.171,25.612-25.171,43.597v34.705l31.446,54.465l30.055,17.353c15.576,8.993,34.766,8.992,50.341,0l36.33-20.975
		c15.576-8.993,25.17-25.611,25.17-43.597V71.317C439.566,53.333,429.971,36.714,414.396,27.721z"/>
</g>
<g>
	<path style="fill:#61CBF8;" d="M25.265,251.662l36.33-20.975c15.576-8.993,32.453-12.999,44.273-10.51l22.81,4.803l0,0
		l-17.124-29.66L81.5,177.967c-15.575-8.992-34.766-8.992-50.341,0L8.29,191.17C2.886,211.877,0,233.601,0,256.001
		c0,5.646,0.188,11.248,0.549,16.803C6.344,265.091,14.998,257.589,25.265,251.662z"/>
	<path style="fill:#61CBF8;" d="M283.326,135.646l7.257-22.135c3.761-11.471,15.673-24.077,31.249-33.07l36.33-20.976
		c15.576-8.992,32.448-13.005,44.263-10.526l27.559,5.781c3.043,0.639,5.622,1.689,7.724,3.083
		c-3.492-12.522-11.748-23.406-23.312-30.083L378.065,6.746c-15.576-8.993-34.765-8.993-50.341,0l-36.33,20.975
		c-15.576,8.993-25.171,25.612-25.171,43.597v34.705L283.326,135.646L283.326,135.646z"/>
	<path style="fill:#61CBF8;" d="M399.238,65.536c-14.736-25.524-32.245-47.574-50.96-65.298c10.199-0.938,20.618,1.213,29.786,6.507
		l36.331,20.976c15.576,8.993,25.171,25.612,25.171,43.597v41.951c0,10.587-3.346,20.686-9.258,29.049
		C424.316,117.249,413.975,91.061,399.238,65.536z"/>
</g>
<path style="fill:#5ABDEE;" d="M416.961,29.319c-2.589-1.711-1.267-0.802-32.222-18.72c-4.183-1.967-13.86-10.167-30.632-10.559
	c-0.033-0.001-0.067-0.003-0.1-0.003c-1.911-0.041-3.823,0.026-5.728,0.202l0,0c14.446,13.682,28.168,29.951,40.457,48.396
	c4.984-0.615,9.638-0.546,13.689,0.304l27.559,5.781c3.043,0.639,5.622,1.689,7.724,3.083
	C434.49,46.269,427.156,36.047,416.961,29.319z"/>
<path style="fill:#FF5252;" d="M337.784,319.204L337.784,319.204c-59.323-6.524-119.183-6.527-178.507-0.01l-0.088,0.01h-11.595
	v62.892h11.595l0.088,0.01c59.324,6.518,119.184,6.514,178.507-0.01l0,0h11.685v-62.892H337.784z"/>
<path style="fill:#EA3D3D;" d="M159.277,350.336l-0.088-0.005h-11.595v31.766h11.595l0.088,0.01
	c59.324,6.518,119.184,6.514,178.507-0.01h11.685v-31.766h-11.685C278.46,353.797,218.601,353.799,159.277,350.336z"/>
<g>
	<path style="fill:#FF7171;" d="M98.239,263.978h-41.95c-17.985,0-34.604,9.595-43.597,25.17l-8.277,14.337
		c9.717,51.799,35.021,98.102,70.875,133.835h22.95c17.985,0,34.604-9.595,43.597-25.17l17.352-30.055v-62.892l-17.352-30.056
		C132.844,273.574,116.224,263.978,98.239,263.978z"/>
	<path style="fill:#FF7171;" d="M505.256,325.48l-20.976-36.331c-8.993-15.575-25.611-25.171-43.596-25.171h-41.951
		c-17.985,0-34.604,9.595-43.597,25.171l-17.352,30.056v62.891l17.352,30.056c8.993,15.576,25.612,25.171,43.597,25.171h41.951
		c17.985,0,34.604-9.595,43.596-25.171l20.976-36.33C514.248,360.245,514.248,341.055,505.256,325.48z"/>
</g>
<g>
	<path style="fill:#FF5252;" d="M505.256,346.554l-20.976,20.111c-8.992,8.623-25.611,13.934-43.596,13.934h-41.951
		c-17.985,0-34.604-5.311-43.597-13.934l-17.352-16.638v32.069l17.352,30.055c8.992,15.576,25.612,25.17,43.597,25.17h41.951
		c17.985,0,34.604-9.595,43.596-25.17l20.976-36.33c6.512-11.28,8.282-24.451,5.362-36.776
		C509.506,341.643,507.736,344.176,505.256,346.554z"/>
	<path style="fill:#FF5252;" d="M98.239,380.599h-41.95c-9.407,0-18.428-1.464-26.191-4.084
		c12.015,22.483,27.288,42.963,45.192,60.808h22.95c17.736,0,34.483-9.386,43.597-25.17l17.352-30.055v-32.069l-17.352,16.638
		C132.844,375.287,116.224,380.599,98.239,380.599z"/>
	<path style="fill:#FF5252;" d="M12.692,289.149l-8.278,14.337c4.011,21.384,10.681,41.827,19.653,60.98
		c-0.202-4.563-0.317-9.167-0.317-13.816c0-29.473,4.138-57.323,11.483-82.029C25.932,272.908,17.985,279.981,12.692,289.149z"/>
	<path style="fill:#FF5252;" d="M473.222,350.65c0-29.473-4.138-57.323-11.483-82.029c9.301,4.287,17.249,11.36,22.542,20.528
		l20.975,36.331c8.993,15.576,8.993,34.766,0,50.341l-20.975,36.33c-5.293,9.168-13.241,16.241-22.542,20.528
		C469.083,407.973,473.222,380.123,473.222,350.65z"/>
</g>
<path style="fill:#EA3D3D;" d="M510.618,339.045c-1.112,2.598-2.882,5.131-5.362,7.509l-20.976,20.111
	c-3.144,3.015-7.235,5.613-11.976,7.732c-1.593,20.697-5.227,40.323-10.566,58.282c0.492-0.33,13.922-5.594,22.542-20.528
	c4.332-7.503,16.431-28.459,20.976-36.33C511.536,364.94,513.633,351.772,510.618,339.045z"/>
<g>
</g>
<g>
</g>
<g>
</g>
<g>
</g>
<g>
</g>
<g>
</g>
<g>
</g>
<g>
</g>
<g>
</g>
<g>
</g>
<g>
</g>
<g>
</g>
<g>
</g>
<g>
</g>
<g>
</g>
</svg>
