<?xml version="1.0" encoding="iso-8859-1"?>
<!-- Generator: Adobe Illustrator 19.0.0, SVG Export Plug-In . SVG Version: 6.00 Build 0)  -->
<svg version="1.1" id="Capa_1" xmlns="http://www.w3.org/2000/svg" xmlns:xlink="http://www.w3.org/1999/xlink" x="0px" y="0px"
	 viewBox="0 0 512.001 512.001" style="enable-background:new 0 0 512.001 512.001;" xml:space="preserve">
<circle style="fill:#BCCC23;" cx="256.001" cy="263.24" r="248.76"/>
<path style="fill:#A5B50F;" d="M44.329,393.951c97.215,157.093,325.852,157.545,423.346,0H44.329z"/>
<path style="fill:#5ABDEE;" d="M360.619,0c-9.473,0-17.152,7.679-17.152,17.152v8.47h34.304v-8.47
	C377.771,7.679,370.093,0,360.619,0z"/>
<path style="fill:#4BA1DB;" d="M369.195,2.313C366.671,0.851,363.747,0,360.619,0c-9.473,0-17.152,7.679-17.152,17.152v8.47h17.152
	v-8.47C360.619,10.807,364.074,5.28,369.195,2.313z"/>
<path style="fill:#61CBF8;" d="M343.082,77.926c35.305,0.13,35.749-0.301,41.268,0.404l-6.578-52.707h-34.304L336.89,78.33
	C338.919,78.07,340.984,77.926,343.082,77.926z"/>
<path style="fill:#5ABDEE;" d="M361.834,25.623h-18.366l-6.579,52.707c5.185-0.662,7.196-0.298,21.349-0.404L361.834,25.623z"/>
<path style="fill:#86DDFC;" d="M411.955,16.879h-71.764c-4.829,0-8.743,3.914-8.743,8.743s3.915,8.743,8.743,8.743h71.764
	c13.394,0,24.29,10.897,24.29,24.291s-10.897,24.291-24.29,24.291h-14.351c-4.829,0-8.743,3.914-8.743,8.743
	s3.915,8.743,8.743,8.743h14.351c23.036,0,41.777-18.741,41.777-41.777S434.991,16.879,411.955,16.879z"/>
<path style="fill:#AAC5EE;" d="M294.475,119.128h132.288c-2.986-24.563-23.695-43.743-48.607-43.743h-35.075
	C318.17,75.385,297.461,94.565,294.475,119.128z"/>
<path style="fill:#8FB1DB;" d="M361.788,75.385h-18.706c-24.912,0-45.621,19.18-48.607,43.743h40.735
	C336.843,94.565,348.167,75.385,361.788,75.385z"/>
<path style="fill:#AAC5EE;" d="M430.416,240.674H290.823c-0.919,0-1.816-0.113-2.688-0.307v46.965
	c0.872-0.194,1.769-0.307,2.688-0.307h139.592c0.919,0,1.816,0.113,2.689,0.307v-46.965
	C432.231,240.561,431.334,240.674,430.416,240.674z"/>
<path style="fill:#8FB1DB;" d="M335.985,240.674h-46.946c-0.309,0-0.611-0.113-0.904-0.307v46.965
	c0.293-0.194,0.595-0.307,0.904-0.307h46.945c0.309,0,0.611,0.113,0.904,0.307v-46.965
	C336.595,240.561,336.294,240.674,335.985,240.674z"/>
<path style="fill:#86DDFC;" d="M444.988,424.986V298.535c0-8.015-6.558-14.573-14.573-14.573H290.823
	c-8.015,0-14.573,6.558-14.573,14.573v188.401c0,8.015,6.558,14.573,14.573,14.573h36.823
	C373.846,487.637,414.391,460.703,444.988,424.986z"/>
<path style="fill:#61CBF8;" d="M325.619,486.937V298.535c0-8.015,6.558-14.573,14.573-14.573h-49.369
	c-8.015,0-14.573,6.558-14.573,14.573v188.401c0,8.015,6.558,14.573,14.573,14.573h36.823c1.881-0.565,3.75-1.16,5.612-1.768
	C328.717,497.267,325.619,492.446,325.619,486.937z"/>
<path style="fill:#CEDDF7;" d="M430.415,118.371H290.823c-8.015,0-14.573,6.558-14.573,14.573v97.059
	c0,8.015,6.558,14.573,14.573,14.573h139.593c8.015,0,14.573-6.558,14.573-14.573v-97.059
	C444.989,124.929,438.431,118.371,430.415,118.371z"/>
<path style="fill:#AAC5EE;" d="M325.619,230.003v-97.059c0-8.015,6.558-14.573,14.573-14.573h-49.369
	c-8.015,0-14.573,6.558-14.573,14.573v97.059c0,8.015,6.558,14.573,14.573,14.573h49.369
	C332.177,244.576,325.619,238.018,325.619,230.003z"/>
<path style="fill:#5ABDEE;" d="M360.62,456.218c-29.988,0-58.515-6.243-84.37-17.478v48.196c0,8.015,6.558,14.573,14.573,14.573
	h36.823c36.403-10.931,69.294-29.967,96.576-55.025C404.144,452.799,382.783,456.218,360.62,456.218z"/>
<path style="fill:#AAC5EE;" d="M386.877,156.336h-52.515c-4.829,0-8.743-3.914-8.743-8.743s3.915-8.743,8.743-8.743h52.515
	c4.829,0,8.743,3.914,8.743,8.743C395.62,152.423,391.706,156.336,386.877,156.336z"/>
<path style="fill:#61CBF8;" d="M444.988,346.731c-25.854-11.235-54.381-17.478-84.369-17.478s-58.515,6.243-84.37,17.478v92.009
	c25.855,11.235,54.381,17.478,84.37,17.478c22.163,0,43.524-3.418,63.602-9.734c7.343-6.744,14.278-13.924,20.767-21.498
	L444.988,346.731L444.988,346.731z"/>
<g>
	<path style="fill:#5ABDEE;" d="M276.25,346.731v92.009c15.573,6.767,32.121,11.708,49.369,14.579V332.152
		C308.371,335.023,291.823,339.964,276.25,346.731z"/>
	<path style="fill:#5ABDEE;" d="M35.533,80.218c-8.204,4.737-11.015,15.226-6.278,23.43l4.235,7.335l29.708-17.152l-4.235-7.335
		C54.227,78.292,43.737,75.482,35.533,80.218z"/>
</g>
<path style="fill:#4BA1DB;" d="M48.19,102.497l-4.235-7.335c-3.44-5.959-3.764-12.604-1.336-17.162
	c-2.423,0.21-4.84,0.922-7.085,2.218c-8.204,4.736-11.015,15.226-6.278,23.43l4.235,7.336L48.19,102.497L48.19,102.497
	L48.19,102.497z"/>
<path style="fill:#61CBF8;" d="M59.308,156.472l30.376-17.537c1.817-1.049,3.678-1.956,5.566-2.747L63.198,93.832L33.49,110.984
	l20.657,48.935C55.775,158.679,57.491,157.521,59.308,156.472z"/>
<path style="fill:#5ABDEE;" d="M50.728,101.031l-17.238,9.953l20.657,48.935c1.628-1.239,3.344-2.397,5.161-3.446l14.671-8.471
	L50.728,101.031z"/>
<path style="fill:#86DDFC;" d="M88.43,69.167L26.281,105.05c-4.182,2.414-5.615,7.761-3.2,11.943s7.762,5.615,11.943,3.2
	l62.15-35.882c11.599-6.697,26.485-2.708,33.181,8.891c6.697,11.599,2.709,26.485-8.891,33.182l-12.428,7.175
	c-4.182,2.414-5.615,7.761-3.2,11.943c2.415,4.182,7.762,5.615,11.943,3.2l12.428-7.175c19.95-11.518,26.809-37.119,15.291-57.069
	C133.98,64.509,108.38,57.65,88.43,69.167z"/>
<path style="fill:#AAC5EE;" d="M37.814,216.458l114.565-66.144c-14.867-19.779-42.392-26.035-63.966-13.579l-30.376,17.537
	C36.463,166.727,28.119,193.693,37.814,216.458z"/>
<path style="fill:#8FB1DB;" d="M72.399,196.49c-10.765-22.146-9.843-44.827,2.803-52.128l-17.164,9.91
	c-21.574,12.456-29.918,39.421-20.223,62.186L72.399,196.49L72.399,196.49z"/>
<path style="fill:#4BA1DB;" d="M343.519,477.892l-55.546,32.069c20.236-2.597,39.707-7.632,58.119-14.789
	c1.499-5.217,0.813-11.417-2.372-16.932L343.519,477.892z"/>
<path style="fill:#AAC5EE;" d="M216.315,253.749L95.424,323.546c-0.796,0.459-1.629,0.81-2.481,1.078l23.482,40.673
	c0.658-0.604,1.379-1.15,2.175-1.61l120.89-69.796c0.796-0.46,1.629-0.81,2.482-1.079l-23.482-40.673
	C217.831,252.744,217.111,253.29,216.315,253.749z"/>
<path style="fill:#8FB1DB;" d="M134.063,301.238l-40.192,23.205c-0.265,0.153-0.579,0.204-0.927,0.181l23.482,40.673
	c0.154-0.313,0.356-0.56,0.621-0.713l40.192-23.205c0.265-0.153,0.579-0.204,0.928-0.181l-23.482-40.673
	C134.529,300.838,134.327,301.085,134.063,301.238z"/>
<path style="fill:#86DDFC;" d="M257.866,296.573c-4.008-6.941-12.966-9.342-19.907-5.334l-120.891,69.796
	c-6.941,4.007-9.342,12.966-5.334,19.907l68.959,119.441c37.219,11.809,76.894,14.666,115.663,8.341l50.376-29.084
	c6.941-4.008,9.342-12.966,5.334-19.907L257.866,296.573z"/>
<path style="fill:#61CBF8;" d="M155.484,354.53c-3.041-5.267-2.432-11.682,1.028-16.268l-39.444,22.773
	c-6.941,4.007-9.342,12.966-5.334,19.907l68.959,119.441c20.815,6.604,42.812,10.552,65.598,11.429L155.484,354.53z"/>
<path style="fill:#CEDDF7;" d="M155.163,147.832l-120.89,69.796c-6.941,4.008-9.342,12.966-5.334,19.907l48.53,84.056
	c4.008,6.941,12.966,9.342,19.907,5.334l120.891-69.796c6.941-4.008,9.342-12.966,5.334-19.907l-48.53-84.056
	C171.063,146.225,162.105,143.824,155.163,147.832z"/>
<path style="fill:#AAC5EE;" d="M120.666,297.448l-49.22-85.251c-3.185-5.518-2.365-12.281,1.522-16.909l-38.695,22.341
	c-6.941,4.007-9.342,12.966-5.334,19.907l48.53,84.056c4.008,6.941,12.966,9.341,19.907,5.334l38.696-22.341
	C130.119,305.636,123.851,302.965,120.666,297.448z"/>
<path style="fill:#5ABDEE;" d="M327.483,417.153L327.483,417.153l0.485,0.841c-16.773,22.657-38.356,42.326-64.327,57.32
	c-24.802,14.319-51.297,23.028-78.026,26.569c35.9,10.572,73.783,12.87,110.741,6.841l50.376-29.085
	c6.941-4.007,9.341-12.966,5.334-19.907L327.483,417.153z"/>
<path style="fill:#4BA1DB;" d="M233.515,489.682c-15.666,6.016-31.736,10.06-47.895,12.201c19.547,5.771,40.032,9.125,60.67,9.925
	L233.515,489.682z"/>
<path style="fill:#AAC5EE;" d="M136.441,202.48l-45.48,26.258c-4.182,2.414-9.529,0.982-11.943-3.2
	c-2.415-4.182-0.982-9.529,3.2-11.943l45.479-26.258c4.182-2.414,9.529-0.982,11.943,3.2
	C142.056,194.719,140.623,200.066,136.441,202.48z"/>
<path style="fill:#61CBF8;" d="M200.159,365.359c-25.971,14.994-47.554,34.664-64.327,57.321l44.862,77.703
	c1.633,0.518,3.275,1.015,4.922,1.5c26.729-3.541,53.224-12.25,78.026-26.569c25.971-14.994,47.553-34.663,64.327-57.32
	l-46.005-79.683C253.956,341.509,226.13,350.365,200.159,365.359z"/>
<path style="fill:#5ABDEE;" d="M185.619,501.883c16.161-2.141,32.237-6.166,47.904-12.187l-60.878-105.443
	c-14.066,11.381-26.372,24.325-36.813,38.428l44.862,77.703C182.328,500.902,183.971,501.398,185.619,501.883z"/>
<g>
	<path style="fill:#61CBF8;" d="M401.186,25.623c0-3.723,2.006-6.97,4.989-8.744h-65.984c-4.829,0-8.743,3.914-8.743,8.743
		s3.915,8.743,8.743,8.743h65.983C403.191,32.591,401.186,29.345,401.186,25.623z"/>
	<path style="fill:#61CBF8;" d="M121.814,84.528c-0.118-0.634-0.187-1.285-0.187-1.953c0-5.868,4.757-10.625,10.625-10.625
		c0.894,0,1.757,0.123,2.586,0.33c-13.015-10.017-31.324-11.82-46.407-3.112l-62.15,35.882c-4.182,2.414-5.615,7.761-3.2,11.943
		s7.762,5.615,11.944,3.2l62.15-35.882C105.072,79.751,114.492,80.15,121.814,84.528z"/>
</g>
<g>
</g>
<g>
</g>
<g>
</g>
<g>
</g>
<g>
</g>
<g>
</g>
<g>
</g>
<g>
</g>
<g>
</g>
<g>
</g>
<g>
</g>
<g>
</g>
<g>
</g>
<g>
</g>
<g>
</g>
</svg>
