<?xml version="1.0" encoding="iso-8859-1"?>
<!-- Generator: Adobe Illustrator 19.0.0, SVG Export Plug-In . SVG Version: 6.00 Build 0)  -->
<svg version="1.1" id="Capa_1" xmlns="http://www.w3.org/2000/svg" xmlns:xlink="http://www.w3.org/1999/xlink" x="0px" y="0px"
	 viewBox="0 0 511.995 511.995" style="enable-background:new 0 0 511.995 511.995;" xml:space="preserve">
<circle style="fill:#662B5A;" cx="255.997" cy="270.778" r="241.217"/>
<path style="fill:#AAC5EE;" d="M181.162,77.017c0-13.536,3.521-26.26,9.678-37.326c-1.748,1.989-3.506,4.041-5.246,6.16
	c-23.544,28.658-40.52,61.994-50.457,99.081l-13.055,48.725c-2.114,7.889,2.568,15.998,10.457,18.113
	c1.283,0.343,2.57,0.507,3.837,0.507c6.529,0,12.505-4.357,14.275-10.964l13.055-48.725c5.008-18.691,12.015-36.29,20.938-52.653
	C182.382,92.694,181.162,84.995,181.162,77.017z"/>
<path style="fill:#CEDDF7;" d="M151.893,191.752l-26.552-7.114c-6.576-1.762-13.334,2.14-15.096,8.716l-7.374,27.521l49.829,13.351
	l7.517-28.056C161.9,199.891,158.174,193.436,151.893,191.752z"/>
<path style="fill:#AAC5EE;" d="M134.484,199.122c1.289-4.81,5.042-8.293,9.534-9.479l-18.677-5.004
	c-6.576-1.762-13.334,2.141-15.096,8.716l-7.374,27.521l24.057,6.446L134.484,199.122z"/>
<path style="fill:#8FB1DB;" d="M160.864,171.434c-0.704,0-1.42-0.091-2.132-0.282l-29.113-7.801
	c-4.383-1.175-6.983-5.679-5.809-10.062c1.175-4.383,5.681-6.983,10.063-5.809l29.113,7.801c4.383,1.175,6.983,5.679,5.809,10.062
	C167.811,169.013,164.491,171.434,160.864,171.434z"/>
<g>
	<path style="fill:#CEDDF7;" d="M389.928,193.659l-13.056-48.725c-9.936-37.086-26.913-70.422-50.458-99.083
		c-1.742-2.12-3.5-4.172-5.246-6.159c6.157,11.066,9.679,23.791,9.679,37.327c0,7.978-1.22,15.676-3.481,22.919
		c8.922,16.362,15.929,33.961,20.938,52.653l13.056,48.725c1.77,6.608,7.745,10.964,14.275,10.964c1.268,0,2.556-0.164,3.837-0.507
		C387.361,209.657,392.042,201.547,389.928,193.659z"/>
	<path style="fill:#CEDDF7;" d="M360.115,191.752l26.552-7.114c6.576-1.762,13.334,2.14,15.096,8.716l7.374,27.521l-49.829,13.351
		l-7.517-28.056C350.108,199.891,353.835,193.436,360.115,191.752z"/>
</g>
<g>
	<path style="fill:#AAC5EE;" d="M375.358,200.143c-1.41-5.262,0.619-10.631,4.704-13.735l-19.948,5.345
		c-6.28,1.683-10.007,8.138-8.324,14.417l7.517,28.056l23.496-6.295L375.358,200.143z"/>
	<path style="fill:#AAC5EE;" d="M351.382,172.32c-3.599,0-6.901-2.382-7.911-6.019c-1.214-4.372,1.346-8.9,5.718-10.115
		l28.875-8.018c4.372-1.212,8.901,1.345,10.115,5.718c1.214,4.372-1.346,8.9-5.718,10.115l-28.875,8.018
		C352.85,172.223,352.11,172.32,351.382,172.32z"/>
</g>
<circle style="fill:#CEDDF7;" cx="256.007" cy="77.022" r="18.191"/>
<path style="fill:#AAC5EE;" d="M337.999,122.252c1.722-8.254,9.036-14.457,17.803-14.457c3.411,0,6.591,0.956,9.318,2.589
	c-9.781-23.471-22.726-45.082-38.707-64.535c-1.742-2.12-3.5-4.172-5.246-6.159c6.157,11.065,9.679,23.791,9.679,37.327
	c0,7.978-1.22,15.676-3.481,22.919C331.291,107.135,334.823,114.587,337.999,122.252z"/>
<path style="fill:#8FB1DB;" d="M190.841,39.692c-1.748,1.989-3.506,4.041-5.246,6.16c-15.979,19.451-28.924,41.062-38.706,64.533
	c2.728-1.633,5.907-2.589,9.318-2.589c8.766,0,16.08,6.203,17.803,14.457c3.177-7.665,6.709-15.117,10.634-22.317
	c-2.261-7.243-3.481-14.94-3.481-22.919C181.162,63.482,184.683,50.757,190.841,39.692z"/>
<path style="fill:#61CBF8;" d="M154.683,234.085l-51.903-13.907c-6.275-1.681-12.78,1.16-16.122,6.748
	c-6.511,10.889-16.028,11.916-20.628,29.081c-5.709,21.309,7.578,24.869,1.869,46.176c-5.709,21.308-18.998,17.748-24.707,39.055
	c-5.709,21.309,7.578,24.87,1.868,46.178c-0.026,0.099-0.056,0.188-0.082,0.285c15.975,28.772,37.659,53.93,63.528,73.949
	l56.276-210.024C166.831,243.981,162.31,236.128,154.683,234.085z"/>
<path style="fill:#5ABDEE;" d="M44.979,387.7c7.424,13.37,16.094,25.948,25.831,37.604l51.216-187.811
	c1.284-4.708,4.769-8.22,9.037-9.738l-28.282-7.578c-6.275-1.681-12.78,1.16-16.122,6.748
	c-6.511,10.889-16.028,11.916-20.628,29.081c-5.709,21.309,7.578,24.869,1.869,46.176c-5.709,21.308-18.998,17.748-24.707,39.055
	c-5.709,21.309,7.578,24.87,1.868,46.178C45.035,387.514,45.006,387.603,44.979,387.7z"/>
<path style="fill:#61CBF8;" d="M468.786,341.125c-5.714-21.326-19.002-17.766-24.716-39.09c-5.714-21.326,7.573-24.886,1.859-46.211
	c-4.603-17.178-14.12-18.209-20.636-29.107c-3.343-5.593-9.849-8.438-16.124-6.756l-51.903,13.907
	c-7.625,2.043-12.146,9.901-10.096,17.553l56.33,210.225c25.869-20.022,47.552-45.182,63.527-73.956
	c-0.033-0.119-0.068-0.229-0.101-0.35C461.212,366.012,474.5,362.452,468.786,341.125z"/>
<path style="fill:#5ABDEE;" d="M380.756,239.29c-1.192-4.449-0.151-8.96,2.42-12.366l-25.91,6.942
	c-7.625,2.043-12.146,9.901-10.096,17.553l56.33,210.225c10.6-8.203,20.483-17.284,29.573-27.108L380.756,239.29z"/>
<g>
	<circle style="fill:#8FB1DB;" cx="378.711" cy="209.226" r="9.448"/>
	<circle style="fill:#8FB1DB;" cx="131.774" cy="209.226" r="9.448"/>
</g>
<path id="SVGCleanerId_0" style="fill:#CEDDF7;" d="M294.521,143.73c-36.785,21.239-83.991,8.589-105.229-28.196
	s-8.589-83.99,28.196-105.229c36.786-21.238,83.991-8.589,105.229,28.196C343.954,75.286,331.306,122.492,294.521,143.73z
	 M232.277,35.92c-22.662,13.083-30.453,42.164-17.37,64.826c13.083,22.662,42.164,30.453,64.826,17.37s30.454-42.164,17.37-64.826
	C284.018,30.628,254.937,22.837,232.277,35.92z"/>
<g>
	<path id="SVGCleanerId_0_1_" style="fill:#CEDDF7;" d="M294.521,143.73c-36.785,21.239-83.991,8.589-105.229-28.196
		s-8.589-83.99,28.196-105.229c36.786-21.238,83.991-8.589,105.229,28.196C343.954,75.286,331.306,122.492,294.521,143.73z
		 M232.277,35.92c-22.662,13.083-30.453,42.164-17.37,64.826c13.083,22.662,42.164,30.453,64.826,17.37s30.454-42.164,17.37-64.826
		C284.018,30.628,254.937,22.837,232.277,35.92z"/>
</g>
<path style="fill:#AAC5EE;" d="M265.206,123.561c-19.368,3.811-39.893-4.792-50.299-22.817s-7.594-40.101,5.39-54.969
	c1.635-16.201,8.356-31.731,19.499-44.059c-7.65,1.641-15.175,4.47-22.308,8.587c-36.786,21.239-49.434,68.444-28.196,105.229
	s68.443,49.434,105.229,28.196c7.132-4.118,13.344-9.22,18.591-15.025C296.864,132.19,280.054,130.246,265.206,123.561z"/>
<g>
</g>
<g>
</g>
<g>
</g>
<g>
</g>
<g>
</g>
<g>
</g>
<g>
</g>
<g>
</g>
<g>
</g>
<g>
</g>
<g>
</g>
<g>
</g>
<g>
</g>
<g>
</g>
<g>
</g>
</svg>
