<?xml version="1.0" encoding="iso-8859-1"?>
<!-- Generator: Adobe Illustrator 19.0.0, SVG Export Plug-In . SVG Version: 6.00 Build 0)  -->
<svg version="1.1" id="Capa_1" xmlns="http://www.w3.org/2000/svg" xmlns:xlink="http://www.w3.org/1999/xlink" x="0px" y="0px"
	 viewBox="0 0 512 512" style="enable-background:new 0 0 512 512;" xml:space="preserve">
<circle style="fill:#61CBF8;" cx="256" cy="256" r="256"/>
<path style="fill:#52AFE5;" d="M41.159,395.24C86.798,465.513,165.965,512,256,512s169.203-46.487,214.841-116.76H41.159z"/>
<path style="fill:#4BA1DB;" d="M246.7,395.24H41.159c43.499,66.979,117.458,112.35,202.254,116.456
	C167.965,508.043,171.164,395.24,246.7,395.24z"/>
<rect x="70.38" y="126.67" style="fill:#CEDDF7;" width="33.594" height="252.18"/>
<path style="fill:#AAC5EE;" d="M87.171,207.41c-9.277,0-16.797-7.521-16.797-16.797v188.233h33.594V190.613
	C103.968,199.889,96.448,207.41,87.171,207.41z"/>
<path style="fill:#7477AD;" d="M186.17,81.318H68.881c-14.557,15.586-27.194,32.987-37.524,51.835h154.812
	c5.931,0,10.74-4.809,10.74-10.74V92.058C196.909,86.127,192.101,81.318,186.17,81.318z"/>
<path style="fill:#65669E;" d="M130.83,81.318c-7.746,0-35.684,0-61.95,0c-14.557,15.587-27.194,32.987-37.524,51.835
	c27.904,0,87.527,0,99.473,0c4.321,0,7.824-3.503,7.824-7.824V89.142C138.654,84.821,135.151,81.318,130.83,81.318z"/>
<g>
	<path style="fill:#504A7F;" d="M101.951,125.33V89.142c0-4.321,3.503-7.824,7.824-7.824c-11.77,0-26.577,0-40.894,0
		c-14.557,15.587-27.194,32.987-37.524,51.835c19.652,0,55.035,0,78.418,0C105.454,133.154,101.951,129.651,101.951,125.33z"/>
	<path style="fill:#504A7F;" d="M89.262,423.356L89.262,423.356L89.262,423.356l-42.117-72.701c-4.935-8.519-4.935-19.028,0-27.548
		l42.117-72.7l0,0l0,0c2.617-4.533,7.454-7.326,12.689-7.326H67.944c-5.235,0-10.072,2.793-12.689,7.326L9.558,329.555
		c-2.617,4.533-2.617,10.119,0,14.652l45.697,79.149c2.617,4.533,7.454,7.326,12.689,7.326h34.007
		C96.716,430.682,91.879,427.889,89.262,423.356z"/>
</g>
<path style="fill:#7477AD;" d="M193.343,430.682H101.95c-5.235,0-10.072-2.793-12.689-7.326l-45.697-79.149
	c-2.617-4.533-2.617-10.119,0-14.652l45.697-79.148c2.617-4.533,7.454-7.326,12.689-7.326h91.393c5.235,0,10.072,2.793,12.689,7.326
	l45.697,79.148c2.617,4.533,2.617,10.119,0,14.652l-45.697,79.149C203.415,427.889,198.578,430.682,193.343,430.682z"/>
<g>
	<path style="fill:#65669E;" d="M203.009,422.584c-57.405,0-103.941-46.536-103.941-103.941c0-29.77,12.518-56.613,32.574-75.562
		h-29.691c-5.235,0-10.072,2.793-12.689,7.326l-45.697,79.148c-2.617,4.533-2.617,10.119,0,14.652l45.697,79.148
		c2.617,4.533,7.454,7.326,12.689,7.326h91.393c5.235,0,10.072-2.793,12.689-7.326l0.483-0.837
		C205.351,422.557,204.183,422.584,203.009,422.584z"/>
	<polygon style="fill:#65669E;" points="110.41,401.377 184.884,401.377 222.121,336.881 184.884,272.385 110.41,272.385 
		73.173,336.881 	"/>
</g>
<path style="fill:#504A7F;" d="M73.173,336.881l37.237,64.497h29.683c-24.93-18.987-41.025-48.979-41.025-82.735
	c0-14.823,3.105-28.919,8.698-41.678L73.173,336.881z"/>
<path style="fill:#CEDDF7;" d="M273.51,344.207c-2.618-4.533-2.618-10.119,0-14.652l5.468-9.471H147.441
	c-9.277,0-16.797,7.52-16.797,16.797s7.52,16.797,16.797,16.797h131.538L273.51,344.207z"/>
<path style="fill:#AAC5EE;" d="M278.978,320.084h-54.492c7.593,1.826,13.243,8.644,13.243,16.797s-5.649,14.971-13.243,16.797
	h54.493l-5.469-9.471c-2.617-4.534-2.617-10.119,0-14.652L278.978,320.084z"/>
<path style="fill:#504A7F;" d="M347.57,423.356L347.57,423.356L347.57,423.356l-42.117-72.701c-4.935-8.519-4.935-19.028,0-27.548
	l42.117-72.7l0,0l0,0c2.617-4.533,7.454-7.326,12.689-7.326h-34.007c-5.235,0-10.072,2.793-12.689,7.326l-45.697,79.148
	c-2.617,4.533-2.617,10.119,0,14.652l45.697,79.149c2.617,4.533,7.454,7.326,12.689,7.326h34.007
	C355.024,430.682,350.187,427.889,347.57,423.356z"/>
<path style="fill:#7477AD;" d="M451.651,430.682h-91.393c-5.235,0-10.072-2.793-12.689-7.326l-45.697-79.149
	c-2.617-4.533-2.617-10.119,0-14.652l45.697-79.148c2.617-4.533,7.454-7.326,12.689-7.326h91.393c5.235,0,10.072,2.793,12.689,7.326
	l45.697,79.148c2.617,4.533,2.617,10.119,0,14.652l-45.697,79.149C461.723,427.889,456.886,430.682,451.651,430.682z"/>
<g>
	<path style="fill:#65669E;" d="M461.317,422.584c-57.405,0-103.941-46.536-103.941-103.941c0-29.77,12.518-56.613,32.574-75.562
		h-29.691c-5.235,0-10.072,2.793-12.689,7.326l-45.697,79.148c-2.617,4.533-2.617,10.119,0,14.652l45.697,79.148
		c2.617,4.533,7.454,7.326,12.689,7.326h91.393c5.235,0,10.072-2.793,12.689-7.326l0.483-0.837
		C463.659,422.557,462.491,422.584,461.317,422.584z"/>
	<polygon style="fill:#65669E;" points="368.718,401.377 443.192,401.377 480.429,336.881 443.192,272.385 368.718,272.385 
		331.481,336.881 	"/>
</g>
<path style="fill:#504A7F;" d="M331.481,336.881l37.237,64.497H398.4c-24.93-18.987-41.025-48.979-41.025-82.735
	c0-14.823,3.105-28.919,8.698-41.678L331.481,336.881z"/>
<circle style="fill:#7477AD;" cx="393.54" cy="336.88" r="16.797"/>
<g>
</g>
<g>
</g>
<g>
</g>
<g>
</g>
<g>
</g>
<g>
</g>
<g>
</g>
<g>
</g>
<g>
</g>
<g>
</g>
<g>
</g>
<g>
</g>
<g>
</g>
<g>
</g>
<g>
</g>
</svg>
