<?xml version="1.0" encoding="iso-8859-1"?>
<!-- Generator: Adobe Illustrator 19.0.0, SVG Export Plug-In . SVG Version: 6.00 Build 0)  -->
<svg version="1.1" id="Capa_1" xmlns="http://www.w3.org/2000/svg" xmlns:xlink="http://www.w3.org/1999/xlink" x="0px" y="0px"
	 viewBox="0 0 512 512" style="enable-background:new 0 0 512 512;" xml:space="preserve">
<circle style="fill:#FDBF49;" cx="256" cy="259.82" r="252.18"/>
<path style="fill:#AAC5EE;" d="M325.287,175.402c2.409-2.066,4.436-4.508,6.022-7.256l21.081-36.513l-25.423-14.678l-20.965,36.312
	l-18.725,16.056c-6.609,5.667-10.611,13.57-11.271,22.25l-2.612,34.423c-0.253,3.325-1.883,6.436-4.473,8.537l-25.335,20.551
	c-7.834,6.355-13.021,15.339-14.607,25.3l-5.13,32.216c-0.524,3.293-2.404,6.26-5.156,8.141l-28.506,19.474
	c-7.188,4.911-12.03,12.328-13.634,20.886l-4.542,24.244l-20.965,36.312l25.423,14.678l21.081-36.513
	c1.586-2.747,2.688-5.723,3.273-8.845l4.585-24.47c0.158-0.841,0.634-1.57,1.341-2.053l28.506-19.475
	c9.387-6.415,15.797-16.534,17.585-27.762l5.13-32.216c0.447-2.804,1.906-5.331,4.111-7.12l25.335-20.551
	c8.83-7.162,14.388-17.773,15.25-29.111c3.065-35.99,1.911-35.059,3.72-36.612L325.287,175.402z"/>
<path style="fill:#8FB1DB;" d="M185.005,392.849l5.253-23.834c1.854-8.413,6.655-15.854,13.516-20.954l27.208-20.223
	c2.627-1.953,4.494-4.927,5.122-8.161l6.142-31.632c1.899-9.781,7.087-18.765,14.607-25.3l24.323-21.135
	c2.486-2.161,4.128-5.265,4.507-8.517l3.909-33.674c0.986-8.492,5.031-16.37,11.389-22.182l18.014-16.467l20.965-36.312
	l-12.994-7.502l-20.965,36.313l-18.725,16.056c-6.609,5.667-10.611,13.569-11.271,22.25l-2.612,34.423
	c-0.253,3.324-1.883,6.436-4.473,8.536l-25.335,20.551c-7.833,6.354-13.021,15.339-14.607,25.301l-5.13,32.216
	c-0.524,3.293-2.404,6.26-5.156,8.141l-28.506,19.474c-7.188,4.912-12.031,12.329-13.634,20.886l-4.542,24.245l-20.965,36.312
	l12.994,7.502L185.005,392.849z"/>
<path style="fill:#CEDDF7;" d="M297.799,119.158l-6.583,11.402c-1.868,3.236-1.022,7.223,1.891,8.905l56.078,32.377
	c2.913,1.682,6.789,0.421,8.657-2.815l6.583-11.402L297.799,119.158z"/>
<path style="fill:#AAC5EE;" d="M321.545,148.269l6.669-11.551l-30.415-17.56l-6.583,11.402c-1.868,3.236-1.022,7.223,1.891,8.905
	l28.304,16.341C320.089,153.81,320.056,150.848,321.545,148.269z"/>
<path style="fill:#CEDDF7;" d="M138.229,395.542l6.676-11.563c1.895-3.282,5.792-4.579,8.705-2.897l56.078,32.377
	c2.913,1.682,3.738,5.705,1.843,8.987l-6.676,11.563L138.229,395.542z"/>
<path style="fill:#AAC5EE;" d="M173.702,400.474c1.576-2.729,4.642-4.04,7.501-3.461l-27.594-15.931
	c-2.913-1.682-6.81-0.385-8.705,2.897l-6.676,11.563l28.741,16.594L173.702,400.474z"/>
<path style="fill:#65669E;" d="M99.516,370.566l146.325,84.481c4.948,2.857,6.643,9.183,3.786,14.131L238.27,488.85
	c-2.857,4.948-9.183,6.643-14.131,3.786L77.814,408.154c-4.948-2.857-6.643-9.183-3.786-14.131l11.357-19.672
	C88.242,369.404,94.568,367.709,99.516,370.566z"/>
<path style="fill:#7477AD;" d="M210.417,484.712L91.883,416.277c-4.948-2.856-11.274-1.161-14.131,3.787l-6.543,11.332
	c35.944,38.696,83.888,66.081,137.918,76.238l5.075-8.791C217.059,493.895,215.364,487.569,210.417,484.712z"/>
<path style="fill:#CEDDF7;" d="M375.067,16.73l6.215-10.765c1.764-3.055,5.555-4.169,8.468-2.487l21.24,12.263
	c2.913,1.682,3.844,5.522,2.08,8.577l-6.215,10.765L375.067,16.73z"/>
<path style="fill:#AAC5EE;" d="M397.016,14.895c1.437-2.489,4.161-3.736,6.734-3.334l-14-8.083
	c-2.913-1.682-6.704-0.568-8.468,2.487l-6.215,10.765l15.667,9.045L397.016,14.895z"/>
<path style="fill:#65669E;" d="M256.953,97.876l146.325,84.481c4.948,2.857,11.274,1.161,14.131-3.786l11.357-19.672
	c2.857-4.948,1.161-11.274-3.786-14.131l-146.325-84.48c-4.948-2.857-11.274-1.161-14.131,3.786l-11.357,19.672
	C250.31,88.693,252.005,95.02,256.953,97.876z"/>
<g>
	<path style="fill:#504A7F;" d="M323.094,124.535l11.777-20.399c2.214-3.835,6.672-5.649,11.14-4.96l-67.356-38.888
		c-4.948-2.856-11.274-1.162-14.131,3.786l-11.357,19.672c-2.856,4.947-1.161,11.274,3.786,14.13l67.652,39.059
		C321.582,133.385,320.821,128.471,323.094,124.535z"/>
	<path style="fill:#504A7F;" d="M143.955,434.813l11.777-20.399c2.214-3.835,6.672-5.649,11.14-4.96l-67.356-38.888
		c-4.948-2.856-11.274-1.162-14.131,3.786l-11.357,19.672c-2.856,4.947-1.161,11.274,3.786,14.13l67.652,39.059
		C142.443,443.663,141.682,438.749,143.955,434.813z"/>
</g>
<path style="fill:#7477AD;" d="M436.746,113.388l-11.357,19.672c-2.857,4.948-9.183,6.643-14.131,3.786L292.724,68.41
	c-4.948-2.856-6.643-9.183-3.786-14.131l11.357-19.672c2.857-4.948,9.183-6.643,14.131-3.786L432.96,99.257
	C437.907,102.114,439.602,108.44,436.746,113.388z"/>
<g>
	<path style="fill:#65669E;" d="M345.691,87.312l11.605-20.101c2.364-4.094,6.572-6.283,10.293-5.696l-53.163-30.693
		c-4.948-2.856-11.274-1.162-14.131,3.786L288.937,54.28c-2.856,4.947-1.161,11.274,3.786,14.13l53.247,30.742
		C343.54,96.231,343.306,91.443,345.691,87.312z"/>
	<path style="fill:#65669E;" d="M91.883,416.277c-4.948-2.856-11.274-1.161-14.131,3.787l-6.543,11.332
		c15.138,16.297,32.411,30.577,51.363,42.419c0.172-0.379,0.358-0.755,0.571-1.125l11.681-20.233
		c2.231-3.864,6.095-6.043,9.656-5.812L91.883,416.277z"/>
	<path style="fill:#65669E;" d="M443.931,67.419L432.574,87.09c-2.857,4.948-9.183,6.643-14.131,3.786l-89.894-51.9
		c-4.948-2.856-6.643-9.183-3.786-14.131L336.12,5.174c2.857-4.948,9.183-6.643,14.131-3.786l89.894,51.9
		C445.093,56.145,446.788,62.471,443.931,67.419z"/>
</g>
<path style="fill:#504A7F;" d="M368.778,51.263l12.228-21.18c2.004-3.471,5.212-5.665,8.37-6.107L350.251,1.388
	c-4.948-2.857-11.274-1.162-14.131,3.786l-11.357,19.671c-2.857,4.948-1.161,11.274,3.786,14.131l39.125,22.589
	C366.478,58.609,366.773,54.735,368.778,51.263z"/>
<path style="fill:#CEDDF7;" d="M314.639,184.531l-26.951-15.56l-0.412,0.353c-6.609,5.667-10.611,13.57-11.271,22.25l-2.612,34.423
	c-0.253,3.325-1.883,6.436-4.473,8.537l-9.476,7.686l27.223,15.717l0.746-0.606c8.83-7.162,14.388-17.773,15.25-29.111
	c3.065-35.99,1.911-35.059,3.72-36.612L314.639,184.531z"/>
<path style="fill:#AAC5EE;" d="M268.922,234.534l-9.476,7.687l12.634,7.294l9.097-7.905c2.486-2.161,4.128-5.265,4.507-8.517
	l3.909-33.674c0.986-8.492,5.031-16.37,11.389-22.182l0.396-0.362l-13.689-7.903l-0.412,0.353
	c-4.544,3.896-7.855,8.849-9.696,14.384c-2.015,6.066-1.297,6.78-4.187,42.289c-0.095,1.247-0.384,2.463-0.844,3.608
	C271.784,231.513,270.54,233.221,268.922,234.534z"/>
<path style="fill:#CEDDF7;" d="M203.405,377.196l-26.951-15.56l0.1-0.533c1.603-8.557,6.446-15.974,13.634-20.886l28.505-19.473
	c2.753-1.882,4.632-4.848,5.157-8.142l1.919-12.049l27.223,15.717l-0.151,0.949c-1.788,11.228-8.198,21.347-17.586,27.763
	l-28.506,19.474c-0.707,0.483-1.183,1.212-1.341,2.053L203.405,377.196z"/>
<path style="fill:#AAC5EE;" d="M176.508,361.346l-0.054,0.289l13.689,7.904l0.116-0.524c1.854-8.413,6.655-15.854,13.516-20.954
	l27.208-20.223c2.627-1.953,4.494-4.927,5.122-8.161l2.297-11.831l-12.633-7.294l-1.919,12.049
	c-0.525,3.299-2.472,6.306-5.157,8.142l-28.505,19.473c-7.011,4.791-11.993,12.128-13.634,20.886L176.508,361.346z"/>
<g>
</g>
<g>
</g>
<g>
</g>
<g>
</g>
<g>
</g>
<g>
</g>
<g>
</g>
<g>
</g>
<g>
</g>
<g>
</g>
<g>
</g>
<g>
</g>
<g>
</g>
<g>
</g>
<g>
</g>
</svg>
