<?xml version="1.0" encoding="iso-8859-1"?>
<!-- Generator: Adobe Illustrator 19.0.0, SVG Export Plug-In . SVG Version: 6.00 Build 0)  -->
<svg version="1.1" id="Capa_1" xmlns="http://www.w3.org/2000/svg" xmlns:xlink="http://www.w3.org/1999/xlink" x="0px" y="0px"
	 viewBox="0 0 512 512" style="enable-background:new 0 0 512 512;" xml:space="preserve">
<circle style="fill:#662B5A;" cx="256" cy="256" r="256"/>
<path style="fill:#51204A;" d="M54.283,413.637C101.141,473.513,174.074,512,256,512s154.859-38.487,201.717-98.363H54.283z"/>
<path style="fill:#441940;" d="M245.791,413.637H54.283c44.2,56.479,111.604,93.911,187.868,97.978
	C179.506,507.693,182.529,413.637,245.791,413.637z"/>
<path style="fill:#FF7171;" d="M512,256c0-58.601-19.704-112.592-52.83-155.741c-76.34-27.257-163.844,3.03-205.786,75.675
	c-47.205,81.762-19.092,186.683,62.67,233.888c41.17,23.77,88.21,28.434,130.799,16.776C487.36,381.314,512,321.538,512,256z"/>
<g>
	<path style="fill:#FF5252;" d="M465.641,402.937c-33.368,2.662-67.838-4.38-98.956-22.346
		c-81.761-47.206-109.875-152.127-62.67-233.889c10.322-17.878,23.405-33.192,38.401-45.714
		c-36.264,13.348-68.246,38.942-89.032,74.946c-47.206,81.761-19.092,186.683,62.67,233.888
		c41.168,23.769,88.208,28.437,130.795,16.78C453.563,419.098,459.841,411.198,465.641,402.937z"/>
	<path style="fill:#FF5252;" d="M512,256c0-40.829-9.574-79.416-26.575-113.664c-3.504-2.458-7.137-4.791-10.912-6.971
		c-69.575-40.169-158.858-16.246-199.027,53.329s-16.246,158.859,53.329,199.028c47.198,27.25,103.46,24.995,147.313-0.987
		C498.903,348.467,512,303.766,512,256z"/>
</g>
<path style="fill:#EA3D3D;" d="M436.985,402.816c-24.062-2.122-48.039-9.373-70.299-22.225
	c-77.351-44.659-106.673-140.971-69.642-220.463c-66.086,68.161-50.02,180.372,31.771,227.594
	C362.842,407.367,401.581,411.674,436.985,402.816z"/>
<path style="fill:#FF7171;" d="M131.551,175.935c47.205-81.762,152.127-109.875,233.888-62.67s109.875,152.127,62.67,233.888
	s-152.127,109.875-233.889,62.67S84.346,257.696,131.551,175.935z"/>
<g>
	<path style="fill:#FF5252;" d="M244.852,380.591c-81.762-47.205-109.875-152.127-62.67-233.888
		c10.322-17.879,23.405-33.192,38.401-45.714c-36.264,13.348-68.245,38.942-89.032,74.946
		c-47.205,81.761-19.092,186.683,62.67,233.888c63.883,36.883,141.905,27.785,195.488-16.957
		C343.62,409.83,290.61,407.009,244.852,380.591z"/>
	<path style="fill:#FF5252;" d="M406.009,334.393c40.169-69.575,16.246-158.859-53.329-199.028s-158.858-16.246-199.027,53.329
		s-16.246,158.859,53.329,199.028C276.556,427.891,365.839,403.968,406.009,334.393z"/>
</g>
<path style="fill:#EA3D3D;" d="M315.151,402.816c-24.062-2.122-48.039-9.373-70.299-22.225
	C167.501,335.932,138.18,239.62,175.21,160.128c-66.086,68.161-50.02,180.372,31.771,227.594
	C241.008,407.367,279.747,411.674,315.151,402.816z"/>
<path style="fill:#FF7171;" d="M259.34,297.034c-19.569-11.298-26.298-36.411-15-55.98s36.411-26.298,55.981-15
	c19.569,11.298,26.298,36.411,15,55.981C304.022,301.603,278.909,308.332,259.34,297.034z"/>
<path style="fill:#FF5252;" d="M287.703,247.907c-7.519-4.341-17.169-1.756-21.51,5.764c-4.341,7.519-1.756,17.169,5.764,21.51
	c7.519,4.341,17.169,1.756,21.51-5.763C297.808,261.897,295.223,252.248,287.703,247.907z"/>
<path style="fill:#65669E;" d="M8.892,432.759h163.932c4.911,0,8.892-3.981,8.892-8.892v-20.46c0-4.911-3.981-8.892-8.892-8.892
	H8.892c-4.911,0-8.892,3.981-8.892,8.892v20.46C0,428.778,3.981,432.759,8.892,432.759z"/>
<path style="fill:#504A7F;" d="M48.233,400.992v25.289c0,3.577,2.9,6.478,6.478,6.478h72.295c3.578,0,6.478-2.9,6.478-6.478v-25.289
	c0-3.578-2.9-6.478-6.478-6.478H54.711C51.133,394.514,48.233,397.415,48.233,400.992z"/>
<path style="fill:#7477AD;" d="M8.892,394.514h163.932c4.911,0,8.892-3.981,8.892-8.892v-20.46c0-4.911-3.981-8.892-8.892-8.892
	H8.892c-4.911,0-8.892,3.981-8.892,8.892v20.46C0,390.533,3.981,394.514,8.892,394.514z"/>
<g>
	<path style="fill:#65669E;" d="M48.233,362.748v25.289c0,3.577,2.9,6.478,6.478,6.478h72.295c3.578,0,6.478-2.9,6.478-6.478
		v-25.289c0-3.577-2.9-6.478-6.478-6.478H54.711C51.133,356.27,48.233,359.17,48.233,362.748z"/>
	<path style="fill:#65669E;" d="M8.892,356.27h163.932c4.911,0,8.892-3.981,8.892-8.892v-20.46c0-4.911-3.981-8.892-8.892-8.892
		H8.892c-4.911,0-8.892,3.981-8.892,8.892v20.46C0,352.289,3.981,356.27,8.892,356.27z"/>
</g>
<path style="fill:#504A7F;" d="M48.233,324.504v25.289c0,3.578,2.9,6.478,6.478,6.478h72.295c3.578,0,6.478-2.9,6.478-6.478v-25.289
	c0-3.577-2.9-6.478-6.478-6.478H54.711C51.133,318.026,48.233,320.926,48.233,324.504z"/>
<path style="fill:#7477AD;" d="M8.892,318.026h163.932c4.911,0,8.892-3.981,8.892-8.892v-20.46c0-4.911-3.981-8.892-8.892-8.892
	H8.892c-4.911,0-8.892,3.981-8.892,8.892v20.46C0,314.045,3.981,318.026,8.892,318.026z"/>
<path style="fill:#65669E;" d="M48.233,286.259v25.289c0,3.577,2.9,6.478,6.478,6.478h72.295c3.578,0,6.478-2.9,6.478-6.478v-25.289
	c0-3.578-2.9-6.478-6.478-6.478H54.711C51.133,279.781,48.233,282.682,48.233,286.259z"/>
<path style="fill:#7477AD;" d="M218.978,432.759h-74.525c-4.269,0-8.213-2.277-10.347-5.974l-37.263-64.541
	c-2.134-3.697-2.134-8.251,0-11.948l37.263-64.54c2.134-3.697,6.079-5.974,10.347-5.974h74.525c4.269,0,8.213,2.277,10.347,5.974
	l37.263,64.54c2.134,3.697,2.134,8.251,0,11.948l-37.263,64.541C227.191,430.481,223.247,432.759,218.978,432.759z"/>
<polygon style="fill:#65669E;" points="151.351,408.863 212.08,408.863 242.445,356.27 212.08,303.677 151.351,303.677 
	120.987,356.27 "/>
<circle style="fill:#504A7F;" cx="181.72" cy="356.27" r="13.907"/>
<path style="fill:#65669E;" d="M151.903,351.666c0-29.744,14.81-56.026,37.455-71.885h-44.905c-4.269,0-8.213,2.277-10.347,5.974
	l-37.263,64.541c-2.134,3.697-2.134,8.251,0,11.948l37.263,64.541c2.135,3.697,6.079,5.974,10.347,5.974h61.701
	C174.313,419.608,151.903,388.257,151.903,351.666z"/>
<path style="fill:#504A7F;" d="M166.192,303.677h-14.841l-30.364,52.593l30.365,52.593h21.779
	c-13.226-15.355-21.227-35.339-21.227-57.196C151.903,333.952,157.158,317.465,166.192,303.677z"/>
<g>
</g>
<g>
</g>
<g>
</g>
<g>
</g>
<g>
</g>
<g>
</g>
<g>
</g>
<g>
</g>
<g>
</g>
<g>
</g>
<g>
</g>
<g>
</g>
<g>
</g>
<g>
</g>
<g>
</g>
</svg>
