<?xml version="1.0" encoding="iso-8859-1"?>
<!-- Generator: Adobe Illustrator 19.0.0, SVG Export Plug-In . SVG Version: 6.00 Build 0)  -->
<svg version="1.1" id="Capa_1" xmlns="http://www.w3.org/2000/svg" xmlns:xlink="http://www.w3.org/1999/xlink" x="0px" y="0px"
	 viewBox="0 0 512 512" style="enable-background:new 0 0 512 512;" xml:space="preserve">
<circle style="fill:#FDBF49;" cx="256" cy="262.77" r="249.23"/>
<path style="fill:#65669E;" d="M256,512c13.231,0,26.217-1.04,38.89-3.027c19.511-7.079,33.489-25.798,33.489-47.723
	c0-52.545,0-348.716,0-410.5c0-27.983-22.766-50.75-50.75-50.75H87.103c-27.983,0-50.75,22.767-50.75,50.75
	c0,14.844,0,234.555,0,329.874C78.403,458.829,160.988,512,256,512z"/>
<path style="fill:#504A7F;" d="M94.02,48.75c0-23.101,15.521-42.633,36.678-48.75H87.103c-27.983,0-50.75,22.767-50.75,50.75
	c0,14.844,0,234.555,0,329.874c14.679,27.301,34.303,51.545,57.667,71.547C94.02,384.377,94.02,108.17,94.02,48.75z"/>
<path style="fill:#CAE03C;" d="M140.923,483.882h136.706c12.499,0,22.632-10.132,22.632-22.632c0-11.875,0-384.091,0-410.5
	c0-12.5-10.133-22.632-22.632-22.632h-23.745c-4.675,0-8.466,3.789-8.469,8.463v5.377c0,7.206-5.896,13.101-13.101,13.101l0,0
	h-99.895l0,0c-7.205,0-13.101-5.895-13.101-13.101v-5.377c-0.003-4.675-3.794-8.463-8.469-8.463H87.103
	c-12.499,0-22.632,10.133-22.632,22.632v371.486C85.536,447.508,111.507,468.542,140.923,483.882z"/>
<path style="fill:#BCCC23;" d="M94.02,48.75c0-7.345,1.574-14.325,4.394-20.632H87.103c-12.499,0-22.632,10.133-22.632,22.632
	v371.46c8.824,10.58,18.562,20.548,29.549,29.949C94.02,384.347,94.02,108.167,94.02,48.75z"/>
<g>
	<path style="fill:#7477AD;" d="M213.83,36.306h-34.017c-4.522,0-8.188-3.665-8.188-8.188s3.666-8.188,8.188-8.188h34.017
		c4.522,0,8.188,3.665,8.188,8.188S218.352,36.306,213.83,36.306z"/>
	<path style="fill:#7477AD;" d="M151.062,36.313c-4.518,0-8.188-3.668-8.188-8.2c0-5.181,4.758-9.02,9.782-8.024
		c4.008,0.832,6.594,4.312,6.594,8.024C159.25,32.579,155.585,36.313,151.062,36.313z"/>
</g>
<path style="fill:#BCCC23;" d="M187.635,453.945h-11.921c-4.522,0-8.188-3.665-8.188-8.188s3.666-8.188,8.188-8.188h11.921
	c4.522,0,8.188,3.665,8.188,8.188S192.157,453.945,187.635,453.945z"/>
<path style="fill:#FF5252;" d="M197.451,103.27c-9.447-6.388-22.247-6.611-32.078,0.398l0,0
	c-12.645,9.015-15.587,26.573-6.573,39.218l19.87,27.871c1.465,2.056,4.519,2.056,5.985,0l19.898-27.912
	C213.629,130.114,210.627,112.2,197.451,103.27z"/>
<path style="fill:#EA3D3D;" d="M182.289,169.915l-5.742-36.621c-2.139-13.643,5.139-26.581,17.008-32.218
	c-8.874-4.12-19.646-3.493-28.182,2.592c-12.645,9.015-15.587,26.573-6.573,39.218l19.87,27.871c1.084,1.521,3.037,1.91,4.574,1.179
	C182.76,171.392,182.413,170.708,182.289,169.915z"/>
<path style="fill:#E6F460;" d="M181.675,326.526h-52.667c-15.752,0-28.566-12.815-28.566-28.567s12.815-28.567,28.566-28.567
	h105.334c6.722,0,12.191-5.468,12.191-12.19c0-6.722-5.469-12.191-12.191-12.191H129.008c-15.752,0-28.566-12.815-28.566-28.567
	c0-15.751,12.815-28.566,28.566-28.566h53.358c4.522,0,8.188,3.665,8.188,8.188s-3.666,8.188-8.188,8.188h-53.358
	c-6.722,0-12.191,5.468-12.191,12.19s5.469,12.191,12.191,12.191h105.334c15.752,0,28.566,12.815,28.566,28.567
	c0,15.751-12.815,28.566-28.566,28.566H129.008c-6.722,0-12.191,5.469-12.191,12.191s5.469,12.191,12.191,12.191h52.667
	c4.522,0,8.188,3.665,8.188,8.188S186.197,326.526,181.675,326.526z"/>
<path style="fill:#BCCC23;" d="M263.436,96.901h-18.021c-4.522,0-8.188-3.665-8.188-8.188s3.666-8.188,8.188-8.188h18.021
	c4.522,0,8.188,3.665,8.188,8.188S267.958,96.901,263.436,96.901z"/>
<path style="fill:#61CBF8;" d="M197.451,344.539c-9.447-6.388-22.247-6.611-32.078,0.398l0,0
	c-12.645,9.015-15.587,26.573-6.573,39.218l19.87,27.871c1.465,2.056,4.519,2.056,5.985,0l19.898-27.912
	C213.629,371.384,210.627,353.469,197.451,344.539z"/>
<path style="fill:#4BA1DB;" d="M182.289,411.184l-5.742-36.621c-2.139-13.643,5.139-26.581,17.008-32.218
	c-8.874-4.12-19.646-3.493-28.182,2.592c-12.645,9.015-15.587,26.573-6.573,39.218l19.87,27.871c1.084,1.521,3.037,1.91,4.574,1.179
	C182.76,412.662,182.413,411.978,182.289,411.184z"/>
<path style="fill:#86DDFC;" d="M181.674,376.971c-4.564,0-8.188-3.703-8.188-8.176c0-5.148,4.702-9.029,9.793-8.035
	c4.01,0.85,6.583,4.272,6.583,8.035C189.862,373.361,186.136,376.971,181.674,376.971z"/>
<path style="fill:#FF7171;" d="M181.674,135.702c-4.467,0-8.188-3.595-8.188-8.176c0-5.107,4.669-9.036,9.793-8.035
	c3.897,0.826,6.583,4.14,6.583,8.035C189.862,132.034,186.185,135.702,181.674,135.702z"/>
<g>
	<path style="fill:#AAC5EE;" d="M356.507,276.279v-25.987h-28.296v25.987c4.641-0.553,9.361-0.846,14.148-0.846
		C347.147,275.433,351.867,275.726,356.507,276.279z"/>
	<path style="fill:#AAC5EE;" d="M342.36,239.288c-4.341,0-7.86-3.519-7.86-7.86v-8.034c0-4.341,3.519-7.86,7.86-7.86
		c4.341,0,7.86,3.519,7.86,7.86v8.034C350.22,235.77,346.701,239.288,342.36,239.288z"/>
	<path style="fill:#AAC5EE;" d="M368.559,254.484H316.16c-7.814,0-14.148-6.334-14.148-14.148s6.334-14.148,14.148-14.148h52.399
		c7.814,0,14.148,6.334,14.148,14.148S376.373,254.484,368.559,254.484z"/>
</g>
<path style="fill:#CEDDF7;" d="M350.851,254.484h-16.983c-2.532,0-4.585-6.334-4.585-14.148s2.053-14.148,4.585-14.148h16.983
	c2.532,0,4.585,6.334,4.585,14.148C355.437,248.15,353.384,254.484,350.851,254.484z"/>
<path style="fill:#AAC5EE;" d="M412.317,299.415l5.783-10.017c3.907-6.767,1.589-15.419-5.178-19.326
	c-6.767-3.907-15.419-1.588-19.326,5.178l-5.805,10.054C396.553,289.035,404.778,293.788,412.317,299.415z"/>
<path style="fill:#65669E;" d="M401.763,496.083c-56.734,32.755-129.539,13.247-162.294-43.487s-13.247-129.538,43.486-162.294
	s129.538-13.247,162.294,43.486S458.497,463.328,401.763,496.083z"/>
<path style="fill:#504A7F;" d="M291.028,422.829c-27.617-47.834-18.08-107.093,19.596-144.139
	c-9.473,2.624-18.768,6.475-27.667,11.613c-56.734,32.755-76.242,105.56-43.487,162.294s105.56,76.242,162.294,43.487
	c8.899-5.138,16.882-11.262,23.891-18.154C374.733,492.034,318.645,470.664,291.028,422.829z"/>
<path style="fill:#CEDDF7;" d="M342.36,302.681c-49.908,0-90.512,40.603-90.512,90.512s40.603,90.512,90.512,90.512
	s90.512-40.604,90.512-90.512S392.268,302.681,342.36,302.681z"/>
<path style="fill:#AAC5EE;" d="M281.002,326.717c-17.915,16.548-29.154,40.222-29.154,66.476c0,49.909,40.603,90.512,90.512,90.512
	c9.401,0,18.471-1.442,27.002-4.114C300.107,464.915,259.198,393.894,281.002,326.717z"/>
<path style="fill:#7477AD;" d="M342.36,409.935c-4.341,0-7.86-3.519-7.86-7.86v-66.897c0-4.341,3.519-7.86,7.86-7.86
	c4.341,0,7.86,3.519,7.86,7.86v66.897C350.22,406.417,346.701,409.935,342.36,409.935z"/>
<path style="fill:#65669E;" d="M371.141,419.718l-40.48-24.399c-3.718-2.241-4.915-7.072-2.674-10.79
	c2.241-3.717,7.071-4.912,10.789-2.674l40.48,24.399c3.718,2.241,4.915,7.072,2.674,10.79
	C379.696,420.75,374.87,421.964,371.141,419.718z"/>
<g>
</g>
<g>
</g>
<g>
</g>
<g>
</g>
<g>
</g>
<g>
</g>
<g>
</g>
<g>
</g>
<g>
</g>
<g>
</g>
<g>
</g>
<g>
</g>
<g>
</g>
<g>
</g>
<g>
</g>
</svg>
