<?xml version="1.0" encoding="iso-8859-1"?>
<!-- Generator: Adobe Illustrator 19.0.0, SVG Export Plug-In . SVG Version: 6.00 Build 0)  -->
<svg version="1.1" id="Capa_1" xmlns="http://www.w3.org/2000/svg" xmlns:xlink="http://www.w3.org/1999/xlink" x="0px" y="0px"
	 viewBox="0 0 512 512" style="enable-background:new 0 0 512 512;" xml:space="preserve">
<circle style="fill:#662B5A;" cx="256" cy="256" r="256"/>
<path style="fill:#FF5252;" d="M340.704,468.496v-220.68c0-18.667-15.273-33.939-33.94-33.939H205.236
	c-18.667,0-33.94,15.273-33.94,33.939v220.679h169.408V468.496z"/>
<path style="fill:#EA3D3D;" d="M242.819,213.877h-37.582c-18.667,0-33.94,15.273-33.94,33.939v220.68h37.582v-220.68
	C208.879,229.15,224.152,213.877,242.819,213.877z"/>
<path style="fill:#FBCC68;" d="M171.297,497.635C197.811,506.929,226.311,512,256,512s58.189-5.071,84.703-14.365v-30.139H171.297
	V497.635z"/>
<path style="fill:#FFB229;" d="M208.813,467.496h-37.516v30.139c12.115,4.247,24.648,7.6,37.516,10.002L208.813,467.496
	L208.813,467.496z"/>
<path style="fill:#CEDDF7;" d="M256,96.685c-11.437,0-20.742-9.305-20.742-20.742V55.511c0-4.092,3.317-7.408,7.408-7.408
	s7.408,3.316,7.408,7.408v20.432c0,3.268,2.658,5.926,5.926,5.926c3.268,0,5.926-2.658,5.926-5.926V55.511
	c0-4.092,3.317-7.408,7.408-7.408s7.408,3.316,7.408,7.408v20.432C276.742,87.38,267.438,96.685,256,96.685z"/>
<g>
	<path style="fill:#AAC5EE;" d="M303.756,224.744c-2.696,0-5.297-1.478-6.605-4.044l-47.75-93.651
		c-1.858-3.645-0.41-8.106,3.235-9.965c3.643-1.863,8.106-0.41,9.965,3.234l47.75,93.651c1.858,3.645,0.41,8.106-3.235,9.965
		C306.038,224.483,304.889,224.744,303.756,224.744z"/>
	<path style="fill:#AAC5EE;" d="M256,117.922c-4.091,0-7.408-3.316-7.408-7.408V82.857c0-4.092,3.317-7.408,7.408-7.408
		s7.408,3.316,7.408,7.408v27.656C263.408,114.605,260.092,117.922,256,117.922z"/>
	<path style="fill:#AAC5EE;" d="M208.244,224.744c-1.132,0-2.281-0.26-3.359-0.81c-3.645-1.859-5.093-6.32-3.235-9.965
		l47.751-93.651c1.859-3.644,6.32-5.092,9.965-3.234c3.645,1.859,5.093,6.32,3.235,9.965L214.85,220.7
		C213.541,223.266,210.941,224.744,208.244,224.744z"/>
</g>
<path style="fill:#FF7171;" d="M171.772,242.21h168.457c-2.693-16.023-16.707-28.334-33.465-28.334H205.236
	C188.479,213.877,174.464,226.188,171.772,242.21z"/>
<path style="fill:#FF5252;" d="M242.816,213.877h-37.58c-0.007,0-0.015,0-0.022,0c-16.778,0.015-30.757,12.351-33.443,28.333h37.582
	C212.047,226.189,226.059,213.878,242.816,213.877z"/>
<path style="fill:#CEDDF7;" d="M317.085,249.618h-26.669c-4.091,0-7.408-3.316-7.408-7.408v-17.469
	c0-11.437,9.305-20.742,20.742-20.742s20.742,9.305,20.742,20.742v17.469C324.493,246.302,321.176,249.618,317.085,249.618z
	 M297.824,234.802h11.853v-10.061c0-3.268-2.658-5.926-5.926-5.926s-5.926,2.658-5.926,5.926v10.061H297.824z"/>
<path style="fill:#EA3D3D;" d="M324.087,234.802h-40.673c-3.059,0-5.539,2.48-5.539,5.539v35.162c0,3.059,2.48,5.539,5.539,5.539
	h40.673c3.059,0,5.539-2.48,5.539-5.539v-35.162C329.626,237.283,327.146,234.802,324.087,234.802z"/>
<path style="fill:#CEDDF7;" d="M221.584,249.618h-26.669c-4.091,0-7.408-3.316-7.408-7.408v-17.469
	c0-11.437,9.305-20.742,20.742-20.742s20.742,9.305,20.742,20.742v17.469C228.992,246.302,225.676,249.618,221.584,249.618z
	 M202.324,234.802h11.853v-10.061c0-3.268-2.658-5.926-5.926-5.926s-5.926,2.658-5.926,5.926v10.061H202.324z"/>
<path style="fill:#EA3D3D;" d="M228.586,234.802h-40.673c-3.059,0-5.539,2.48-5.539,5.539v35.162c0,3.059,2.48,5.539,5.539,5.539
	h40.673c3.059,0,5.539-2.48,5.539-5.539v-35.162C234.126,237.283,231.646,234.802,228.586,234.802z"/>
<g>
	<path style="fill:#DB3535;" d="M303.75,275.503v-35.162c0-3.059,2.48-5.539,5.539-5.539h-25.875c-3.059,0-5.539,2.48-5.539,5.539
		v35.162c0,3.059,2.48,5.539,5.539,5.539h25.875C306.23,281.042,303.75,278.562,303.75,275.503z"/>
	<path style="fill:#DB3535;" d="M208.25,275.503v-35.162c0-3.059,2.48-5.539,5.539-5.539h-25.875c-3.059,0-5.539,2.48-5.539,5.539
		v35.162c0,3.059,2.48,5.539,5.539,5.539h25.875C210.73,281.042,208.25,278.562,208.25,275.503z"/>
</g>
<circle style="fill:#CEDDF7;" cx="256" cy="128.01" r="21.514"/>
<path style="fill:#AAC5EE;" d="M256.006,135.419c-4.136,0-7.408-3.368-7.408-7.408c0-4.78,4.379-8.168,8.85-7.27
	c3.622,0.752,5.966,3.879,5.966,7.27C263.414,131.978,260.178,135.419,256.006,135.419z"/>
<path style="fill:#51204A;" d="M106.608,48.103h298.783C363.348,17.838,311.76,0,256,0S148.652,17.838,106.608,48.103z"/>
<path style="fill:#8C4F5C;" d="M86.538,64.138h338.923c-13.86-12.251-29.055-23.021-45.342-32.069H131.88
	C115.593,41.116,100.398,51.887,86.538,64.138z"/>
<path style="fill:#7B3C47;" d="M286.438,48.103c0-7.128,4.238-13.254,10.323-16.034h-164.88
	c-16.288,9.047-31.482,19.818-45.342,32.069h210.223C290.675,61.357,286.438,55.232,286.438,48.103z"/>
<g>
</g>
<g>
</g>
<g>
</g>
<g>
</g>
<g>
</g>
<g>
</g>
<g>
</g>
<g>
</g>
<g>
</g>
<g>
</g>
<g>
</g>
<g>
</g>
<g>
</g>
<g>
</g>
<g>
</g>
</svg>
