<?xml version="1.0" encoding="iso-8859-1"?>
<!-- Generator: Adobe Illustrator 19.0.0, SVG Export Plug-In . SVG Version: 6.00 Build 0)  -->
<svg version="1.1" id="Capa_1" xmlns="http://www.w3.org/2000/svg" xmlns:xlink="http://www.w3.org/1999/xlink" x="0px" y="0px"
	 viewBox="0 0 512 512" style="enable-background:new 0 0 512 512;" xml:space="preserve">
<circle style="fill:#662B5A;" cx="256" cy="245.75" r="245.75"/>
<path style="fill:#FF8585;" d="M346.702,330.89c-27.724-32.293-47.245-70.699-57.043-111.954h-33.657V512
	c67.875-0.001,122.899-48.395,122.899-108.091C378.901,358.718,347.884,332.546,346.702,330.89z"/>
<path style="fill:#EA3D3D;" d="M222.341,218.936c-9.799,41.255-29.319,79.661-57.043,111.954
	c-1.182,1.656-32.198,27.828-32.198,73.019C133.099,463.606,188.124,512,256,512l0,0h0.001V218.936H222.341z"/>
<path style="fill:#FF7171;" d="M280.033,219.935h-48.066c-7.001,40.876-20.776,78.923-40.274,110.955
	c-0.838,1.656-22.828,27.828-22.828,73.019C168.865,463.606,207.876,512,256,512l0,0c48.123,0,87.135-48.394,87.135-108.091
	c0-45.191-21.99-71.363-22.828-73.019C300.809,298.858,287.034,260.811,280.033,219.935z"/>
<path style="fill:#FF5252;" d="M231.967,219.935c-7.002,40.876-20.776,78.923-40.274,110.955
	c-0.838,1.656-22.828,27.828-22.828,73.019C168.865,463.606,207.876,512,256,512l0,0h0.002V219.935H231.967z"/>
<g>
	<path style="fill:#CEDDF7;" d="M256,102.782c-11.567,0-20.978-9.411-20.978-20.978V59.143c0-4.138,3.354-7.492,7.492-7.492
		s7.492,3.354,7.492,7.492v22.661c0,3.305,2.689,5.994,5.994,5.994s5.994-2.689,5.994-5.994V59.143c0-4.138,3.354-7.492,7.492-7.492
		s7.492,3.354,7.492,7.492v22.661C276.977,93.371,267.567,102.782,256,102.782z"/>
	<path style="fill:#CEDDF7;" d="M269.485,210.064c-4.138,0-7.492-3.354-7.492-7.492v-25.658c0-3.305-2.689-5.994-5.994-5.994
		s-5.994,2.689-5.994,5.994v25.658c0,4.138-3.354,7.492-7.492,7.492s-7.492-3.354-7.492-7.492v-25.658
		c0-11.567,9.41-20.978,20.978-20.978s20.978,9.411,20.978,20.978v25.658C276.977,206.71,273.623,210.064,269.485,210.064z"/>
	<path style="fill:#CEDDF7;" d="M256,156.301c-14.557,0-26.4-11.843-26.4-26.401c0-14.557,11.843-26.4,26.4-26.4
		c14.557,0,26.401,11.843,26.401,26.4C282.4,144.458,270.557,156.301,256,156.301z M256,118.485
		c-6.295,0-11.416,5.121-11.416,11.416s5.121,11.417,11.416,11.417c6.295,0,11.417-5.121,11.417-11.417
		C267.416,123.606,262.295,118.485,256,118.485z"/>
</g>
<g>
	<path style="fill:#AAC5EE;" d="M256,176.685c-4.138,0-7.492-3.354-7.492-7.492v-27.97c0-4.138,3.354-7.492,7.492-7.492
		s7.492,3.354,7.492,7.492v27.97C263.492,173.331,260.138,176.685,256,176.685z"/>
	<path style="fill:#AAC5EE;" d="M256,125.758c-4.138,0-7.492-3.354-7.492-7.492v-27.97c0-4.138,3.354-7.492,7.492-7.492
		s7.492,3.354,7.492,7.492v27.97C263.492,122.404,260.138,125.758,256,125.758z"/>
</g>
<path style="fill:#51204A;" d="M90.444,64.138h331.113C377.877,24.298,319.778,0,256,0S134.123,24.298,90.444,64.138z"/>
<path style="fill:#8C4F5C;" d="M134.557,32.069c-15.896,9.054-30.688,19.824-44.113,32.069h331.113
	c-13.425-12.245-28.217-23.014-44.113-32.069H134.557z"/>
<path style="fill:#FF8A8A;" d="M256.002,491.508c-21.211,0-40.369,3.633-54.099,9.478C218.227,508.035,236.586,512,256,512l0,0
	c19.415,0,37.774-3.965,54.099-11.016C296.37,495.14,277.212,491.508,256.002,491.508z"/>
<path style="fill:#FBCC68;" d="M289.893,219.935c-1.365-5.65-2.551-11.353-3.546-17.102c-0.826-4.769-4.964-8.252-9.804-8.252
	c-7.355,0-13.948,0-20.543,0l0,0c-6.594,0-13.188,0-20.543,0c-4.84,0-8.978,3.483-9.804,8.252
	c-0.996,5.75-2.181,11.452-3.546,17.102H289.893z"/>
<path style="fill:#FDBF49;" d="M262.675,194.58c-2.243,0-4.46,0-6.675,0l0,0c-6.594,0-13.188,0-20.543,0
	c-4.84,0-8.978,3.483-9.804,8.252c-0.996,5.75-2.182,11.452-3.546,17.102H256c0.682-5.65,1.275-11.353,1.773-17.102
	C258.186,198.064,260.255,194.58,262.675,194.58z"/>
<path style="fill:#7B3C47;" d="M285.998,48.103c0-6.906,3.825-12.914,9.47-16.034H134.557
	c-15.896,9.054-30.688,19.824-44.113,32.069h205.025C289.824,61.017,285.998,55.009,285.998,48.103z"/>
<g>
</g>
<g>
</g>
<g>
</g>
<g>
</g>
<g>
</g>
<g>
</g>
<g>
</g>
<g>
</g>
<g>
</g>
<g>
</g>
<g>
</g>
<g>
</g>
<g>
</g>
<g>
</g>
<g>
</g>
</svg>
