<?xml version="1.0" encoding="iso-8859-1"?>
<!-- Generator: Adobe Illustrator 19.0.0, SVG Export Plug-In . SVG Version: 6.00 Build 0)  -->
<svg version="1.1" id="Capa_1" xmlns="http://www.w3.org/2000/svg" xmlns:xlink="http://www.w3.org/1999/xlink" x="0px" y="0px"
	 viewBox="0 0 512 512" style="enable-background:new 0 0 512 512;" xml:space="preserve">
<circle style="fill:#FDBF49;" cx="256" cy="261" r="251"/>
<path style="fill:#65669E;" d="M281.883,510.679l-8.621-211.104c-11.604,0-197.371,0-208.975,0l-4.802,117.569
	c25.717,32.322,59.235,58.155,97.713,74.648l9.41-81.921c0.296-2.575,4.037-2.575,4.333,0l10.435,90.848
	C204.95,508.051,230.014,512,256,512C264.74,512,273.374,511.551,281.883,510.679z"/>
<g>
	<path style="fill:#504A7F;" d="M104.107,299.576h-39.82l-4.802,117.569c11.316,14.223,24.146,27.186,38.241,38.652L104.107,299.576
		z"/>
	<path style="fill:#504A7F;" d="M73.966,269.135H263.61c5.33,0,9.652,4.321,9.652,9.652v20.79H64.287v-20.763
		C64.287,273.468,68.62,269.135,73.966,269.135z"/>
</g>
<path style="fill:#31315B;" d="M104.308,278.656c0-4.488,2.971-8.279,7.053-9.521H73.966c-5.345,0-9.678,4.333-9.678,9.678v20.763
	h40.021v-20.92H104.308z"/>
<g>
	<path style="fill:#7477AD;" d="M273.262,299.576h-40.021l2.645,66.806c0.484,12.217,5.83,23.734,14.85,31.989l27.592,25.252
		L273.262,299.576z"/>
	<path style="fill:#7477AD;" d="M59.486,417.145c0.957,1.202,1.915,2.404,2.893,3.588l24.435-22.363
		c9.02-8.255,14.366-19.772,14.85-31.989l2.645-66.805H64.287L59.486,417.145z"/>
</g>
<path style="fill:#61CBF8;" d="M457.425,203.504L425.343,63.851c-3.164-13.771-12.123-25.503-24.576-32.181L348.106,3.432
	C343.904,1.179,339.21,0,334.442,0h-59.996h-61.36c-3.873,0-7.685,0.958-11.098,2.788l-53.862,28.883
	c-12.452,6.677-21.412,18.41-24.576,32.181L91.468,203.504c-0.916,3.989,1.754,7.915,5.801,8.528l61.815,9.366
	c3.351,0.508,6.533-1.633,7.327-4.928l10.669-44.318c0.386-1.605,2.748-1.324,2.748,0.326c0,54.737,0.673,70.24-2.594,98.385
	l-10.849,93.468c-0.733,6.317,4.205,11.862,10.565,11.862h97.497h97.497c6.36,0,11.298-5.544,10.565-11.862
	C371,265.176,369.066,254.942,369.066,226.017v-53.539c0-1.65,2.362-1.931,2.748-0.326l10.669,44.318
	c0.793,3.295,3.976,5.435,7.327,4.928l61.815-9.366C455.671,211.419,458.342,207.493,457.425,203.504z"/>
<g>
	<path style="fill:#5ABDEE;" d="M382.785,104.163L382.785,104.163c-7.577,0-13.72,6.143-13.72,13.72v54.595
		c0-1.65,2.362-1.931,2.748-0.326l10.669,44.318c0.793,3.295,3.976,5.435,7.326,4.928l30.655-4.645l-25.661-103.196
		C393.43,108.038,388.473,104.163,382.785,104.163z"/>
	<path style="fill:#5ABDEE;" d="M125.801,211.503L158.884,43.85c2.45-10.666,8.389-20.097,16.723-26.915l-27.48,14.736
		c-12.452,6.677-21.412,18.41-24.576,32.181L91.468,203.504c-0.916,3.989,1.754,7.915,5.801,8.528l29.222,4.427
		C125.692,215.005,125.398,213.26,125.801,211.503z"/>
	<path style="fill:#5ABDEE;" d="M328.919,0h-54.473h-59.663c1.498,30.222,26.474,54.265,57.068,54.265S327.421,30.222,328.919,0z"/>
</g>
<path style="fill:#4BA1DB;" d="M288.063,0c-1.145,23.109-16.025,42.59-36.639,50.488c6.345,2.431,13.228,3.777,20.428,3.777
	c30.594,0,55.57-24.043,57.068-54.265H288.063z"/>
<path style="fill:#5ABDEE;" d="M382.482,216.471c0.793,3.295,3.976,5.435,7.327,4.928l61.815-9.366
	c4.047-0.613,6.717-4.539,5.801-8.528l-5.874-25.569l-75.667,11.128L382.482,216.471z"/>
<path style="fill:#4BA1DB;" d="M389.809,221.398l30.655-4.645l-8.216-33.039l-36.364,5.348l6.598,27.408
	c0.05,0.206,0.109,0.407,0.176,0.604c0.114,0.33,0.257,0.642,0.417,0.943c0.148,0.277,0.313,0.541,0.497,0.791
	C384.971,220.708,387.343,221.772,389.809,221.398z"/>
<path style="fill:#5ABDEE;" d="M166.411,216.471c-0.793,3.295-3.976,5.435-7.327,4.928l-61.815-9.366
	c-4.047-0.613-6.717-4.539-5.801-8.528l5.874-25.569l75.667,11.128L166.411,216.471z"/>
<path style="fill:#4BA1DB;" d="M97.116,212.001c0.052,0.009,0.101,0.024,0.153,0.031l29.222,4.427c-0.8-1.455-1.094-3.2-0.69-4.957
	l5.635-28.554l-34.094-5.014l-5.874,25.569C90.579,207.377,93.082,211.299,97.116,212.001z"/>
<g>
	<path style="fill:#E6F460;" d="M278.867,104.163h-14.03c-5.079,0-9.196-4.117-9.196-9.196s4.117-9.196,9.196-9.196h14.03
		c5.079,0,9.196,4.117,9.196,9.196C288.063,100.047,283.946,104.163,278.867,104.163z"/>
	<path style="fill:#E6F460;" d="M369.071,226.408h-0.006v-67.41c0-3.813-4.427-5.918-7.384-3.51l-23.33,18.994
		c-2.684,2.185-4.242,5.462-4.242,8.923v192.789h37.834c6.36,0,11.298-5.544,10.565-11.862
		C371.381,268.467,369.1,256.127,369.071,226.408z"/>
	<path style="fill:#E6F460;" d="M186.34,154.777c-2.608-2.123-6.511-0.267-6.511,3.095v71.981h-0.055
		c-0.135,13.705-0.958,27.394-2.538,41.01l-10.849,93.468c-0.733,6.317,4.205,11.862,10.565,11.862h37.834V184.518
		c0-4.165-1.875-8.109-5.105-10.739L186.34,154.777z"/>
</g>
<g>
</g>
<g>
</g>
<g>
</g>
<g>
</g>
<g>
</g>
<g>
</g>
<g>
</g>
<g>
</g>
<g>
</g>
<g>
</g>
<g>
</g>
<g>
</g>
<g>
</g>
<g>
</g>
<g>
</g>
</svg>
