<?xml version="1.0" encoding="iso-8859-1"?>
<!-- Generator: Adobe Illustrator 19.0.0, SVG Export Plug-In . SVG Version: 6.00 Build 0)  -->
<svg version="1.1" id="Capa_1" xmlns="http://www.w3.org/2000/svg" xmlns:xlink="http://www.w3.org/1999/xlink" x="0px" y="0px"
	 viewBox="0 0 512 512" style="enable-background:new 0 0 512 512;" xml:space="preserve">
<circle style="fill:#504A7F;" cx="256" cy="256" r="256"/>
<path style="fill:#FF7171;" d="M458.166,305.612l38.751-114.831c21.211-62.855-13.138-131.253-76.478-150.968
	c-43.274-13.469-90.547-18.678-124.166,3.894c-19.118,12.836-30.198,34.699-30.198,57.727l0,0c0,3.799-2.25,7.251-5.75,8.73
	c-10.896,4.604-32.395,20.963-19.929,77.06c12.626,56.818,36.238,102.718,46.32,120.65c2.827,5.028,8.144,8.131,13.913,8.131
	h143.062C450.247,316.004,456.071,311.822,458.166,305.612z"/>
<path style="fill:#FF5252;" d="M334.393,313.688l-18.787-140.423c-7.958-59.481,23.01-115.323,73.144-141.461
	c-33.546-6.351-66.947-5.237-92.476,11.903c-19.118,12.836-30.198,34.699-30.198,57.727c0,3.799-2.25,7.251-5.75,8.729
	c-10.896,4.604-32.395,20.963-19.929,77.06c12.626,56.818,36.238,102.718,46.32,120.651c2.827,5.028,8.144,8.131,13.913,8.131
	h34.242C334.667,315.249,334.498,314.479,334.393,313.688z"/>
<path style="fill:#EA3D3D;" d="M275.193,171.334c5.085,0,9.206-4.121,9.206-9.206V53.937
	c-11.739,12.759-18.324,29.773-18.324,47.495c0,0.41-0.038,0.813-0.089,1.212v59.482
	C265.986,167.212,270.108,171.334,275.193,171.334z"/>
<path style="fill:#AAC5EE;" d="M469.558,329.675c0-8.228-6.67-14.899-14.899-14.899h-163.18c-8.228,0-14.899,6.67-14.899,14.899
	v97.407c0,8.228,6.67,14.898,14.899,14.898h140.426c14.185-13.421,26.828-28.45,37.653-44.791L469.558,329.675L469.558,329.675z"/>
<path style="fill:#CEDDF7;" d="M435.32,427.082v-97.407c0-8.228-6.67-14.899-14.899-14.899H291.479
	c-8.228,0-14.899,6.67-14.899,14.899v97.407c0,8.228,6.67,14.898,14.899,14.898h128.943C428.65,441.98,435.32,435.31,435.32,427.082
	z"/>
<path style="fill:#AAC5EE;" d="M329.581,430.682V326.075c0-4.411,1.786-8.404,4.673-11.299H291.48
	c-8.228,0-14.898,6.67-14.898,14.898v97.407c0,8.229,6.67,14.898,14.898,14.898h42.774
	C331.366,439.086,329.581,435.093,329.581,430.682z"/>
<path style="fill:#FFB229;" d="M399.14,346.29H276.58v64.175h122.56c2.577,0,4.666-2.089,4.666-4.666v-54.843
	C403.806,348.379,401.717,346.29,399.14,346.29z"/>
<rect x="276.58" y="346.29" style="fill:#FC9B00;" width="53" height="64.17"/>
<path style="fill:#FBCC68;" d="M399.14,346.29h-29.572v64.175h29.572c2.577,0,4.666-2.089,4.666-4.666v-54.843
	C403.806,348.379,401.717,346.29,399.14,346.29z"/>
<path style="fill:#FF5252;" d="M162.236,134.003c-3.77,0.469-7.444-1.395-9.344-4.685l0,0
	c-11.514-19.942-32.041-33.336-55.016-34.893c-16.695-1.131-33.035,3.021-48.635,10.623C18.287,147.373,0,199.547,0,256
	c0,27.641,4.398,54.251,12.504,79.189l76.123,66.999c4.92,4.33,12.055,5.04,17.731,1.762l123.896-71.531
	c4.996-2.885,8.049-8.23,7.983-13.998c-0.235-20.571-2.737-72.128-20.211-127.646C200.773,135.96,173.975,132.542,162.236,134.003z"
	/>
<g>
	<path style="fill:#EA3D3D;" d="M179.947,194.413c-4.403,2.542-10.034,1.034-12.576-3.37l-54.095-93.695
		c16.545,5.18,30.755,16.622,39.616,31.97c0.205,0.355,0.439,0.685,0.683,1.005l29.741,51.513
		C185.86,186.24,184.351,191.871,179.947,194.413z"/>
	<path style="fill:#EA3D3D;" d="M143.464,369.781L56.682,257.925c-30.358-39.129-36.54-89.455-20.78-132.701
		C13.105,163.499,0,208.215,0,256c0,27.642,4.398,54.251,12.504,79.189l76.123,66.999c4.92,4.33,12.055,5.04,17.731,1.762
		l47.806-27.601C150.014,375.543,146.18,373.281,143.464,369.781z"/>
</g>
<path style="fill:#8FB1DB;" d="M257.916,332.234c-4.114-7.126-13.226-9.567-20.352-5.453l-141.319,81.59
	c-7.126,4.114-9.567,13.226-5.453,20.352l23.305,40.365c22.208,14.819,46.86,26.256,73.227,33.581l113.842-65.727
	c7.126-4.114,9.567-13.226,5.453-20.352L257.916,332.234z"/>
<path style="fill:#CEDDF7;" d="M257.916,332.234c-4.114-7.126-13.226-9.567-20.352-5.453l-111.668,64.471
	c-7.126,4.114-9.567,13.226-5.453,20.352l48.704,84.357c0.238,0.413,0.497,0.806,0.768,1.187c5.595,1.998,11.277,3.811,17.044,5.423
	c0.865-0.303,1.717-0.681,2.54-1.157l111.668-64.471c7.126-4.114,9.567-13.226,5.453-20.352L257.916,332.234z"/>
<path style="fill:#AAC5EE;" d="M199.767,484.075l-51.315-88.879c-3.369-5.835-2.55-12.924,1.5-17.833l-24.056,13.889
	c-7.126,4.114-9.567,13.226-5.453,20.352l48.704,84.356c0.238,0.413,0.497,0.806,0.768,1.187c5.595,1.998,11.277,3.811,17.044,5.423
	c0.865-0.303,1.717-0.681,2.54-1.157l18.246-10.534C204.498,489.637,201.64,487.32,199.767,484.075z"/>
<path style="fill:#FFB229;" d="M160.084,407.903l106.139-61.28L298.31,402.2l-106.139,61.28c-2.232,1.288-5.085,0.524-6.374-1.708
	l-27.421-47.495C157.088,412.045,157.853,409.192,160.084,407.903z"/>
<path style="fill:#FBCC68;" d="M160.084,407.903l25.61-14.786l32.087,55.577l-25.61,14.786c-2.232,1.288-5.085,0.524-6.374-1.708
	l-27.421-47.495C157.088,412.045,157.853,409.192,160.084,407.903z"/>
<g>
</g>
<g>
</g>
<g>
</g>
<g>
</g>
<g>
</g>
<g>
</g>
<g>
</g>
<g>
</g>
<g>
</g>
<g>
</g>
<g>
</g>
<g>
</g>
<g>
</g>
<g>
</g>
<g>
</g>
</svg>
