<?xml version="1.0" encoding="iso-8859-1"?>
<!-- Generator: Adobe Illustrator 19.0.0, SVG Export Plug-In . SVG Version: 6.00 Build 0)  -->
<svg version="1.1" id="Capa_1" xmlns="http://www.w3.org/2000/svg" xmlns:xlink="http://www.w3.org/1999/xlink" x="0px" y="0px"
	 viewBox="0 0 512 512" style="enable-background:new 0 0 512 512;" xml:space="preserve">
<circle style="fill:#FDBF49;" cx="251.16" cy="256" r="251.16"/>
<path style="fill:#8C4F5C;" d="M502.324,148.561L471.008,94.32c-5.721-9.908-15.25-16.986-25.837-18.847
	c-21.986-3.864-48.931-3.039-79.071,2.236c-13.161,2.304-26.866-5.719-32.681-19.125l0,0c-1.536-3.542-5.289-5.494-8.655-4.501
	c-21.561,6.361-81.563,22.203-160.948,68.036c-79.087,45.66-122.798,89.525-139.165,105.142c-2.671,2.549-2.858,7.002-0.438,10.265
	c8.576,11.568,8.679,27.223,0.22,37.312c-7.6,9.063-14.361,18.042-20.271,26.864c5.451,29.646,16.109,57.465,30.989,82.484
	c8.809-15.294,20.465-31.228,34.632-47.352c7.951-9.05,22.419-7.601,30.277,2.998c2.076,2.8,5.828,3.35,8.143,1.188
	c21.979-20.526,112.97-106.396,249.166-149.978l24.236-7.755c2.806-0.898,4.091-4.183,2.8-7.159
	c-5.334-12.299,0.737-25.775,12.742-28.162C439.501,139.543,476.102,139.532,502.324,148.561z"/>
<path style="fill:#65669E;" d="M475.26,101.684c-11.941,61.432-90.149,145.619-201.913,210.146
	c-86.637,50.02-173.402,76.648-235.609,76.612c16.258,26.144,37.181,49.079,61.612,67.644c59.825-5.278,136.777-31.239,213.63-75.61
	c101.386-58.535,175.158-133.248,196.899-192.478c3.739-10.186,2.473-22.07-3.303-32.074L475.26,101.684z"/>
<path style="fill:#7477AD;" d="M37.743,388.45c16.254,26.134,37.169,49.063,61.591,67.624
	c50.636-4.466,113.534-23.744,178.273-56.473l-38.917-68.998C163.977,368.481,91.642,388.476,37.743,388.45z"/>
<g>
	<path style="fill:#65669E;" d="M147.259,396.215c0-13.341,6.193-25.229,15.854-32.968c-46.703,16.618-90.005,25.22-125.37,25.203
		c16.254,26.134,37.169,49.063,61.591,67.624c25.607-2.259,54.353-8.311,84.885-17.97
		C163.385,435.51,147.259,417.752,147.259,396.215z"/>
	<path style="fill:#65669E;" d="M217.902,383.174c-1.878-4.462-7.033-6.55-11.494-4.669c-4.446,1.871-6.534,6.982-4.683,11.437
		c1.4,3.367,4.662,5.398,8.1,5.398c1.11,0,2.238-0.211,3.327-0.658c0.025-0.01,0.066-0.027,0.091-0.038
		C217.704,392.766,219.781,387.634,217.902,383.174z"/>
</g>
<path style="fill:#504A7F;" d="M127.828,404.229c-4.685,1.054-7.655,5.689-6.642,10.394c0.885,4.11,4.519,6.921,8.559,6.921
	c0.611,0,1.232-0.065,1.854-0.199c0.074-0.016,0.259-0.059,0.332-0.076c4.701-1.14,7.575-5.869,6.439-10.571
	C137.238,406.01,132.515,403.121,127.828,404.229z"/>
<path style="fill:#65669E;" d="M165.993,393.431c-0.079,0.024-0.267,0.086-0.345,0.112c-4.577,1.574-7.012,6.559-5.439,11.137
	c1.249,3.633,4.649,5.917,8.287,5.917c0.911,0,1.838-0.144,2.75-0.445c4.603-1.454,7.165-6.359,5.725-10.97
	C175.528,394.562,170.609,391.983,165.993,393.431z"/>
<path style="fill:#504A7F;" d="M81.711,412.185c-4.81,0.534-8.277,4.868-7.742,9.678c0.498,4.482,4.292,7.797,8.699,7.797
	c0.323,0,0.65-0.018,0.978-0.055l0.062-0.007c4.81-0.534,8.246-4.864,7.711-9.674C90.885,415.113,86.522,411.655,81.711,412.185z"/>
<path style="fill:#CEDDF7;" d="M376.199,344.605l-40.43-70.026c-7.637-13.228-24.61-17.775-37.837-10.139l-65.359,37.735l0,0
	c-13.226,7.637-17.774,24.611-10.137,37.837l40.429,70.026c5.125,8.876,14.454,13.844,24.035,13.844
	c4.696,0,9.452-1.193,13.802-3.705l65.359-37.735C379.287,374.805,383.835,357.831,376.199,344.605z M357.297,367.264
	l-50.209,28.988l-50.602-87.645l50.209-28.988c4.859-2.801,11.091-1.133,13.896,3.723l40.43,70.026
	C363.824,358.225,362.154,364.459,357.297,367.264z"/>
<path style="fill:#7477AD;" d="M470.167,185.342l-30.002-3.45c-4.274-0.491-8.501,1.193-11.261,4.492
	c-34.81,41.611-91.226,89.932-166.866,131.838l39.633,68.646c63.918-35.412,132.803-86.438,176.747-144.209
	c1.641-2.157,2.522-4.794,2.561-7.504l0.526-36.915C481.597,191.668,476.697,186.093,470.167,185.342z"/>
<path style="fill:#65669E;" d="M372.142,231.199c-5.836,5.054-11.885,10.084-18.14,15.077c-2.14,1.709-2.725,4.718-1.356,7.089
	l42.992,74.464c1.698,2.94,5.615,3.658,8.263,1.533c6.366-5.108,12.52-10.254,18.446-15.424c1.985-1.732,2.45-4.633,1.133-6.915
	l-42.955-74.4C378.793,229.626,374.759,228.932,372.142,231.199z"/>
<path style="fill:#504A7F;" d="M383.204,278.172c0.098-0.081,0.196-0.162,0.294-0.243c6.837-5.647,16.347-5.437,22.932-0.434
	l-25.906-44.871c-1.731-2.999-5.765-3.692-8.382-1.425c-5.836,5.054-11.885,10.084-18.141,15.077
	c-2.14,1.708-2.725,4.718-1.356,7.089l23.956,41.493C375.81,288.693,378.152,282.339,383.204,278.172z"/>
<path style="fill:#AAC5EE;" d="M320.591,283.342l0.62,1.074l14.7-9.592l-0.141-0.245c-7.637-13.228-24.61-17.775-37.837-10.139
	l-65.359,37.735l0,0c-13.226,7.637-17.774,24.611-10.137,37.837l32.454,56.213c-0.111-0.948-0.175-1.909-0.175-2.887
	c0-13.541,10.977-24.519,24.519-24.519c5.635,0,10.821,1.905,14.962,5.101l-37.709-65.314l50.209-28.988
	C311.554,276.818,317.787,278.486,320.591,283.342z"/>
<path style="fill:#65669E;" d="M335.77,274.579c-0.441-0.764-0.917-1.497-1.418-2.202c-4.663,3.375-9.439,6.74-14.329,10.089
	c0.202,0.28,0.392,0.572,0.568,0.877l39.088,67.703c4.825-3.304,9.629-6.673,14.396-10.119L335.77,274.579z"/>
<path style="fill:#8FB1DB;" d="M272.488,366.568c-3.028,0-5.974-1.571-7.597-4.383c-2.42-4.191-0.984-9.551,3.208-11.971
	l37.957-21.915c4.191-2.418,9.551-0.985,11.971,3.208c2.42,4.191,0.984,9.551-3.208,11.971l-37.957,21.915
	C275.482,366.189,273.975,366.568,272.488,366.568z"/>
<path style="fill:#7B3C47;" d="M121.611,189.895c0-19.887,6.583-38.236,17.687-52.99C75.576,176.977,39.24,213.341,24.651,227.261
	c-2.671,2.549-2.857,7.002-0.438,10.265c8.576,11.568,8.679,27.223,0.22,37.312c-7.6,9.063-14.361,18.042-20.271,26.864
	c5.451,29.646,16.109,57.465,30.989,82.484c8.81-15.294,20.465-31.228,34.632-47.352c7.951-9.05,22.419-7.601,30.277,2.998
	c2.076,2.8,5.828,3.35,8.143,1.188c10.88-10.161,38.682-36.337,80.497-65.467C150.183,266.088,121.611,231.331,121.611,189.895z"/>
<g>
</g>
<g>
</g>
<g>
</g>
<g>
</g>
<g>
</g>
<g>
</g>
<g>
</g>
<g>
</g>
<g>
</g>
<g>
</g>
<g>
</g>
<g>
</g>
<g>
</g>
<g>
</g>
<g>
</g>
</svg>
