<?xml version="1.0" encoding="iso-8859-1"?>
<!-- Generator: Adobe Illustrator 19.0.0, SVG Export Plug-In . SVG Version: 6.00 Build 0)  -->
<svg version="1.1" id="Capa_1" xmlns="http://www.w3.org/2000/svg" xmlns:xlink="http://www.w3.org/1999/xlink" x="0px" y="0px"
	 viewBox="0 0 512 512" style="enable-background:new 0 0 512 512;" xml:space="preserve">
<circle style="fill:#BCCC23;" cx="256" cy="256" r="256"/>
<path style="fill:#61CBF8;" d="M221.015,226.054l-18.629-42.99c-2.255-5.204-0.447-11.276,4.288-14.399l30.513-20.125
	c5.058-3.337,11.859-1.987,15.259,3.029l30.126,44.438c0.711,1.048,1.857,1.357,2.871,1.116l204.838,79.625l-8.359,29.946
	c-1.75,6.271-7.464,10.608-13.974,10.607H353.827h-54.665c-7.419,0-14.516-3.034-19.642-8.397
	C273.321,301.455,242.565,275.783,221.015,226.054z"/>
<g>
	<path style="fill:#5ABDEE;" d="M381.09,297.031h-54.665c-7.419,0-14.516-3.034-19.642-8.397l-11.534-12.067
		c-19.72-20.631-35.623-44.596-46.97-70.783l-18.629-42.99c-1.324-3.056-1.238-6.407,0.01-9.288l-22.984,15.16
		c-4.735,3.123-6.542,9.195-4.288,14.399l18.629,42.99c21.478,49.565,52.102,75.157,58.505,82.85
		c5.127,5.363,12.223,8.397,19.642,8.397h54.665H467.95c6.511,0,12.224-4.336,13.974-10.607l2.697-9.663H381.09V297.031z"/>
	<path style="fill:#5ABDEE;" d="M476.11,386.763v-59.246c0-5.642-4.574-10.216-10.216-10.216H297.141
		c-5.642,0-10.216,4.574-10.216,10.216v96.172c0,5.642,4.574,10.216,10.216,10.216H440.06
		C453.813,419.68,465.928,403.866,476.11,386.763z"/>
</g>
<path style="fill:#52AFE5;" d="M476.11,386.763v-59.245c0-5.641-4.572-10.214-10.213-10.216h-47.75
	c-48.258,0-87.379,39.121-87.379,87.378c0,10.253,1.781,20.086,5.025,29.226H440.06C453.813,419.68,465.928,403.866,476.11,386.763z
	"/>
<path style="fill:#4BA1DB;" d="M467.091,317.377c-0.392-0.046-0.789-0.076-1.193-0.076h-47.75
	c-48.258,0-87.379,39.121-87.379,87.378c0,10.253,1.781,20.086,5.025,29.226h52.447c-3.244-9.14-5.025-18.973-5.025-29.226
	C383.216,357.596,420.458,319.217,467.091,317.377z"/>
<path style="fill:#61CBF8;" d="M433.033,406.016H413.19c-5.171,0-9.362-4.191-9.362-9.362s4.192-9.362,9.362-9.362h19.842
	c5.171,0,9.362,4.191,9.362,9.362S438.203,406.016,433.033,406.016z"/>
<g>
	<path style="fill:#7477AD;" d="M491.625,271.934l-2.336,8.369L491.625,271.934z"/>
	<path style="fill:#7477AD;" d="M287.515,194.738L287.515,194.738c0.008-0.088,0.031-0.167,0.031-0.258V37.124
		c0-5.494,4.454-9.948,9.948-9.948h36.166c5.522,0,9.999,4.477,9.999,9.999V9.949c0-5.494,4.454-9.948,9.948-9.948h36.166
		c5.522,0,9.999,4.477,9.999,9.999v27.124c0-5.494,4.454-9.948,9.948-9.948h36.166c5.522,0,9.999,4.477,9.999,9.999v32.629
		c0-5.495,4.454-9.949,9.948-9.949h36.166c5.522,0,9.999,4.477,9.999,9.999v75.944c0,35.262-4.806,70.359-14.287,104.322
		l-6.089,21.814L287.546,194.48C287.546,194.571,287.523,194.65,287.515,194.738z"/>
</g>
<g>
	<path style="fill:#65669E;" d="M321.25,198.883V27.175h-23.756c-5.494,0-9.948,4.454-9.948,9.948V194.48v4.403
		c0,9.307,7.545,16.852,16.852,16.852C313.706,215.735,321.25,208.19,321.25,198.883z"/>
	<path style="fill:#65669E;" d="M465.835,59.854c-5.494,0-9.948,4.454-9.948,9.949V37.174v-0.002v115.524
		c0,9.307,7.545,16.852,16.852,16.852c9.307,0,16.852-7.545,16.852-16.852V59.854H465.835z"/>
	<path style="fill:#65669E;" d="M416.625,169.548c9.307,0,16.852-7.545,16.852-16.852V27.175h-23.756
		c-5.494,0-9.948,4.454-9.948,9.948v115.573C399.773,162.003,407.318,169.548,416.625,169.548z"/>
	<path style="fill:#65669E;" d="M377.364,152.696V0h-23.756c-5.494,0-9.948,4.454-9.948,9.948v27.225v-0.002v115.524
		c0,9.307,7.545,16.852,16.852,16.852C369.819,169.548,377.364,162.003,377.364,152.696z"/>
</g>
<path style="fill:#5ABDEE;" d="M481.923,306.694l6.755-24.201l2.947-10.559L287.546,194.48c0,2.682-3.469,3.747-4.974,1.527
	c0,0-22.845,36.187-18.911,96.17c1.423,1.57,2.86,3.126,4.325,4.659c9.172,8.51,13.336,17.362,25.699,19.907
	c1.789,0.368,3.623,0.558,5.478,0.558h54.665h114.121C474.458,317.301,480.172,312.964,481.923,306.694z"/>
<path style="fill:#E6F460;" d="M287.546,194.48v-32.839l212.276,80.566c-0.678,2.644-1.374,5.283-2.109,7.914l-7.432,26.628
	l-204.838-79.625C286.577,196.854,287.546,195.896,287.546,194.48z"/>
<path style="fill:#BCCC23;" d="M287.546,161.641v19.703v8.757v4.379l0,0c0,1.416-0.969,2.374-2.104,2.642l31.992,12.436
	c2.383-2.907,3.815-6.624,3.815-10.676v-24.451L287.546,161.641z"/>
<path style="fill:#61CBF8;" d="M298.962,235.323c-0.649-5.634-5.251-9.989-10.913-10.326l-36.487-2.172
	c-6.049-0.361-11.264,4.209-11.7,10.253l-3.871,53.548c-0.091,1.263-0.93,2.103-1.928,2.402l-135.53,168.82
	c12.312,9.618,25.528,18.128,39.497,25.395l96.899-55.945l47.342-27.333c6.425-3.71,11.054-9.885,12.812-17.093l3.956-16.218
	c6.762-27.727,8.552-56.433,5.286-84.785L298.962,235.323z"/>
<path style="fill:#52AFE5;" d="M297.976,402.693c-2.821-4.886-9.069-6.561-13.956-3.739l-145.99,84.287
	C173.335,501.607,213.451,512,256,512c31.827,0,62.289-5.825,90.4-16.438c1.432-2.948,1.424-6.53-0.338-9.581L297.976,402.693z"/>
<path style="fill:#4BA1DB;" d="M256,512c17.002,0,33.611-1.674,49.685-4.836c-1.813-5.364-4.158-10.633-7.098-15.725
	c-24.129-41.793-77.569-56.112-119.361-31.983l-41.196,23.785C173.335,501.607,213.452,512,256,512z"/>
<path style="fill:#7477AD;" d="M152.241,151.515c-2.747-4.758-8.831-6.388-13.59-3.641l-31.321,18.083
	c-4.782,2.761-6.421,8.877-3.66,13.659l-13.613-23.578c-2.747-4.758-8.831-6.388-13.59-3.641L45.146,170.48
	c-4.782,2.761-6.421,8.876-3.66,13.659l13.562,23.49c-2.747-4.758-8.832-6.388-13.59-3.641L10.139,222.07
	c-4.782,2.761-6.421,8.876-3.66,13.659l16.315,28.258c-2.747-4.759-8.832-6.389-13.59-3.642l-9.009,5.201
	c2.8,76.341,39.018,144.141,94.47,189.208L230.919,287.79c0.046,0.079,0.106,0.136,0.156,0.208l0,0
	c-0.051-0.072-0.111-0.129-0.156-0.208L152.241,151.515z"/>
<g>
	<path style="fill:#65669E;" d="M203.932,308.455l-85.854-148.704l20.573-11.878c4.758-2.747,10.842-1.117,13.59,3.641
		l78.678,136.275l2.202,3.814c4.654,8.06,1.892,18.367-6.168,23.02C218.892,319.277,208.586,316.515,203.932,308.455z"/>
	<path style="fill:#65669E;" d="M22.794,263.986c-2.747-4.758-8.832-6.388-13.59-3.641l-9.009,5.201
		c0.402,10.956,1.491,21.734,3.228,32.296l31.629,54.783c4.654,8.061,14.96,10.822,23.02,6.168
		c8.061-4.654,10.822-14.96,6.168-23.021L22.794,263.986z"/>
	<polygon style="fill:#65669E;" points="6.48,235.729 6.479,235.727 22.794,263.986 22.794,263.986 	"/>
	<path style="fill:#65669E;" d="M106.668,330.737c-8.06,4.654-18.367,1.892-23.02-6.168L20.887,215.865l20.573-11.878
		c4.758-2.747,10.843-1.117,13.59,3.641l57.786,100.089C117.49,315.778,114.728,326.084,106.668,330.737z"/>
	<path style="fill:#65669E;" d="M132.243,296.512L55.895,164.274l20.573-11.878c4.758-2.747,10.843-1.117,13.59,3.641l13.613,23.578
		l-0.001-0.001l57.762,100.046c4.654,8.06,1.892,18.367-6.168,23.02S136.897,304.573,132.243,296.512z"/>
</g>
<path style="fill:#5ABDEE;" d="M235.991,286.625c-0.193,2.675-3.73,3.487-5.071,1.165L94.665,454.754
	c13.4,10.89,27.92,20.453,43.365,28.487l96.899-55.945l47.342-27.333c1.606-0.927,3.1-2.009,4.465-3.222
	c1.365-1.213,2.601-2.558,3.691-4.013c1.635-2.181,2.942-4.609,3.864-7.207c0.307-0.866,0.572-1.751,0.792-2.652l3.955-16.218
	c0.502-2.06,0.969-4.127,1.416-6.198C273.869,306.541,235.991,286.625,235.991,286.625z"/>
<path style="fill:#E6F460;" d="M230.919,287.79L214.5,259.35L72.001,433.968c8.277,8.555,17.139,16.54,26.532,23.879l135.53-168.82
	C232.946,289.361,231.627,289.016,230.919,287.79z"/>
<path style="fill:#BCCC23;" d="M230.92,287.791L230.92,287.791l-0.001-0.001l-3.216-5.57l-4.799-8.312L214.5,259.35l-3.608,4.421
	l-19.185,23.509l12.225,21.175c2.026,3.51,5.125,6.012,8.642,7.338l0,0l21.488-26.766
	C232.946,289.361,231.628,289.016,230.92,287.791z"/>
<g>
</g>
<g>
</g>
<g>
</g>
<g>
</g>
<g>
</g>
<g>
</g>
<g>
</g>
<g>
</g>
<g>
</g>
<g>
</g>
<g>
</g>
<g>
</g>
<g>
</g>
<g>
</g>
<g>
</g>
</svg>
