<?xml version="1.0" encoding="iso-8859-1"?>
<!-- Generator: Adobe Illustrator 19.0.0, SVG Export Plug-In . SVG Version: 6.00 Build 0)  -->
<svg version="1.1" id="Capa_1" xmlns="http://www.w3.org/2000/svg" xmlns:xlink="http://www.w3.org/1999/xlink" x="0px" y="0px"
	 viewBox="0 0 512 512" style="enable-background:new 0 0 512 512;" xml:space="preserve">
<circle style="fill:#504A7F;" cx="256" cy="265" r="247"/>
<path style="fill:#3B3868;" d="M40.039,384.928c94.222,169.311,337.725,169.265,431.921,0H40.039z"/>
<path style="fill:#31315B;" d="M243.019,511.665c-81.944-4.244-78.229-126.737,3.826-126.737H40.039
	c41.078,73.815,118.887,124.376,208.729,126.96C246.847,511.832,244.929,511.763,243.019,511.665z"/>
<g>
	<path style="fill:#61CBF8;" d="M206.964,246.898c-3.919,0-7.095-3.176-7.095-7.095V100.608c0-3.919,3.177-7.095,7.095-7.095
		c3.919,0,7.095,3.176,7.095,7.095v139.195C214.059,243.722,210.882,246.898,206.964,246.898z"/>
	<path style="fill:#61CBF8;" d="M305.037,246.898c-3.919,0-7.095-3.176-7.095-7.095V100.608c0-3.919,3.177-7.095,7.095-7.095
		s7.095,3.176,7.095,7.095v139.195C312.132,243.722,308.955,246.898,305.037,246.898z"/>
</g>
<rect x="180.32" y="384.93" style="fill:#65669E;" width="151.93" height="38.31"/>
<rect x="180.32" y="346.61" style="fill:#7477AD;" width="151.93" height="38.31"/>
<rect x="180.32" y="308.3" style="fill:#65669E;" width="151.93" height="38.31"/>
<rect x="180.32" y="269.98" style="fill:#7477AD;" width="151.93" height="38.31"/>
<rect x="180.32" y="232.82" style="fill:#65669E;" width="151.93" height="38.31"/>
<rect x="180.32" y="384.93" style="fill:#504A7F;" width="47.547" height="38.31"/>
<rect x="180.32" y="346.61" style="fill:#65669E;" width="47.547" height="38.31"/>
<rect x="180.32" y="308.3" style="fill:#504A7F;" width="47.547" height="38.31"/>
<rect x="180.32" y="269.98" style="fill:#65669E;" width="47.547" height="38.31"/>
<rect x="180.32" y="232.82" style="fill:#504A7F;" width="47.547" height="38.31"/>
<path style="fill:#AAC5EE;" d="M395.676,41.515H363.93v25.543h31.747c9.315,0,16.893,7.578,16.893,16.893v339.292h25.543V83.951
	C438.113,60.551,419.076,41.515,395.676,41.515z"/>
<g>
	<path style="fill:#8FB1DB;" d="M393.433,56.729c0-7.247,5.5-13.208,12.553-13.942c-3.302-0.827-6.755-1.272-10.31-1.272H363.93
		v25.543h31.747c0.871,0,1.72,0.087,2.556,0.215C395.297,64.703,393.433,60.938,393.433,56.729z"/>
	<path style="fill:#8FB1DB;" d="M148.07,41.515h-31.747c-23.399,0-42.436,19.036-42.436,42.436v339.292H99.43V83.951
		c0-9.314,7.578-16.893,16.893-16.893h31.747L148.07,41.515L148.07,41.515z"/>
</g>
<rect x="158.56" y="101.23" style="fill:#AAC5EE;" width="25.543" height="322.01"/>
<rect x="327.9" y="101.23" style="fill:#CEDDF7;" width="25.543" height="322.01"/>
<path style="fill:#BDC2B8;" d="M89.93,447.84c84.065,0,247.914,0,332.139,0c8.717-7.922,16.862-16.46,24.373-25.543H65.558
	C73.068,431.379,81.214,439.918,89.93,447.84z"/>
<g>
	<path style="fill:#A6A9A0;" d="M227.319,422.296H65.558c7.511,9.083,15.656,17.621,24.373,25.543c34.932,0,83.642,0,134.688,0
		C214.958,441.34,216.464,426.648,227.319,422.296z"/>
	<path style="fill:#A6A9A0;" d="M422.07,447.84c-83.28,0-248.783,0-332.139,0c10.37,9.425,21.548,17.974,33.413,25.543
		c76.478,0,188.869,0,265.313,0C400.521,465.814,411.7,457.264,422.07,447.84z"/>
</g>
<path style="fill:#504A7F;" d="M274.516,9.126h-37.031c-6.326,0-11.454,5.128-11.454,11.453v10.947h59.938V20.579
	C285.969,14.254,280.841,9.126,274.516,9.126z"/>
<path style="fill:#7477AD;" d="M354.203,29.635H157.797c-5.894,0-10.673,4.778-10.673,10.673v54.338
	c0,5.894,4.778,10.673,10.673,10.673h196.407c5.894,0,10.673-4.778,10.673-10.673V40.307
	C364.876,34.413,360.098,29.635,354.203,29.635z"/>
<path style="fill:#65669E;" d="M189.065,95.363V39.59c0-4.424,2.627-8.225,6.402-9.955h-37.671c-5.895,0-10.673,4.778-10.673,10.673
	v54.338c0,5.894,4.778,10.673,10.673,10.673h37.671C191.693,103.589,189.065,99.787,189.065,95.363z"/>
<g>
	<path style="fill:#61CBF8;" d="M243.228,56.141c-3.919,0-7.095-3.176-7.095-7.095V7.095c0-3.919,3.177-7.095,7.095-7.095
		c3.919,0,7.095,3.176,7.095,7.095v41.95C250.324,52.964,247.147,56.141,243.228,56.141z"/>
	<path style="fill:#61CBF8;" d="M268.771,56.141c-3.919,0-7.095-3.176-7.095-7.095V7.095c0-3.919,3.177-7.095,7.095-7.095
		s7.095,3.176,7.095,7.095v41.95C275.867,52.964,272.69,56.141,268.771,56.141z"/>
</g>
<path style="fill:#CEDDF7;" d="M141.519,192.041V92.073h227.996v99.968h25.543V86.363c0-10.936-8.897-19.833-19.833-19.833H135.809
	c-10.936,0-19.833,8.897-19.833,19.833v105.678H141.519z"/>
<path style="fill:#AAC5EE;" d="M305.037,79.458c0-5.932,3.75-10.976,9.003-12.927H135.81c-10.936,0-19.833,8.897-19.833,19.833
	v105.678h25.543V92.073h171.735C308.416,89.928,305.037,85.091,305.037,79.458z"/>
<path style="fill:#65669E;" d="M277.096,49.046h-42.193c-3.872,0-7.04,3.168-7.04,7.04v42.193c0,3.872,3.168,7.04,7.04,7.04h42.193
	c3.872,0,7.04-3.168,7.04-7.04V56.085C284.136,52.213,280.968,49.046,277.096,49.046z"/>
<path style="fill:#504A7F;" d="M248.124,98.278V56.085c0-3.872,3.168-7.04,7.04-7.04h-20.26c-3.872,0-7.04,3.168-7.04,7.04v42.193
	c0,3.872,3.168,7.04,7.04,7.04h20.26C251.292,105.318,248.124,102.15,248.124,98.278z"/>
<g>
	<path style="fill:#7477AD;" d="M398.895,187.311h-31.778c-7.552,0-13.675,6.122-13.675,13.675v131.953
		c0,7.552,6.122,13.675,13.675,13.675h31.778c7.552,0,13.675-6.122,13.675-13.675V200.986
		C412.57,193.433,406.448,187.311,398.895,187.311z"/>
	<path style="fill:#7477AD;" d="M144.883,187.311h-31.778c-7.552,0-13.675,6.122-13.675,13.675v131.953
		c0,7.552,6.122,13.675,13.675,13.675h31.778c7.552,0,13.675-6.122,13.675-13.675V200.986
		C158.558,193.433,152.435,187.311,144.883,187.311z"/>
</g>
<g>
	<path style="fill:#65669E;" d="M383.006,332.938V200.986c0-7.552,6.122-13.675,13.675-13.675h-29.564
		c-7.552,0-13.675,6.123-13.675,13.675v131.953c0,7.552,6.122,13.675,13.675,13.675h29.564
		C389.128,346.613,383.006,340.49,383.006,332.938z"/>
	<path style="fill:#65669E;" d="M128.994,332.938V200.986c0-7.552,6.122-13.675,13.675-13.675h-29.564
		c-7.552,0-13.675,6.123-13.675,13.675v131.953c0,7.552,6.123,13.675,13.675,13.675h29.564
		C135.116,346.613,128.994,340.49,128.994,332.938z"/>
</g>
<g>
	<path style="fill:#A6A9A0;" d="M433.438,435.778c0-4.507-3.653-8.16-8.16-8.16s-8.16,3.653-8.16,8.16c0,4.506,3.653,8.16,8.16,8.16
		c0.363,0,0.717-0.032,1.068-0.078c2.385-2.272,4.714-4.602,7.007-6.968C433.403,436.526,433.438,436.156,433.438,435.778z"/>
	<circle style="fill:#A6A9A0;" cx="340.67" cy="435.78" r="8.16"/>
</g>
<circle style="fill:#7477AD;" cx="256.28" cy="77.18" r="8.16"/>
<g>
	<circle style="fill:#8B8C87;" cx="171.3" cy="435.78" r="8.16"/>
	<path style="fill:#8B8C87;" d="M86.69,427.618c-4.506,0-8.16,3.653-8.16,8.16c0,0.365,0.032,0.723,0.079,1.075
		c2.307,2.381,4.651,4.726,7.051,7.012c0.338,0.043,0.68,0.072,1.03,0.072c4.506,0,8.16-3.653,8.16-8.16
		C94.85,431.271,91.197,427.618,86.69,427.618z"/>
	<path style="fill:#8B8C87;" d="M224.62,447.84c-51.218,0-100.049,0-134.69,0c10.37,9.425,21.548,17.974,33.413,25.543
		c30.47,0,66.645,0,103.972,0C216.466,469.03,214.957,454.339,224.62,447.84z"/>
</g>
<g>
</g>
<g>
</g>
<g>
</g>
<g>
</g>
<g>
</g>
<g>
</g>
<g>
</g>
<g>
</g>
<g>
</g>
<g>
</g>
<g>
</g>
<g>
</g>
<g>
</g>
<g>
</g>
<g>
</g>
</svg>
