<?xml version="1.0" encoding="iso-8859-1"?>
<!-- Generator: Adobe Illustrator 19.0.0, SVG Export Plug-In . SVG Version: 6.00 Build 0)  -->
<svg version="1.1" id="Capa_1" xmlns="http://www.w3.org/2000/svg" xmlns:xlink="http://www.w3.org/1999/xlink" x="0px" y="0px"
	 viewBox="0 0 512 512" style="enable-background:new 0 0 512 512;" xml:space="preserve">
<circle style="fill:#504A7F;" cx="256" cy="264.14" r="247.86"/>
<path style="fill:#3B3868;" d="M38.566,383.195C80.686,459.958,162.262,512,256,512s175.314-52.042,217.434-128.805H38.566z"/>
<path style="fill:#31315B;" d="M242.901,511.66c-83.047-4.325-79.26-128.465,3.899-128.465H38.566
	c41.023,74.763,119.476,126.07,210.139,128.691C246.766,511.83,244.829,511.76,242.901,511.66z"/>
<g>
	<path style="fill:#61CBF8;" d="M206.973,240.716c-3.918,0-7.094-3.176-7.094-7.094v-133.57c0-3.918,3.176-7.094,7.094-7.094
		s7.094,3.176,7.094,7.094v133.569C214.067,237.54,210.891,240.716,206.973,240.716z"/>
	<path style="fill:#61CBF8;" d="M305.027,240.716c-3.918,0-7.094-3.176-7.094-7.094v-133.57c0-3.918,3.176-7.094,7.094-7.094
		s7.094,3.176,7.094,7.094v133.569C312.121,237.54,308.944,240.716,305.027,240.716z"/>
</g>
<rect x="180.33" y="383.19" style="fill:#65669E;" width="150.79" height="38.31"/>
<rect x="180.33" y="344.89" style="fill:#7477AD;" width="150.79" height="38.31"/>
<rect x="180.33" y="306.58" style="fill:#65669E;" width="150.79" height="38.31"/>
<rect x="180.33" y="268.27" style="fill:#7477AD;" width="150.79" height="38.31"/>
<rect x="180.33" y="231.12" style="fill:#65669E;" width="150.79" height="38.31"/>
<rect x="180.33" y="383.19" style="fill:#504A7F;" width="47.647" height="38.31"/>
<rect x="180.33" y="344.89" style="fill:#65669E;" width="47.647" height="38.31"/>
<rect x="180.33" y="306.58" style="fill:#504A7F;" width="47.647" height="38.31"/>
<rect x="180.33" y="268.27" style="fill:#65669E;" width="47.647" height="38.31"/>
<g>
	<rect x="180.33" y="231.12" style="fill:#504A7F;" width="47.647" height="38.31"/>
	<path style="fill:#504A7F;" d="M274.512,9.361h-37.024c-6.324,0-11.451,5.521-11.451,12.332v7.713h59.926v-7.713
		C285.963,14.882,280.836,9.361,274.512,9.361z"/>
</g>
<path style="fill:#AAC5EE;" d="M395.649,39.851h-31.74v25.538h31.74c9.313,0,16.89,7.577,16.89,16.89v339.224h25.538V82.279
	C438.077,58.884,419.044,39.851,395.649,39.851z"/>
<path style="fill:#8FB1DB;" d="M148.092,39.851h-31.741c-23.395,0-42.428,19.032-42.428,42.428v339.224h25.538V82.279
	c0-9.313,7.577-16.89,16.89-16.89h31.741V39.851z"/>
<rect x="158.58" y="99.71" style="fill:#AAC5EE;" width="25.538" height="321.79"/>
<rect x="327.88" y="99.71" style="fill:#CEDDF7;" width="25.538" height="321.79"/>
<path style="fill:#7477AD;" d="M353.238,27.974H158.762c-5.893,0-10.671,4.777-10.671,10.67v54.327
	c0,5.893,4.777,10.671,10.671,10.671h194.476c5.893,0,10.67-4.778,10.67-10.671V38.644
	C363.908,32.751,359.131,27.974,353.238,27.974z"/>
<path style="fill:#65669E;" d="M190.024,92.971V38.644c0-5.893,4.777-10.67,10.671-10.67h-41.933
	c-5.893,0-10.671,4.777-10.671,10.67v54.327c0,5.893,4.777,10.671,10.671,10.671h41.933
	C194.802,103.642,190.024,98.864,190.024,92.971z"/>
<g>
	<path style="fill:#61CBF8;" d="M243.231,144.848c-3.918,0-7.094-3.176-7.094-7.094V7.094c0-3.918,3.176-7.094,7.094-7.094
		s7.094,3.176,7.094,7.094v130.661C250.325,141.673,247.149,144.848,243.231,144.848z"/>
	<path style="fill:#61CBF8;" d="M268.769,144.848c-3.918,0-7.094-3.176-7.094-7.094V7.094c0-3.918,3.176-7.094,7.094-7.094
		s7.094,3.176,7.094,7.094v130.661C275.863,141.673,272.687,144.848,268.769,144.848z"/>
</g>
<path style="fill:#7477AD;" d="M391.707,177.635c-47.206,0-53.851-16.64-101.78-21.982l-67.817,0.23
	c-47.31,5.127-55.026,21.752-101.863,21.752c-3.918,0-7.094-3.176-7.094-7.094s3.176-7.094,7.094-7.094
	c44.7,0,49.149-16.198,100.716-21.71c0.242-0.027,0.486-0.04,0.73-0.041l68.588-0.232c0.248,0.004,0.533,0.013,0.798,0.042
	c49.902,5.476,56.729,21.94,100.627,21.94c3.918,0,7.094,3.176,7.094,7.094C398.801,174.459,395.625,177.635,391.707,177.635z"/>
<path style="fill:#BDC2B8;" d="M87.717,446.095c84.083,0,252.309,0,336.565,0c8.577-7.937,16.593-16.47,23.98-25.538H63.738
	C71.124,429.625,79.14,438.158,87.717,446.095z"/>
<g>
	<path style="fill:#A6A9A0;" d="M219.387,433.326c0-5.763,3.531-10.697,8.546-12.769H63.738c7.386,9.068,15.402,17.601,23.98,25.538
		c35.806,0,86.874,0,140.215,0C222.918,444.023,219.387,439.089,219.387,433.326z"/>
	<path style="fill:#A6A9A0;" d="M424.283,446.095c-83.242,0-253.246,0-336.565,0c10.146,9.388,21.076,17.936,32.685,25.538
		c77.483,0,193.751,0,271.195,0C403.206,464.03,414.137,455.483,424.283,446.095z"/>
</g>
<path style="fill:#7477AD;" d="M277.578,160.481c-0.285,0-0.572-0.01-0.86-0.029c-7.046-0.469-14.016-0.707-20.718-0.707
	s-13.672,0.237-20.718,0.707c-7.024,0.447-13.12-4.857-13.588-11.894c-0.468-7.037,4.857-13.12,11.893-13.588
	c7.607-0.505,15.148-0.762,22.413-0.762s14.805,0.257,22.413,0.762c7.037,0.468,12.361,6.552,11.893,13.588
	C289.857,155.306,284.244,160.481,277.578,160.481z"/>
<path style="fill:#65669E;" d="M255.824,148.675c-0.44-6.617,3.795-12.453,9.875-14.312c-3.272-0.098-6.515-0.156-9.698-0.156
	c-7.264,0-14.805,0.257-22.413,0.762c-7.037,0.468-12.361,6.552-11.893,13.588c0.468,7.038,6.564,12.341,13.588,11.894
	c7.046-0.469,14.016-0.707,20.718-0.707c2.218,0,4.473,0.036,6.742,0.087C258.868,157.567,256.144,153.492,255.824,148.675z"/>
<g>
	<circle style="fill:#504A7F;" cx="277.28" cy="147.79" r="8.158"/>
	<circle style="fill:#504A7F;" cx="236.14" cy="147.79" r="8.158"/>
</g>
<g>
	<circle style="fill:#A6A9A0;" cx="425.62" cy="433.33" r="8.158"/>
	<circle style="fill:#A6A9A0;" cx="340.65" cy="433.33" r="8.158"/>
</g>
<g>
	<circle style="fill:#8B8C87;" cx="170.4" cy="433.33" r="8.158"/>
	<path style="fill:#8B8C87;" d="M85.432,425.168c-4.506,0-8.158,3.652-8.158,8.158c0,1.135,0.233,2.215,0.652,3.197
		c1.397,1.443,2.812,2.869,4.243,4.277c1,0.437,2.102,0.683,3.263,0.683c4.505,0,8.158-3.652,8.158-8.158
		S89.937,425.168,85.432,425.168z"/>
</g>
<path style="fill:#8FB1DB;" d="M396.12,56.711c0-7.732,6.268-14,14-14c0.315,0,0.623,0.027,0.933,0.047
	c-4.779-1.869-9.971-2.907-15.404-2.907h-31.74v25.538h31.74c1.34,0,2.638,0.173,3.888,0.47
	C397.413,63.404,396.12,60.212,396.12,56.711z"/>
<path style="fill:#8B8C87;" d="M219.387,458.874c0-5.773,3.544-10.714,8.574-12.779c-53.538,0-104.755,0-140.243,0
	c10.146,9.388,21.076,17.936,32.685,25.538c31.227,0,68.755,0,107.501,0C222.905,469.554,219.387,464.626,219.387,458.874z"/>
<g>
</g>
<g>
</g>
<g>
</g>
<g>
</g>
<g>
</g>
<g>
</g>
<g>
</g>
<g>
</g>
<g>
</g>
<g>
</g>
<g>
</g>
<g>
</g>
<g>
</g>
<g>
</g>
<g>
</g>
</svg>
