<?xml version="1.0" encoding="iso-8859-1"?>
<!-- Generator: Adobe Illustrator 19.0.0, SVG Export Plug-In . SVG Version: 6.00 Build 0)  -->
<svg version="1.1" id="Capa_1" xmlns="http://www.w3.org/2000/svg" xmlns:xlink="http://www.w3.org/1999/xlink" x="0px" y="0px"
	 viewBox="0 0 512 512" style="enable-background:new 0 0 512 512;" xml:space="preserve">
<circle style="fill:#504A7F;" cx="256" cy="268.18" r="243.82"/>
<path style="fill:#3B3868;" d="M71.569,427.661C116.276,479.318,182.321,512,256,512s139.724-32.682,184.431-84.339H71.569z"/>
<path style="fill:#31315B;" d="M246.556,427.661H71.569c42.177,48.733,103.349,80.564,172.001,84.013
	C189.766,508.455,192.229,427.661,246.556,427.661z"/>
<path style="fill:#FFB229;" d="M126.298,474.658h5.595c7.101,0,12.911-5.81,12.911-12.911v-15.092H89.909
	C101.108,457.083,113.287,466.468,126.298,474.658z"/>
<path style="fill:#FC9B00;" d="M116.492,461.747v-15.092H89.908c9.362,8.716,19.416,16.692,30.06,23.862
	C117.82,468.21,116.492,465.13,116.492,461.747z"/>
<path style="fill:#CEDDF7;" d="M381.734,474.658h-31.622c-7.101,0-12.911-5.81-12.911-12.911v-15.092h57.444v15.092
	C394.645,468.848,388.835,474.658,381.734,474.658z"/>
<path style="fill:#AAC5EE;" d="M365.923,461.747v-15.092h-28.722v15.092c0,7.101,5.81,12.911,12.911,12.911h28.722
	C371.733,474.658,365.923,468.848,365.923,461.747z"/>
<path style="fill:#CEDDF7;" d="M355.539,135.911c-5.474,0-10.476-1.994-14.344-5.281v153.45h28.904V130.433
	C366.201,133.835,361.118,135.911,355.539,135.911z"/>
<path style="fill:#AAC5EE;" d="M355.646,135.906c-0.036,0-0.071,0.005-0.108,0.005c-5.474,0-10.476-1.993-14.344-5.281v153.45
	h14.452V135.906z"/>
<path style="fill:#FBCC68;" d="M367.094,278.215h-23.786c-3.373,0-6.107,2.734-6.107,6.106v125.056l36.891,14.527V285.213
	C374.092,281.348,370.959,278.215,367.094,278.215z"/>
<path style="fill:#FFB229;" d="M355.647,285.213c0-3.865,3.133-6.998,6.998-6.998h-19.337c-3.373,0-6.107,2.734-6.107,6.106v125.056
	l18.445,7.264V285.213H355.647z"/>
<path style="fill:#CEDDF7;" d="M396.65,409.352l-170.712-67.224c10.322,11.796,19.296,24.078,26.982,35.975
	c20.568,31.837-2.147,73.803-40.05,73.803h175.704c12.174,0,22.044-9.869,22.044-22.044
	C410.617,420.806,405.078,412.671,396.65,409.352z"/>
<path style="fill:#AAC5EE;" d="M212.87,451.907h84.923c-4.646-8.283-7.306-17.83-7.306-28.002c0-19.336,9.58-36.424,24.242-46.811
	l-88.791-34.964c10.322,11.796,19.296,24.078,26.982,35.975C273.488,409.941,250.773,451.907,212.87,451.907z"/>
<path style="fill:#7477AD;" d="M394.197,334.851c-23.326-91.197-48.337-135.983-65.212-157.496
	c-17.341-22.107-31.626-46.972-42.457-73.903c-1.623-4.037,0.333-8.625,4.369-10.247c4.034-1.625,8.624,0.331,10.247,4.368
	c10.275,25.552,23.813,49.123,40.236,70.059c32.263,41.131,54.829,111.514,68.079,163.315c1.078,4.214-1.465,8.505-5.679,9.582
	C399.592,341.607,395.28,339.087,394.197,334.851z"/>
<path style="fill:#61CBF8;" d="M386.993,0.547c-8.501-2.278-17.238,2.767-19.516,11.268l-24.27,90.577
	c3.526-2.365,7.767-3.747,12.331-3.747c7.969,0,14.936,4.218,18.845,10.53l23.877-89.111
	C400.538,11.562,395.494,2.825,386.993,0.547z"/>
<path style="fill:#5ABDEE;" d="M382.81,15.055c1.461-5.451,5.582-9.467,10.589-11.057c-1.788-1.579-3.946-2.792-6.406-3.451
	c-8.501-2.278-17.238,2.767-19.516,11.268l-24.27,90.577c3.526-2.365,7.767-3.747,12.331-3.747c1.627,0,3.209,0.185,4.735,0.518
	L382.81,15.055z"/>
<ellipse style="fill:#8FB1DB;" cx="355.528" cy="117.274" rx="22.17" ry="22.17"/>
<path style="fill:#7AA4CE;" d="M351.371,95.499c-2.372,0.454-4.71,1.3-6.919,2.576c-10.606,6.123-14.239,19.685-8.116,30.29
	s19.685,14.24,30.29,8.116c2.209-1.276,4.111-2.877,5.69-4.704C351.722,135.718,337.65,111.374,351.371,95.499z"/>
<path style="fill:#AAC5EE;" d="M355.535,125.154c-4.439,0-7.877-3.636-7.877-7.877c0-4.922,4.553-8.723,9.421-7.719
	c3.543,0.663,6.333,3.886,6.333,7.719C363.412,121.593,359.921,125.154,355.535,125.154z"/>
<path style="fill:#CEDDF7;" d="M290.374,106.785c-6.614,0-12.794-4.15-15.067-10.755l-24.663-71.666
	c-2.863-8.321,1.561-17.388,9.883-20.253c8.317-2.862,17.388,1.561,20.253,9.883l24.663,71.666
	C308.999,95.994,301.311,106.785,290.374,106.785z"/>
<path style="fill:#AAC5EE;" d="M290.058,91.637l-24.663-71.666c-2.031-5.903-0.382-12.17,3.711-16.343
	c-2.761-0.606-5.712-0.502-8.578,0.484c-8.322,2.865-12.746,11.931-9.883,20.253l24.663,71.666
	c3.83,11.127,18.081,14.464,26.414,5.984C296.474,100.861,291.934,97.089,290.058,91.637z"/>
<path style="fill:#8FB1DB;" d="M355.646,187.934c-9.858,0-17.879,8.02-17.879,17.879s8.02,17.879,17.879,17.879
	s17.879-8.02,17.879-17.879S365.505,187.934,355.646,187.934z"/>
<path style="fill:#AAC5EE;" d="M355.646,213.69c-5.031,0-8.708-4.666-7.719-9.41c0.924-4.428,5.127-7.039,9.264-6.186
	c3.543,0.663,6.333,3.886,6.333,7.719C363.523,210.129,360.033,213.69,355.646,213.69z"/>
<path style="fill:#FBCC68;" d="M258.478,380.705c-30.85-47.754-83.148-101.957-161.606-101.957c-33.99,0-63.399,19.59-77.568,48.092
	c12.178,49.301,39.344,92.691,76.401,125.052c1.683,0.023,84.026,0.012,124.135,0.015
	C256.406,451.907,278.32,411.42,258.478,380.705z"/>
<g>
	<path style="fill:#FFB229;" d="M139.974,284.533c-13.39-3.7-27.743-5.785-43.103-5.785c-33.99,0-63.399,19.59-77.568,48.092
		c12.177,49.301,39.344,92.691,76.401,125.052c2.057,0.028-1.637,0.004,21.792,0.015C60.701,405.285,72.332,314.757,139.974,284.533
		z"/>
	<path style="fill:#FFB229;" d="M96.871,306.75c-32.299,0-58.577,26.278-58.577,58.577c0,6.459,1.067,12.671,3.006,18.487
		c4.193,7.768,8.802,15.277,13.784,22.51c36.617,37.315,100.364,11.285,100.364-40.997C155.448,333.028,129.17,306.75,96.871,306.75
		z M96.871,392.035c-14.727,0-26.708-11.981-26.708-26.708c0-14.727,11.981-26.708,26.708-26.708s26.708,11.981,26.708,26.708
		C123.579,380.054,111.598,392.035,96.871,392.035z"/>
</g>
<path style="fill:#F2A120;" d="M38.294,365.327c0,13.412,2.234,19.844,16.807,41.012c9.991,10.174,23.652,16.732,38.82,17.489
	c-6.198-10.992-10.359-23.283-11.976-36.364c-7.103-4.805-11.782-12.935-11.782-22.138c0-11.426,7.214-21.195,17.325-25.002
	c4.568-12.174,11.459-23.208,20.135-32.569c-3.488-0.65-7.078-1.006-10.752-1.006C64.571,306.75,38.294,333.028,38.294,365.327z"/>
<path style="fill:#7477AD;" d="M165.542,375.172l155.221-29.284c-0.045-1.15-0.146-2.307-0.365-3.472
	c-2.418-12.812-14.764-21.237-27.575-18.821L183.446,344.23c-12.811,2.417-21.238,14.762-18.821,27.575
	C164.844,372.968,165.165,374.086,165.542,375.172z"/>
<path style="fill:#504A7F;" d="M235.769,361.405c0-0.817,0.199-1.581,0.528-2.273c-7.353-0.012-13.311-5.976-13.311-13.332
	c0-3.91,1.693-7.416,4.375-9.855l-43.914,8.285c-12.811,2.417-21.238,14.762-18.821,27.574c0.22,1.164,0.54,2.281,0.917,3.368
	l70.278-13.259C235.803,361.744,235.769,361.579,235.769,361.405z"/>
<path style="fill:#CEDDF7;" d="M130.026,408.182c-7.511,0-14.198-5.333-15.641-12.983c-1.632-8.649,4.056-16.981,12.704-18.612
	l270.538-51.04c8.666-1.633,16.981,4.056,18.612,12.704c1.632,8.649-4.056,16.981-12.704,18.612l-270.538,51.04
	C132,408.093,131.006,408.182,130.026,408.182z"/>
<path style="fill:#AAC5EE;" d="M223.262,374.608c-1.267-6.716,1.341-13.26,6.244-17.343l-102.417,19.322
	c-8.647,1.631-14.336,9.964-12.704,18.612c1.443,7.649,8.13,12.983,15.641,12.983c0.98,0,1.973-0.09,2.972-0.279l102.613-19.359
	C229.458,386.578,224.544,381.402,223.262,374.608z"/>
<g>
	<circle style="fill:#8FB1DB;" cx="400.65" cy="340.78" r="9.06"/>
	<circle style="fill:#8FB1DB;" cx="130.91" cy="392.03" r="9.06"/>
	<circle style="fill:#8FB1DB;" cx="377.52" cy="427.66" r="9.06"/>
</g>
<g>
</g>
<g>
</g>
<g>
</g>
<g>
</g>
<g>
</g>
<g>
</g>
<g>
</g>
<g>
</g>
<g>
</g>
<g>
</g>
<g>
</g>
<g>
</g>
<g>
</g>
<g>
</g>
<g>
</g>
</svg>
