<?xml version="1.0" encoding="iso-8859-1"?>
<!-- Generator: Adobe Illustrator 19.0.0, SVG Export Plug-In . SVG Version: 6.00 Build 0)  -->
<svg version="1.1" id="Capa_1" xmlns="http://www.w3.org/2000/svg" xmlns:xlink="http://www.w3.org/1999/xlink" x="0px" y="0px"
	 viewBox="0 0 512 512" style="enable-background:new 0 0 512 512;" xml:space="preserve">
<circle style="fill:#61CBF8;" cx="250.874" cy="256" r="250.874"/>
<path style="fill:#52AFE5;" d="M61.265,420.281c45.998,53.045,113.883,86.594,189.606,86.594s143.608-33.55,189.606-86.594H61.265z"
	/>
<path style="fill:#4BA1DB;" d="M346.976,420.281H61.265c45.998,53.045,113.883,86.594,189.606,86.594
	c23.637,0,46.51-3.27,68.192-9.38C291.445,475.27,301.562,420.281,346.976,420.281z"/>
<path style="fill:#504A7F;" d="M250.907,163.677c-89.193-51.495-204.476-17.224-250.383,76.305
	c-7.562,119.958,69.85,224.672,179.824,256.828c54.937-5.935,106.435-37.055,136.117-88.467
	C365.845,322.814,336.436,213.058,250.907,163.677z M181.887,330.644c-6.538,11.323-21.066,15.216-32.389,8.678
	c-11.322-6.537-15.215-21.066-8.678-32.388c6.538-11.323,21.066-15.216,32.388-8.679
	C184.53,304.792,188.423,319.322,181.887,330.644z"/>
<path style="fill:#3B3868;" d="M216.006,467.888c-98.76,0-179.108-80.348-179.108-179.108c0-56.327,26.145-106.655,66.927-139.514
	C59.318,164.34,21.994,196.239,0.524,239.98c-7.562,119.958,69.85,224.672,179.824,256.828
	c33.778-3.649,66.245-16.832,93.151-38.386C255.445,464.558,236.107,467.888,216.006,467.888z"/>
<path style="fill:#65669E;" d="M235.786,189.867C128.521,127.937-2.373,217.15,13.848,338.359
	c15.528,44.695,43.337,83.638,79.393,112.798c70.088,36.114,157.197,11.064,197.033-57.935
	C331.317,322.134,306.874,230.909,235.786,189.867z M181.887,330.644c-6.538,11.323-21.066,15.216-32.389,8.678
	c-11.322-6.537-15.215-21.066-8.678-32.388c6.538-11.323,21.066-15.216,32.388-8.679
	C184.53,304.792,188.423,319.322,181.887,330.644z"/>
<g>
	<path style="fill:#504A7F;" d="M36.898,288.78c0-24.893,5.114-48.611,14.334-70.172c-29.03,31.922-43.319,75.4-37.385,119.75
		c14.978,43.113,42.039,82.595,79.408,112.806c29.659,15.278,62.364,19.602,93.246,14.281
		C101.732,451.333,36.898,377.492,36.898,288.78z"/>
	<path style="fill:#504A7F;" d="M297.114,257.832c-0.937-2.084-1.931-4.152-2.973-6.209c-3.491-6.933-7.525-13.618-12.1-19.974
		l-0.03,0.017c-0.006-0.008-0.011-0.017-0.017-0.025l-70.897,40.932c-7.109,3.745-15.664,3.604-22.654-0.443l-0.115-0.066
		c-16.628-9.6-37.352-9.618-54.012,0l-0.114,0.066c-6.99,4.047-15.545,4.187-22.654,0.443l-70.896-40.931
		c-0.006,0.008-0.011,0.017-0.017,0.025l-0.03-0.017c-5.982,8.31-11.044,17.222-15.073,26.183l0.013,0.007
		c-0.004,0.009-0.009,0.018-0.013,0.028l71.451,41.253c6.67,3.851,10.535,11.067,10.39,18.767
		c-0.375,19.854,10.289,38.778,28.651,48.539c6.399,3.4,10.16,9.867,10.149,16.283c0,0.002,0,0.004,0,0.004v84.111
		c0.02,0.002,0.04,0.003,0.06,0.005v0.049c9.719,0.978,20.266,0.997,30.181,0v-0.049c0.02-0.002,0.04-0.003,0.06-0.005v-84.113
		c0,0,0-0.001,0-0.004c-0.011-6.416,3.749-12.882,10.149-16.283c17.69-9.403,29.04-27.943,28.651-48.539
		c-0.146-7.7,3.72-14.916,10.39-18.767l71.451-41.253c-0.004-0.009-0.008-0.018-0.013-0.028L297.114,257.832z M181.887,330.644
		c-6.537,11.323-21.066,15.216-32.389,8.678c-11.322-6.537-15.215-21.066-8.678-32.388c6.537-11.323,21.066-15.216,32.388-8.679
		C184.53,304.792,188.423,319.322,181.887,330.644z"/>
</g>
<g>
	<path style="fill:#3B3868;" d="M146.171,453.71v13.112c0.02,0.002,0.04,0.003,0.06,0.005v0.049c9.719,0.978,20.267,0.997,30.181,0
		v-0.049c0.02-0.002,0.04-0.003,0.06-0.005v-3.34C165.998,461.114,155.867,457.83,146.171,453.71z"/>
	<path style="fill:#3B3868;" d="M38.447,265.324c1.398-10.641,3.729-20.989,6.917-30.962l-4.711-2.72
		c-0.006,0.008-0.011,0.017-0.017,0.025l-0.03-0.017c-6.002,8.338-11.056,17.251-15.073,26.183l0.013,0.007
		c-0.004,0.009-0.009,0.018-0.013,0.028L38.447,265.324z"/>
</g>
<g>
	<path style="fill:#7477AD;" d="M108.489,412.258c-33.621-19.053-54.506-54.868-54.506-93.468c0-4.64,3.761-8.4,8.4-8.4
		s8.4,3.761,8.4,8.4c0,32.561,17.622,62.776,45.989,78.85c4.036,2.289,5.454,7.414,3.167,11.45
		C117.649,413.132,112.523,414.541,108.489,412.258z"/>
	<path style="fill:#7477AD;" d="M202.768,409.091c-2.288-4.036-0.87-9.162,3.167-11.451c28.367-16.076,45.989-46.29,45.989-78.85
		l-0.011-0.796c-0.044-4.639,3.682-8.435,8.321-8.479c0.027,0,0.054,0,0.08,0c4.603,0,8.355,3.709,8.398,8.322l0.004,0.286
		c0.004,0.222,0.008,0.444,0.008,0.667c0,38.6-20.885,74.414-54.506,93.468C210.189,414.539,205.059,413.135,202.768,409.091z"/>
	<path style="fill:#7477AD;" d="M207.333,240.75c-28.27-16.695-63.658-16.715-91.961,0c-3.996,2.36-9.146,1.033-11.505-2.962
		c-2.36-3.995-1.033-9.146,2.962-11.505c33.537-19.805,75.471-19.828,109.048,0c3.995,2.36,5.32,7.51,2.962,11.505
		C216.478,241.783,211.327,243.107,207.333,240.75z"/>
</g>
<path style="fill:#504A7F;" d="M332.893,29.911c-98.76,0-179.108,80.348-179.108,179.108s80.348,179.108,179.108,179.108
	S512,307.779,512,209.019S431.653,29.911,332.893,29.911z M356.602,209.018c0,13.074-10.636,23.71-23.71,23.71
	c-13.073,0-23.709-10.636-23.709-23.71s10.637-23.71,23.709-23.71C345.967,185.308,356.602,195.945,356.602,209.018z"/>
<path style="fill:#3B3868;" d="M209.372,176.925c0-54.71,24.665-103.761,63.451-136.641
	c-69.303,24.746-119.038,91.036-119.038,168.734c0,98.76,80.348,179.108,179.108,179.108c44.05,0,84.429-15.994,115.657-42.467
	C332.245,387.188,209.372,300.431,209.372,176.925z"/>
<path style="fill:#65669E;" d="M407.326,80.097c-71.088-41.042-162.313-16.599-203.355,54.489S187.372,296.898,258.46,337.94
	c71.087,41.043,162.313,16.598,203.355-54.489S478.413,121.139,407.326,80.097z M353.426,220.874
	c-6.537,11.323-21.066,15.216-32.389,8.678c-11.322-6.537-15.215-21.066-8.678-32.388c6.537-11.323,21.066-15.216,32.388-8.679
	C356.07,195.022,359.963,209.552,353.426,220.874z"/>
<g>
	<path style="fill:#504A7F;" d="M222.875,108.725c-64.091,70.329-46.388,181.89,35.584,229.217
		c33.333,19.245,71.094,24.091,106.032,16.481C248.338,338.806,178.185,216.805,222.875,108.725z"/>
	<path style="fill:#504A7F;" d="M468.653,148.062c-4.032-8.966-9.096-17.879-15.073-26.183l-0.03,0.017
		c-0.006-0.008-0.012-0.017-0.018-0.025l-70.896,40.931c-7.109,3.745-15.664,3.604-22.654-0.443l-0.115-0.066
		c-16.628-9.6-37.352-9.618-54.012,0l-0.114,0.066c-6.99,4.047-15.545,4.187-22.654,0.443l-70.896-40.931
		c-0.006,0.008-0.011,0.017-0.017,0.025l-0.03-0.017c-5.982,8.31-11.044,17.222-15.073,26.183l0.013,0.007
		c-0.004,0.009-0.009,0.018-0.013,0.028l71.451,41.253c6.67,3.851,10.535,11.067,10.39,18.767
		c-0.375,19.854,10.289,38.778,28.651,48.539c6.399,3.4,10.16,9.867,10.149,16.283c0,0.002,0,0.004,0,0.004v84.111
		c0.02,0.002,0.04,0.003,0.06,0.005v0.049c9.72,0.978,20.266,0.997,30.181,0v-0.049c0.02-0.002,0.04-0.003,0.06-0.005v-84.111
		c0,0,0-0.001,0-0.004c-0.011-6.416,3.749-12.882,10.149-16.283c17.69-9.403,29.04-27.943,28.651-48.539
		c-0.146-7.7,3.72-14.916,10.39-18.767l71.451-41.253c-0.004-0.009-0.008-0.018-0.013-0.028L468.653,148.062z M353.426,220.874
		c-6.537,11.323-21.066,15.216-32.389,8.678c-11.322-6.537-15.215-21.066-8.678-32.388c6.537-11.323,21.066-15.216,32.388-8.679
		C356.07,195.022,359.963,209.552,353.426,220.874z"/>
</g>
<g>
	<path style="fill:#7477AD;" d="M280.029,302.487c-33.621-19.053-54.506-54.868-54.506-93.468c0-4.64,3.761-8.4,8.4-8.4
		c4.639,0,8.4,3.761,8.4,8.4c0,32.561,17.622,62.776,45.989,78.85c4.036,2.289,5.454,7.414,3.167,11.45
		C289.189,303.362,284.063,304.771,280.029,302.487z"/>
	<path style="fill:#7477AD;" d="M374.307,299.321c-2.288-4.036-0.87-9.162,3.167-11.451c28.367-16.076,45.989-46.29,45.989-78.85
		l-0.011-0.796c-0.044-4.639,3.682-8.435,8.321-8.479c0.027,0,0.054,0,0.08,0c4.603,0,8.355,3.709,8.398,8.322l0.004,0.286
		c0.004,0.222,0.008,0.444,0.008,0.667c0,38.6-20.885,74.414-54.506,93.468C381.728,304.769,376.598,303.365,374.307,299.321z"/>
	<path style="fill:#7477AD;" d="M378.873,130.98c-13.881-8.197-29.78-12.53-45.98-12.53c-16.2,0-32.1,4.332-45.981,12.53
		c-3.996,2.36-9.146,1.033-11.505-2.962s-1.033-9.146,2.962-11.505c16.467-9.724,35.321-14.865,54.524-14.865
		s38.057,5.139,54.524,14.865c3.995,2.36,5.32,7.51,2.962,11.505C388.018,132.013,382.866,133.337,378.873,130.98z"/>
</g>
<g>
	<path style="fill:#3B3868;" d="M317.711,341.446v15.606c0.02,0.002,0.04,0.003,0.06,0.005v0.049
		c9.653,0.971,19.977,1.012,30.182-0.04v-0.01c0.02-0.002,0.04-0.003,0.06-0.005v-5.643
		C337.533,348.979,327.402,345.63,317.711,341.446z"/>
	<path style="fill:#3B3868;" d="M210.61,155.914c1.259-10.71,3.458-21.135,6.529-31.186l-4.933-2.849
		c-5.703,7.902-10.903,16.775-15.134,26.183l0.013,0.007c-0.004,0.009-0.009,0.018-0.013,0.028L210.61,155.914z"/>
</g>
<g>
</g>
<g>
</g>
<g>
</g>
<g>
</g>
<g>
</g>
<g>
</g>
<g>
</g>
<g>
</g>
<g>
</g>
<g>
</g>
<g>
</g>
<g>
</g>
<g>
</g>
<g>
</g>
<g>
</g>
</svg>
