<?xml version="1.0" encoding="iso-8859-1"?>
<!-- Generator: Adobe Illustrator 19.0.0, SVG Export Plug-In . SVG Version: 6.00 Build 0)  -->
<svg version="1.1" id="Capa_1" xmlns="http://www.w3.org/2000/svg" xmlns:xlink="http://www.w3.org/1999/xlink" x="0px" y="0px"
	 viewBox="0 0 512 512" style="enable-background:new 0 0 512 512;" xml:space="preserve">
<circle style="fill:#504A7F;" cx="256" cy="256" r="256"/>
<g>
	<path style="fill:#AAC5EE;" d="M507.392,207.503c-1.669-8.702-3.775-17.247-6.301-25.612
		c-9.259,25.918-31.519,52.725-66.234,79.732c-32.596,25.357-70.071,46.369-99.078,61.842l-44.512,23.743
		c-4.025,2.146-5.547,7.149-3.401,11.175c1.487,2.786,4.343,4.374,7.295,4.374c1.312,0,2.642-0.314,3.88-0.974l44.512-23.743
		C405.07,305.227,476.606,261.728,507.392,207.503z"/>
	<path style="fill:#AAC5EE;" d="M501.076,181.841c-39.005,106.293-246.994,101.694-249.115,101.631
		c-4.537-0.127-8.36,3.463-8.49,8.022s3.46,8.36,8.019,8.49c0.432,0.012,2.729,0.072,6.578,0.072
		c63.222,0,145.39-12.206,199.626-45.173c21.89-13.305,38.491-29.355,49.598-47.902
		C505.636,198.442,503.558,190.054,501.076,181.841z"/>
</g>
<g>
	<path style="fill:#CEDDF7;" d="M501.031,181.688c-17.42,43.381-69.09,74.921-129.959,74.921
		c-75.125,0-136.245-48.042-136.245-107.095c0-68.855,81.541-119.469,166.197-104.483c-10.363-7.137-21.275-13.533-32.665-19.105
		c-39.451,0.552-76.513,13.127-104.62,35.565c-60.631,48.401-60.627,127.651,0,176.046c59.478,47.481,155.168,47.495,214.664,0
		c11.747-9.377,21.373-20.023,28.696-31.561C505.466,197.73,503.436,189.629,501.031,181.688z"/>
	<path style="fill:#CEDDF7;" d="M503.096,188.9c-1.979-7.304-4.261-14.484-6.855-21.514
		c-15.466,35.231-58.175,60.618-108.312,60.618c-63.139,0-114.506-40.259-114.506-89.742c0-52.509,60.398-98.59,134.405-88.383
		c-8.757-6.461-17.94-12.373-27.5-17.695C311.605,35.39,256.904,81.74,256.904,138.262c0,58.593,58.777,106.26,131.024,106.26
		C437.584,244.523,480.876,222.006,503.096,188.9z"/>
	<path style="fill:#CEDDF7;" d="M499.156,175.763c-2.157-6.539-4.556-12.968-7.214-19.262
		c-13.935,26.834-47.677,45.812-86.996,45.812c-51.737,0-93.828-32.853-93.828-73.235c0-42.334,47.322-78.149,105.136-72.702
		c-7.368-5.922-15.064-11.451-23.068-16.542C337.85,44.625,294.6,82.819,294.6,129.077c0,49.49,49.501,89.754,110.347,89.754
		C444.783,218.831,479.754,201.571,499.156,175.763z"/>
</g>
<path style="fill:#5ABDEE;" d="M24.826,274.758H16.97c-9.372,0-16.97,7.598-16.97,16.97s7.598,16.97,16.97,16.97h7.856V274.758z"/>
<path style="fill:#4BA1DB;" d="M16.97,274.758c-9.372,0-16.97,7.598-16.97,16.97c0,3.095,0.842,5.987,2.289,8.485
	c2.936-5.068,8.404-8.485,14.681-8.485h7.856v-16.97H16.97z"/>
<path style="fill:#CEDDF7;" d="M260.068,302.64v-21.392c0-5.298-4.295-9.593-9.593-9.593h-22.173v40.146h22.604
	C255.966,311.801,260.068,307.699,260.068,302.64z"/>
<path style="fill:#AAC5EE;" d="M250.475,271.655h-22.173v17.75h22.173c5.298,0,9.593,4.295,9.593,9.593v-17.75
	C260.068,275.949,255.773,271.655,250.475,271.655z"/>
<path style="fill:#5ABDEE;" d="M93.165,450.502l-6.803,3.928c-8.117,4.686-10.898,15.065-6.212,23.182
	c4.686,8.117,15.065,10.898,23.182,6.212l6.803-3.928L93.165,450.502z"/>
<path style="fill:#4BA1DB;" d="M95.111,468.805l6.465-3.733l-8.412-14.57l-6.803,3.928c-8.117,4.686-10.898,15.065-6.212,23.182
	c1.599,2.77,3.87,4.901,6.479,6.344C86.474,477.938,89.532,472.027,95.111,468.805z"/>
<path style="fill:#CEDDF7;" d="M310.831,357.028l-10.696-18.526c-2.649-4.588-8.516-6.16-13.104-3.511l-19.202,11.086l20.073,34.768
	l19.576-11.302C311.859,367.013,313.361,361.41,310.831,357.028z"/>
<path style="fill:#AAC5EE;" d="M297.152,351.275c3.287-1.898,6.909-2.26,9.635-1.25l-6.653-11.523
	c-2.649-4.588-8.516-6.16-13.104-3.511l-19.202,11.086l9.582,16.596L297.152,351.275z"/>
<path style="fill:#61CBF8;" d="M31.171,265.981c9.59-2.701,12.306-9.649,26.27-9.649c17.335,0,17.335,10.706,34.67,10.706
	c17.333,0,17.333-10.706,34.666-10.706c17.332,0,17.332,10.706,34.664,10.706s17.332-10.706,34.664-10.706
	c13.962,0,16.677,6.947,26.265,9.649c4.921,1.386,8.399,5.704,8.399,10.76v29.975c0,5.056-3.479,9.374-8.399,10.76
	c-9.588,2.702-12.303,9.649-26.265,9.649c-17.332,0-17.332-10.706-34.664-10.706s-17.332,10.706-34.664,10.706
	c-17.333,0-17.333-10.706-34.666-10.706c-17.335,0-17.335,10.706-34.67,10.706c-13.965,0-16.68-6.948-26.27-9.649
	c-4.921-1.386-8.4-5.704-8.4-10.76v-29.974C22.771,271.685,26.25,267.367,31.171,265.981z"/>
<path style="fill:#5ABDEE;" d="M22.772,297.376c0-2.985,3.479-5.535,8.4-6.353c9.59-1.595,12.306-5.697,26.27-5.697
	c17.335,0,17.335,6.321,34.671,6.321c17.333,0,17.333-6.321,34.666-6.321c17.332,0,17.332,6.321,34.664,6.321
	s17.332-6.321,34.664-6.321c13.962,0,16.677,4.102,26.265,5.697c4.915,0.818,8.39,3.362,8.399,6.342V276.74
	c0-5.056-3.479-9.374-8.399-10.76c-9.588-2.702-12.303-9.649-26.265-9.649c-17.332,0-17.332,10.706-34.664,10.706
	s-17.332-10.706-34.664-10.706c-17.333,0-17.333,10.706-34.666,10.706c-17.335,0-17.335-10.706-34.67-10.706
	c-13.965,0-16.68,6.948-26.271,9.649c-4.921,1.386-8.4,5.704-8.4,10.76v29.974c0,0.006,0.001,0.012,0.001,0.019v-9.357H22.772z"/>
<path style="fill:#61CBF8;" d="M94.25,439.741c6.932-7.121,5.803-14.492,17.863-21.455c14.971-8.643,20.324,0.628,35.294-8.015
	c14.969-8.642,9.616-17.914,24.585-26.556c14.968-8.642,20.321,0.63,35.289-8.012s9.615-17.913,24.583-26.555
	c12.057-6.961,17.876-2.299,27.507-4.739c4.943-1.253,10.106,0.752,12.634,5.13l14.988,25.959c2.528,4.379,1.682,9.852-1.874,13.506
	c-6.929,7.12-5.8,14.49-17.858,21.452c-14.968,8.642-20.321-0.63-35.289,8.012s-9.615,17.913-24.583,26.555
	c-14.969,8.642-20.321-0.629-35.29,8.013c-14.971,8.643-9.618,17.915-24.589,26.558c-12.06,6.963-17.879,2.3-27.512,4.742
	c-4.943,1.253-10.106-0.752-12.634-5.13l-14.987-25.959C89.848,448.868,90.694,443.395,94.25,439.741z"/>
<path style="fill:#5ABDEE;" d="M101.679,469.36c-1.594-2.762,0.048-6.855,3.861-10.066c7.43-6.257,7.584-11.406,19.644-18.369
	c14.971-8.643,18.347-2.795,33.318-11.439c14.969-8.642,11.593-14.49,26.561-23.132s18.344-2.794,33.312-11.436
	s11.592-14.49,26.56-23.132c12.057-6.961,16.593-4.52,25.725-7.825c4.687-1.696,9.053-1.072,10.647,1.689l-9.302-16.113
	c-2.528-4.378-7.691-6.383-12.634-5.13c-9.631,2.441-15.449-2.222-27.507,4.74c-14.968,8.642-9.615,17.913-24.583,26.555
	c-14.968,8.642-20.321-0.63-35.289,8.012c-14.969,8.642-9.616,17.914-24.584,26.556c-14.971,8.644-20.324-0.628-35.294,8.015
	c-12.06,6.963-10.931,14.333-17.863,21.455c-3.557,3.654-4.402,9.128-1.874,13.507l14.987,25.959v0.001L101.679,469.36z"/>
<g>
</g>
<g>
</g>
<g>
</g>
<g>
</g>
<g>
</g>
<g>
</g>
<g>
</g>
<g>
</g>
<g>
</g>
<g>
</g>
<g>
</g>
<g>
</g>
<g>
</g>
<g>
</g>
<g>
</g>
</svg>
