<?xml version="1.0" encoding="iso-8859-1"?>
<!-- Generator: Adobe Illustrator 19.0.0, SVG Export Plug-In . SVG Version: 6.00 Build 0)  -->
<svg version="1.1" id="Capa_1" xmlns="http://www.w3.org/2000/svg" xmlns:xlink="http://www.w3.org/1999/xlink" x="0px" y="0px"
	 viewBox="0 0 512 512" style="enable-background:new 0 0 512 512;" xml:space="preserve">
<circle style="fill:#61CBF8;" cx="256" cy="272.625" r="239.375"/>
<path style="fill:#7477AD;" d="M146.184,277.814c2.879-6.855,10.768-10.076,17.623-7.197l31.763,13.342
	c-4.776,7.521-8.215,15.966-9.973,25.009l-32.216-13.532C146.527,292.558,143.305,284.668,146.184,277.814z"/>
<path style="fill:#65669E;" d="M158.423,282.617c-4.546-1.91-9.54-1.124-13.233,1.615c-0.192-2.121,0.111-4.318,0.994-6.418
	c2.879-6.855,10.768-10.076,17.623-7.197l31.763,13.342c-2.348,3.698-4.369,7.622-6.03,11.729L158.423,282.617z"/>
<path style="fill:#7477AD;" d="M151.792,132.51c2.879-6.855,10.77-10.076,17.623-7.197l37.422,15.72
	c-4.89,7.448-8.325,15.925-9.917,25.033l-37.931-15.934C152.135,147.254,148.913,139.364,151.792,132.51z"/>
<path style="fill:#65669E;" d="M163.415,138.016c-4.285-1.801-8.975-1.216-12.593,1.151c-0.239-2.195,0.055-4.478,0.97-6.657
	c2.879-6.855,10.77-10.076,17.623-7.197l37.422,15.72c-2.566,3.908-4.719,8.106-6.427,12.523L163.415,138.016z"/>
<path style="fill:#52AFE5;" d="M82.918,437.981C126.502,483.589,187.93,512,255.995,512s129.494-28.412,173.077-74.019H82.918z"/>
<path style="fill:#4BA1DB;" d="M282.469,437.981H82.918C126.502,483.589,187.93,512,255.995,512c6.621,0,13.176-0.277,19.661-0.804
	C232.792,504.535,236.352,437.981,282.469,437.981z"/>
<path style="fill:#7477AD;" d="M365.806,277.814c-2.879-6.855-10.768-10.076-17.623-7.197l-31.763,13.342
	c4.776,7.521,8.215,15.966,9.973,25.009l32.216-13.532C365.464,292.558,368.686,284.668,365.806,277.814z"/>
<path style="fill:#65669E;" d="M353.567,282.617c4.546-1.91,9.54-1.124,13.233,1.615c0.192-2.121-0.111-4.318-0.994-6.418
	c-2.879-6.855-10.768-10.076-17.623-7.197l-31.763,13.342c2.348,3.698,4.369,7.622,6.03,11.729L353.567,282.617z"/>
<path style="fill:#7477AD;" d="M360.198,132.51c-2.879-6.855-10.77-10.076-17.623-7.197l-37.422,15.72
	c4.89,7.448,8.325,15.925,9.917,25.033l37.931-15.934C359.855,147.254,363.077,139.364,360.198,132.51z"/>
<path style="fill:#65669E;" d="M348.575,138.016c4.285-1.801,8.975-1.216,12.593,1.151c0.239-2.195-0.055-4.478-0.97-6.657
	c-2.879-6.855-10.77-10.076-17.623-7.197l-37.422,15.72c2.566,3.908,4.719,8.106,6.427,12.523L348.575,138.016z"/>
<path style="fill:#7477AD;" d="M236.557,34.049l-8.604,367.797l-90.038,79.038c1.829,1.039,3.674,2.052,5.533,3.044h71.898v-14.499
	l0,0c20.036-27.672,61.263-27.672,81.3,0l0,0v14.499h71.898c1.859-0.992,3.704-2.005,5.533-3.044l-90.038-79.038l-8.604-367.797
	c-6.413-0.515-12.893-0.789-19.439-0.789C249.45,33.26,242.969,33.533,236.557,34.049z"/>
<g>
	<path style="fill:#65669E;" d="M256.422,33.264c-0.142,0-0.284-0.004-0.426-0.004c-6.545,0-13.026,0.273-19.439,0.789
		l-8.604,367.797l-10.033,8.807l38.503,5.047V33.264z"/>
	<path style="fill:#65669E;" d="M278.75,406.765c-12.825,11.927-32.684,11.927-45.509,0l-5.289-4.919l-90.038,79.038
		c1.829,1.039,3.674,2.052,5.533,3.044h71.898v-14.499c20.036-27.671,61.263-27.671,81.3,0v14.499h71.898
		c1.859-0.992,3.704-2.005,5.533-3.044l-90.038-79.038L278.75,406.765z"/>
</g>
<path style="fill:#504A7F;" d="M247.146,432.213c0-6.995,3.719-13.105,9.276-16.512c-8.312,0.105-16.656-2.868-23.18-8.936
	l-5.289-4.919l-90.038,79.038c1.829,1.039,3.674,2.052,5.533,3.044h71.898v-14.499c10.097-13.944,25.577-20.853,41.013-20.742
	C250.837,445.272,247.146,439.181,247.146,432.213z"/>
<path style="fill:#7477AD;" d="M294.891,481.715c-8.363,0-15.143,6.78-15.143,15.143c0,5.603,3.051,10.483,7.574,13.102
	c30.623-4.003,59.419-13.8,85.267-28.245h-77.698V481.715z"/>
<path style="fill:#65669E;" d="M321.248,496.858c0-8.363,6.78-15.143,15.143-15.143h-41.501c-8.363,0-15.143,6.78-15.143,15.143
	c0,5.603,3.051,10.483,7.574,13.102c11.997-1.568,23.709-4.038,35.08-7.316C321.661,500.861,321.248,498.909,321.248,496.858z"/>
<path style="fill:#7477AD;" d="M217.1,481.715h-77.699c25.848,14.445,54.644,24.241,85.267,28.245
	c4.523-2.619,7.574-7.499,7.574-13.102C232.243,488.495,225.463,481.715,217.1,481.715z"/>
<path style="fill:#65669E;" d="M182.694,496.858c0-8.363,6.78-15.143,15.143-15.143h-58.435c13.81,7.718,28.469,14.093,43.79,18.982
	C182.87,499.471,182.694,498.186,182.694,496.858z"/>
<path style="fill:#FF7171;" d="M292.432,384.89c-34.799,20.091-79.455,8.125-99.545-26.674s-8.125-79.455,26.674-99.545
	s79.455-8.125,99.545,26.674C339.196,320.142,327.23,364.798,292.432,384.89z"/>
<path style="fill:#FF5252;" d="M234.894,333.964c-15.84-27.436-11.741-60.99,7.752-83.811c-7.919,1.468-15.724,4.268-23.086,8.519
	c-34.799,20.091-46.764,64.747-26.674,99.545c20.09,34.799,64.746,46.764,99.545,26.674c7.362-4.251,13.69-9.61,18.92-15.734
	C281.843,374.626,250.734,361.399,234.894,333.964z"/>
<path style="fill:#FF7171;" d="M289.407,232.104c-31.91,18.422-72.857,7.451-91.281-24.459
	c-18.422-31.91-7.451-72.857,24.458-91.281s72.858-7.451,91.281,24.458C332.289,172.732,321.316,213.681,289.407,232.104z"/>
<path style="fill:#FF5252;" d="M240.125,183.396c-14.147-24.503-10.944-54.325,5.745-75.195c-7.985,1.214-15.88,3.887-23.286,8.163
	c-31.909,18.422-42.881,59.371-24.458,91.281c18.423,31.911,59.372,42.882,91.281,24.459c7.406-4.276,13.668-9.777,18.713-16.085
	C281.701,220.037,254.272,207.9,240.125,183.396z"/>
<path style="fill:#FF7171;" d="M231.743,6.489c-23.163,13.373-31.128,43.098-17.754,66.261s43.098,31.128,66.261,17.754
	c23.163-13.373,31.128-43.098,17.754-66.261C284.631,1.08,254.905-6.884,231.743,6.489z"/>
<path style="fill:#FF5252;" d="M244.793,54.964c-10.234-17.726-7.959-39.288,4.048-54.43c-5.863,0.867-11.662,2.816-17.099,5.955
	c-23.163,13.373-31.128,43.098-17.754,66.261s43.098,31.128,66.261,17.754c5.436-3.139,10.024-7.186,13.706-11.83
	C274.837,81.502,255.028,72.691,244.793,54.964z"/>
<g>
	<circle style="fill:#7477AD;" cx="279.751" cy="428.568" r="9.411"/>
	<circle style="fill:#7477AD;" cx="232.24" cy="428.568" r="9.411"/>
</g>
<circle style="fill:#EA3D3D;" cx="256" cy="48.501" r="12.935"/>
<path style="fill:#FF5252;" d="M234.335,136.717c-20.686,11.943-27.8,38.49-15.856,59.176
	c11.943,20.687,38.491,27.801,59.177,15.857c20.686-11.943,27.8-38.491,15.856-59.177
	C281.569,131.887,255.021,124.774,234.335,136.717z"/>
<g>
	<path style="fill:#EA3D3D;" d="M240.125,183.396c-8.245-14.28-10.586-30.366-7.81-45.435
		c-19.117,12.464-25.382,37.935-13.836,57.932c11.546,19.997,36.737,27.308,57.089,16.984
		C261.129,207.748,248.37,197.677,240.125,183.396z"/>
	<ellipse style="fill:#EA3D3D;" cx="255.993" cy="174.227" rx="12.935" ry="12.935"/>
</g>
<path style="fill:#FF5252;" d="M231.743,279.773c-23.163,13.373-31.128,43.098-17.754,66.261
	c13.373,23.163,43.098,31.128,66.261,17.754c23.163-13.373,31.128-43.098,17.754-66.261
	C284.631,274.363,254.905,266.399,231.743,279.773z"/>
<g>
	<path style="fill:#EA3D3D;" d="M274.708,366.519c-16.222-5.461-30.603-16.599-39.815-32.556
		c-9.212-15.955-11.668-33.978-8.287-50.758c-19.13,14.554-24.947,41.474-12.619,62.828
		C226.315,367.388,252.538,375.809,274.708,366.519z"/>
	<circle style="fill:#EA3D3D;" cx="256" cy="321.776" r="12.935"/>
</g>
<g>
</g>
<g>
</g>
<g>
</g>
<g>
</g>
<g>
</g>
<g>
</g>
<g>
</g>
<g>
</g>
<g>
</g>
<g>
</g>
<g>
</g>
<g>
</g>
<g>
</g>
<g>
</g>
<g>
</g>
</svg>
