<?xml version="1.0" encoding="iso-8859-1"?>
<!-- Generator: Adobe Illustrator 19.0.0, SVG Export Plug-In . SVG Version: 6.00 Build 0)  -->
<svg version="1.1" id="Capa_1" xmlns="http://www.w3.org/2000/svg" xmlns:xlink="http://www.w3.org/1999/xlink" x="0px" y="0px"
	 viewBox="0 0 512 512" style="enable-background:new 0 0 512 512;" xml:space="preserve">
<circle style="fill:#BCCC23;" cx="256" cy="262.982" r="249.014"/>
<path style="fill:#A5B50F;" d="M61.275,418.191C106.903,475.36,177.166,512,255.997,512s149.094-36.64,194.721-93.809
	L61.275,418.191L61.275,418.191z"/>
<path style="fill:#9CA30A;" d="M235.57,418.066H61.4c40.894,51.239,101.584,85.964,170.49,92.622
	C186.903,497.419,189.252,428.235,235.57,418.066z"/>
<path style="fill:#CEDDF7;" d="M255.997,13.972c-9.919,0-17.96,8.041-17.96,17.96v11.769h35.919V31.932
	C273.957,22.012,265.916,13.972,255.997,13.972z"/>
<path style="fill:#AAC5EE;" d="M264.977,16.394c-2.644-1.532-5.704-2.423-8.98-2.423c-9.919,0-17.959,8.041-17.959,17.96V43.7
	h17.959V31.931C255.997,25.288,259.614,19.501,264.977,16.394z"/>
<rect x="227.833" y="43.7" style="fill:#7477AD;" width="56.334" height="410.447"/>
<rect x="227.833" y="43.7" style="fill:#65669E;" width="28.167" height="410.447"/>
<path style="fill:#CEDDF7;" d="M284.165,51.523h-56.334c-4.322,0-7.824-3.503-7.824-7.824s3.503-7.824,7.824-7.824h56.334
	c4.322,0,7.824,3.503,7.824,7.824S288.485,51.523,284.165,51.523z"/>
<path style="fill:#7477AD;" d="M306.419,440.048H205.574c-6.885,0-12.519,6.467-12.519,14.371v1.818h125.884v-1.818
	C318.938,446.516,313.305,440.048,306.419,440.048z"/>
<path style="fill:#65669E;" d="M256.569,440.048h-50.995c-6.885,0-12.519,6.467-12.519,14.371v1.818h50.995v-1.818
	C244.05,446.516,249.683,440.048,256.569,440.048z"/>
<rect x="178.778" y="129.36" style="fill:#CEDDF7;" width="154.674" height="20.644"/>
<path style="fill:#AAC5EE;" d="M250.316,139.678L250.316,139.678c0-5.7,4.622-10.322,10.322-10.322h-81.86V150h81.86
	C254.938,150,250.316,145.378,250.316,139.678z"/>
<g>
	<path style="fill:#7477AD;" d="M420.412,150h-94.757v-21.356c0-3.596,2.915-6.51,6.51-6.51h88.589c4.045,0,7.324,3.279,7.324,7.324
		v12.877C428.078,146.568,424.646,150,420.412,150z"/>
	<path style="fill:#7477AD;" d="M91.82,150h94.757v-21.356c0-3.596-2.915-6.51-6.51-6.51H91.479c-4.045,0-7.324,3.279-7.324,7.324
		v12.877C84.155,146.568,87.587,150,91.82,150z"/>
</g>
<rect x="178.778" y="332.299" style="fill:#CEDDF7;" width="154.674" height="20.644"/>
<path style="fill:#AAC5EE;" d="M252.103,342.615c0-5.7,4.622-10.322,10.322-10.322h-83.647v20.644h83.647
	C256.725,352.936,252.103,348.316,252.103,342.615z"/>
<path style="fill:#7477AD;" d="M420.412,352.936h-94.757v-21.356c0-3.596,2.915-6.51,6.51-6.51h88.589
	c4.045,0,7.324,3.279,7.324,7.324v12.877C428.078,349.505,424.646,352.936,420.412,352.936z"/>
<g>
	<path style="fill:#65669E;" d="M377.284,142.335v-12.877c0-4.045,3.279-7.324,7.324-7.324h-52.442c-3.596,0-6.51,2.915-6.51,6.51
		V150h59.294C380.716,150,377.284,146.568,377.284,142.335z"/>
	<path style="fill:#65669E;" d="M377.284,345.271v-12.877c0-4.045,3.279-7.324,7.324-7.324h-52.442c-3.596,0-6.51,2.915-6.51,6.51
		v21.356h59.294C380.716,352.936,377.284,349.505,377.284,345.271z"/>
</g>
<path style="fill:#7477AD;" d="M91.82,352.936h94.757v-21.356c0-3.596-2.915-6.51-6.51-6.51H91.479
	c-4.045,0-7.324,3.279-7.324,7.324v12.877C84.155,349.505,87.587,352.936,91.82,352.936z"/>
<g>
	<path style="fill:#65669E;" d="M180.068,325.07H91.479c-4.045,0-7.324,3.279-7.324,7.324v12.877c0,4.234,3.432,7.665,7.665,7.665
		h94.757v-21.356C186.577,327.986,183.663,325.07,180.068,325.07z"/>
	<path style="fill:#65669E;" d="M135.783,142.335v-12.877c0-4.045,3.279-7.324,7.324-7.324H91.479c-4.045,0-7.324,3.28-7.324,7.324
		v12.877c0,4.234,3.432,7.665,7.665,7.665h51.629C139.215,150,135.783,146.568,135.783,142.335z"/>
</g>
<path style="fill:#7477AD;" d="M143.449,352.936h94.757v-21.356c0-3.596-2.915-6.51-6.51-6.51h-88.589
	c-4.045,0-7.324,3.279-7.324,7.324v12.877C135.783,349.505,139.215,352.936,143.449,352.936z"/>
<path style="fill:#CEDDF7;" d="M125.478,475.078c4.035,2.488,8.14,4.87,12.323,7.131h236.393c4.183-2.26,8.289-4.643,12.323-7.131
	v-21.074H125.478V475.078z"/>
<path style="fill:#AAC5EE;" d="M173.492,468.075c0-6.361,3.911-11.804,9.456-14.072h-57.47v21.074
	c4.035,2.488,8.14,4.87,12.323,7.131h45.314C177.482,479.982,173.492,474.5,173.492,468.075z"/>
<g>
	<path style="fill:#7477AD;" d="M274.96,155.848h18.606c2.641,0,4.78-2.141,4.78-4.781v-37.384c0-2.641-2.141-4.78-4.78-4.78H274.96
		c-2.641,0-4.78,2.141-4.78,4.78v37.384C270.179,153.707,272.319,155.848,274.96,155.848z"/>
	<path style="fill:#7477AD;" d="M218.625,155.848h18.606c2.641,0,4.781-2.141,4.781-4.781v-37.384c0-2.641-2.141-4.78-4.781-4.78
		h-18.606c-2.641,0-4.781,2.141-4.781,4.78v37.384C213.844,153.707,215.985,155.848,218.625,155.848z"/>
</g>
<g>
	<path style="fill:#65669E;" d="M293.566,134.068H274.96c-2.641,0-4.78-2.141-4.78-4.781v21.781c0,2.641,2.141,4.781,4.78,4.781
		h18.606c2.641,0,4.78-2.141,4.78-4.781v-21.781C298.346,131.927,296.206,134.068,293.566,134.068z"/>
	<path style="fill:#65669E;" d="M237.231,134.068h-18.606c-2.641,0-4.781-2.141-4.781-4.781v21.781c0,2.641,2.141,4.781,4.781,4.781
		h18.606c2.64,0,4.781-2.141,4.781-4.781v-21.781C242.011,131.927,239.872,134.068,237.231,134.068z"/>
</g>
<path style="fill:#7477AD;" d="M123.295,441.207H98.639c-4.401,0-8.491,1.808-11.445,4.827
	c12.659,11.679,26.529,22.06,41.405,30.935c0-0.025,0.007-0.049,0.007-0.074v-30.375
	C128.607,443.586,126.229,441.207,123.295,441.207z"/>
<path style="fill:#65669E;" d="M109.692,446.521c0-2.935,2.379-5.312,5.312-5.312H98.639c-4.401,0-8.491,1.808-11.445,4.827
	c7.123,6.572,14.643,12.717,22.498,18.429V446.521z"/>
<path style="fill:#7477AD;" d="M413.354,441.207H388.7c-2.935,0-5.312,2.379-5.312,5.312v30.375c0,0.025,0.007,0.049,0.008,0.074
	c14.875-8.875,28.747-19.256,41.405-30.935C421.845,443.015,417.755,441.207,413.354,441.207z"/>
<path style="fill:#65669E;" d="M404.093,446.521c0-2.935,2.379-5.312,5.312-5.312H388.7c-2.935,0-5.312,2.379-5.312,5.312v30.375
	c0,0.025,0.007,0.049,0.008,0.074c7.141-4.261,14.044-8.877,20.699-13.809L404.093,446.521L404.093,446.521z"/>
<g>
	<circle style="fill:#8FB1DB;" cx="293.126" cy="468.11" r="8.998"/>
	<circle style="fill:#8FB1DB;" cx="219.104" cy="468.11" r="8.998"/>
</g>
<path style="fill:#86DDFC;" d="M416.302,65.61l0.001,0.001c-0.033-0.072-0.065-0.145-0.098-0.217
	c-2.25-4.801-2.218-10.359,0.111-15.121l0,0c11.011-22.513-4.48-50.218-32.122-50.218c-1.502,0-4.414,0-7.325,0h-0.002
	c-6.95,0-9.37-0.106-12.392,0.258c-23.355,2.791-37.743,28.113-27.057,49.96l0,0c2.323,4.749,2.359,10.293,0.116,15.081
	c-0.032,0.069-0.062,0.139-0.094,0.208l0,0c-8.984,19.447-2.451,43.09,16.287,54.918c1.739,1.097,3.764,1.655,5.819,1.655h34.4
	c2.242,0,4.449-0.619,6.336-1.83c12.027-7.718,19.996-21.206,19.996-36.557C420.278,77.276,418.853,71.132,416.302,65.61z
	 M403.152,43.834l-0.001,0.001c-1,2.079-3.534,2.88-5.559,1.778c0.029,0.016,0.057,0.032,0.085,0.048
	c-6.196-3.4-13.306-5.332-20.858-5.324c-7.83,0.008-15.173,2.09-21.513,5.724c0.267-0.153,0.535-0.303,0.805-0.451
	c-2.013,1.095-4.536,0.3-5.525-1.767c-0.003-0.006-0.004-0.009-0.004-0.009c-5.88-12.025,1.331-25.993,13.866-28.673
	c3.02-0.645,3.796-0.453,19.747-0.453C400.999,14.708,409.396,31.067,403.152,43.834z"/>
<g>
	<path style="fill:#61CBF8;" d="M375.372,65.562L375.372,65.562c0.032-0.069,0.062-0.139,0.094-0.208
		c2.243-4.788,2.208-10.332-0.115-15.081c-1.554-3.177-2.563-6.426-3.106-9.67c-6.112,0.648-11.852,2.542-16.938,5.458
		c0.267-0.153,0.535-0.303,0.804-0.45c-2.013,1.095-4.536,0.301-5.525-1.767c-0.003-0.006-0.004-0.009-0.004-0.009
		c-5.867-11.996,1.301-25.991,13.866-28.673c3.093-0.666,5.353-0.453,13.114-0.453c-6.445-2.647-6.661-11.717-0.319-14.653
		c-0.125,0-0.249,0-0.374,0c-0.001,0-0.001,0-0.001,0c-6.724,0-9.357-0.107-12.392,0.258c-23.355,2.791-37.744,28.113-27.058,49.96
		c2.323,4.75,2.359,10.293,0.116,15.081c-0.032,0.069-0.062,0.139-0.094,0.208l0,0c-8.978,19.432-2.466,43.08,16.287,54.918
		c1.739,1.098,3.764,1.655,5.819,1.655h34.4c0.612,0,1.22-0.05,1.82-0.142c-1.453-0.224-2.856-0.723-4.107-1.513
		C372.94,108.664,366.376,85.032,375.372,65.562z"/>
	<circle style="fill:#61CBF8;" cx="376.867" cy="83.071" r="22.509"/>
</g>
<path style="fill:#52AFE5;" d="M376.867,105.583c0.14,0,0.278-0.008,0.417-0.011c-7.294-12.507-7.695-27.493-1.912-40.01l0,0
	c0.032-0.069,0.062-0.139,0.094-0.208c0.719-1.535,1.177-3.15,1.428-4.788c-0.009,0-0.018-0.001-0.027-0.001
	c-12.432,0-22.509,10.078-22.509,22.509C354.357,95.505,364.435,105.583,376.867,105.583z"/>
<path style="fill:#86DDFC;" d="M174.801,268.546l0.001,0.001c-0.033-0.072-0.065-0.145-0.098-0.217
	c-2.25-4.801-2.218-10.359,0.111-15.121l0,0c10.856-22.195-4.149-47.832-27.972-50.059c-2.016-0.19-20.015-0.365-23.867,0.099
	c-23.355,2.791-37.743,28.113-27.057,49.96l0,0c2.323,4.75,2.359,10.293,0.116,15.081c-0.032,0.069-0.062,0.139-0.094,0.208l0,0
	c-2.556,5.531-3.985,11.691-3.985,18.185c0,15.468,8.091,29.045,20.272,36.733c1.739,1.097,3.764,1.655,5.819,1.655h34.4
	c2.242,0,4.449-0.619,6.336-1.83c12.027-7.718,19.996-21.206,19.996-36.557C178.778,280.212,177.352,274.069,174.801,268.546z
	 M161.652,246.771l-0.001,0.001c-1,2.079-3.534,2.88-5.559,1.778c0.029,0.016,0.057,0.032,0.085,0.048
	c-6.196-3.4-13.306-5.332-20.858-5.324c-7.829,0.008-15.173,2.09-21.513,5.724c0.267-0.153,0.535-0.303,0.805-0.451
	c-2.013,1.095-4.536,0.3-5.525-1.767c-0.003-0.006-0.004-0.009-0.004-0.009c-6.599-13.493,3.27-29.126,18.178-29.126
	c16.79,0,18.475-0.386,22.759,1.064C161.088,222.453,167.202,235.421,161.652,246.771z"/>
<g>
	<path style="fill:#61CBF8;" d="M129.887,286.683c0-6.494,1.428-12.654,3.985-18.185l0,0c0.032-0.069,0.062-0.139,0.094-0.208
		c2.243-4.789,2.208-10.332-0.115-15.081c-1.554-3.177-2.563-6.426-3.106-9.67c-6.112,0.648-11.852,2.542-16.938,5.458
		c0.267-0.153,0.535-0.303,0.804-0.45c-2.013,1.095-4.536,0.301-5.525-1.767c-0.003-0.006-0.004-0.009-0.004-0.009
		c-5.639-11.531,0.761-24.847,12.344-28.285c3.711-1.115,6.45-0.841,14.636-0.841c-2.912-1.196-4.964-4.057-4.964-7.399
		c0-3.219,1.905-5.985,4.646-7.254c-7.104,0-9.738-0.106-12.767,0.258c-23.355,2.791-37.744,28.113-27.058,49.96
		c2.323,4.749,2.359,10.293,0.116,15.081c-0.032,0.069-0.062,0.139-0.094,0.208l0,0c-2.556,5.531-3.985,11.691-3.985,18.185
		c0,15.468,8.091,29.045,20.271,36.733c1.739,1.098,3.764,1.655,5.819,1.655h34.4c0.612,0,1.22-0.05,1.82-0.142
		c-1.453-0.224-2.856-0.723-4.107-1.513C137.978,315.727,129.887,302.152,129.887,286.683z"/>
	<circle style="fill:#61CBF8;" cx="135.363" cy="286.01" r="22.509"/>
</g>
<path style="fill:#52AFE5;" d="M135.367,308.519c0.14,0,0.278-0.008,0.417-0.011c-3.741-6.413-5.896-13.865-5.896-21.825
	c0-6.494,1.428-12.654,3.985-18.185l0,0c0.032-0.069,0.062-0.139,0.094-0.208c0.719-1.535,1.177-3.15,1.428-4.789
	c-0.009,0-0.018-0.001-0.027-0.001c-12.432,0-22.509,10.078-22.509,22.509C112.858,298.441,122.935,308.519,135.367,308.519z"/>
<path style="fill:#FF7171;" d="M174.801,65.61l0.001,0.001c-0.033-0.072-0.065-0.145-0.098-0.217
	c-2.25-4.801-2.218-10.359,0.111-15.121l0,0c10.357-21.175-2.826-45.518-24.797-49.615h-0.001
	c-5.557-1.036-24.92-0.601-27.042-0.346C99.62,3.102,85.232,28.425,95.918,50.271l0,0c2.323,4.749,2.359,10.293,0.116,15.081
	c-0.032,0.069-0.062,0.139-0.094,0.208l0,0c-2.556,5.531-3.985,11.691-3.985,18.185c0,15.468,8.091,29.045,20.272,36.733
	c1.739,1.097,3.764,1.655,5.819,1.655h34.4c2.242,0,4.449-0.619,6.336-1.83c12.027-7.718,19.996-21.206,19.996-36.557
	C178.778,77.276,177.352,71.132,174.801,65.61z M161.652,43.834l-0.001,0.001c-1,2.079-3.534,2.88-5.559,1.778
	c1.114,0.608-8.052-5.29-20.773-5.277c-13.855,0.015-24.699,7.451-20.709,5.274c-2.013,1.095-4.536,0.3-5.525-1.767
	c-0.003-0.006-0.004-0.009-0.004-0.009c-5.561-11.37,0.58-24.317,11.634-28.061c4.472-1.515,6.285-1.065,22.76-1.065
	c0.399,0,0.702,0.012,1.035,0.028C158.94,15.441,168.05,30.751,161.652,43.834z"/>
<g>
	<path style="fill:#FF5252;" d="M129.887,83.747c0-6.494,1.428-12.654,3.985-18.185l0,0c0.032-0.069,0.062-0.139,0.094-0.208
		c2.243-4.788,2.208-10.332-0.115-15.081c-1.554-3.177-2.563-6.426-3.106-9.67c-10.951,1.161-19.779,6.997-16.134,5.008
		c-2.013,1.095-4.536,0.301-5.525-1.767c-0.003-0.006-0.004-0.009-0.004-0.009c-5.561-11.37,0.58-24.317,11.634-28.061
		c4.794-1.625,9.263-1.065,15.346-1.065c-2.912-1.196-4.964-4.057-4.964-7.399c0-3.219,1.905-5.985,4.646-7.254
		c-7.679,0-9.897-0.087-12.767,0.258C99.62,3.102,85.232,28.425,95.918,50.271c2.323,4.749,2.359,10.293,0.116,15.081
		c-0.032,0.069-0.062,0.139-0.094,0.208l0,0c-2.556,5.531-3.985,11.691-3.985,18.185c0,15.468,8.091,29.045,20.271,36.733
		c1.739,1.098,3.764,1.655,5.819,1.655h34.4c0.612,0,1.22-0.05,1.82-0.142c-1.453-0.224-2.856-0.723-4.107-1.513
		C137.978,112.791,129.887,99.215,129.887,83.747z"/>
	<circle style="fill:#FF5252;" cx="135.363" cy="83.071" r="22.509"/>
</g>
<path style="fill:#EA3D3D;" d="M135.367,105.583c0.14,0,0.278-0.008,0.417-0.011c-3.741-6.413-5.896-13.865-5.896-21.825
	c0-6.494,1.428-12.654,3.985-18.185l0,0c0.032-0.069,0.062-0.139,0.094-0.208c0.719-1.535,1.177-3.15,1.428-4.788
	c-0.009,0-0.018-0.001-0.027-0.001c-12.432,0-22.509,10.078-22.509,22.509C112.858,95.505,122.935,105.583,135.367,105.583z"/>
<path style="fill:#FF7171;" d="M416.302,268.546l0.001,0.001c-0.033-0.072-0.065-0.145-0.098-0.217
	c-2.25-4.801-2.218-10.359,0.111-15.121l0,0c10.938-22.363-4.278-50.218-32.122-50.218c-15.289,0-15.967-0.029-17.558,0.065
	c-24.61,1.434-40.23,27.637-29.217,50.153l0,0c2.323,4.75,2.359,10.293,0.116,15.081c-0.032,0.069-0.062,0.139-0.094,0.208l0,0
	c-2.556,5.531-3.985,11.691-3.985,18.185c0,15.468,8.091,29.045,20.272,36.733c1.739,1.097,3.764,1.655,5.819,1.655h34.4
	c2.242,0,4.449-0.619,6.336-1.83c12.027-7.718,19.996-21.206,19.996-36.557C420.278,280.212,418.853,274.069,416.302,268.546z
	 M403.152,246.771l-0.001,0.001c-1,2.079-3.534,2.88-5.559,1.778c0.029,0.016,0.057,0.032,0.085,0.048
	c-6.196-3.4-13.306-5.332-20.858-5.324c-7.83,0.008-15.173,2.09-21.513,5.724c0.267-0.153,0.535-0.303,0.805-0.451
	c-2.013,1.095-4.536,0.3-5.525-1.767c-0.003-0.006-0.004-0.009-0.004-0.009c-6.233-12.745,2.115-29.126,18.959-29.126
	c3.464,0,11.188,0,14.653,0C400.95,217.645,409.417,233.963,403.152,246.771z"/>
<g>
	<path style="fill:#FF5252;" d="M371.388,286.683c0-6.494,1.428-12.654,3.985-18.185l0,0c0.032-0.069,0.062-0.139,0.094-0.208
		c2.243-4.789,2.208-10.332-0.115-15.081c-1.554-3.177-2.563-6.426-3.106-9.67c-6.112,0.648-11.852,2.542-16.938,5.458
		c0.267-0.153,0.535-0.303,0.804-0.45c-2.013,1.095-4.536,0.301-5.525-1.767c-0.003-0.006-0.004-0.009-0.004-0.009
		c-6.246-12.771,2.147-29.126,18.959-29.126c1.348,0,7.208,0,8.021,0c-2.912-1.196-4.964-4.057-4.964-7.399
		c0-3.219,1.905-5.985,4.646-7.254c-8.682,0-9.103-0.025-10.607,0.065c-24.575,1.403-40.239,27.62-29.217,50.153
		c2.323,4.749,2.359,10.293,0.116,15.081c-0.032,0.069-0.062,0.139-0.094,0.208l0,0c-2.556,5.531-3.985,11.691-3.985,18.185
		c0,15.468,8.091,29.045,20.271,36.733c1.739,1.098,3.764,1.655,5.819,1.655h34.4c0.612,0,1.22-0.05,1.82-0.142
		c-1.453-0.224-2.856-0.723-4.107-1.513C379.479,315.727,371.388,302.152,371.388,286.683z"/>
	<circle style="fill:#FF5252;" cx="376.867" cy="286.01" r="22.509"/>
</g>
<path style="fill:#EA3D3D;" d="M376.867,308.519c0.14,0,0.278-0.008,0.417-0.011c-3.741-6.413-5.896-13.865-5.896-21.825
	c0-6.494,1.428-12.654,3.985-18.185l0,0c0.032-0.069,0.062-0.139,0.094-0.208c0.719-1.535,1.177-3.15,1.428-4.789
	c-0.009,0-0.018-0.001-0.027-0.001c-12.432,0-22.509,10.078-22.509,22.509C354.357,298.441,364.435,308.519,376.867,308.519z"/>
<g>
	<path style="fill:#7477AD;" d="M274.96,358.785h18.606c2.641,0,4.78-2.141,4.78-4.781V316.62c0-2.641-2.141-4.78-4.78-4.78H274.96
		c-2.641,0-4.78,2.141-4.78,4.78v37.384C270.179,356.644,272.319,358.785,274.96,358.785z"/>
	<path style="fill:#7477AD;" d="M218.625,358.785h18.606c2.641,0,4.781-2.141,4.781-4.781V316.62c0-2.641-2.141-4.78-4.781-4.78
		h-18.606c-2.641,0-4.781,2.141-4.781,4.78v37.384C213.844,356.644,215.985,358.785,218.625,358.785z"/>
</g>
<g>
	<path style="fill:#65669E;" d="M293.566,337.004H274.96c-2.641,0-4.78-2.141-4.78-4.781v21.781c0,2.641,2.141,4.781,4.78,4.781
		h18.606c2.641,0,4.78-2.141,4.78-4.781v-21.781C298.346,334.863,296.206,337.004,293.566,337.004z"/>
	<path style="fill:#65669E;" d="M237.231,337.004h-18.606c-2.641,0-4.781-2.141-4.781-4.781v21.781c0,2.641,2.141,4.781,4.781,4.781
		h18.606c2.64,0,4.781-2.141,4.781-4.781v-21.781C242.011,334.863,239.872,337.004,237.231,337.004z"/>
</g>
<g>
</g>
<g>
</g>
<g>
</g>
<g>
</g>
<g>
</g>
<g>
</g>
<g>
</g>
<g>
</g>
<g>
</g>
<g>
</g>
<g>
</g>
<g>
</g>
<g>
</g>
<g>
</g>
<g>
</g>
</svg>
