<?xml version="1.0" encoding="iso-8859-1"?>
<!-- Generator: Adobe Illustrator 19.0.0, SVG Export Plug-In . SVG Version: 6.00 Build 0)  -->
<svg version="1.1" id="Capa_1" xmlns="http://www.w3.org/2000/svg" xmlns:xlink="http://www.w3.org/1999/xlink" x="0px" y="0px"
	 viewBox="0 0 512 512" style="enable-background:new 0 0 512 512;" xml:space="preserve">
<circle style="fill:#FDBF49;" cx="256" cy="271.74" r="240.26"/>
<path style="fill:#FC9B00;" d="M66.973,420.057C110.96,476.04,179.28,512,256,512s145.04-35.96,189.027-91.943H66.973z"/>
<path style="fill:#EF8D22;" d="M229.281,420.057H66.973c38.084,48.47,94.415,81.91,158.638,90.018
	C190.668,491.827,192.654,435.749,229.281,420.057z"/>
<polygon style="fill:#7477AD;" points="228.102,449.157 283.867,449.157 273.54,7.745 238.429,7.745 "/>
<polygon style="fill:#65669E;" points="238.429,7.745 228.102,449.157 255.984,449.157 261.148,7.745 "/>
<g>
	<path style="fill:#7477AD;" d="M273.54,15.49h-35.111c-4.277,0-7.745-3.467-7.745-7.745S234.151,0,238.429,0h35.111
		c4.277,0,7.745,3.467,7.745,7.745S277.818,15.49,273.54,15.49z"/>
	<path style="fill:#7477AD;" d="M305.897,435.198h-99.826c-6.816,0-12.392,6.047-12.392,13.438v1.7H318.29v-1.7
		C318.29,441.245,312.713,435.198,305.897,435.198z"/>
</g>
<path style="fill:#65669E;" d="M257.017,435.198h-50.946c-6.815,0-12.392,6.047-12.392,13.438v1.7h50.946v-1.7
	C244.625,441.245,250.201,435.198,257.017,435.198z"/>
<path style="fill:#FF5252;" d="M301.277,357.784L301.277,357.784c-20.828-2.291-69.727-2.292-90.555-0.003l-0.031,0.003h-4.071
	v22.081h4.071l0.031,0.003c20.828,2.288,69.727,2.287,90.555-0.003l0,0h4.102v-22.081H301.277z"/>
<path style="fill:#EA3D3D;" d="M210.722,368.839l-0.031-0.002h-4.071v11.028h4.071l0.031,0.003
	c20.828,2.288,69.727,2.287,90.555-0.003h4.103v-11.028h-4.103C280.449,370.066,231.55,370.066,210.722,368.839z"/>
<g>
	<path style="fill:#FF7171;" d="M210.691,357.784l-6.092-10.552c-3.157-5.468-8.992-8.837-15.307-8.837h-14.729
		c-6.315,0-12.149,3.369-15.307,8.837l-7.364,12.756c-3.157,5.469-3.157,12.206,0,17.675l7.364,12.755
		c3.157,5.469,8.992,8.837,15.307,8.837h14.729c6.315,0,12.149-3.369,15.307-8.837l6.092-10.552V357.784z"/>
	<path style="fill:#FF7171;" d="M360.076,359.987l-7.365-12.756c-3.157-5.468-8.992-8.837-15.306-8.837h-14.729
		c-6.315,0-12.149,3.369-15.307,8.837l-6.092,10.552v22.081l6.092,10.552c3.157,5.469,8.992,8.837,15.307,8.837h14.729
		c6.315,0,12.149-3.369,15.306-8.837l7.365-12.755C363.233,372.193,363.233,365.455,360.076,359.987z"/>
</g>
<g>
	<path style="fill:#FF5252;" d="M189.292,381.581h-14.729c-6.315,0-12.15-2.209-15.307-5.794l-7.364-8.364
		c-0.823-0.935-1.426-1.927-1.82-2.945c-1.117,4.405-0.514,9.14,1.82,13.183l7.364,12.756c3.157,5.469,8.992,8.837,15.307,8.837
		h14.729c6.314,0,12.149-3.369,15.307-8.837l6.092-10.552v-10.997l-6.092,6.919C201.442,379.372,195.607,381.581,189.292,381.581z"
		/>
	<path style="fill:#FF5252;" d="M360.076,367.423l-7.365,8.364c-3.157,3.586-8.992,5.794-15.306,5.794h-14.729
		c-6.314,0-12.149-2.209-15.307-5.794l-6.092-6.919v10.997l6.092,10.552c3.157,5.469,8.992,8.837,15.307,8.837h14.729
		c6.314,0,12.149-3.369,15.306-8.837l7.365-12.756c2.334-4.043,2.937-8.779,1.82-13.183
		C361.502,365.497,360.899,366.488,360.076,367.423z"/>
	<path style="fill:#FF5252;" d="M163.139,368.824c0-10.348,1.453-20.126,4.032-28.8c-3.266,1.505-6.056,3.988-7.914,7.207
		l-7.364,12.756c-3.157,5.469-3.157,12.206,0,17.675l7.364,12.755c1.858,3.219,4.649,5.702,7.914,7.207
		C164.592,388.95,163.139,379.172,163.139,368.824z"/>
</g>
<path style="fill:#EA3D3D;" d="M163.638,379.097c-1.741-0.898-3.239-2.012-4.382-3.311l-7.364-8.364
	c-0.823-0.935-1.426-1.927-1.82-2.945c0,0,0,0.001,0,0.002c-0.132,0.521-0.236,1.047-0.32,1.576
	c-0.008,0.049-0.017,0.098-0.024,0.146c-0.607,4.04,0.208,8.068,2.165,11.458c1.194,2.069,5.475,9.482,7.364,12.756
	c1.744,3.019,4.471,5.62,7.913,7.207h0.001C165.464,391.883,164.264,385.651,163.638,379.097z"/>
<path style="fill:#FF5252;" d="M348.829,368.824c0-10.348-1.453-20.126-4.032-28.8c3.266,1.505,6.056,3.988,7.914,7.207
	l7.364,12.756c3.157,5.469,3.157,12.206,0,17.675l-7.364,12.755c-1.858,3.219-4.649,5.702-7.914,7.207
	C347.376,388.95,348.829,379.172,348.829,368.824z"/>
<path style="fill:#EA3D3D;" d="M362.24,366.201c-0.007-0.047-0.015-0.094-0.023-0.141c-0.084-0.531-0.189-1.058-0.321-1.581
	c-0.394,1.018-0.997,2.01-1.82,2.945l-7.365,8.364c-1.143,1.298-2.641,2.413-4.381,3.31c-0.625,6.553-1.826,12.786-3.533,18.527l0,0
	c3.384-1.56,6.134-4.129,7.908-7.197c0.002-0.003,0.004-0.006,0.006-0.01c2.72-4.711,6.5-11.257,7.365-12.755
	c0.002-0.003,0.004-0.007,0.006-0.01C362.077,374.187,362.832,370.129,362.24,366.201z"/>
<g>
	<path style="fill:#7477AD;" d="M274.755,386.741h18.418c2.614,0,4.732-2.119,4.732-4.732v-37.006c0-2.614-2.119-4.732-4.732-4.732
		h-18.418c-2.614,0-4.732,2.119-4.732,4.732v37.006C270.023,384.622,272.141,386.741,274.755,386.741z"/>
	<path style="fill:#7477AD;" d="M218.99,386.741h18.418c2.614,0,4.732-2.119,4.732-4.732v-37.006c0-2.614-2.119-4.732-4.732-4.732
		H218.99c-2.614,0-4.732,2.119-4.732,4.732v37.006C214.258,384.622,216.376,386.741,218.99,386.741z"/>
</g>
<g>
	<path style="fill:#65669E;" d="M293.173,364.718h-18.418c-2.614,0-4.732-2.119-4.732-4.732v22.023c0,2.614,2.119,4.732,4.732,4.732
		h18.418c2.614,0,4.732-2.119,4.732-4.732v-22.023C297.905,362.6,295.787,364.718,293.173,364.718z"/>
	<path style="fill:#65669E;" d="M237.408,364.718H218.99c-2.614,0-4.732-2.119-4.732-4.732v22.023c0,2.614,2.119,4.732,4.732,4.732
		h18.418c2.614,0,4.732-2.119,4.732-4.732v-22.023C242.14,362.6,240.022,364.718,237.408,364.718z"/>
</g>
<path style="fill:#CEDDF7;" d="M126.8,449.157v22.66c0,0.788-0.185,1.529-0.496,2.2c1.617,1.039,3.247,2.058,4.89,3.059h249.613
	c1.643-1.001,3.273-2.021,4.89-3.059c-0.311-0.671-0.496-1.412-0.496-2.2v-22.66H126.8z"/>
<path style="fill:#7477AD;" d="M411.767,436.49h-24.406c-2.905,0-5.259,2.355-5.259,5.259v30.068c0,1.382,0.544,2.629,1.415,3.567
	c14.839-9.312,28.587-20.197,41.011-32.428C421.59,438.962,416.89,436.49,411.767,436.49z"/>
<path style="fill:#65669E;" d="M403.315,441.749c0-2.904,2.354-5.259,5.259-5.259h-21.213c-2.905,0-5.259,2.355-5.259,5.259v30.068
	c0,1.382,0.544,2.629,1.415,3.567c6.843-4.294,13.442-8.938,19.798-13.878V441.749z"/>
<g>
	<circle style="fill:#8FB1DB;" cx="292.62" cy="463.12" r="8.907"/>
	<circle style="fill:#8FB1DB;" cx="219.35" cy="463.12" r="8.907"/>
</g>
<path style="fill:#AAC5EE;" d="M179.4,463.001c0-6.064,3.492-11.3,8.567-13.844H126.8v22.66c0,0.788-0.185,1.529-0.496,2.2
	c1.617,1.039,3.247,2.058,4.89,3.059h57.256C183.113,474.63,179.4,469.255,179.4,463.001z"/>
<path style="fill:#7477AD;" d="M124.639,436.49h-24.406c-5.124,0-9.824,2.472-12.762,6.467
	c12.424,12.23,26.172,23.116,41.011,32.428c0.871-0.938,1.415-2.186,1.415-3.567V441.75
	C129.898,438.845,127.543,436.49,124.639,436.49z"/>
<path style="fill:#65669E;" d="M110.627,441.749c0-2.904,2.354-5.259,5.259-5.259h-15.653c-5.124,0-9.824,2.472-12.762,6.467
	c7.276,7.163,15.018,13.849,23.156,20.043V441.749z"/>
<path style="fill:#FF5252;" d="M301.277,162.912L301.277,162.912c-20.828-2.291-69.727-2.292-90.555-0.003l-0.031,0.003h-4.071
	v22.081h4.071l0.031,0.003c20.828,2.288,69.727,2.287,90.555-0.003l0,0h4.102v-22.081H301.277z"/>
<path style="fill:#EA3D3D;" d="M210.722,173.967l-0.031-0.002h-4.071v11.028h4.071l0.031,0.003
	c20.828,2.288,69.727,2.287,90.555-0.003h4.103v-11.028h-4.103C280.449,175.194,231.55,175.195,210.722,173.967z"/>
<g>
	<path style="fill:#FF7171;" d="M210.691,162.912l-6.092-10.552c-3.157-5.468-8.992-8.837-15.307-8.837h-14.729
		c-6.315,0-12.149,3.369-15.307,8.837l-7.364,12.756c-3.157,5.469-3.157,12.206,0,17.675l7.364,12.755
		c3.157,5.469,8.992,8.837,15.307,8.837h14.729c6.315,0,12.149-3.369,15.307-8.837l6.092-10.552V162.912z"/>
	<path style="fill:#FF7171;" d="M360.076,165.115l-7.365-12.756c-3.157-5.468-8.992-8.837-15.306-8.837h-14.729
		c-6.315,0-12.149,3.369-15.307,8.837l-6.092,10.552v22.081l6.092,10.552c3.157,5.469,8.992,8.837,15.307,8.837h14.729
		c6.315,0,12.149-3.369,15.306-8.837l7.365-12.755C363.233,177.321,363.233,170.584,360.076,165.115z"/>
</g>
<g>
	<path style="fill:#FF5252;" d="M189.292,186.71h-14.729c-6.315,0-12.15-2.209-15.307-5.794l-7.364-8.364
		c-0.823-0.935-1.426-1.927-1.82-2.945c-1.117,4.405-0.514,9.14,1.82,13.183l7.364,12.756c3.157,5.469,8.992,8.837,15.307,8.837
		h14.729c6.314,0,12.149-3.369,15.307-8.837l6.092-10.552v-10.997l-6.092,6.919C201.442,184.501,195.607,186.71,189.292,186.71z"/>
	<path style="fill:#FF5252;" d="M360.076,172.551l-7.365,8.364c-3.157,3.586-8.992,5.794-15.306,5.794h-14.729
		c-6.314,0-12.149-2.209-15.307-5.794l-6.092-6.919v10.997l6.092,10.552c3.157,5.469,8.992,8.837,15.307,8.837h14.729
		c6.314,0,12.149-3.369,15.306-8.837l7.365-12.756c2.334-4.043,2.937-8.779,1.82-13.183
		C361.502,170.625,360.899,171.617,360.076,172.551z"/>
	<path style="fill:#FF5252;" d="M163.139,173.953c0-10.348,1.453-20.126,4.032-28.8c-3.266,1.505-6.056,3.988-7.914,7.207
		l-7.364,12.756c-3.157,5.469-3.157,12.206,0,17.675l7.364,12.755c1.858,3.219,4.649,5.702,7.914,7.207
		C164.592,194.078,163.139,184.3,163.139,173.953z"/>
</g>
<path style="fill:#EA3D3D;" d="M163.638,184.226c-1.741-0.898-3.239-2.012-4.382-3.311l-7.364-8.364
	c-0.823-0.935-1.426-1.927-1.82-2.945v0.002c-0.132,0.521-0.236,1.047-0.32,1.576c-0.008,0.049-0.017,0.098-0.024,0.146
	c-0.597,3.978,0.191,8.039,2.165,11.458c1.194,2.069,5.475,9.482,7.364,12.756c1.776,3.074,4.529,5.647,7.913,7.207h0.001
	C165.464,197.011,164.264,190.779,163.638,184.226z"/>
<path style="fill:#FF5252;" d="M348.829,173.953c0-10.348-1.453-20.126-4.032-28.8c3.266,1.505,6.056,3.988,7.914,7.207
	l7.364,12.756c3.157,5.469,3.157,12.206,0,17.675l-7.364,12.755c-1.858,3.219-4.649,5.702-7.914,7.207
	C347.376,194.078,348.829,184.3,348.829,173.953z"/>
<path style="fill:#EA3D3D;" d="M361.896,169.607c-0.394,1.018-0.997,2.01-1.82,2.945l-7.365,8.364
	c-1.143,1.298-2.641,2.413-4.381,3.31c-0.625,6.553-1.826,12.786-3.533,18.527l0,0c3.313-1.527,6.088-4.049,7.908-7.197
	c0.002-0.003,0.004-0.006,0.006-0.01c2.72-4.711,6.5-11.257,7.365-12.755c0.002-0.003,0.004-0.007,0.006-0.01
	C362.373,178.802,363.025,174.058,361.896,169.607z"/>
<g>
	<path style="fill:#7477AD;" d="M274.755,191.564h18.418c2.614,0,4.732-2.119,4.732-4.732v-37.006c0-2.614-2.119-4.732-4.732-4.732
		h-18.418c-2.614,0-4.732,2.119-4.732,4.732v37.006C270.023,189.445,272.141,191.564,274.755,191.564z"/>
	<path style="fill:#7477AD;" d="M218.99,191.564h18.418c2.614,0,4.732-2.119,4.732-4.732v-37.006c0-2.614-2.119-4.732-4.732-4.732
		H218.99c-2.614,0-4.732,2.119-4.732,4.732v37.006C214.258,189.445,216.376,191.564,218.99,191.564z"/>
</g>
<g>
	<path style="fill:#65669E;" d="M293.173,169.541h-18.418c-2.614,0-4.732-2.119-4.732-4.732v22.023c0,2.614,2.119,4.732,4.732,4.732
		h18.418c2.614,0,4.732-2.119,4.732-4.732v-22.023C297.905,167.422,295.787,169.541,293.173,169.541z"/>
	<path style="fill:#65669E;" d="M237.408,169.541H218.99c-2.614,0-4.732-2.119-4.732-4.732v22.023c0,2.614,2.119,4.732,4.732,4.732
		h18.418c2.614,0,4.732-2.119,4.732-4.732v-22.023C242.14,167.422,240.022,169.541,237.408,169.541z"/>
</g>
<path style="fill:#61CBF8;" d="M301.277,65.476L301.277,65.476c-20.828-2.291-69.727-2.292-90.555-0.003l-0.031,0.003h-4.071v22.081
	h4.071l0.031,0.003c20.828,2.288,69.727,2.287,90.555-0.003l0,0h4.102V65.476H301.277z"/>
<path style="fill:#52AFE5;" d="M210.722,76.531l-0.031-0.002h-4.071v11.028h4.071l0.031,0.003
	c20.828,2.288,69.727,2.287,90.555-0.003h4.103V76.529h-4.103C280.449,77.758,231.55,77.759,210.722,76.531z"/>
<g>
	<path style="fill:#86DDFC;" d="M210.691,65.476l-6.092-10.552c-3.157-5.468-8.992-8.837-15.307-8.837h-14.729
		c-6.315,0-12.149,3.369-15.307,8.837l-7.364,12.756c-3.157,5.469-3.157,12.206,0,17.675l7.364,12.755
		c3.157,5.469,8.992,8.837,15.307,8.837h14.729c6.315,0,12.149-3.369,15.307-8.837l6.092-10.552V65.476z"/>
	<path style="fill:#86DDFC;" d="M360.076,67.679l-7.365-12.756c-3.157-5.468-8.992-8.837-15.306-8.837h-14.729
		c-6.315,0-12.149,3.369-15.307,8.837l-6.092,10.552v22.081l6.092,10.552c3.157,5.469,8.992,8.837,15.307,8.837h14.729
		c6.315,0,12.149-3.369,15.306-8.837l7.365-12.755C363.233,79.886,363.233,73.148,360.076,67.679z"/>
</g>
<g>
	<path style="fill:#61CBF8;" d="M189.292,89.274h-14.729c-6.315,0-12.15-2.209-15.307-5.794l-7.364-8.364
		c-0.823-0.935-1.426-1.927-1.82-2.945c-1.117,4.405-0.514,9.14,1.82,13.183l7.364,12.756c3.157,5.469,8.992,8.837,15.307,8.837
		h14.729c6.314,0,12.149-3.369,15.307-8.837l6.092-10.552V76.56l-6.092,6.919C201.442,87.065,195.607,89.274,189.292,89.274z"/>
	<path style="fill:#61CBF8;" d="M360.076,75.116l-7.365,8.364c-3.157,3.586-8.992,5.794-15.306,5.794h-14.729
		c-6.314,0-12.149-2.209-15.307-5.794l-6.092-6.919v10.997l6.092,10.552c3.157,5.469,8.992,8.837,15.307,8.837h14.729
		c6.314,0,12.149-3.369,15.306-8.837l7.365-12.756c2.334-4.043,2.937-8.779,1.82-13.183
		C361.502,73.189,360.899,74.181,360.076,75.116z"/>
	<path style="fill:#61CBF8;" d="M163.139,76.517c0-10.348,1.453-20.126,4.032-28.8c-3.266,1.505-6.056,3.988-7.914,7.207
		l-7.364,12.756c-3.157,5.469-3.157,12.206,0,17.675l7.364,12.755c1.858,3.219,4.649,5.702,7.914,7.207
		C164.592,96.643,163.139,86.865,163.139,76.517z"/>
</g>
<path style="fill:#52AFE5;" d="M163.638,86.79c-1.741-0.898-3.239-2.012-4.382-3.311l-7.364-8.364
	c-0.823-0.935-1.426-1.927-1.82-2.945v0.002c-0.132,0.521-0.236,1.047-0.32,1.576c-0.008,0.049-0.017,0.098-0.024,0.146
	c-0.618,4.114,0.256,8.15,2.165,11.458c1.194,2.069,5.475,9.482,7.364,12.756c1.809,3.132,4.575,5.668,7.913,7.207h0.001
	C165.464,99.575,164.264,93.343,163.638,86.79z"/>
<path style="fill:#61CBF8;" d="M348.829,76.517c0-10.348-1.453-20.126-4.032-28.8c3.266,1.505,6.056,3.988,7.914,7.207l7.364,12.756
	c3.157,5.469,3.157,12.206,0,17.675l-7.364,12.755c-1.858,3.219-4.649,5.702-7.914,7.207
	C347.376,96.643,348.829,86.865,348.829,76.517z"/>
<path style="fill:#52AFE5;" d="M362.24,73.893c-0.007-0.047-0.015-0.094-0.023-0.141c-0.084-0.531-0.189-1.058-0.321-1.581
	c-0.394,1.018-0.997,2.01-1.82,2.945l-7.365,8.364c-1.143,1.298-2.641,2.413-4.381,3.31c-0.625,6.553-1.826,12.786-3.533,18.527l0,0
	c3.384-1.56,6.134-4.129,7.908-7.197c0.002-0.003,0.004-0.006,0.006-0.01c2.72-4.711,6.5-11.257,7.365-12.755
	c0.002-0.003,0.004-0.007,0.006-0.01C362.011,81.994,362.854,77.972,362.24,73.893z"/>
<g>
	<path style="fill:#7477AD;" d="M274.755,93.975h18.418c2.614,0,4.732-2.119,4.732-4.732V52.236c0-2.614-2.119-4.732-4.732-4.732
		h-18.418c-2.614,0-4.732,2.119-4.732,4.732v37.006C270.023,91.856,272.141,93.975,274.755,93.975z"/>
	<path style="fill:#7477AD;" d="M218.99,93.975h18.418c2.614,0,4.732-2.119,4.732-4.732V52.236c0-2.614-2.119-4.732-4.732-4.732
		H218.99c-2.614,0-4.732,2.119-4.732,4.732v37.006C214.258,91.856,216.376,93.975,218.99,93.975z"/>
</g>
<g>
	<path style="fill:#65669E;" d="M293.173,71.952h-18.418c-2.614,0-4.732-2.119-4.732-4.732v22.023c0,2.614,2.119,4.732,4.732,4.732
		h18.418c2.614,0,4.732-2.119,4.732-4.732V67.22C297.905,69.833,295.787,71.952,293.173,71.952z"/>
	<path style="fill:#65669E;" d="M237.408,71.952H218.99c-2.614,0-4.732-2.119-4.732-4.732v22.023c0,2.614,2.119,4.732,4.732,4.732
		h18.418c2.614,0,4.732-2.119,4.732-4.732V67.22C242.14,69.833,240.022,71.952,237.408,71.952z"/>
</g>
<path style="fill:#61CBF8;" d="M301.277,260.348L301.277,260.348c-20.828-2.291-69.727-2.292-90.555-0.003l-0.031,0.003h-4.071
	v22.081h4.071l0.031,0.003c20.828,2.288,69.727,2.287,90.555-0.003l0,0h4.102v-22.081H301.277z"/>
<path style="fill:#52AFE5;" d="M210.722,271.403l-0.031-0.002h-4.071v11.028h4.071l0.031,0.003
	c20.828,2.288,69.727,2.287,90.555-0.003h4.103v-11.028h-4.103C280.449,272.63,231.55,272.631,210.722,271.403z"/>
<g>
	<path style="fill:#86DDFC;" d="M210.691,260.348l-6.092-10.552c-3.157-5.468-8.992-8.837-15.307-8.837h-14.729
		c-6.315,0-12.149,3.369-15.307,8.837l-7.364,12.756c-3.157,5.469-3.157,12.206,0,17.675l7.364,12.755
		c3.157,5.469,8.992,8.837,15.307,8.837h14.729c6.315,0,12.149-3.369,15.307-8.837l6.092-10.552V260.348z"/>
	<path style="fill:#86DDFC;" d="M360.076,262.551l-7.365-12.756c-3.157-5.468-8.992-8.837-15.306-8.837h-14.729
		c-6.315,0-12.149,3.369-15.307,8.837l-6.092,10.552v22.081l6.092,10.552c3.157,5.469,8.992,8.837,15.307,8.837h14.729
		c6.315,0,12.149-3.369,15.306-8.837l7.365-12.755C363.233,274.757,363.233,268.02,360.076,262.551z"/>
</g>
<g>
	<path style="fill:#61CBF8;" d="M189.292,284.145h-14.729c-6.315,0-12.15-2.209-15.307-5.794l-7.364-8.364
		c-0.823-0.935-1.426-1.927-1.82-2.945c-1.117,4.405-0.514,9.14,1.82,13.183l7.364,12.756c3.157,5.469,8.992,8.837,15.307,8.837
		h14.729c6.314,0,12.149-3.369,15.307-8.837l6.092-10.552v-10.997l-6.092,6.919C201.442,281.937,195.607,284.145,189.292,284.145z"
		/>
	<path style="fill:#61CBF8;" d="M360.076,269.987l-7.365,8.364c-3.157,3.586-8.992,5.794-15.306,5.794h-14.729
		c-6.314,0-12.149-2.209-15.307-5.794l-6.092-6.919v10.997l6.092,10.552c3.157,5.469,8.992,8.837,15.307,8.837h14.729
		c6.314,0,12.149-3.369,15.306-8.837l7.365-12.756c2.334-4.043,2.937-8.779,1.82-13.183
		C361.502,268.061,360.899,269.053,360.076,269.987z"/>
	<path style="fill:#61CBF8;" d="M163.139,271.388c0-10.348,1.453-20.126,4.032-28.8c-3.266,1.505-6.056,3.988-7.914,7.207
		l-7.364,12.755c-3.157,5.469-3.157,12.206,0,17.675l7.364,12.755c1.858,3.219,4.649,5.702,7.914,7.207
		C164.592,291.514,163.139,281.736,163.139,271.388z"/>
</g>
<path style="fill:#52AFE5;" d="M163.638,281.662c-1.741-0.898-3.239-2.012-4.382-3.311l-7.364-8.364
	c-0.823-0.935-1.426-1.927-1.82-2.945v0.002c-0.132,0.521-0.236,1.047-0.32,1.576c-0.008,0.049-0.017,0.098-0.024,0.146
	c-0.595,3.963,0.184,8.026,2.165,11.458c1.194,2.069,5.475,9.482,7.364,12.756c1.809,3.132,4.575,5.668,7.913,7.207h0.001
	C165.464,294.447,164.264,288.215,163.638,281.662z"/>
<path style="fill:#61CBF8;" d="M348.829,271.388c0-10.348-1.453-20.126-4.032-28.8c3.266,1.505,6.056,3.988,7.914,7.207
	l7.364,12.755c3.157,5.469,3.157,12.206,0,17.675l-7.364,12.755c-1.858,3.219-4.649,5.702-7.914,7.207
	C347.376,291.514,348.829,281.736,348.829,271.388z"/>
<path style="fill:#52AFE5;" d="M361.896,267.042c-0.394,1.018-0.997,2.01-1.82,2.945l-7.365,8.364
	c-1.143,1.298-2.641,2.413-4.381,3.31c-0.625,6.553-1.826,12.786-3.533,18.527l0,0c3.384-1.559,6.134-4.129,7.908-7.197
	c0.002-0.003,0.004-0.006,0.006-0.01c2.72-4.711,6.5-11.257,7.365-12.755c0.002-0.003,0.004-0.007,0.006-0.01
	C362.3,276.364,363.056,271.616,361.896,267.042z"/>
<g>
	<path style="fill:#7477AD;" d="M274.755,289.152h18.418c2.614,0,4.732-2.119,4.732-4.732v-37.006c0-2.614-2.119-4.732-4.732-4.732
		h-18.418c-2.614,0-4.732,2.119-4.732,4.732v37.006C270.023,287.034,272.141,289.152,274.755,289.152z"/>
	<path style="fill:#7477AD;" d="M218.99,289.152h18.418c2.614,0,4.732-2.119,4.732-4.732v-37.006c0-2.614-2.119-4.732-4.732-4.732
		H218.99c-2.614,0-4.732,2.119-4.732,4.732v37.006C214.258,287.034,216.376,289.152,218.99,289.152z"/>
</g>
<g>
	<path style="fill:#65669E;" d="M293.173,267.13h-18.418c-2.614,0-4.732-2.119-4.732-4.732v22.023c0,2.614,2.119,4.732,4.732,4.732
		h18.418c2.614,0,4.732-2.119,4.732-4.732v-22.023C297.905,265.011,295.787,267.13,293.173,267.13z"/>
	<path style="fill:#65669E;" d="M237.408,267.13H218.99c-2.614,0-4.732-2.119-4.732-4.732v22.023c0,2.614,2.119,4.732,4.732,4.732
		h18.418c2.614,0,4.732-2.119,4.732-4.732v-22.023C242.14,265.011,240.022,267.13,237.408,267.13z"/>
</g>
<g>
</g>
<g>
</g>
<g>
</g>
<g>
</g>
<g>
</g>
<g>
</g>
<g>
</g>
<g>
</g>
<g>
</g>
<g>
</g>
<g>
</g>
<g>
</g>
<g>
</g>
<g>
</g>
<g>
</g>
</svg>
