<?xml version="1.0" encoding="iso-8859-1"?>
<!-- Generator: Adobe Illustrator 19.0.0, SVG Export Plug-In . SVG Version: 6.00 Build 0)  -->
<svg version="1.1" id="Capa_1" xmlns="http://www.w3.org/2000/svg" xmlns:xlink="http://www.w3.org/1999/xlink" x="0px" y="0px"
	 viewBox="0 0 512 512" style="enable-background:new 0 0 512 512;" xml:space="preserve">
<circle style="fill:#504A7F;" cx="256" cy="256" r="256"/>
<path style="fill:#3B3868;" d="M56.439,416.333C103.362,474.661,175.315,512,256,512s152.638-37.339,199.561-95.667H56.439z"/>
<path style="fill:#31315B;" d="M245.867,416.333H56.439c44.262,55.02,110.8,91.348,185.926,95.293
	C181.413,507.854,184.315,416.333,245.867,416.333z"/>
<path style="fill:#AAC5EE;" d="M97.772,368.968c77.848,0,180.703,0,258.612,0v-26.637H97.772V368.968z"/>
<g>
	<path style="fill:#7477AD;" d="M0.014,257.082h31.501v-30.583H1.702C0.591,236.181,0,246.021,0,256
		C0,256.362,0.012,256.72,0.014,257.082z"/>
	<path style="fill:#7477AD;" d="M28.322,217.345v48.891c0,3.052,2.474,5.526,5.526,5.526h7.793V211.82h-7.793
		C30.796,211.82,28.322,214.294,28.322,217.345z"/>
	<path style="fill:#7477AD;" d="M424.136,226.499h54.692c3.847,0,6.966,3.119,6.966,6.966v16.65c0,3.848-3.119,6.966-6.966,6.966
		h-54.692V226.499z"/>
</g>
<g>
	<path style="fill:#65669E;" d="M0.406,241.791C0.144,246.495,0,251.23,0,256c0,0.362,0.012,0.72,0.014,1.082h31.501v-15.291H0.406z
		"/>
	<path style="fill:#65669E;" d="M478.829,241.791h-54.692v15.292h54.692c3.847,0,6.966-3.119,6.966-6.967v-15.291
		C485.795,238.672,482.676,241.791,478.829,241.791z"/>
</g>
<path style="fill:#7477AD;" d="M427.329,217.345v48.891c0,3.052-2.474,5.526-5.526,5.526h-7.793V211.82h7.793
	C424.855,211.82,427.329,214.294,427.329,217.345z"/>
<g>
	<path style="fill:#65669E;" d="M28.322,239.736v26.5c0,3.052,2.474,5.526,5.526,5.526h7.793v-26.5h-7.793
		C30.796,245.262,28.322,242.788,28.322,239.736z"/>
	<path style="fill:#65669E;" d="M421.804,245.262h-7.793v26.5h7.793c3.052,0,5.526-2.474,5.526-5.526v-26.5
		C427.329,242.788,424.855,245.262,421.804,245.262z"/>
</g>
<g>
	<polygon style="fill:#AAC5EE;" points="412.529,454.613 374.249,416.333 374.249,454.613 	"/>
	<path style="fill:#AAC5EE;" d="M80.415,442.279v-25.945l-12.891,12.891C71.665,433.728,75.965,438.082,80.415,442.279z"/>
</g>
<path style="fill:#CEDDF7;" d="M331.06,29.907c-17.587,0-199.525,0-207.456,0c-24.401,0-44.253,19.851-44.253,44.253v367.127
	c4.865,4.639,9.921,9.078,15.139,13.326h11.497V74.16c0-9.713,7.902-17.616,17.616-17.616c12.039,0,187.824,0,207.456,0
	c9.714,0,17.617,7.903,17.617,17.616v380.453h26.637V74.16C375.314,49.759,355.462,29.907,331.06,29.907z"/>
<path style="fill:#AAC5EE;" d="M137.971,43.226c0-5.731,3.168-10.717,7.844-13.318c-12.398,0-20.655,0-22.211,0
	c-24.401,0-44.253,19.851-44.253,44.253v367.127c4.865,4.639,9.921,9.078,15.139,13.326h11.497V74.16
	c0-9.713,7.902-17.616,17.616-17.616c2.275,0,10.4,0,22.211,0C141.138,53.943,137.971,48.956,137.971,43.226z"/>
<path style="fill:#FF7171;" d="M191.685,405.127c-27.282,15.751-62.292,6.37-78.043-20.911
	c-15.751-27.282-6.371-62.292,20.911-78.043s62.292-6.37,78.043,20.912C228.347,354.366,218.967,389.375,191.685,405.127z"/>
<g>
	<path style="fill:#FF5252;" d="M129.231,375.215c-14.22-24.63-7.951-55.554,13.475-72.924c-2.773,1.063-5.5,2.349-8.152,3.881
		c-27.282,15.751-36.663,50.761-20.911,78.043c15.751,27.281,50.761,36.662,78.043,20.911c2.652-1.531,5.13-3.249,7.437-5.12
		C173.365,409.878,143.451,399.845,129.231,375.215z"/>
	<path style="fill:#FF5252;" d="M136.71,340.402c-8.407,14.562-3.4,33.249,11.162,41.657c14.562,8.407,33.249,3.4,41.656-11.162
		c8.407-14.562,3.4-33.249-11.161-41.656C163.804,320.833,145.117,325.84,136.71,340.402z"/>
</g>
<path style="fill:#EA3D3D;" d="M151.578,331.818c1.233-2.136,2.693-4.06,4.323-5.773c-7.81,1.906-14.864,6.862-19.191,14.357
	c-8.407,14.562-3.4,33.249,11.162,41.657c12.426,7.174,27.85,4.574,37.333-5.389C159.269,382.999,138.176,355.031,151.578,331.818z"
	/>
<path style="fill:#BDC2B8;" d="M420.09,452.485c-68.19,0-226.962,0-328.18,0c11.963,10.001,24.853,18.927,38.522,26.637
	c81.534,0,183.863,0,251.136,0C395.238,471.412,408.127,462.486,420.09,452.485z"/>
<g>
	<path style="fill:#A6A9A0;" d="M191.155,465.803c0-5.955,3.582-11.067,8.706-13.318c-38.604,0-76.123,0-107.951,0
		c11.963,10.001,24.853,18.927,38.522,26.637c21.994,0,45.505,0,69.429,0C194.737,476.87,191.155,471.758,191.155,465.803z"/>
	<circle style="fill:#A6A9A0;" cx="361.84" cy="465.8" r="9.179"/>
</g>
<g>
	<circle style="fill:#AAC5EE;" cx="93.34" cy="285.87" r="9.179"/>
	<circle style="fill:#AAC5EE;" cx="361.84" cy="285.87" r="9.179"/>
	<circle style="fill:#AAC5EE;" cx="93.34" cy="355.65" r="9.179"/>
	<circle style="fill:#AAC5EE;" cx="361.84" cy="355.65" r="9.179"/>
	<circle style="fill:#AAC5EE;" cx="93.34" cy="177.31" r="9.179"/>
	<circle style="fill:#AAC5EE;" cx="361.84" cy="177.31" r="9.179"/>
	<rect x="60.06" y="228.47" style="fill:#AAC5EE;" width="334.54" height="26.637"/>
</g>
<rect x="60.06" y="241.79" style="fill:#8FB1DB;" width="334.54" height="13.318"/>
<g>
	<rect x="164.24" y="228.47" style="fill:#CEDDF7;" width="46.37" height="26.637"/>
	<rect x="244.06" y="228.47" style="fill:#CEDDF7;" width="46.37" height="26.637"/>
</g>
<g>
	<rect x="164.24" y="241.79" style="fill:#AAC5EE;" width="46.37" height="13.318"/>
	<rect x="244.06" y="241.79" style="fill:#AAC5EE;" width="46.37" height="13.318"/>
	<path style="fill:#AAC5EE;" d="M114.396,121.439c-2.717-0.956-5.555-1.44-8.434-1.44H62.54v26.637h43.212l21.112,7.43
		c7.452,2.622,15.477,2.182,22.598-1.238l28.235-13.565c2.727-1.309,5.912-1.44,8.737-0.358l27.643,10.585
		c8.547,3.273,17.961,3.273,26.508,0l27.643-10.585c2.826-1.082,6.01-0.951,8.736,0.358l28.236,13.565
		c7.121,3.42,15.146,3.86,22.598,1.238l23.085-7.43h41.239v-26.637h-41.449c-2.879,0-5.717,0.485-8.436,1.441l-23.282,7.499
		c-0.732,0.257-1.521,0.214-2.222-0.122l-28.237-13.565c-9.3-4.466-20.16-4.912-29.794-1.224l-27.643,10.585
		c-6.319,2.419-8.887-1.36-35.103-10.585c-9.634-3.689-20.494-3.243-29.795,1.224c-29.673,13.92-28.418,14.404-30.458,13.687
		L114.396,121.439z"/>
</g>
<path style="fill:#8FB1DB;" d="M342.24,134.574l-23.282,7.499c-0.732,0.257-1.521,0.214-2.222-0.122l-28.237-13.565
	c-9.3-4.466-20.16-4.912-29.794-1.224l-27.643,10.585c-6.319,2.419-8.887-1.36-35.103-10.585
	c-9.634-3.689-20.494-3.243-29.795,1.224c-29.671,13.919-28.417,14.404-30.458,13.687l-21.311-7.5
	c-2.717-0.956-5.555-1.44-8.434-1.44H62.54v13.503h43.212l21.112,7.43c7.452,2.622,15.477,2.182,22.598-1.238l28.235-13.565
	c2.727-1.309,5.911-1.44,8.737-0.358l27.643,10.585c8.547,3.273,17.961,3.273,26.508,0l27.643-10.585
	c2.826-1.082,6.01-0.951,8.736,0.358l28.236,13.565c7.121,3.42,15.146,3.86,22.598,1.238l23.085-7.43h41.239v-13.503h-41.449
	C347.797,133.132,344.959,133.617,342.24,134.574z"/>
<path style="fill:#CEDDF7;" d="M114.396,121.439c-2.596-0.913-5.304-1.383-8.05-1.424v26.829l20.519,7.221
	c7.452,2.622,15.477,2.182,22.598-1.238l28.235-13.565c6.73-3.231,11.46,1.434,22.37,4.862v-28.523l-4.108-1.573
	c-9.634-3.689-20.494-3.243-29.795,1.224c-29.673,13.92-28.418,14.404-30.458,13.687L114.396,121.439z"/>
<path style="fill:#AAC5EE;" d="M200.067,144.124v-15.389l-4.108-1.573c-9.634-3.689-20.494-3.243-29.795,1.224
	c-29.671,13.919-28.417,14.404-30.458,13.687l-21.311-7.5c-2.596-0.913-5.304-1.383-8.05-1.424v13.696l20.519,7.221
	c4.192,1.475,8.565,1.981,12.856,1.533c8.032-0.839,10.126-3.397,37.977-16.336C184.428,136.031,189.158,140.697,200.067,144.124z"
	/>
<path style="fill:#CEDDF7;" d="M342.242,121.439c2.596-0.913,5.304-1.383,8.05-1.424v26.829l-22.492,7.221
	c-7.452,2.622-15.477,2.182-22.598-1.238l-28.235-13.565c-6.73-3.231-11.46,1.434-22.37,4.862v-28.523
	c1.711-0.335,16.315-8.795,33.903-0.349l28.236,13.565c0.7,0.336,1.489,0.38,2.222,0.122L342.242,121.439z"/>
<path style="fill:#AAC5EE;" d="M350.292,133.148c-2.747,0.041-5.455,0.511-8.052,1.425l-23.282,7.499
	c-0.732,0.257-1.521,0.214-2.222-0.122l-28.237-13.565c-17.421-8.366-32.251,0.026-33.902,0.349v15.389
	c13.102-4.751,14.225-6.086,18.018-5.937c0.007,0,0.013,0,0.013,0c4.015,0.165,3.718,1.104,32.574,14.641
	c7.121,3.42,15.146,3.86,22.598,1.238l22.492-7.239V133.148z"/>
<g>
	<path style="fill:#7AA4CE;" d="M385.472,250.852h-47.27c-1.638,0-2.966,1.328-2.966,2.966v7.386c0,1.638,1.328,2.966,2.966,2.966
		h47.27c1.638,0,2.966-1.328,2.966-2.966v-7.386C388.439,252.18,387.11,250.852,385.472,250.852z"/>
	<path style="fill:#7AA4CE;" d="M117.449,250.852h-47.27c-1.638,0-2.966,1.328-2.966,2.966v7.386c0,1.638,1.328,2.966,2.966,2.966
		h47.27c1.638,0,2.966-1.328,2.966-2.966v-7.386C120.416,252.18,119.088,250.852,117.449,250.852z"/>
	<path style="fill:#7AA4CE;" d="M385.472,142.369h-47.27c-1.638,0-2.966,1.328-2.966,2.966v7.386c0,1.638,1.328,2.966,2.966,2.966
		h47.27c1.638,0,2.966-1.328,2.966-2.966v-7.386C388.439,143.697,387.11,142.369,385.472,142.369z"/>
	<path style="fill:#7AA4CE;" d="M117.449,142.369h-47.27c-1.638,0-2.966,1.328-2.966,2.966v7.386c0,1.638,1.328,2.966,2.966,2.966
		h47.27c1.638,0,2.966-1.328,2.966-2.966v-7.386C120.416,143.697,119.088,142.369,117.449,142.369z"/>
</g>
<g>
	<path style="fill:#7477AD;" d="M42.289,148.515v-30.583h-1.902c-6.262,9.759-11.865,19.978-16.778,30.583H42.289z"/>
	<path style="fill:#7477AD;" d="M412.376,117.933h67.517c3.847,0,6.966,3.119,6.966,6.966v16.65c0,3.848-3.119,6.966-6.966,6.966
		h-67.517V117.933z"/>
</g>
<g>
	<path style="fill:#65669E;" d="M23.609,148.515h18.68v-14.862H31.091C28.445,138.516,25.947,143.47,23.609,148.515z"/>
	<path style="fill:#65669E;" d="M479.893,133.653h-67.517v14.862h67.517c3.847,0,6.966-3.119,6.966-6.967v-14.862
		C486.86,130.534,483.741,133.653,479.893,133.653z"/>
</g>
<g>
	<path style="fill:#7477AD;" d="M39.096,162.602c0,3.052,2.474,5.526,5.526,5.526h15.585c3.052,0,5.526-2.474,5.526-5.526v-58.756
		c0-3.052-2.474-5.526-5.526-5.526h-5.891c-5.437,6.944-10.512,14.183-15.22,21.676V162.602z"/>
	<path style="fill:#7477AD;" d="M415.568,103.846v58.756c0,3.052-2.474,5.526-5.526,5.526h-15.585c-3.052,0-5.526-2.474-5.526-5.526
		v-58.756c0-3.052,2.474-5.526,5.526-5.526h15.585C413.094,98.32,415.568,100.794,415.568,103.846z"/>
</g>
<g>
	<path style="fill:#65669E;" d="M60.207,137.794H44.622c-3.052,0-5.526-2.474-5.526-5.526v30.333c0,3.052,2.474,5.526,5.526,5.526
		h15.585c3.052,0,5.526-2.474,5.526-5.526v-30.333C65.733,135.32,63.259,137.794,60.207,137.794z"/>
	<path style="fill:#65669E;" d="M410.043,137.794h-15.585c-3.052,0-5.526-2.474-5.526-5.526v30.333c0,3.052,2.474,5.526,5.526,5.526
		h15.585c3.052,0,5.526-2.474,5.526-5.526v-30.333C415.568,135.32,413.094,137.794,410.043,137.794z"/>
</g>
<g>
	<path style="fill:#7477AD;" d="M40.576,212.413v58.756c0,3.052,2.474,5.526,5.526,5.526h15.585c3.052,0,5.526-2.474,5.526-5.526
		v-58.756c0-3.052-2.474-5.526-5.526-5.526H46.102C43.05,206.887,40.576,209.361,40.576,212.413z"/>
	<path style="fill:#7477AD;" d="M415.075,212.413v58.756c0,3.052-2.474,5.526-5.526,5.526h-15.585c-3.052,0-5.526-2.474-5.526-5.526
		v-58.756c0-3.052,2.474-5.526,5.526-5.526h15.585C412.601,206.887,415.075,209.361,415.075,212.413z"/>
</g>
<g>
	<path style="fill:#65669E;" d="M61.687,248.723H46.102c-3.052,0-5.526-2.474-5.526-5.526v27.971c0,3.052,2.474,5.526,5.526,5.526
		h15.585c3.052,0,5.526-2.474,5.526-5.526v-27.971C67.213,246.249,64.739,248.723,61.687,248.723z"/>
	<path style="fill:#65669E;" d="M409.549,248.723h-15.585c-3.052,0-5.526-2.474-5.526-5.526v27.971c0,3.052,2.474,5.526,5.526,5.526
		h15.585c3.052,0,5.526-2.474,5.526-5.526v-27.971C415.075,246.249,412.601,248.723,409.549,248.723z"/>
</g>
<ellipse style="fill:#EA3D3D;" cx="163.113" cy="355.653" rx="13.318" ry="13.318"/>
<path style="fill:#DB3535;" d="M163.116,342.342c-4.597,0.006-9.066,2.382-11.53,6.649c-3.678,6.37-1.495,14.516,4.875,18.193
	c6.37,3.678,14.515,1.495,18.193-4.875c0,0,0.004-0.008,0.006-0.012C164.509,362.311,157.972,351.27,163.116,342.342z"/>
<path style="fill:#FF7171;" d="M320.111,405.127c-27.282,15.751-62.292,6.37-78.042-20.911
	c-15.751-27.282-6.371-62.292,20.911-78.043s62.292-6.37,78.043,20.912C356.774,354.366,347.393,389.375,320.111,405.127z"/>
<g>
	<path style="fill:#FF5252;" d="M257.657,375.215c-14.22-24.63-7.951-55.554,13.475-72.924c-2.773,1.063-5.5,2.349-8.152,3.881
		c-27.282,15.751-36.663,50.761-20.911,78.043c15.751,27.281,50.761,36.662,78.043,20.911c2.652-1.531,5.13-3.249,7.437-5.12
		C301.792,409.878,271.877,399.845,257.657,375.215z"/>
	<path style="fill:#FF5252;" d="M265.137,340.402c-8.407,14.562-3.4,33.249,11.162,41.657c14.562,8.407,33.249,3.4,41.656-11.162
		c8.407-14.562,3.4-33.249-11.161-41.656C292.231,320.833,273.544,325.84,265.137,340.402z"/>
</g>
<g>
	<path style="fill:#EA3D3D;" d="M280.005,331.818c1.233-2.136,2.693-4.06,4.323-5.773c-7.81,1.906-14.864,6.862-19.191,14.357
		c-8.407,14.562-3.4,33.249,11.162,41.657c12.426,7.174,27.85,4.574,37.333-5.389C287.695,382.999,266.602,355.031,280.005,331.818z
		"/>
	<ellipse style="fill:#EA3D3D;" cx="291.538" cy="355.653" rx="13.318" ry="13.318"/>
</g>
<path style="fill:#DB3535;" d="M291.542,342.342c-4.597,0.006-9.066,2.382-11.53,6.649c-3.678,6.37-1.495,14.516,4.875,18.193
	c6.37,3.678,14.515,1.495,18.193-4.875c0,0,0.004-0.008,0.006-0.012C292.936,362.311,286.399,351.27,291.542,342.342z"/>
<g>
</g>
<g>
</g>
<g>
</g>
<g>
</g>
<g>
</g>
<g>
</g>
<g>
</g>
<g>
</g>
<g>
</g>
<g>
</g>
<g>
</g>
<g>
</g>
<g>
</g>
<g>
</g>
<g>
</g>
</svg>
