<?xml version="1.0" encoding="iso-8859-1"?>
<!-- Generator: Adobe Illustrator 19.0.0, SVG Export Plug-In . SVG Version: 6.00 Build 0)  -->
<svg version="1.1" id="Capa_1" xmlns="http://www.w3.org/2000/svg" xmlns:xlink="http://www.w3.org/1999/xlink" x="0px" y="0px"
	 viewBox="0 0 512 512" style="enable-background:new 0 0 512 512;" xml:space="preserve">
<circle style="fill:#FDBF49;" cx="256" cy="267.54" r="244.46"/>
<path style="fill:#F2A120;" d="M68.427,424.3C113.271,477.9,180.649,512,256,512s142.729-34.1,187.573-87.7H68.427z"/>
<path style="fill:#EF8D22;" d="M260.375,511.709c-56.627-2.747-54.222-87.409,2.472-87.409H68.427
	C113.271,477.9,180.649,512,256,512c2.76,0,5.507-0.06,8.245-0.151C262.954,511.807,261.661,511.771,260.375,511.709z"/>
<rect x="227.82" y="7.827" style="fill:#7477AD;" width="56.35" height="446.08"/>
<rect x="227.82" y="7.827" style="fill:#65669E;" width="28.18" height="446.08"/>
<path style="fill:#7477AD;" d="M306.441,439.799H205.559c-6.888,0-12.523,6.13-12.523,13.622v1.723h125.928v-1.723
	C318.964,445.93,313.328,439.799,306.441,439.799z"/>
<path style="fill:#65669E;" d="M257.059,439.799h-51.5c-6.888,0-12.523,6.13-12.523,13.623v1.723h51.5v-1.723
	C244.536,445.93,250.171,439.799,257.059,439.799z"/>
<path style="fill:#CEDDF7;" d="M414.186,453.907H97.814c12.627,10.728,26.352,20.202,40.992,28.215h234.387
	C387.834,474.108,401.559,464.635,414.186,453.907z"/>
<path style="fill:#AAC5EE;" d="M234.998,468.15c0-6.413,3.91-11.91,9.476-14.243H97.814c12.627,10.728,26.352,20.202,40.992,28.215
	h105.092C238.645,479.658,234.998,474.336,234.998,468.15z"/>
<g>
	<path style="fill:#CEDDF7;" d="M284.177,15.654h-56.355c-4.323,0-7.827-3.504-7.827-7.827S223.5,0,227.823,0h56.355
		c4.323,0,7.827,3.504,7.827,7.827S288.5,15.654,284.177,15.654z"/>
	<rect x="197.706" y="68.468" style="fill:#CEDDF7;" width="116.83" height="20.652"/>
</g>
<path style="fill:#AAC5EE;" d="M253.631,78.793c0-5.703,4.623-10.326,10.326-10.326h-66.255v20.651h66.255
	C258.254,89.119,253.631,84.496,253.631,78.793z"/>
<rect x="174.33" y="204.658" style="fill:#CEDDF7;" width="163.58" height="20.652"/>
<path style="fill:#AAC5EE;" d="M253.067,214.983c0-5.703,4.623-10.326,10.326-10.326h-89.062v20.652h89.062
	C257.69,225.309,253.067,220.686,253.067,214.983z"/>
<path style="fill:#CEDDF7;" d="M352.984,86.62h-8.61c-4.323,0-7.827-3.504-7.827-7.827s3.504-7.827,7.827-7.827h8.61
	c4.323,0,7.827,3.504,7.827,7.827S357.307,86.62,352.984,86.62z"/>
<path style="fill:#AAC5EE;" d="M167.864,86.62h-8.61c-4.323,0-7.827-3.504-7.827-7.827s3.504-7.827,7.827-7.827h8.61
	c4.323,0,7.827,3.504,7.827,7.827S172.187,86.62,167.864,86.62z"/>
<path style="fill:#CEDDF7;" d="M377.77,368.79h11.374c3.228,0,5.845-2.617,5.845-5.845v-23.541c0-3.228-2.617-5.845-5.845-5.845
	H377.77V368.79z"/>
<path style="fill:#AAC5EE;" d="M389.144,351.174H377.77v17.616h11.374c3.228,0,5.845-2.617,5.845-5.845v-17.616
	C394.99,348.557,392.373,351.174,389.144,351.174z"/>
<path style="fill:#CEDDF7;" d="M134.469,368.79h-11.374c-3.228,0-5.845-2.617-5.845-5.845v-23.541c0-3.228,2.617-5.845,5.845-5.845
	h11.374V368.79z"/>
<path style="fill:#AAC5EE;" d="M117.249,345.328v17.616c0,3.228,2.617,5.845,5.845,5.845h11.374v-17.616h-11.374
	C119.866,351.174,117.249,348.557,117.249,345.328z"/>
<rect x="162.65" y="340.848" style="fill:#CEDDF7;" width="186.95" height="20.652"/>
<path style="fill:#AAC5EE;" d="M253.461,351.174c0-5.703,4.623-10.326,10.326-10.326h-101.14V361.5h101.14
	C258.084,361.5,253.461,356.876,253.461,351.174z"/>
<path style="fill:#CEDDF7;" d="M374.228,204.658h-6.894v20.651h6.894c5.703,0,10.326-4.623,10.326-10.326
	S379.931,204.658,374.228,204.658z"/>
<path style="fill:#AAC5EE;" d="M138.011,204.658h6.894v20.651h-6.894c-5.703,0-10.326-4.623-10.326-10.326
	S132.308,204.658,138.011,204.658z"/>
<g>
	<path style="fill:#7477AD;" d="M274.969,94.969h18.613c2.641,0,4.782-2.141,4.782-4.782V52.789c0-2.641-2.141-4.782-4.782-4.782
		h-18.613c-2.641,0-4.782,2.141-4.782,4.782v37.398C270.187,92.828,272.328,94.969,274.969,94.969z"/>
	<path style="fill:#7477AD;" d="M218.615,94.969h18.613c2.641,0,4.782-2.141,4.782-4.782V52.789c0-2.641-2.141-4.782-4.782-4.782
		h-18.613c-2.641,0-4.782,2.141-4.782,4.782v37.398C213.832,92.828,215.973,94.969,218.615,94.969z"/>
</g>
<g>
	<path style="fill:#65669E;" d="M293.582,72.488h-18.613c-2.641,0-4.782-2.141-4.782-4.782v22.481c0,2.641,2.141,4.782,4.782,4.782
		h18.613c2.641,0,4.782-2.141,4.782-4.782V67.705C298.364,70.346,296.223,72.488,293.582,72.488z"/>
	<path style="fill:#65669E;" d="M237.227,72.488h-18.613c-2.641,0-4.782-2.141-4.782-4.782v22.481c0,2.641,2.141,4.782,4.782,4.782
		h18.613c2.641,0,4.782-2.141,4.782-4.782V67.705C242.01,70.346,239.868,72.488,237.227,72.488z"/>
</g>
<g>
	<path style="fill:#7477AD;" d="M274.969,231.159h18.613c2.641,0,4.782-2.141,4.782-4.782v-37.398c0-2.641-2.141-4.782-4.782-4.782
		h-18.613c-2.641,0-4.782,2.141-4.782,4.782v37.398C270.187,229.018,272.328,231.159,274.969,231.159z"/>
	<path style="fill:#7477AD;" d="M218.615,231.159h18.613c2.641,0,4.782-2.141,4.782-4.782v-37.398c0-2.641-2.141-4.782-4.782-4.782
		h-18.613c-2.641,0-4.782,2.141-4.782,4.782v37.398C213.832,229.018,215.973,231.159,218.615,231.159z"/>
</g>
<g>
	<path style="fill:#65669E;" d="M293.582,208.678h-18.613c-2.641,0-4.782-2.141-4.782-4.782v22.481c0,2.641,2.141,4.782,4.782,4.782
		h18.613c2.641,0,4.782-2.141,4.782-4.782v-22.481C298.364,206.537,296.223,208.678,293.582,208.678z"/>
	<path style="fill:#65669E;" d="M237.227,208.678h-18.613c-2.641,0-4.782-2.141-4.782-4.782v22.481c0,2.641,2.141,4.782,4.782,4.782
		h18.613c2.641,0,4.782-2.141,4.782-4.782v-22.481C242.01,206.537,239.868,208.678,237.227,208.678z"/>
</g>
<g>
	<path style="fill:#7477AD;" d="M274.969,367.349h18.613c2.641,0,4.782-2.141,4.782-4.782V325.17c0-2.641-2.141-4.782-4.782-4.782
		h-18.613c-2.641,0-4.782,2.141-4.782,4.782v37.398C270.187,365.208,272.328,367.349,274.969,367.349z"/>
	<path style="fill:#7477AD;" d="M218.615,367.349h18.613c2.641,0,4.782-2.141,4.782-4.782V325.17c0-2.641-2.141-4.782-4.782-4.782
		h-18.613c-2.641,0-4.782,2.141-4.782,4.782v37.398C213.832,365.208,215.973,367.349,218.615,367.349z"/>
</g>
<g>
	<path style="fill:#65669E;" d="M293.582,344.868h-18.613c-2.641,0-4.782-2.141-4.782-4.782v22.481c0,2.641,2.141,4.782,4.782,4.782
		h18.613c2.641,0,4.782-2.141,4.782-4.782v-22.481C298.364,342.727,296.223,344.868,293.582,344.868z"/>
	<path style="fill:#65669E;" d="M237.227,344.868h-18.613c-2.641,0-4.782-2.141-4.782-4.782v22.481c0,2.641,2.141,4.782,4.782,4.782
		h18.613c2.641,0,4.782-2.141,4.782-4.782v-22.481C242.01,342.727,239.868,344.868,237.227,344.868z"/>
</g>
<g>
	<circle style="fill:#8FB1DB;" cx="293.14" cy="468.01" r="9"/>
	<circle style="fill:#8FB1DB;" cx="219.1" cy="468.01" r="9"/>
</g>
<g>
	<path style="fill:#FF7171;" d="M308.29,107.51V50.076c0-2.718,2.204-4.922,4.922-4.922h10.808c2.718,0,4.922,2.204,4.922,4.922
		v57.433c0,2.718-2.204,4.922-4.922,4.922h-10.808C310.493,112.431,308.29,110.228,308.29,107.51z"/>
	<path style="fill:#FF7171;" d="M344.671,52.789h-10.808c-2.718,0-4.922,2.204-4.922,4.922v42.164c0,2.718,2.204,4.922,4.922,4.922
		h10.808c2.718,0,4.922-2.204,4.922-4.922V57.711C349.593,54.992,347.389,52.789,344.671,52.789z"/>
	<path style="fill:#FF7171;" d="M203.949,107.51V50.076c0-2.718-2.204-4.922-4.922-4.922h-10.808c-2.718,0-4.922,2.204-4.922,4.922
		v57.433c0,2.718,2.204,4.922,4.922,4.922h10.808C201.745,112.431,203.949,110.228,203.949,107.51z"/>
	<path style="fill:#FF7171;" d="M167.568,52.789h10.808c2.718,0,4.922,2.204,4.922,4.922v42.164c0,2.718-2.204,4.922-4.922,4.922
		h-10.808c-2.718,0-4.922-2.204-4.922-4.922V57.711C162.646,54.992,164.85,52.789,167.568,52.789z"/>
</g>
<g>
	<path style="fill:#FF5252;" d="M324.019,86.257h-10.808c-2.718,0-4.922-1.971-4.922-4.403v25.656c0,2.718,2.204,4.922,4.922,4.922
		h10.808c2.718,0,4.922-2.204,4.922-4.922V81.854C328.941,84.285,326.738,86.257,324.019,86.257z"/>
	<path style="fill:#FF5252;" d="M344.671,79.427h-10.808c-2.718,0-4.922-1.971-4.922-4.403v24.851c0,2.718,2.204,4.922,4.922,4.922
		h10.808c2.718,0,4.922-2.204,4.922-4.922V75.024C349.593,77.456,347.389,79.427,344.671,79.427z"/>
	<path style="fill:#FF5252;" d="M199.027,86.257h-10.808c-2.718,0-4.922-1.971-4.922-4.403v25.656c0,2.718,2.204,4.922,4.922,4.922
		h10.808c2.718,0,4.922-2.204,4.922-4.922V81.854C203.949,84.285,201.745,86.257,199.027,86.257z"/>
	<path style="fill:#FF5252;" d="M178.376,79.427h-10.808c-2.718,0-4.922-1.971-4.922-4.403v24.851c0,2.718,2.204,4.922,4.922,4.922
		h10.808c2.718,0,4.922-2.204,4.922-4.922V75.024C183.298,77.456,181.094,79.427,178.376,79.427z"/>
</g>
<g>
	<path style="fill:#FF7171;" d="M329.162,259.354v-88.741c0-2.718,2.204-4.922,4.922-4.922h10.808c2.718,0,4.922,2.204,4.922,4.922
		v88.741c0,2.718-2.204,4.922-4.922,4.922h-10.808C331.366,264.276,329.162,262.072,329.162,259.354z"/>
	<path style="fill:#FF7171;" d="M365.543,173.325h-10.808c-2.718,0-4.922,2.204-4.922,4.922v73.472c0,2.718,2.204,4.922,4.922,4.922
		h10.808c2.718,0,4.922-2.204,4.922-4.922v-73.473C370.465,175.529,368.261,173.325,365.543,173.325z"/>
	<path style="fill:#FF7171;" d="M183.077,259.354v-88.741c0-2.718-2.204-4.922-4.922-4.922h-10.808
		c-2.718,0-4.922,2.204-4.922,4.922v88.741c0,2.718,2.204,4.922,4.922,4.922h10.808
		C180.873,264.276,183.077,262.072,183.077,259.354z"/>
	<path style="fill:#FF7171;" d="M146.696,173.325h10.808c2.718,0,4.922,2.204,4.922,4.922v73.472c0,2.718-2.204,4.922-4.922,4.922
		h-10.808c-2.718,0-4.922-2.204-4.922-4.922v-73.473C141.774,175.529,143.977,173.325,146.696,173.325z"/>
</g>
<g>
	<path style="fill:#FF5252;" d="M344.892,225.309h-10.808c-2.718,0-4.922-2.204-4.922-4.922v38.967c0,2.718,2.204,4.922,4.922,4.922
		h10.808c2.718,0,4.922-2.204,4.922-4.922v-38.967C349.814,223.105,347.61,225.309,344.892,225.309z"/>
	<path style="fill:#FF5252;" d="M365.543,217.675h-10.808c-2.718,0-4.922-2.204-4.922-4.922v38.967c0,2.718,2.204,4.922,4.922,4.922
		h10.808c2.718,0,4.922-2.204,4.922-4.922v-38.967C370.465,215.471,368.261,217.675,365.543,217.675z"/>
	<path style="fill:#FF5252;" d="M178.155,225.309h-10.808c-2.718,0-4.922-2.204-4.922-4.922v38.967c0,2.718,2.204,4.922,4.922,4.922
		h10.808c2.718,0,4.922-2.204,4.922-4.922v-38.967C183.077,223.105,180.873,225.309,178.155,225.309z"/>
	<path style="fill:#FF5252;" d="M157.504,217.675h-10.808c-2.718,0-4.922-2.204-4.922-4.922v38.967c0,2.718,2.204,4.922,4.922,4.922
		h10.808c2.718,0,4.922-2.204,4.922-4.922v-38.967C162.425,215.471,160.222,217.675,157.504,217.675z"/>
</g>
<g>
	<path style="fill:#FF7171;" d="M339.598,409.111V293.236c0-2.718,2.204-4.922,4.922-4.922h10.808c2.718,0,4.922,2.204,4.922,4.922
		v115.875c0,2.718-2.204,4.922-4.922,4.922H344.52C341.802,414.033,339.598,411.829,339.598,409.111z"/>
	<path style="fill:#FF7171;" d="M375.979,295.949h-10.808c-2.718,0-4.922,2.204-4.922,4.922v100.606
		c0,2.718,2.204,4.922,4.922,4.922h10.808c2.718,0,4.922-2.204,4.922-4.922V300.87C380.901,298.152,378.697,295.949,375.979,295.949
		z"/>
	<path style="fill:#FF7171;" d="M172.641,409.111V293.236c0-2.718-2.204-4.922-4.922-4.922h-10.808
		c-2.718,0-4.922,2.204-4.922,4.922v115.875c0,2.718,2.204,4.922,4.922,4.922h10.808
		C170.437,414.033,172.641,411.829,172.641,409.111z"/>
	<path style="fill:#FF7171;" d="M136.26,295.949h10.808c2.718,0,4.922,2.204,4.922,4.922v100.606c0,2.718-2.204,4.922-4.922,4.922
		H136.26c-2.718,0-4.922-2.204-4.922-4.922V300.87C131.338,298.152,133.541,295.949,136.26,295.949z"/>
</g>
<g>
	<path style="fill:#FF5252;" d="M355.328,365.033H344.52c-2.718,0-4.922-2.204-4.922-4.922v49c0,2.718,2.204,4.922,4.922,4.922
		h10.808c2.718,0,4.922-2.204,4.922-4.922v-49C360.25,362.829,358.046,365.033,355.328,365.033z"/>
	<path style="fill:#FF5252;" d="M375.979,357.399h-10.808c-2.718,0-4.922-2.204-4.922-4.922v49c0,2.718,2.204,4.922,4.922,4.922
		h10.808c2.718,0,4.922-2.204,4.922-4.922v-49C380.901,355.195,378.697,357.399,375.979,357.399z"/>
	<path style="fill:#FF5252;" d="M167.719,365.033h-10.808c-2.718,0-4.922-2.204-4.922-4.922v49c0,2.718,2.204,4.922,4.922,4.922
		h10.808c2.718,0,4.922-2.204,4.922-4.922v-49C172.641,362.83,170.437,365.033,167.719,365.033z"/>
	<path style="fill:#FF5252;" d="M147.068,357.399H136.26c-2.718,0-4.922-2.204-4.922-4.922v49c0,2.718,2.204,4.922,4.922,4.922
		h10.808c2.718,0,4.922-2.204,4.922-4.922v-49C151.989,355.195,149.786,357.399,147.068,357.399z"/>
</g>
<g>
</g>
<g>
</g>
<g>
</g>
<g>
</g>
<g>
</g>
<g>
</g>
<g>
</g>
<g>
</g>
<g>
</g>
<g>
</g>
<g>
</g>
<g>
</g>
<g>
</g>
<g>
</g>
<g>
</g>
</svg>
