<?xml version="1.0" encoding="iso-8859-1"?>
<!-- Generator: Adobe Illustrator 19.0.0, SVG Export Plug-In . SVG Version: 6.00 Build 0)  -->
<svg version="1.1" id="Capa_1" xmlns="http://www.w3.org/2000/svg" xmlns:xlink="http://www.w3.org/1999/xlink" x="0px" y="0px"
	 viewBox="0 0 512 512" style="enable-background:new 0 0 512 512;" xml:space="preserve">
<circle style="fill:#504A7F;" cx="256" cy="256" r="256"/>
<path style="fill:#3B3868;" d="M63.003,424.183C109.933,477.992,178.993,512,256,512s146.067-34.008,192.997-87.817L63.003,424.183
	L63.003,424.183z"/>
<path style="fill:#31315B;" d="M246.11,424.183H63.003c44.275,50.764,108.249,83.89,180.007,87.478
	C186.98,508.32,189.536,424.183,246.11,424.183z"/>
<g>
	<rect x="66.18" y="305.796" style="fill:#CEDDF7;" width="366.5" height="26.904"/>
	<rect x="66.18" y="359.606" style="fill:#CEDDF7;" width="366.5" height="26.904"/>
</g>
<g>
	<path style="fill:#AAC5EE;" d="M145.18,319.251L145.18,319.251c0-7.429,6.023-13.452,13.452-13.452H66.18v26.904h92.452
		C151.203,332.703,145.18,326.68,145.18,319.251z"/>
	<path style="fill:#AAC5EE;" d="M145.18,373.059L145.18,373.059c0-7.429,6.023-13.452,13.452-13.452H66.18v26.904h92.452
		C151.203,386.511,145.18,380.488,145.18,373.059z"/>
</g>
<g>
	<rect x="426.91" y="300.69" style="fill:#CEDDF7;" width="26.904" height="113.58"/>
	<path style="fill:#CEDDF7;" d="M426.008,411.032c-5.592,0-10.125,4.533-10.125,10.125v16.176h20.814
		c7.972-7.944,15.412-16.418,22.287-25.351c-1.297-0.604-2.738-0.951-4.264-0.951h-28.712V411.032z"/>
</g>
<g>
	<path style="fill:#AAC5EE;" d="M437.434,421.158c0-5.592,4.533-10.125,10.125-10.125h-21.55c-5.592,0-10.125,4.533-10.125,10.125
		v16.176h20.814c0.25-0.249,0.488-0.509,0.736-0.759V421.158z"/>
	<path style="fill:#AAC5EE;" d="M438.658,435.341h-30.346c-7.399,0-13.452,6.053-13.452,13.452c0,7.192,5.724,13.095,12.839,13.421
		C418.728,454.087,429.079,445.096,438.658,435.341z"/>
</g>
<g>
	<circle style="fill:#8FB1DB;" cx="440.36" cy="373.06" r="8.594"/>
	<circle style="fill:#8FB1DB;" cx="440.36" cy="319.25" r="8.594"/>
</g>
<path style="fill:#FBCC68;" d="M441.672,260.167H56.738c-16.849,0-30.508,11.958-30.508,26.708v9.07
	c0,5.442,5.039,9.854,11.256,9.854h423.892c6.216,0,11.256-4.412,11.256-9.854v-8.673
	C472.633,272.302,458.771,260.167,441.672,260.167z"/>
<path style="fill:#FDBF49;" d="M142.89,283.328c0-10.848,7.107-20.033,16.917-23.162H56.738c-16.849,0-30.508,11.958-30.508,26.708
	v9.07c0,5.442,5.039,9.854,11.256,9.854h120.432C149.097,302.151,142.89,293.466,142.89,283.328z"/>
<g>
	<path style="fill:#CEDDF7;" d="M52.494,100.697v310.605c0.758,0.992,1.512,1.988,2.284,2.968h24.62V70.669
		C69.664,79.947,60.673,89.996,52.494,100.697z"/>
	<path style="fill:#CEDDF7;" d="M80.302,411.032H52.287c7.076,9.283,14.762,18.076,23.016,26.302h15.124v-16.176
		C90.427,415.565,85.894,411.032,80.302,411.032z"/>
</g>
<g>
	<path style="fill:#AAC5EE;" d="M71.357,421.158c0-5.393,4.219-9.788,9.535-10.095c-0.197-0.011-0.391-0.03-0.59-0.03H52.287
		c5.934,7.785,12.303,15.22,19.07,22.27C71.357,433.303,71.357,421.158,71.357,421.158z"/>
	<path style="fill:#AAC5EE;" d="M97.998,435.341H73.342c9.203,9.373,19.112,18.05,29.658,25.924
		C116.715,455.721,112.698,435.341,97.998,435.341z"/>
</g>
<path style="fill:#FF7171;" d="M150.144,151.954c-22.184,38.423-71.491,51.635-109.914,29.451s-51.635-71.491-29.451-109.914
	S82.27,19.856,120.693,42.039S172.328,113.53,150.144,151.954z"/>
<g>
	<path style="fill:#FF5252;" d="M54.08,126.954C36.26,96.088,41.297,58.211,63.879,33c-8.111,1.702-16.091,4.676-23.649,9.039
		C1.807,64.223-11.405,113.531,10.779,151.954c27.311,47.304,93.118,54.181,129.567,13.49
		C107.222,172.396,71.9,157.819,54.08,126.954z"/>
	<path style="fill:#FF5252;" d="M53.683,65.343c-25.576,14.766-34.37,47.587-19.604,73.163s47.587,34.37,73.163,19.604
		s34.37-47.587,19.604-73.163S79.259,50.577,53.683,65.343z"/>
</g>
<g>
	<path style="fill:#EA3D3D;" d="M97.167,162.615c-17.555-6.132-33.08-18.326-43.086-35.657s-12.804-36.873-9.337-55.142
		c-18.491,16.541-23.55,44.372-10.665,66.69S73.597,170.358,97.167,162.615z"/>
	<ellipse style="fill:#EA3D3D;" cx="80.463" cy="111.728" rx="14.282" ry="14.282"/>
</g>
<g>
	<circle style="fill:#8FB1DB;" cx="65.946" cy="286.76" r="8.594"/>
	<circle style="fill:#8FB1DB;" cx="65.946" cy="373.06" r="8.594"/>
	<circle style="fill:#8FB1DB;" cx="65.946" cy="319.25" r="8.594"/>
</g>
<g>
</g>
<g>
</g>
<g>
</g>
<g>
</g>
<g>
</g>
<g>
</g>
<g>
</g>
<g>
</g>
<g>
</g>
<g>
</g>
<g>
</g>
<g>
</g>
<g>
</g>
<g>
</g>
<g>
</g>
</svg>
