<?xml version="1.0" encoding="iso-8859-1"?>
<!-- Generator: Adobe Illustrator 19.0.0, SVG Export Plug-In . SVG Version: 6.00 Build 0)  -->
<svg version="1.1" id="Capa_1" xmlns="http://www.w3.org/2000/svg" xmlns:xlink="http://www.w3.org/1999/xlink" x="0px" y="0px"
	 viewBox="0 0 512 512" style="enable-background:new 0 0 512 512;" xml:space="preserve">
<circle style="fill:#662B5A;" cx="256" cy="256" r="256"/>
<path style="fill:#51204A;" d="M43.221,398.372C89.159,466.892,167.309,512,256,512s166.841-45.108,212.779-113.628H43.221z"/>
<path style="fill:#441940;" d="M246.751,398.372H43.221C87.006,463.68,160.053,507.72,243.599,511.705
	C170.143,508.201,173.211,398.372,246.751,398.372z"/>
<path style="fill:#CEDDF7;" d="M372.25,440.495V48.28c0-8.245-6.684-14.929-14.929-14.929s-14.929,6.684-14.929,14.929v392.215
	H372.25z"/>
<path style="fill:#AAC5EE;" d="M148.239,440.495V48.059c0-8.245-6.684-14.929-14.929-14.929s-14.929,6.684-14.929,14.929v392.436
	H148.239z"/>
<rect x="282.68" y="336.62" style="fill:#CEDDF7;" width="29.857" height="106.83"/>
<g>
	<rect x="178.1" y="336.62" style="fill:#AAC5EE;" width="29.857" height="106.83"/>
	<rect x="97.65" y="114.65" style="fill:#AAC5EE;" width="294.1" height="29.857"/>
</g>
<path style="fill:#8FB1DB;" d="M175.821,129.574L175.821,129.574c0-8.245,6.684-14.929,14.929-14.929H97.647v29.857h93.102
	C182.505,144.503,175.821,137.819,175.821,129.574z"/>
<path style="fill:#CEDDF7;" d="M107.95,464.87h305.977l-0.021-7.36v-22.102H73.407C84.02,446.208,95.572,456.08,107.95,464.87z"/>
<g>
	<path style="fill:#AAC5EE;" d="M230.549,450.139c0-6.419,3.654-11.975,8.989-14.731H73.407
		c10.613,10.8,22.165,20.672,34.543,29.462h131.588C234.203,462.114,230.549,456.558,230.549,450.139z"/>
	<path style="fill:#AAC5EE;" d="M167.801,325.01v10.187c0,3.917,3.175,7.091,7.092,7.091h140.886c3.917,0,7.092-3.175,7.092-7.091
		V325.01H167.801z"/>
</g>
<path style="fill:#8FB1DB;" d="M239.134,335.197V325.01h-71.333v10.187c0,3.917,3.175,7.092,7.092,7.092h71.333
	C242.309,342.288,239.134,339.113,239.134,335.197z"/>
<path style="fill:#FBCC68;" d="M324.734,325.01H165.898c-9.712,0-17.659-7.946-17.659-17.659l0,0
	c0-9.712,7.946-17.659,17.659-17.659h158.836c9.712,0,17.659,7.946,17.659,17.659l0,0
	C342.392,317.063,334.446,325.01,324.734,325.01z"/>
<path style="fill:#FDBF49;" d="M225.793,307.351c0-9.712,7.946-17.659,17.658-17.659h-77.554c-9.712,0-17.659,7.946-17.659,17.659
	c0,9.712,7.947,17.659,17.659,17.659h77.554C233.739,325.01,225.793,317.063,225.793,307.351z"/>
<g>
	<circle style="fill:#8FB1DB;" cx="357.52" cy="450.14" r="9.538"/>
	<circle style="fill:#8FB1DB;" cx="133.31" cy="450.14" r="9.538"/>
	<circle style="fill:#8FB1DB;" cx="357.52" cy="90.45" r="9.538"/>
	<circle style="fill:#8FB1DB;" cx="133.31" cy="90.45" r="9.538"/>
</g>
<path style="fill:#7477AD;" d="M439.681,422.041h-25.754c-3.065,0-5.55,2.485-5.55,5.55v31.73c0,3.065,2.485,5.55,5.55,5.55h43.333
	c4.958,0,8.379-4.965,6.613-9.598l-8.562-22.462C452.839,426.326,446.62,422.041,439.681,422.041z"/>
<path style="fill:#65669E;" d="M434.306,459.32v-31.729c0-3.04,2.444-5.505,5.474-5.546c-0.033,0-0.066-0.004-0.099-0.004h-25.754
	c-3.065,0-5.55,2.485-5.55,5.55v31.729c0,3.065,2.485,5.55,5.55,5.55h25.929C436.79,464.87,434.306,462.385,434.306,459.32z"/>
<g>
	<path style="fill:#7477AD;" d="M163.247,145.013c0-5.715-4.2-10.39-9.333-10.39h-41.207c-5.133,0-9.333,4.675-9.333,10.39
		c0,5.714,4.2,10.39,9.333,10.39h41.207C159.047,155.403,163.247,150.728,163.247,145.013z"/>
	<path style="fill:#7477AD;" d="M387.258,145.259c0-5.715-4.2-10.39-9.333-10.39h-41.207c-5.133,0-9.333,4.675-9.333,10.39
		c0,5.714,4.2,10.39,9.333,10.39h41.207C383.057,155.65,387.258,150.974,387.258,145.259z"/>
</g>
<g>
	<path style="fill:#65669E;" d="M132.905,145.013c0-5.715,4.2-10.39,9.333-10.39h-29.531c-5.133,0-9.333,4.675-9.333,10.39
		c0,5.714,4.2,10.39,9.333,10.39h29.531C137.105,155.403,132.905,150.728,132.905,145.013z"/>
	<path style="fill:#65669E;" d="M356.915,145.259c0-5.715,4.2-10.39,9.333-10.39h-29.531c-5.133,0-9.333,4.676-9.333,10.39
		s4.2,10.39,9.333,10.39h29.531C361.115,155.65,356.915,150.974,356.915,145.259z"/>
</g>
<path style="fill:#CEDDF7;" d="M82.995,168.7h14.264c3.421,0,6.194-2.773,6.194-6.194v-65.86c0-3.421-2.773-6.194-6.194-6.194
	H82.995V168.7z"/>
<path style="fill:#AAC5EE;" d="M97.259,143.81H82.995v24.89h14.264c3.421,0,6.194-2.773,6.194-6.194v-24.89
	C103.453,141.037,100.68,143.81,97.259,143.81z"/>
<path style="fill:#CEDDF7;" d="M406.569,168.7h-13.158c-3.421,0-6.194-2.773-6.194-6.194v-65.86c0-3.421,2.773-6.194,6.194-6.194
	h13.158V168.7z"/>
<path style="fill:#AAC5EE;" d="M387.217,138.309v24.197c0,3.421,2.773,6.194,6.194,6.194h13.158v-24.197h-13.158
	C389.99,144.503,387.217,141.73,387.217,138.309z"/>
<path style="fill:#CEDDF7;" d="M491.542,148.242h14.264c3.421,0,6.194-2.773,6.194-6.194v-24.945c0-3.421-2.773-6.194-6.194-6.194
	h-14.264V148.242z"/>
<path style="fill:#AAC5EE;" d="M505.806,129.576h-14.264v18.666h14.264c3.421,0,6.194-2.773,6.194-6.194v-18.666
	C512,126.803,509.227,129.576,505.806,129.576z"/>
<g>
	<path style="fill:#FF7171;" d="M405.463,215.501V43.651c0-5.811,4.711-10.521,10.521-10.521h23.103
		c5.811,0,10.521,4.71,10.521,10.521v171.85c0,5.811-4.711,10.521-10.521,10.521h-23.103
		C410.174,226.022,405.463,221.312,405.463,215.501z"/>
	<path style="fill:#FF7171;" d="M483.233,49.45H460.13c-5.811,0-10.521,4.711-10.521,10.521v139.21
		c0,5.811,4.711,10.521,10.521,10.521h23.103c5.811,0,10.521-4.711,10.521-10.521V59.971C493.754,54.16,489.043,49.45,483.233,49.45
		z"/>
	<path style="fill:#FF7171;" d="M41.062,116.908v98.593c0,5.811,4.71,10.521,10.521,10.521h23.103
		c5.811,0,10.521-4.71,10.521-10.521V65.319C68.317,80.457,53.45,97.803,41.062,116.908z"/>
	<path style="fill:#FF7171;" d="M4.279,209.219c0.997,0.313,2.057,0.484,3.158,0.484H30.54c5.811,0,10.521-4.711,10.521-10.521
		v-82.273C23.183,144.479,10.469,175.703,4.279,209.219z"/>
</g>
<g>
	<path style="fill:#FF5252;" d="M439.087,152.022h-23.103c-5.811,0-10.521-4.71-10.521-10.521v74c0,5.811,4.71,10.521,10.521,10.521
		h23.103c5.811,0,10.521-4.71,10.521-10.521v-74C449.609,147.312,444.898,152.022,439.087,152.022z"/>
	<path style="fill:#FF5252;" d="M483.233,135.703H460.13c-5.811,0-10.521-4.711-10.521-10.521v74c0,5.811,4.71,10.521,10.521,10.521
		h23.103c5.811,0,10.521-4.711,10.521-10.521v-74C493.754,130.992,489.043,135.703,483.233,135.703z"/>
	<path style="fill:#FF5252;" d="M74.686,152.022H51.583c-5.811,0-10.521-4.71-10.521-10.521v74c0,5.811,4.71,10.521,10.521,10.521
		h23.103c5.811,0,10.521-4.71,10.521-10.521v-74C85.207,147.312,80.496,152.022,74.686,152.022z"/>
	<path style="fill:#FF5252;" d="M30.54,135.703h-0.537c-12.102,22.688-20.902,47.402-25.724,73.516
		c0.997,0.313,2.057,0.484,3.158,0.484H30.54c5.811,0,10.521-4.711,10.521-10.521v-74C41.062,130.992,36.351,135.703,30.54,135.703z
		"/>
</g>
<g>
</g>
<g>
</g>
<g>
</g>
<g>
</g>
<g>
</g>
<g>
</g>
<g>
</g>
<g>
</g>
<g>
</g>
<g>
</g>
<g>
</g>
<g>
</g>
<g>
</g>
<g>
</g>
<g>
</g>
</svg>
