<?xml version="1.0" encoding="iso-8859-1"?>
<!-- Generator: Adobe Illustrator 19.0.0, SVG Export Plug-In . SVG Version: 6.00 Build 0)  -->
<svg version="1.1" id="Capa_1" xmlns="http://www.w3.org/2000/svg" xmlns:xlink="http://www.w3.org/1999/xlink" x="0px" y="0px"
	 viewBox="0 0 512.004 512.004" style="enable-background:new 0 0 512.004 512.004;" xml:space="preserve">
<circle style="fill:#504A7F;" cx="258.47" cy="260.937" r="251.067"/>
<path style="fill:#3B3868;" d="M60.354,415.152C106.297,474.09,177.955,512,258.474,512s152.177-37.91,198.12-96.849H60.354z"/>
<path style="fill:#31315B;" d="M248.452,415.152H60.354c43.336,55.595,109.557,92.463,184.507,96.469
	C183.186,507.752,186.168,415.152,248.452,415.152z"/>
<path style="fill:#61CBF8;" d="M18.897,315.091h171.309c0-12.515-10.145-22.662-22.662-22.662H38.205
	c-12.515,0-22.662,10.145-22.662,22.662c0,0.127,0.017,0.249,0.019,0.375C16.638,315.227,17.751,315.091,18.897,315.091z"/>
<path style="fill:#5ABDEE;" d="M102.508,292.429H38.205c-12.515,0-22.662,10.145-22.662,22.662c0,0.127,0.017,0.249,0.019,0.375
	c1.074-0.239,2.187-0.375,3.333-0.375h88.577C97.034,312.565,94.075,299.111,102.508,292.429z"/>
<path style="fill:#61CBF8;" d="M233.346,302.315l222.684-132.028c-0.065-0.115-0.116-0.234-0.184-0.349
	c-6.383-10.766-20.283-14.318-31.05-7.935L241.07,270.935c-10.765,6.382-14.318,20.284-7.935,31.05
	C233.202,302.098,233.277,302.204,233.346,302.315z"/>
<path style="fill:#5ABDEE;" d="M295.855,263.884c-6.857,0-12.416-5.559-12.416-12.416c0-2.551,0.771-4.921,2.091-6.893
	l-44.459,26.36c-10.765,6.382-14.318,20.284-7.935,31.05c0.067,0.113,0.143,0.219,0.211,0.331l65.426-38.79
	C297.834,263.751,296.861,263.884,295.855,263.884z"/>
<path style="fill:#FF7171;" d="M374.654,137.346c-35.152,20.295-80.26,8.207-100.555-26.944s-8.208-80.26,26.944-100.555
	s80.26-8.207,100.555,26.944C421.893,71.942,409.806,117.051,374.654,137.346z"/>
<g>
	<path style="fill:#FF5252;" d="M316.534,85.904c-16-27.714-11.86-61.609,7.83-84.661c-7.999,1.483-15.883,4.312-23.321,8.605
		c-35.152,20.295-47.238,65.404-26.944,100.555s65.404,47.238,100.555,26.944c7.437-4.294,13.829-9.707,19.113-15.893
		C363.958,126.979,332.534,113.617,316.534,85.904z"/>
	<path style="fill:#FF5252;" d="M313.35,31.163c-23.398,13.508-31.444,43.535-17.934,66.933s43.535,31.444,66.933,17.934
		c23.398-13.508,31.444-43.535,17.934-66.933C366.773,25.7,336.747,17.655,313.35,31.163z"/>
</g>
<path style="fill:#EA3D3D;" d="M356.752,118.789c-16.387-5.517-30.913-16.768-40.218-32.886
	c-9.305-16.117-11.786-34.323-8.371-51.272c-19.325,14.702-25.202,41.895-12.747,63.466
	C307.868,119.666,334.356,128.174,356.752,118.789z"/>
<g>
	<path style="fill:#CEDDF7;" d="M481.557,171.132c-4.309-7.267-13.691-9.665-20.959-5.357L221.185,307.721
		c11.178,3.749,17.553,15.999,13.424,27.607l183.141-108.583c-0.017-0.353-0.053-0.701-0.053-1.059
		c0-16.865,18.517-27.09,32.767-18.337l25.737-15.259C483.467,187.781,485.866,178.398,481.557,171.132z"/>
	<path style="fill:#CEDDF7;" d="M192.815,328.12c0-5.43,2.026-10.376,5.342-14.163H17.764c-8.448,0-15.296,6.848-15.296,15.296
		c0,8.448,6.848,15.296,15.296,15.296h182.685C195.784,340.602,192.815,334.711,192.815,328.12z"/>
</g>
<path style="fill:#AAC5EE;" d="M91.215,329.254c0-8.448,6.848-15.296,15.296-15.296H17.764c-8.448,0-15.296,6.848-15.296,15.296
	c0,8.448,6.848,15.296,15.296,15.296h88.747C98.063,344.551,91.215,337.702,91.215,329.254z"/>
<g>
	<path style="fill:#CEDDF7;" d="M193.78,334.51l-57.201,59.831c7.864,2.051,13.986,8.414,15.642,16.431l58.719-61.419
		C202.802,348.059,196.175,342.227,193.78,334.51z"/>
	<path style="fill:#CEDDF7;" d="M46.748,344.551l63.311,66.222c1.656-8.016,7.777-14.379,15.642-16.431L78.099,344.55H46.748
		V344.551z"/>
	<path style="fill:#CEDDF7;" d="M235.63,331.183c-1.167,8.169-6.901,14.854-14.548,17.374l103.864,87.1v-29.574L235.63,331.183z"/>
	<path style="fill:#CEDDF7;" d="M450.556,422.589V243.967c-3.294,2.046-7.167,3.248-11.33,3.248c-4.163,0-8.037-1.202-11.331-3.248
		v192.711c3.41,0,6.693,0,9.853,0C442.191,432.146,446.464,427.447,450.556,422.589z"/>
</g>
<circle style="fill:#EA3D3D;" cx="337.852" cy="73.592" r="13.07"/>
<rect x="312.482" y="155.134" style="fill:#AAC5EE;" width="50.988" height="296.838"/>
<rect x="312.482" y="155.134" style="fill:#8FB1DB;" width="25.494" height="296.838"/>
<path style="fill:#CEDDF7;" d="M337.975,98.797c-5.999,0-11.413-2.478-15.296-6.457v56h30.593v-56
	C349.389,96.319,343.975,98.797,337.975,98.797z"/>
<path style="fill:#AAC5EE;" d="M337.975,103.826c-16.668,0-30.23-13.561-30.23-30.23c0-4.111,0.817-8.106,2.428-11.874
	c1.846-4.315,6.84-6.317,11.155-4.474c4.315,1.846,6.318,6.839,4.472,11.155c-0.703,1.644-1.059,3.391-1.059,5.193
	c0,7.297,5.936,13.234,13.233,13.234c7.296,0,13.232-5.936,13.232-13.234c0-1.801-0.356-3.549-1.059-5.193
	c-1.845-4.315,0.157-9.309,4.472-11.155c4.315-1.847,9.309,0.157,11.155,4.474c1.611,3.768,2.428,7.763,2.428,11.874
	C368.204,90.265,354.644,103.826,337.975,103.826z"/>
<path style="fill:#CEDDF7;" d="M115.431,467.271c81.763,0,203.918,0,286.085,0c13.029-9.049,25.159-19.3,36.231-30.593
	c-88.238,0-270.575,0-358.548,0C90.273,447.971,102.403,458.222,115.431,467.271z"/>
<path style="fill:#AAC5EE;" d="M190.689,452.275c0-7.176,4.558-13.271,10.929-15.596c-47.15,0-90.857,0-122.419,0
	c11.072,11.293,23.203,21.544,36.231,30.593c25.199,0,54.236,0,84.756,0C194.577,464.603,190.689,458.9,190.689,452.275z"/>
<path style="fill:#CEDDF7;" d="M371.463,166.469h-67.229c-6.258,0-11.33-5.073-11.33-11.33s5.073-11.33,11.33-11.33h67.229
	c6.258,0,11.33,5.073,11.33,11.33S377.721,166.469,371.463,166.469z"/>
<g>
	<path style="fill:#AAC5EE;" d="M329.238,155.137c0-6.257,5.073-11.33,11.33-11.33h-36.334c-6.258,0-11.331,5.073-11.331,11.33
		s5.073,11.33,11.331,11.33h36.334C334.31,166.469,329.238,161.396,329.238,155.137z"/>
	<path style="fill:#AAC5EE;" d="M94.404,361.605l-16.304-17.054H46.748l30.814,32.231C74.59,366.469,84.764,357.683,94.404,361.605z
		"/>
</g>
<circle style="fill:#8FB1DB;" cx="337.972" cy="451.973" r="9.773"/>
<g>
	<path style="fill:#AAC5EE;" d="M270.987,360.834l-35.357-29.651c-1.167,8.169-6.9,14.854-14.548,17.374l35.312,29.613
		C251.742,368.605,260.586,357.843,270.987,360.834z"/>
	<path style="fill:#AAC5EE;" d="M158.665,371.24l-22.086,23.102c7.865,2.051,13.986,8.414,15.642,16.43l21.898-22.905
		C164.053,390.92,154.89,381.034,158.665,371.24z"/>
</g>
<circle style="fill:#8FB1DB;" cx="131.137" cy="451.973" r="9.773"/>
<circle style="fill:#7AA4CE;" cx="337.852" cy="182.665" r="9.773"/>
<path style="fill:#8FB1DB;" d="M428.176,206.554c-10.551,6.091-14.178,19.632-8.087,30.182c6.091,10.55,19.632,14.179,30.182,8.087
	c10.551-6.091,14.178-19.632,8.087-30.182C452.266,204.091,438.727,200.462,428.176,206.554z"/>
<path style="fill:#7AA4CE;" d="M434.603,204.085c-2.204,0.47-4.372,1.282-6.427,2.469c-10.551,6.092-14.178,19.632-8.087,30.183
	c6.091,10.55,19.631,14.179,30.182,8.087c2.054-1.186,3.842-2.657,5.351-4.331C434.727,244.945,420.278,219.976,434.603,204.085z"/>
<g>
	<path style="fill:#AAC5EE;" d="M439.227,234.19c-5.305,0-9.406-4.883-8.328-10.164c0.965-5.12,6.527-8.268,11.58-6.186
		c3.399,1.439,5.246,4.638,5.246,7.853C447.724,230.369,443.885,234.19,439.227,234.19z"/>
	<path style="fill:#AAC5EE;" d="M308.805,291.338c-0.991,0.189-2.011,0.297-3.057,0.297c-8.961,0-16.225-7.264-16.225-16.225
		c0-4.006,1.459-7.667,3.865-10.497l-72.202,42.808c11.178,3.749,17.553,15.999,13.424,27.607L308.805,291.338z"/>
</g>
<path style="fill:#8FB1DB;" d="M203.295,308.983c-10.551,6.091-14.178,19.632-8.087,30.182c6.091,10.55,19.632,14.179,30.182,8.087
	c10.551-6.091,14.178-19.632,8.087-30.182C227.385,306.52,213.846,302.891,203.295,308.983z"/>
<path style="fill:#7AA4CE;" d="M209.722,306.515c-2.204,0.47-4.372,1.282-6.427,2.469c-10.551,6.092-14.178,19.632-8.087,30.182
	c6.091,10.55,19.631,14.179,30.182,8.087c2.054-1.186,3.842-2.657,5.351-4.331C209.847,347.375,195.397,322.406,209.722,306.515z"/>
<path style="fill:#AAC5EE;" d="M214.346,336.619c-4.63,0-8.498-3.761-8.498-8.498c0-5.385,4.93-9.376,10.152-8.34
	c4.202,0.872,6.844,4.476,6.844,8.34C222.844,332.817,218.985,336.619,214.346,336.619z"/>
<path style="fill:#8FB1DB;" d="M120.093,396.015c-10.551,6.091-14.178,19.632-8.087,30.182c6.091,10.55,19.632,14.179,30.182,8.087
	c10.551-6.091,14.178-19.632,8.087-30.182C144.184,393.552,130.644,389.924,120.093,396.015z"/>
<path style="fill:#7AA4CE;" d="M126.52,393.546c-2.204,0.47-4.372,1.282-6.427,2.469c-10.551,6.092-14.178,19.632-8.087,30.182
	c6.091,10.55,19.631,14.179,30.182,8.087c2.054-1.186,3.842-2.657,5.351-4.331C126.645,434.407,112.195,409.437,126.52,393.546z"/>
<path style="fill:#AAC5EE;" d="M131.144,423.651c-4.63,0-8.498-3.761-8.498-8.498c0-5.385,4.93-9.376,10.152-8.34
	c4.202,0.872,6.844,4.476,6.844,8.34C139.642,419.847,135.786,423.651,131.144,423.651z"/>
<g>
</g>
<g>
</g>
<g>
</g>
<g>
</g>
<g>
</g>
<g>
</g>
<g>
</g>
<g>
</g>
<g>
</g>
<g>
</g>
<g>
</g>
<g>
</g>
<g>
</g>
<g>
</g>
<g>
</g>
</svg>
