<?xml version="1.0" encoding="iso-8859-1"?>
<!-- Generator: Adobe Illustrator 19.0.0, SVG Export Plug-In . SVG Version: 6.00 Build 0)  -->
<svg version="1.1" id="Capa_1" xmlns="http://www.w3.org/2000/svg" xmlns:xlink="http://www.w3.org/1999/xlink" x="0px" y="0px"
	 viewBox="0 0 511.999 511.999" style="enable-background:new 0 0 511.999 511.999;" xml:space="preserve">
<circle style="fill:#FF5252;" cx="250.68" cy="256" r="250.68"/>
<path style="fill:#EA3D3D;" d="M61.893,420.914c45.95,52.558,113.485,85.764,188.782,85.764s142.832-33.206,188.781-85.764H61.893z"
	/>
<path style="fill:#DB3535;" d="M240.999,420.914H61.893c43.35,49.584,105.915,81.93,176.082,85.433
	C183.253,503.089,185.745,420.914,240.999,420.914z"/>
<rect x="138.17" y="244.005" transform="matrix(-0.866 0.5 -0.5 -0.866 608.8691 365.6017)" style="fill:#AAC5EE;" width="234.563" height="40.742"/>
<rect x="133.532" y="245.247" transform="matrix(-0.866 0.5 -0.5 -0.866 596.1971 352.9276)" style="fill:#8FB1DB;" width="234.563" height="22.189"/>
<path style="fill:#CEDDF7;" d="M347.89,165.404l7.003-4.043l39.497,68.411l-7.003,4.043c-6.415,3.704-14.62,1.506-18.324-4.909
	l-26.083-45.177C339.277,177.312,341.475,169.108,347.89,165.404z"/>
<path style="fill:#AAC5EE;" d="M364.954,195.095l7.062-4.077l-17.123-29.656l-7.003,4.043c-6.415,3.704-8.614,11.908-4.91,18.324
	l13.621,23.592C355.667,203.667,359.108,198.47,364.954,195.095z"/>
<path style="fill:#CEDDF7;" d="M124.847,294.179l-7.003,4.043l39.497,68.411l7.003-4.043c6.415-3.704,8.614-11.908,4.909-18.324
	l-26.083-45.177C139.466,292.673,131.263,290.474,124.847,294.179z"/>
<path style="fill:#AAC5EE;" d="M141.588,323.176c6.415-3.704,13.347-3.711,15.481-0.014l0,0l0,0l-13.898-24.074
	c-3.704-6.415-11.909-8.614-18.324-4.909l-7.003,4.043l16.742,28.997L141.588,323.176z"/>
<rect x="223.181" y="243.613" transform="matrix(-0.866 0.5 -0.5 -0.866 609.8979 364.5423)" style="fill:#CEDDF7;" width="65.854" height="40.742"/>
<rect x="218.545" y="244.86" transform="matrix(-0.866 0.5 -0.5 -0.866 597.2309 351.877)" style="fill:#AAC5EE;" width="65.854" height="22.189"/>
<path style="fill:#CEDDF7;" d="M465.793,97.333l-7.003,4.043l39.497,68.411l7.003-4.043c6.415-3.704,8.614-11.908,4.909-18.324
	l-26.083-45.177C480.413,95.827,472.21,93.628,465.793,97.333z"/>
<path style="fill:#AAC5EE;" d="M483.295,127.647c6.415-3.704,13.288-3.811,15.352-0.238l-14.53-25.166
	c-3.704-6.415-11.908-8.614-18.324-4.909l-7.003,4.043l17.502,30.315L483.295,127.647z"/>
<path style="fill:#504A7F;" d="M332.404,70.008l-12.051,6.957c-6.415,3.704-8.614,11.908-4.909,18.324l116.442,201.683
	c3.704,6.415,11.908,8.614,18.324,4.909l12.051-6.957c6.415-3.704,8.614-11.908,4.909-18.324L350.728,74.918
	C347.023,68.502,338.819,66.304,332.404,70.008z"/>
<path style="fill:#65669E;" d="M382.966,76.1l-12.051,6.957c-6.415,3.704-8.614,11.908-4.909,18.324l85.885,148.758
	c3.704,6.415,11.908,8.614,18.324,4.909l12.051-6.957c6.415-3.704,8.614-11.908,4.909-18.324L401.29,81.01
	C397.587,74.594,389.383,72.396,382.966,76.1z"/>
<path id="SVGCleanerId_0" style="fill:#504A7F;" d="M433.529,82.192l-12.051,6.957c-6.415,3.704-8.614,11.908-4.909,18.324
	l55.328,95.831c3.704,6.415,11.908,8.614,18.324,4.909l12.051-6.957c6.415-3.704,8.614-11.908,4.909-18.324l-55.328-95.831
	C448.149,80.686,439.945,78.487,433.529,82.192z"/>
<g>
	<path id="SVGCleanerId_0_1_" style="fill:#504A7F;" d="M433.529,82.192l-12.051,6.957c-6.415,3.704-8.614,11.908-4.909,18.324
		l55.328,95.831c3.704,6.415,11.908,8.614,18.324,4.909l12.051-6.957c6.415-3.704,8.614-11.908,4.909-18.324l-55.328-95.831
		C448.149,80.686,439.945,78.487,433.529,82.192z"/>
</g>
<path style="fill:#3B3868;" d="M350.861,156.635c-2.638-4.571,0.423-11.279,6.839-14.983l12.051-6.957
	c6.415-3.704,13.756-3.002,16.395,1.569l-35.419-61.346c-3.704-6.415-11.908-8.614-18.324-4.909l-12.051,6.957
	c-6.415,3.704-8.614,11.908-4.909,18.324L350.861,156.635L350.861,156.635L350.861,156.635z"/>
<path style="fill:#504A7F;" d="M403.869,140.133l12.05-6.957c6.415-3.704,13.756-3.002,16.395,1.568L401.29,81.01
	c-3.704-6.415-11.909-8.614-18.324-4.909l-12.051,6.957c-6.415,3.704-8.614,11.908-4.909,18.324l31.024,53.735
	C394.391,150.545,397.453,143.837,403.869,140.133z"/>
<g>
	<path style="fill:#3B3868;" d="M443.199,153.597c-2.638-4.571,0.424-11.279,6.839-14.983l12.051-6.957
		c6.415-3.704,13.756-3.002,16.395,1.568l-26.63-46.124c-3.704-6.415-11.908-8.614-18.324-4.909l-12.05,6.957
		c-6.415,3.704-8.614,11.908-4.91,18.324L443.199,153.597L443.199,153.597L443.199,153.597z"/>
	<polygon style="fill:#3B3868;" points="507.182,182.933 507.181,182.933 489.611,152.5 	"/>
</g>
<path style="fill:#504A7F;" d="M49.975,233.069l12.051-6.957c6.415-3.704,14.619-1.506,18.324,4.909l116.442,201.683
	c3.704,6.415,1.506,14.619-4.909,18.324l-12.051,6.957c-6.415,3.704-14.62,1.506-18.324-4.909L45.065,251.393
	C41.361,244.976,43.559,236.772,49.975,233.069z"/>
<path style="fill:#65669E;" d="M29.969,279.903l12.051-6.957c6.415-3.704,14.619-1.506,18.324,4.909l85.885,148.758
	c3.704,6.415,1.506,14.619-4.909,18.324l-12.05,6.957c-6.415,3.704-14.62,1.506-18.324-4.909L25.06,298.227
	C21.355,291.811,23.554,283.607,29.969,279.903z"/>
<path style="fill:#3B3868;" d="M79.117,310.372c-2.68-4.642,0.348-11.408,6.765-15.112l12.051-6.957
	c6.415-3.704,13.789-2.944,16.469,1.697l-34.052-58.98c-3.704-6.415-11.908-8.614-18.324-4.909l-12.05,6.957
	c-6.415,3.704-8.614,11.908-4.91,18.324L79.117,310.372L79.117,310.372L79.117,310.372z"/>
<g>
	<path style="fill:#504A7F;" d="M54.887,349.889c-2.68-4.642,0.348-11.408,6.765-15.112l12.05-6.957
		c6.415-3.704,13.789-2.944,16.469,1.697l-29.827-51.662c-3.704-6.415-11.908-8.614-18.324-4.909l-12.051,6.957
		c-6.415,3.704-8.614,11.908-4.91,18.324L54.887,349.889L54.887,349.889L54.887,349.889z"/>
	<path style="fill:#504A7F;" d="M40.338,324.69c-3.704-6.415-11.909-8.614-18.324-4.909l-11.903,6.872
		c13.326,45.448,39.175,85.536,73.565,116.28l7.079-4.087c6.415-3.704,8.614-11.908,4.91-18.324L40.338,324.69z"/>
</g>
<path style="fill:#3B3868;" d="M39.011,375.39l12.05-6.957c5.012-2.894,11.106-2.172,15.302,1.335L40.338,324.69
	c-3.704-6.415-11.909-8.614-18.324-4.909l-11.903,6.872c5.659,19.3,13.585,37.629,23.456,54.691
	C34.69,378.93,36.531,376.821,39.011,375.39z"/>
<g>
</g>
<g>
</g>
<g>
</g>
<g>
</g>
<g>
</g>
<g>
</g>
<g>
</g>
<g>
</g>
<g>
</g>
<g>
</g>
<g>
</g>
<g>
</g>
<g>
</g>
<g>
</g>
<g>
</g>
</svg>
