<?xml version="1.0" encoding="iso-8859-1"?>
<!-- Generator: Adobe Illustrator 19.0.0, SVG Export Plug-In . SVG Version: 6.00 Build 0)  -->
<svg version="1.1" id="Capa_1" xmlns="http://www.w3.org/2000/svg" xmlns:xlink="http://www.w3.org/1999/xlink" x="0px" y="0px"
	 viewBox="0 0 512 512" style="enable-background:new 0 0 512 512;" xml:space="preserve">
<circle style="fill:#504A7F;" cx="256" cy="256" r="256"/>
<path style="fill:#3B3868;" d="M14.939,342.333C50.365,441.237,144.913,512,256,512c111.088,0,205.635-70.763,241.061-169.667
	H14.939z"/>
<path style="fill:#31315B;" d="M287.377,342.333H14.939C50.365,441.237,144.913,512,256,512c6.834,0,13.605-0.271,20.304-0.796
	C173.114,500.042,179.647,342.333,287.377,342.333z"/>
<path style="fill:#CEDDF7;" d="M86.808,360.567H48.231c-8.164,0-14.782,6.618-14.782,14.782v6.672h68.141v-6.672
	C101.59,367.186,94.972,360.567,86.808,360.567z"/>
<path style="fill:#AAC5EE;" d="M82.301,360.567h-34.07c-8.164,0-14.782,6.618-14.782,14.782v6.672H67.52v-6.672
	C67.519,367.186,74.137,360.567,82.301,360.567z"/>
<path style="fill:#7477AD;" d="M444.026,429.707c8.936-9.667,17.143-20.017,24.517-30.977l-1.972-5.838
	c-2.644-7.827-9.297-12.999-16.721-12.999h-13.911L444.026,429.707z"/>
<path style="fill:#AAC5EE;" d="M389.844,317.28l-33.956,13.611c-7.833,3.14-12.967,10.729-12.967,19.167v51.289h60.571
	L389.844,317.28z"/>
<polygon style="fill:#8FB1DB;" points="377.726,401.347 403.492,401.347 389.844,317.28 365.652,326.977 "/>
<path style="fill:#7477AD;" d="M61.582,379.893H34.031c-0.678,0-1.347,0.058-2.009,0.142c9.679,17.441,21.324,33.641,34.656,48.281
	c0.531-1.003,0.841-2.171,0.841-3.424v-38.299C67.519,382.892,64.861,379.893,61.582,379.893z"/>
<path style="fill:#CEDDF7;" d="M404.556,401.347H67.519v23.544c0,1.253-0.31,2.421-0.841,3.424c1.004,1.103,2.025,2.19,3.048,3.275
	h339.739L404.556,401.347z"/>
<path style="fill:#AAC5EE;" d="M101.59,401.347H67.519v23.544c0,1.253-0.31,2.421-0.841,3.424c1.004,1.103,2.025,2.19,3.048,3.275
	h31.864C101.59,431.59,101.59,401.347,101.59,401.347z"/>
<path style="fill:#61CBF8;" d="M67.519,386.592v14.755h317.296c-2.245-2.97-3.593-6.656-3.593-10.666
	c0-4.064,1.383-7.797,3.683-10.787H61.582C64.861,379.893,67.519,382.892,67.519,386.592z"/>
<path style="fill:#5ABDEE;" d="M101.59,401.347v-21.454H61.582c3.279,0,5.937,2.999,5.937,6.699v14.755H101.59z"/>
<path style="fill:#CEDDF7;" d="M446.735,426.732l-42.18-259.809l-40.906,2.114l42.625,262.552h36
	C443.782,429.991,445.268,428.37,446.735,426.732z"/>
<polygon style="fill:#AAC5EE;" points="383.517,168.011 363.649,169.038 406.274,431.59 426.309,431.59 "/>
<path style="fill:#CEDDF7;" d="M451.954,0.493c-7.662-2.053-15.537,2.494-17.59,10.155L412.49,92.284
	c3.178-2.131,7-3.377,11.114-3.377c7.183,0,13.462,3.802,16.985,9.49l21.52-80.315C464.162,10.421,459.616,2.546,451.954,0.493z"/>
<path style="fill:#AAC5EE;" d="M441.135,60.353c-7.898,0-14.572-5.225-16.765-12.405l-11.88,44.337
	c3.178-2.131,7-3.377,11.114-3.377c7.183,0,13.462,3.802,16.984,9.49l11.159-41.645C448.8,59.002,445.13,60.353,441.135,60.353z"/>
<path style="fill:#CEDDF7;" d="M438.66,152.075l-113.268,5.854l0,0c0.588,11.361,9.984,20.179,21.231,20.179
	c0.37,0,0.742-0.009,1.116-0.028l70.77-3.658C430.245,173.815,439.266,163.811,438.66,152.075L438.66,152.075z"/>
<path style="fill:#AAC5EE;" d="M375.876,155.32l-50.484,2.609l0,0c0.588,11.361,9.984,20.179,21.231,20.179
	c0.37,0,0.742-0.009,1.116-0.028l36.898-1.907C379.357,174.169,375.684,165.716,375.876,155.32z"/>
<path style="fill:#61CBF8;" d="M462.602,117.376v29.121c0,3.625-2.839,6.615-6.46,6.802l-220.54,11.399
	c-3.912,0.202-6.321-4.21-4.036-7.391c0.46-0.439,9.407-14.623,28.613-18.883c28.82-6.392,92.496-18.367,195.996-26.955
	C459.632,111.182,462.602,113.907,462.602,117.376z"/>
<g>
	<path style="fill:#5ABDEE;" d="M458.67,131.971c-234.305,21.367-220.183,21.026-222.478,19.831
		c-1.666,1.71-3.217,3.543-4.625,5.504c-2.285,3.182,0.125,7.593,4.036,7.391l220.541-11.399c3.62-0.187,6.46-3.177,6.46-6.802
		V130.24C461.547,131.195,460.189,131.831,458.67,131.971z"/>
	<path style="fill:#5ABDEE;" d="M272.443,162.794l46.143-2.385l44.482-39.21c-19.892,2.56-37.195,5.137-52.036,7.579
		L272.443,162.794z"/>
</g>
<polygon style="fill:#4BA1DB;" points="338.215,143.106 289.688,147.592 272.443,162.794 291.922,161.787 318.586,160.409 "/>
<circle style="fill:#8FB1DB;" cx="423.61" cy="105.7" r="19.985"/>
<path style="fill:#AAC5EE;" d="M423.603,113.683c-4.389,0-7.979-3.587-7.979-7.979c0-3.821,2.639-7.037,6.425-7.83
	c4.763-0.961,9.532,2.657,9.532,7.83C431.582,110.146,427.945,113.683,423.603,113.683z"/>
<g>
	<circle style="fill:#8FB1DB;" cx="388.27" cy="197.01" r="9.176"/>
	<circle style="fill:#8FB1DB;" cx="409.47" cy="326.45" r="9.176"/>
	<circle style="fill:#8FB1DB;" cx="84.37" cy="416.47" r="9.176"/>
</g>
<circle style="fill:#65669E;" cx="398.94" cy="390.68" r="17.723"/>
<circle style="fill:#7477AD;" cx="398.94" cy="390.62" r="9.176"/>
<g>
</g>
<g>
</g>
<g>
</g>
<g>
</g>
<g>
</g>
<g>
</g>
<g>
</g>
<g>
</g>
<g>
</g>
<g>
</g>
<g>
</g>
<g>
</g>
<g>
</g>
<g>
</g>
<g>
</g>
</svg>
