<?xml version="1.0" encoding="iso-8859-1"?>
<!-- Generator: Adobe Illustrator 19.0.0, SVG Export Plug-In . SVG Version: 6.00 Build 0)  -->
<svg version="1.1" id="Capa_1" xmlns="http://www.w3.org/2000/svg" xmlns:xlink="http://www.w3.org/1999/xlink" x="0px" y="0px"
	 viewBox="0 0 512 512" style="enable-background:new 0 0 512 512;" xml:space="preserve">
<circle style="fill:#662B5A;" cx="258.929" cy="261.86" r="250.14"/>
<path style="fill:#51204A;" d="M45.357,392.128C89.298,464.017,168.509,512,258.931,512s169.633-47.983,213.574-119.872H45.357z"/>
<path style="fill:#441940;" d="M249.761,392.128H45.357c41.881,68.519,115.803,115.321,200.934,119.558
	C168.896,507.834,172.269,392.128,249.761,392.128z"/>
<path style="fill:#7477AD;" d="M454.22,359.536c-30.084,17.369-68.689,7.025-86.058-23.059
	c-17.369-30.084-7.025-68.69,23.059-86.059c30.084-17.369,68.689-7.025,86.058,23.06
	C494.648,303.562,484.303,342.167,454.22,359.536z"/>
<g>
	<path style="fill:#65669E;" d="M393.599,321.791c-14.841-25.705-9.436-57.618,11.213-77.203c-4.649,1.379-9.212,3.302-13.592,5.831
		c-30.084,17.369-40.428,55.974-23.059,86.058c17.369,30.083,55.974,40.428,86.058,23.059c4.38-2.529,8.327-5.519,11.845-8.855
		C438.78,358.771,408.439,347.495,393.599,321.791z"/>
	<path style="fill:#65669E;" d="M405.907,275.856c-16.057,9.271-21.579,29.877-12.308,45.935
		c9.271,16.057,29.877,21.578,45.934,12.308c16.057-9.271,21.579-29.877,12.308-45.934
		C442.571,272.106,421.964,266.585,405.907,275.856z"/>
</g>
<polygon style="fill:#CEDDF7;" points="436.797,425.382 436.797,105.746 408.643,153.75 408.643,425.382 "/>
<path style="fill:#AAC5EE;" d="M422.72,388.495c-6.094,0-11.388-3.418-14.077-8.439v45.325h28.154v-45.325
	C434.108,385.078,428.815,388.495,422.72,388.495z"/>
<circle style="fill:#8FB1DB;" cx="422.719" cy="304.98" r="9.383"/>
<path style="fill:#CEDDF7;" d="M376.581,36.92c-1.48,9.925-7.313,18.442-15.488,23.551l39.719,23.436l14.307-24.248L376.581,36.92z"
	/>
<g>
	<path style="fill:#AAC5EE;" d="M237.38,100.244c-2.91,0-5.726-1.562-7.198-4.306c-2.129-3.972-0.636-8.918,3.336-11.046
		l108.128-57.966c3.971-2.131,8.916-0.635,11.045,3.336c2.13,3.972,0.636,8.918-3.336,11.046L241.227,99.274
		C240.001,99.932,238.68,100.244,237.38,100.244z"/>
	<path style="fill:#AAC5EE;" d="M350.02,170.906c-4.374,0-7.994-3.467-8.148-7.872l-4.525-128.63
		c-0.158-4.503,3.364-8.282,7.867-8.441c4.483-0.14,8.282,3.362,8.441,7.867l4.525,128.63c0.158,4.503-3.364,8.282-7.867,8.441
		C350.215,170.904,350.117,170.906,350.02,170.906z"/>
</g>
<polygon style="fill:#CEDDF7;" points="161.147,425.382 83.253,295.816 32.343,265.777 128.296,425.382 "/>
<path style="fill:#AAC5EE;" d="M129.864,373.346c-1.118,8.866-8.67,15.728-17.839,15.728c-2.196,0-4.291-0.413-6.237-1.133
	l22.509,37.44h32.851L129.864,373.346z"/>
<path style="fill:#61CBF8;" d="M235.169,359.29l42.583-72.604c-1.047-0.928-2.193-1.773-3.446-2.508
	c-10.363-6.079-23.695-2.603-29.775,7.761l-13.577,23.149c-2.031,3.463-6.488,4.619-9.946,2.578L55.446,219.977
	c-10.348-6.106-23.689-2.669-29.795,7.682c-1.226,2.078-2.05,4.278-2.528,6.515L235.169,359.29z"/>
<g>
	<path style="fill:#5ABDEE;" d="M109.615,277.151c0-8.443,6.844-15.287,15.287-15.287c0.577,0,1.144,0.038,1.705,0.101
		l-71.16-41.988c-10.348-6.106-23.689-2.669-29.795,7.682c-1.226,2.078-2.05,4.278-2.528,6.515l90.752,53.548
		C111.242,284.976,109.615,281.256,109.615,277.151z"/>
	<path style="fill:#5ABDEE;" d="M235.748,358.303l42.004-71.617c-1.047-0.928-2.193-1.773-3.446-2.508
		c-10.363-6.079-23.695-2.603-29.775,7.761l-13.577,23.149c-1.044,1.78-2.729,2.944-4.59,3.385L235.748,358.303z"/>
</g>
<path style="fill:#CEDDF7;" d="M21.248,229.804c-3.885-2.292-8.894-1.001-11.186,2.884l-5.993,10.156
	c-2.3,3.898-1.004,8.921,2.893,11.221l216.103,127.51l14.307-24.248L21.248,229.804z"/>
<path style="fill:#AAC5EE;" d="M93.255,297.464c0-8.342,6.763-15.105,15.105-15.105c0.777,0,1.534,0.077,2.28,0.19l-89.392-52.745
	c-3.885-2.292-8.894-1.001-11.186,2.884l-5.993,10.156c-2.3,3.898-1.005,8.922,2.893,11.221l89.667,52.907
	C94.522,304.375,93.255,301.069,93.255,297.464z"/>
<path style="fill:#61CBF8;" d="M216.217,99.1c-0.479-0.283-0.917-0.607-1.316-0.964c-0.812,0.951-1.568,1.968-2.225,3.082
	c-6.106,10.349-2.667,23.689,7.682,29.794l112.245,66.23l12.897-21.859L216.217,99.1z"/>
<path style="fill:#5ABDEE;" d="M270.032,154.99c0-7.991,6.478-14.469,14.469-14.469c0.764,0,1.508,0.077,2.24,0.191L216.217,99.1
	c-0.479-0.282-0.917-0.607-1.316-0.964c-0.812,0.951-1.568,1.968-2.225,3.082c-6.107,10.349-2.667,23.689,7.682,29.794
	l51.061,30.128C270.539,159.272,270.032,157.192,270.032,154.99z"/>
<polygon style="fill:#AAC5EE;" points="251.244,425.382 481.485,32.816 439.194,8.16 194.492,425.382 "/>
<polygon style="fill:#8FB1DB;" points="460.685,20.689 439.194,8.16 194.492,425.382 223.331,425.382 "/>
<path style="fill:#CEDDF7;" d="M251.244,425.382l108.228-184.531l-13.48-7.859c-4.098-2.389-9.357-1.011-11.757,3.081
	l-111.03,189.309H251.244z"/>
<path style="fill:#7477AD;" d="M481.478,40.975c-1.396,0-2.809-0.358-4.102-1.111l-42.292-24.655
	c-3.893-2.269-5.209-7.266-2.94-11.158c2.27-3.894,7.267-5.208,11.158-2.94l42.292,24.655c3.893,2.269,5.209,7.266,2.94,11.158
	C487.018,39.525,484.285,40.975,481.478,40.975z"/>
<path style="fill:#CEDDF7;" d="M229.448,75.06c-3.711-2.19-8.495-0.956-10.685,2.755l-6.543,11.089
	c-2.313,3.92-1.01,8.972,2.909,11.285l132.353,78.094l14.695-24.906L229.448,75.06z"/>
<circle style="fill:#7AA4CE;" cx="350.029" cy="162.75" r="18.12"/>
<circle style="fill:#8FB1DB;" cx="40.159" cy="273.57" r="18.12"/>
<path style="fill:#CEDDF7;" d="M93.722,443.041c0,1.879-0.854,3.558-2.195,4.672c0.522,0.47,1.051,0.933,1.577,1.399h331.655
	c11.082-9.822,21.292-20.604,30.485-32.23H93.722V443.041z"/>
<path style="fill:#AAC5EE;" d="M172.671,432.997c0-7.21,4.342-13.398,10.549-16.115H93.722v26.159c0,1.879-0.854,3.558-2.195,4.672
	c0.522,0.47,1.051,0.933,1.577,1.399h90.116C177.013,446.395,172.671,440.206,172.671,432.997z"/>
<path style="fill:#7477AD;" d="M62.741,402.259h28.174c3.353,0,6.071,2.718,6.071,6.071v34.711c0,3.353-2.718,6.071-6.071,6.071
	H43.51c-5.423,0-9.166-5.432-7.234-10.5l9.366-24.572C48.346,406.946,55.149,402.259,62.741,402.259z"/>
<path style="fill:#65669E;" d="M63.526,438.612l9.366-24.572c2.704-7.094,9.507-11.781,17.099-11.781h-27.25
	c-7.592,0-14.395,4.688-17.099,11.781l-9.366,24.572c-1.932,5.068,1.811,10.5,7.234,10.5h27.25
	C65.337,449.112,61.594,443.68,63.526,438.612z"/>
<path style="fill:#8FB1DB;" d="M328.688,4.995c-16.057,9.271-21.579,29.877-12.308,45.935c9.271,16.057,29.877,21.578,45.934,12.308
	c16.057-9.271,21.579-29.877,12.308-45.934C365.352,1.246,344.745-4.276,328.688,4.995z"/>
<path style="fill:#7AA4CE;" d="M332.783,41.46c-7.627-13.21-5.236-29.493,4.79-40.016c-3.045,0.737-6.037,1.907-8.885,3.551
	c-16.057,9.271-21.579,29.877-12.308,45.935c9.271,16.057,29.877,21.578,45.934,12.308c2.848-1.644,5.357-3.65,7.518-5.919
	C355.706,60.74,340.409,54.67,332.783,41.46z"/>
<circle style="fill:#AAC5EE;" cx="345.499" cy="34.12" r="14.686"/>
<g>
	<circle style="fill:#8FB1DB;" cx="422.719" cy="433" r="9.383"/>
	<circle style="fill:#8FB1DB;" cx="219.039" cy="433" r="9.383"/>
	<circle style="fill:#8FB1DB;" cx="145.419" cy="433" r="9.383"/>
</g>
<g>
	<circle style="fill:#AAC5EE;" cx="40.159" cy="273.57" r="9.383"/>
	<circle style="fill:#AAC5EE;" cx="350.029" cy="162.75" r="9.383"/>
	<path style="fill:#AAC5EE;" d="M279.966,130.581c0-8.74,7.085-15.825,15.825-15.825c0.345,0,0.682,0.03,1.022,0.052L229.448,75.06
		c-3.711-2.19-8.495-0.956-10.685,2.755l-6.543,11.089c-2.313,3.92-1.01,8.972,2.909,11.285l68.356,40.333
		C281.288,137.804,279.966,134.348,279.966,130.581z"/>
</g>
<circle style="fill:#7AA4CE;" cx="422.719" cy="81.86" r="9.383"/>
<g>
</g>
<g>
</g>
<g>
</g>
<g>
</g>
<g>
</g>
<g>
</g>
<g>
</g>
<g>
</g>
<g>
</g>
<g>
</g>
<g>
</g>
<g>
</g>
<g>
</g>
<g>
</g>
<g>
</g>
</svg>
