<?xml version="1.0" encoding="iso-8859-1"?>
<!-- Generator: Adobe Illustrator 19.0.0, SVG Export Plug-In . SVG Version: 6.00 Build 0)  -->
<svg version="1.1" id="Capa_1" xmlns="http://www.w3.org/2000/svg" xmlns:xlink="http://www.w3.org/1999/xlink" x="0px" y="0px"
	 viewBox="0 0 512 512" style="enable-background:new 0 0 512 512;" xml:space="preserve">
<path style="fill:#504A7F;" d="M255.999,10.963c-138.353,0-250.512,112.158-250.512,250.512c0,73.963,32.062,140.43,83.035,186.287
	h334.953c50.974-45.857,83.036-112.324,83.036-186.287C506.512,123.121,394.354,10.963,255.999,10.963z"/>
<polygon style="fill:#FFB229;" points="197.366,220.454 217.102,268.912 240.902,242.458 "/>
<polygon style="fill:#FBCC68;" points="121.997,138.23 142.652,194.979 240.902,244.636 269.542,212.801 "/>
<path style="fill:#FDBF49;" d="M162.41,193.389c0-12.234,8.905-22.381,20.584-24.33l-60.998-30.829l20.655,56.75l23.886,12.073
	C163.932,203.139,162.41,198.443,162.41,193.389z"/>
<ellipse style="fill:#7477AD;" cx="374.394" cy="345.119" rx="90.296" ry="90.296"/>
<g>
	<path style="fill:#65669E;" d="M355.634,355.961c-18.862-32.668-14.984-72.22,6.714-100.343
		c-11.337,1.523-22.571,5.233-33.091,11.307c-43.189,24.935-57.986,80.16-33.051,123.348c24.934,43.189,80.16,57.986,123.348,33.051
		c10.52-6.074,19.351-13.949,26.337-23.004C410.686,405.047,374.494,388.629,355.634,355.961z"/>
	<circle style="fill:#65669E;" cx="374.4" cy="345.151" r="68.618"/>
</g>
<path style="fill:#504A7F;" d="M355.634,355.961c-13.557-23.481-15.366-50.519-7.254-74.313
	c-24.99,10.254-42.598,34.815-42.598,63.5c0,37.899,30.723,68.622,68.622,68.622c15.823,0,30.383-5.369,41.991-14.366
	C391.721,394.54,369.197,379.453,355.634,355.961z"/>
<path style="fill:#CEDDF7;" d="M334.252,193.389l-21.364,23.748l85.154,233.955h21.67c2.13-1.841,4.22-3.726,6.287-5.637
	L334.252,193.389z"/>
<polygon style="fill:#AAC5EE;" points="323.709,205.11 312.888,217.138 398.041,451.093 413.24,451.093 "/>
<path style="fill:#FBCC68;" d="M370.899,154.808l-15.265-41.938c-14.854,16.511-221.636,246.365-285.144,316.959
	c6.376,7.022,13.155,13.67,20.282,19.929h15.547c26.858-29.855,235.826-262.137,264.819-294.367
	C371.057,155.198,370.971,155.007,370.899,154.808z"/>
<path style="fill:#FDBF49;" d="M85.983,445.433c69.643-77.414,221.45-246.159,278.158-309.194l-8.506-23.369
	c-14.854,16.512-221.636,246.366-285.144,316.96C75.421,435.257,80.596,440.457,85.983,445.433z"/>
<path style="fill:#CEDDF7;" d="M112.95,109.103H83.852l33.608,92.339c2.624,7.21,10.666,10.849,17.815,8.062l0,0
	c6.922-2.699,10.421-10.432,7.88-17.414L112.95,109.103z"/>
<g>
	<path style="fill:#AAC5EE;" d="M130.461,197.325l-32.11-88.222H83.852l33.608,92.339c2.624,7.21,10.667,10.849,17.815,8.062l0,0
		c2.016-0.786,3.731-2.009,5.102-3.506C135.966,205.023,132.124,201.896,130.461,197.325z"/>
	<path style="fill:#AAC5EE;" d="M97.576,155.656c-3.601,0-6.983-2.214-8.301-5.789c-1.69-4.584,0.657-9.669,5.241-11.359
		l25.656-9.456c4.585-1.691,9.67,0.657,11.359,5.241c1.69,4.584-0.657,9.669-5.241,11.359l-25.656,9.456
		C99.625,155.479,98.592,155.656,97.576,155.656z"/>
</g>
<path style="fill:#8FB1DB;" d="M105.415,143.962c-1.344-3.646-0.415-7.566,2.059-10.231l-12.958,4.776
	c-4.584,1.69-6.931,6.775-5.241,11.359c1.318,3.575,4.7,5.789,8.301,5.789c1.016,0,2.049-0.176,3.058-0.548l12.798-4.717
	C109.896,149.909,106.735,147.544,105.415,143.962z"/>
<path style="fill:#FF5252;" d="M183.969,98.406c-3.429-7.472-11.248-17.257-28.685-17.257c-51.509-0.135-48.707,0.305-51.458-0.395
	c-24.173-6.146-42.903-13.308-56.121-0.573c-6.423,6.188-6.141,14.894-6.121,14.793c0,5.485,3.496,10.36,8.691,12.119l41.517,14.057
	c3.147,1.065,6.585,0.865,9.586-0.559l26.566-12.603c1.714-0.813,3.586-1.235,5.483-1.235h45.251
	C182.971,106.754,185.759,102.308,183.969,98.406z"/>
<path style="fill:#CEDDF7;" d="M394.842,145.663l-21.576-59.279c-0.477,0.265-0.972,0.506-1.5,0.698l-23.464,8.541
	c-0.037,0.013-0.074,0.021-0.111,0.034l21.529,59.151c2.522,6.93,10.189,10.519,17.134,7.989
	C393.791,160.272,397.368,152.601,394.842,145.663z"/>
<path style="fill:#AAC5EE;" d="M381.969,149.308l-21.193-58.227L348.3,95.623c-0.037,0.014-0.074,0.021-0.111,0.034l21.53,59.151
	c3.694,10.15,17.219,11.883,23.421,3.218C388.219,157.507,383.776,154.272,381.969,149.308z"/>
<path style="fill:#7477AD;" d="M357.246,45.068l-23.464,8.541c-5.435,1.978-8.264,8.044-6.285,13.479l8.541,23.464
	c1.978,5.435,8.044,8.264,13.479,6.285l23.464-8.541c5.435-1.978,8.264-8.044,6.285-13.479l-8.541-23.464
	C368.747,45.918,362.681,43.09,357.246,45.068z"/>
<path style="fill:#65669E;" d="M357.341,84.014l-9.323-25.613c-1.322-3.63-0.671-7.514,1.387-10.479l-15.624,5.687
	c-5.435,1.978-8.264,8.044-6.285,13.479l8.541,23.464c1.978,5.435,8.044,8.264,13.479,6.285l15.625-5.687
	C361.657,90.201,358.663,87.644,357.341,84.014z"/>
<path style="fill:#CEDDF7;" d="M86.33,445.762c95.812,88.258,243.4,88.377,339.34,0H86.33z"/>
<path style="fill:#AAC5EE;" d="M245.642,445.762H86.33c43.232,39.824,100.502,64.639,163.551,66.151
	c-2.034-0.049-4.062-0.122-6.083-0.219C201.07,509.645,202.865,445.762,245.642,445.762z"/>
<path style="fill:#CEDDF7;" d="M380.889,309.473v-0.004l-182.657-35.206l-0.001,0.011c-3.333-0.645-6.773-0.994-10.294-0.994
	c-29.761,0-53.887,24.126-53.887,53.887c0,29.76,24.126,53.887,53.887,53.887h187.301c19.89,0,36.012-16.124,36.012-36.012
	C411.25,327.075,398.094,312.186,380.889,309.473z"/>
<g>
	<path style="fill:#AAC5EE;" d="M388.468,357.483l-178.897-5.341c-28.425-0.849-50.781-24.58-49.933-53.006
		c0.22-7.359,1.984-14.304,4.955-20.551c-18.072,8.699-30.544,27.183-30.544,48.582c0,29.761,24.125,53.888,53.887,53.888h187.302
		c18.198,0,33.234-13.501,35.661-31.03C404.758,354.909,396.926,357.736,388.468,357.483z"/>
	<circle style="fill:#AAC5EE;" cx="374.4" cy="345.151" r="12.292"/>
	<circle style="fill:#AAC5EE;" cx="187.935" cy="327.172" r="53.887"/>
</g>
<g>
	<path style="fill:#8FB1DB;" d="M235.287,352.91l-25.715-0.768c-28.425-0.849-50.781-24.58-49.933-53.006
		c0.22-7.359,1.984-14.304,4.955-20.551c-34.452,16.571-41.178,62.759-12.89,88.471c9.57,8.698,22.281,13.999,36.232,13.999
		C208.374,381.053,226.152,369.676,235.287,352.91z"/>
	<circle style="fill:#8FB1DB;" cx="187.935" cy="327.172" r="28.289"/>
</g>
<path style="fill:#7AA4CE;" d="M161.948,315.989c-1.477,3.429-2.299,7.207-2.299,11.178c0,15.623,12.665,28.288,28.288,28.288
	c5.32,0,10.295-1.471,14.545-4.024C183.158,348.17,167.622,334.205,161.948,315.989z"/>
<path style="fill:#7477AD;" d="M180.276,331.589l-45.421-78.67c-2.443-4.231-0.993-9.641,3.238-12.084
	c4.231-2.442,9.641-0.994,12.084,3.238l45.421,78.67c2.443,4.231,0.993,9.641-3.238,12.084
	C188.147,337.258,182.729,335.839,180.276,331.589z"/>
<path style="fill:#CEDDF7;" d="M166.559,257.342H122.27c-4.885,0-8.846-3.96-8.846-8.846s3.96-8.846,8.846-8.846h44.289
	c4.885,0,8.846,3.96,8.846,8.846S171.444,257.342,166.559,257.342z"/>
<path style="fill:#AAC5EE;" d="M144.413,248.496c0-4.886,3.961-8.846,8.846-8.846h-30.99c-4.885,0-8.846,3.96-8.846,8.846
	s3.96,8.846,8.846,8.846h30.99C148.374,257.342,144.413,253.382,144.413,248.496z"/>
<path style="fill:#CEDDF7;" d="M399.701,88.06c-1.053,0-2.109-0.136-3.143-0.414l-36.605-9.812
	c-6.477-1.736-10.32-8.394-8.584-14.87s8.392-10.321,14.87-8.584l31.816,8.528l50.269-28.357l7.662-25.855
	c1.904-6.429,8.658-10.099,15.09-8.192c6.43,1.905,10.097,8.661,8.192,15.09L470.21,46.16c-0.895,3.022-2.931,5.577-5.676,7.126
	l-58.868,33.208C403.831,87.529,401.774,88.06,399.701,88.06z"/>
<circle style="fill:#FFB229;" cx="314.662" cy="188.725" r="10.173"/>
<path style="fill:#EA3D3D;" d="M111.325,81.15c-3.679-0.075-5.11,0.213-7.499-0.395c-24.173-6.146-42.904-13.308-56.121-0.573
	c-8.172,7.874-8.912,23.023,2.57,26.91l41.517,14.057c3.147,1.065,6.585,0.865,9.586-0.559l18.441-8.748
	C104.653,109.931,99.293,90.626,111.325,81.15z"/>
<path style="fill:#AAC5EE;" d="M435.106,69.316c-7.323,0-13.258-5.936-13.258-13.258c0-3.084,1.062-5.915,2.828-8.167l-26.62,15.017
	l-31.816-8.528c-6.479-1.737-13.135,2.108-14.871,8.584c-1.736,6.476,2.107,13.135,8.584,14.87l36.605,9.813
	c1.034,0.277,2.09,0.414,3.143,0.414c2.073,0,4.13-0.531,5.965-1.566l30.551-17.235C435.85,69.29,435.481,69.316,435.106,69.316z"/>
<g>
</g>
<g>
</g>
<g>
</g>
<g>
</g>
<g>
</g>
<g>
</g>
<g>
</g>
<g>
</g>
<g>
</g>
<g>
</g>
<g>
</g>
<g>
</g>
<g>
</g>
<g>
</g>
<g>
</g>
</svg>
