<?xml version="1.0" encoding="iso-8859-1"?>
<!-- Generator: Adobe Illustrator 19.0.0, SVG Export Plug-In . SVG Version: 6.00 Build 0)  -->
<svg version="1.1" id="Capa_1" xmlns="http://www.w3.org/2000/svg" xmlns:xlink="http://www.w3.org/1999/xlink" x="0px" y="0px"
	 viewBox="0 0 512 512" style="enable-background:new 0 0 512 512;" xml:space="preserve">
<circle style="fill:#FF5252;" cx="256" cy="273.24" r="238.76"/>
<path style="fill:#CEDDF7;" d="M255.927,33.157H141.492c-8.53,0-15.445,6.915-15.445,15.445s6.915,15.445,15.445,15.445h114.435
	V33.157z"/>
<path style="fill:#AAC5EE;" d="M200.347,33.157c5.411,3.026,9.073,8.805,9.073,15.445s-3.663,12.418-9.073,15.445h55.58v-30.89
	C255.927,33.157,200.347,33.157,200.347,33.157z"/>
<path style="fill:#EA3D3D;" d="M43.894,382.945C83.626,459.609,163.691,512,256,512s172.374-52.391,212.106-129.055H43.894z"/>
<path style="fill:#DB3535;" d="M248.079,382.945H43.894c38.03,73.38,113.013,124.515,200.316,128.762
	C161.05,507.45,164.603,382.945,248.079,382.945z"/>
<path style="fill:#AAC5EE;" d="M289.958,56.959h-5.369c-4.615,0-8.357-3.741-8.357-8.357s3.742-8.357,8.357-8.357h5.369
	c4.615,0,8.357,3.741,8.357,8.357S294.573,56.959,289.958,56.959z"/>
<g>
	<path style="fill:#CEDDF7;" d="M268.772,216.355L268.772,216.355c6.05,0,11.577,2.228,15.817,5.901V15.445
		c0-8.53-6.915-15.445-15.445-15.445s-15.445,6.915-15.445,15.445v206.192C257.832,218.334,263.069,216.355,268.772,216.355z"/>
	<path style="fill:#CEDDF7;" d="M268.772,311.199L268.772,311.199c-5.702,0-10.939-1.979-15.073-5.281V419.33h30.89V305.298
		C280.348,308.972,274.822,311.199,268.772,311.199z"/>
</g>
<g>
	<path style="fill:#AAC5EE;" d="M269.083,355.455L269.083,355.455c-7.299,0-13.447-4.883-15.385-11.556v75.432h30.89v-75.537
		C282.642,350.526,276.444,355.455,269.083,355.455z"/>
	<path style="fill:#AAC5EE;" d="M295.57,401.941h-52.854c-7.364,0-13.389,6.282-13.389,13.961v4.172h79.631v-4.172
		C308.959,408.223,302.934,401.941,295.57,401.941z"/>
</g>
<path style="fill:#8FB1DB;" d="M266.783,416.047c0-6.974,4.828-12.822,11.17-14.106h-35.237c-7.364,0-13.389,6.282-13.389,13.961
	v4.172h37.455v-4.027H266.783z"/>
<path style="fill:#CEDDF7;" d="M393.594,443.78v-24.45H67.156c8.381,10.818,17.666,20.9,27.75,30.125h304.363
	C396.135,449.455,393.594,446.914,393.594,443.78z"/>
<path style="fill:#7477AD;" d="M422.259,405.663h-26.333c-3.134,0-5.675,2.541-5.675,5.675v32.443c0,3.134,2.541,5.674,5.675,5.674
	h44.308c5.069,0,8.567-5.077,6.762-9.814l-8.754-22.967C435.714,410.044,429.355,405.663,422.259,405.663z"/>
<path style="fill:#65669E;" d="M416.502,443.78v-32.443c0-3.134,2.541-5.674,5.674-5.674h-26.25c-3.134,0-5.674,2.541-5.674,5.674
	v32.443c0,3.134,2.541,5.675,5.674,5.675h26.25C419.042,449.455,416.502,446.915,416.502,443.78z"/>
<path style="fill:#7477AD;" d="M268.772,314.542L268.772,314.542c-13.351,0-24.174-10.823-24.174-24.174v-53.182
	c0-13.351,10.823-24.174,24.174-24.174l0,0c13.351,0,24.174,10.823,24.174,24.174v53.182
	C292.946,303.719,282.123,314.542,268.772,314.542z"/>
<path style="fill:#65669E;" d="M268.772,263.777L268.772,263.777c-13.351,0-24.174-10.823-24.174-24.174v50.765
	c0,13.351,10.823,24.174,24.174,24.174l0,0c13.351,0,24.174-10.823,24.174-24.174v-50.765
	C292.946,252.954,282.123,263.777,268.772,263.777z"/>
<path style="fill:#504A7F;" d="M268.769,295.562c-4.5,0-8.357-3.621-8.357-8.357c0-5.373,4.997-9.217,9.995-8.19
	c4.064,0.852,6.719,4.334,6.719,8.19C277.126,291.886,273.32,295.562,268.769,295.562z"/>
<g>
	<circle style="fill:#8FB1DB;" cx="269.14" cy="434.39" r="9.61"/>
	<circle style="fill:#8FB1DB;" cx="269.14" cy="48.602" r="9.61"/>
</g>
<path style="fill:#AAC5EE;" d="M175.416,435.423c0-7.696,5.214-14.159,12.296-16.093H67.156c8.381,10.818,17.666,20.9,27.75,30.125
	h88.177C178.475,446.483,175.416,441.315,175.416,435.423z"/>
<path style="fill:#65669E;" d="M268.769,248.708c-4.677,0-8.357-3.845-8.357-8.357c0-5.231,4.792-9.222,9.995-8.201
	c4.026,0.835,6.719,4.311,6.719,8.201C277.126,244.907,273.418,248.708,268.769,248.708z"/>
<g>
</g>
<g>
</g>
<g>
</g>
<g>
</g>
<g>
</g>
<g>
</g>
<g>
</g>
<g>
</g>
<g>
</g>
<g>
</g>
<g>
</g>
<g>
</g>
<g>
</g>
<g>
</g>
<g>
</g>
</svg>
