<?xml version="1.0" encoding="iso-8859-1"?>
<!-- Generator: Adobe Illustrator 19.0.0, SVG Export Plug-In . SVG Version: 6.00 Build 0)  -->
<svg version="1.1" id="Capa_1" xmlns="http://www.w3.org/2000/svg" xmlns:xlink="http://www.w3.org/1999/xlink" x="0px" y="0px"
	 viewBox="0 0 512 512" style="enable-background:new 0 0 512 512;" xml:space="preserve">
<circle style="fill:#BCCC23;" cx="274.62" cy="256.299" r="237.38"/>
<path style="fill:#A5B50F;" d="M37.238,256.297c0,131.102,106.279,237.381,237.381,237.381S512,387.399,512,256.297
	c0-62.543-24.2-119.425-63.731-161.826h-347.3C61.438,136.872,37.238,193.754,37.238,256.297z"/>
<path style="fill:#9CA30A;" d="M206.576,94.471H100.968c-39.531,42.401-63.731,99.283-63.731,161.826
	c0,131.102,106.279,237.381,237.381,237.381c35.302,0,68.798-7.717,98.91-21.539C189.182,453.889,97.802,240.789,206.576,94.471z"/>
<path style="fill:#61CBF8;" d="M211.227,123.328l-17.325,175.29c0-53.982-43.923-96.951-96.951-96.951
	c-34.713,0-65.341,16.819-84.907,50.142l0,0c-1.727,3.126-3.285,6.355-4.665,9.68l0.001-0.002c-0.017,0.04-0.031,0.082-0.048,0.122
	l0,0c-4.63,11.198-7.236,23.446-7.329,36.295c-0.389,53.715,44.562,97.664,98.278,97.664h368.571
	C495.243,356.447,512,308.332,512,256.297c0-49.271-15.014-95.034-40.713-132.969C471.286,123.328,211.227,123.328,211.227,123.328z
	"/>
<path style="fill:#5ABDEE;" d="M186.163,322.204c-5.463-17.147-11.218-44.235-7.605-75.915
	c-17.692-27.51-48.23-44.622-81.608-44.622c-34.713,0-65.341,16.819-84.907,50.142l0,0c-1.727,3.126-3.285,6.355-4.665,9.68
	l0.001-0.002c-0.017,0.04-0.031,0.082-0.048,0.122l0,0c-4.63,11.198-7.236,23.446-7.329,36.295
	c-0.389,53.715,44.562,97.664,98.278,97.664h112.175C178.878,386.484,166.244,348.33,186.163,322.204z"/>
<g>
	<path style="fill:#86DDFC;" d="M215.772,74.619c0-31.093-25.206-56.299-56.299-56.299c-24.773,0-45.793,16.007-53.322,38.237l0,0
		L12.043,251.809c16.515-29.891,48.341-50.142,84.907-50.142c53.545,0,96.951,43.406,96.951,96.951
		C216.777,66.494,215.772,79.287,215.772,74.619z"/>
	<path style="fill:#86DDFC;" d="M7.331,261.609c0.017-0.04,0.031-0.082,0.048-0.122l-0.057,0.119L7.331,261.609z"/>
</g>
<path style="fill:#3E94CE;" d="M146.83,215.476c-15.928,67.019-13.841,58.237-14.03,59.033c-19.275-12.924-45.378-7.775-58.302,11.5
	c-16.155,24.094-9.719,56.722,14.376,72.877c30.118,20.193,70.903,12.148,91.096-17.97c8.738-13.032,13.333-27.693,13.931-42.3l0,0
	C193.901,263.317,175.029,232.431,146.83,215.476z"/>
<path style="fill:#4BA1DB;" d="M103.488,201.91l-34.847,95.715c1.433-4.012,3.376-7.915,5.857-11.615
	c12.924-19.275,39.026-24.424,58.302-11.501l14.03-58.999C133.451,207.438,118.664,202.922,103.488,201.91z"/>
<path style="fill:#61CBF8;" d="M143.648,156.735c-33.036-2.663-59.351-21.279-64.663-43.814L12.043,251.809
	c16.515-29.891,48.341-50.142,84.907-50.142c53.545,0,96.951,43.406,96.951,96.951l16.541-167.353
	C198.59,148.413,172.695,159.077,143.648,156.735z"/>
<g>
</g>
<g>
</g>
<g>
</g>
<g>
</g>
<g>
</g>
<g>
</g>
<g>
</g>
<g>
</g>
<g>
</g>
<g>
</g>
<g>
</g>
<g>
</g>
<g>
</g>
<g>
</g>
<g>
</g>
</svg>
