<?xml version="1.0" encoding="iso-8859-1"?>
<!-- Generator: Adobe Illustrator 19.0.0, SVG Export Plug-In . SVG Version: 6.00 Build 0)  -->
<svg version="1.1" id="Capa_1" xmlns="http://www.w3.org/2000/svg" xmlns:xlink="http://www.w3.org/1999/xlink" x="0px" y="0px"
	 viewBox="0 0 511.986 511.986" style="enable-background:new 0 0 511.986 511.986;" xml:space="preserve">
<circle style="fill:#FDBF49;" cx="249.767" cy="255.99" r="249.767"/>
<path style="fill:#FC9B00;" d="M3.363,296.955c19.546,118.454,122.416,208.808,246.406,208.808s226.861-90.354,246.406-208.808
	H3.363z"/>
<path style="fill:#EF8D22;" d="M286.073,296.955H3.363c19.546,118.454,122.416,208.808,246.406,208.808
	c7.405,0,14.732-0.332,21.973-0.963C145.499,490.453,153.596,296.955,286.073,296.955z"/>
<path style="fill:#CEDDF7;" d="M412.435,85.135c-0.931,0-7.356,0-12.261,0v36.67c4.905,0,11.329,0,12.261,0
	c25.22,0,45.735,20.517,45.735,45.735v42.503h36.67V167.54C494.84,122.102,457.874,85.135,412.435,85.135z"/>
<g>
	<path style="fill:#AAC5EE;" d="M429.47,114.765c0-11.101,8.999-20.1,20.1-20.1c0.477,0,0.943,0.039,1.412,0.071
		c-11.51-6.119-24.627-9.601-38.546-9.601c-0.931,0-7.356,0-12.261,0v36.67c4.905,0,11.329,0,12.261,0
		c7.673,0,14.906,1.908,21.263,5.262C431.058,123.665,429.47,119.404,429.47,114.765z"/>
	<path style="fill:#AAC5EE;" d="M255.246,85.135c-4.905,0-11.329,0-12.261,0c-45.438,0-82.405,36.967-82.405,82.405v42.503h36.67
		V167.54c0-25.22,20.517-45.735,45.735-45.735c0.931,0,7.356,0,12.261,0L255.246,85.135L255.246,85.135z"/>
</g>
<path style="fill:#65669E;" d="M178.66,264.687c9.957,0,18.95,4.106,25.395,10.709v-62.68c0-3.255-2.638-5.893-5.893-5.893h-39.004
	c-3.254,0-5.893,2.638-5.893,5.893v62.68C159.71,268.792,168.703,264.687,178.66,264.687z"/>
<path style="fill:#504A7F;" d="M178.66,212.716c0-3.255,2.638-5.893,5.893-5.893h-25.395c-3.254,0-5.893,2.638-5.893,5.893v62.68
	c6.445-6.604,15.438-10.709,25.395-10.709V212.716z"/>
<path style="fill:#65669E;" d="M476.505,264.687c9.956,0,18.95,4.106,25.395,10.709v-62.68c0-3.255-2.638-5.893-5.893-5.893h-39.004
	c-3.254,0-5.893,2.638-5.893,5.893v62.68C457.556,268.792,466.55,264.687,476.505,264.687z"/>
<path style="fill:#504A7F;" d="M476.505,212.716c0-3.255,2.638-5.893,5.893-5.893h-25.395c-3.254,0-5.893,2.638-5.893,5.893v62.68
	c6.445-6.604,15.438-10.709,25.395-10.709V212.716z"/>
<path style="fill:#7477AD;" d="M403.395,84.554v38.283c0,3.454-2.8,6.253-6.253,6.253H258.279c-3.454,0-6.253-2.8-6.253-6.253
	V84.554c0-3.454,2.8-6.253,6.253-6.253h138.863C400.595,78.301,403.395,81.1,403.395,84.554z"/>
<path style="fill:#65669E;" d="M326.728,103.696c0-14.025,11.37-25.395,25.395-25.395h-93.845c-3.453,0-6.253,2.8-6.253,6.253
	v38.283c0,3.453,2.8,6.253,6.253,6.253h93.845C338.098,129.09,326.728,117.721,326.728,103.696z"/>
<path style="fill:#504A7F;" d="M276.624,137.142c-4.447,0-8.052-3.604-8.052-8.052V78.301c0-4.447,3.605-8.052,8.052-8.052
	s8.052,3.604,8.052,8.052v50.788C284.676,133.538,281.071,137.142,276.624,137.142z"/>
<path style="fill:#65669E;" d="M378.797,137.142c-4.447,0-8.052-3.604-8.052-8.052V78.301c0-4.447,3.605-8.052,8.052-8.052
	s8.052,3.604,8.052,8.052v50.788C386.848,133.538,383.243,137.142,378.797,137.142z"/>
<g>
	<ellipse style="fill:#8388B7;" cx="178.647" cy="296.947" rx="35.488" ry="35.488"/>
	<ellipse style="fill:#8388B7;" cx="476.492" cy="296.942" rx="35.488" ry="35.488"/>
</g>
<g>
	<path style="fill:#7477AD;" d="M170.641,301.585c-7.483-12.961-5.853-28.674,2.889-39.745c-4.322,0.63-8.601,2.064-12.614,4.381
		c-16.974,9.8-22.79,31.505-12.99,48.478c9.8,16.974,31.505,22.79,48.478,12.99c4.013-2.317,7.394-5.306,10.101-8.734
		C192.547,320.99,178.124,314.545,170.641,301.585z"/>
	<path style="fill:#7477AD;" d="M468.487,301.585c-7.483-12.961-5.853-28.674,2.889-39.745c-4.322,0.63-8.601,2.064-12.614,4.381
		c-16.974,9.8-22.79,31.505-12.99,48.478c9.8,16.974,31.505,22.79,48.478,12.99c4.013-2.317,7.394-5.306,10.101-8.734
		C490.392,320.99,475.969,314.545,468.487,301.585z"/>
</g>
<g>
	<circle style="fill:#65669E;" cx="178.658" cy="296.95" r="9.259"/>
	<circle style="fill:#65669E;" cx="476.504" cy="296.95" r="9.259"/>
</g>
<path style="fill:#CEDDF7;" d="M263.507,163.021c-0.931,0-7.356,0-12.261,0v36.67c4.905,0,11.329,0,12.261,0
	c25.22,0,45.735,20.517,45.735,45.735v42.504h36.67v-42.504C345.911,199.988,308.945,163.021,263.507,163.021z"/>
<g>
	<path style="fill:#AAC5EE;" d="M280.542,192.651c0-11.101,8.999-20.1,20.1-20.1c0.477,0,0.943,0.039,1.412,0.071
		c-11.51-6.119-24.627-9.601-38.546-9.601c-0.931,0-7.356,0-12.261,0v36.67c4.905,0,11.329,0,12.261,0
		c7.673,0,14.906,1.908,21.263,5.262C282.129,201.551,280.542,197.291,280.542,192.651z"/>
	<path style="fill:#AAC5EE;" d="M106.317,163.021c-4.905,0-11.329,0-12.261,0c-45.438,0-82.405,36.967-82.405,82.405v42.504h36.67
		v-42.504c0-25.22,20.517-45.735,45.735-45.735c0.931,0,7.356,0,12.261,0V163.021z"/>
</g>
<path style="fill:#65669E;" d="M49.232,284.71H10.229c-3.255,0-5.893,2.638-5.893,5.893v11.875
	c2.773,14.73,6.838,29.001,12.075,42.696c4.114-1.67,8.607-2.6,13.32-2.6c9.957,0,18.95,4.106,25.395,10.709v-62.68
	C55.125,287.348,52.487,284.71,49.232,284.71z"/>
<path style="fill:#504A7F;" d="M4.336,290.603v11.876c2.773,14.73,6.838,29.001,12.074,42.695c4.114-1.67,8.607-2.6,13.32-2.6
	v-51.97c0-3.255,2.638-5.893,5.893-5.893H10.229C6.975,284.71,4.336,287.348,4.336,290.603z"/>
<path style="fill:#65669E;" d="M327.577,342.573c9.956,0,18.95,4.106,25.395,10.709v-62.68c0-3.255-2.638-5.893-5.893-5.893h-39.004
	c-3.254,0-5.893,2.638-5.893,5.893v62.68C308.627,346.678,317.62,342.573,327.577,342.573z"/>
<path style="fill:#504A7F;" d="M327.577,290.603c0-3.255,2.638-5.893,5.893-5.893h-25.395c-3.254,0-5.893,2.638-5.893,5.893v62.68
	c6.445-6.604,15.438-10.709,25.395-10.709V290.603z"/>
<path style="fill:#7477AD;" d="M254.466,162.441v38.283c0,3.454-2.8,6.253-6.253,6.253H109.35c-3.454,0-6.253-2.8-6.253-6.253
	v-38.283c0-3.454,2.8-6.253,6.253-6.253h138.863C251.667,156.188,254.466,158.988,254.466,162.441z"/>
<path style="fill:#65669E;" d="M177.8,181.582c0-14.025,11.37-25.395,25.395-25.395H109.35c-3.453,0-6.253,2.8-6.253,6.253v38.283
	c0,3.453,2.8,6.253,6.253,6.253h93.845C189.169,206.976,177.8,195.607,177.8,181.582z"/>
<path style="fill:#504A7F;" d="M127.695,215.028c-4.447,0-8.052-3.604-8.052-8.052v-50.789c0-4.447,3.605-8.052,8.052-8.052
	c4.447,0,8.052,3.604,8.052,8.052v50.789C135.746,211.424,132.141,215.028,127.695,215.028z"/>
<path style="fill:#65669E;" d="M229.868,215.028c-4.447,0-8.052-3.604-8.052-8.052v-50.789c0-4.447,3.605-8.052,8.052-8.052
	s8.052,3.604,8.052,8.052v50.789C237.919,211.424,234.315,215.028,229.868,215.028z"/>
<g>
	<path style="fill:#8388B7;" d="M15.355,342.395c8.272,22.435,19.675,43.351,33.675,62.229
		c15.767-10.198,20.93-31.083,11.435-47.527C51.302,341.227,31.735,335.115,15.355,342.395z"/>
	<ellipse style="fill:#8388B7;" cx="327.565" cy="374.829" rx="35.488" ry="35.488"/>
</g>
<path style="fill:#7477AD;" d="M319.558,379.471c-7.483-12.961-5.853-28.674,2.889-39.745c-4.322,0.63-8.601,2.064-12.614,4.381
	c-16.974,9.8-22.79,31.505-12.99,48.478c9.8,16.974,31.505,22.79,48.478,12.99c4.013-2.317,7.394-5.306,10.101-8.734
	C341.463,398.876,327.04,392.431,319.558,379.471z"/>
<circle style="fill:#65669E;" cx="327.576" cy="374.839" r="9.259"/>
<g>
</g>
<g>
</g>
<g>
</g>
<g>
</g>
<g>
</g>
<g>
</g>
<g>
</g>
<g>
</g>
<g>
</g>
<g>
</g>
<g>
</g>
<g>
</g>
<g>
</g>
<g>
</g>
<g>
</g>
</svg>
