<?xml version="1.0" encoding="iso-8859-1"?>
<!-- Generator: Adobe Illustrator 19.0.0, SVG Export Plug-In . SVG Version: 6.00 Build 0)  -->
<svg version="1.1" id="Capa_1" xmlns="http://www.w3.org/2000/svg" xmlns:xlink="http://www.w3.org/1999/xlink" x="0px" y="0px"
	 viewBox="0 0 512.006 512.006" style="enable-background:new 0 0 512.006 512.006;" xml:space="preserve">
<ellipse style="fill:#61CBF8;" cx="256.003" cy="255.994" rx="255.951" ry="255.951"/>
<path style="fill:#FF5252;" d="M451.446,421.382c67.751-119.824,26.404-272.104-93.054-341.074
	C236.889,10.159,80.509,52.992,12.457,177.326C-8.993,243.794-3.322,318.735,34.35,383.985
	c70.68,122.422,227.222,164.367,349.643,93.687C410.306,462.48,432.889,443.315,451.446,421.382z"/>
<path style="fill:#EA3D3D;" d="M370.447,484.947c-142.336-7.544-255.435-125.311-255.435-269.528
	c0-59.964,19.564-115.353,52.64-160.157C102.647,72.727,46.245,115.598,12.457,177.326C-8.993,243.794-3.322,318.735,34.35,383.985
	C102.449,501.937,250.248,545.163,370.447,484.947z"/>
<g>
	<path style="fill:#FF7171;" d="M358.391,80.309c-42.115-24.315-88.344-35.029-133.617-33.535
		c-9.944,18.08,32.934,62.104,96.076,98.558s122.706,51.576,133.392,33.924C432.9,139.303,400.507,104.624,358.391,80.309z"/>
	<path style="fill:#FF7171;" d="M483.605,284.101L483.605,284.101c-24.789,20.446-114.349-4.181-208.932-58.788
		C180.09,170.705,113.984,105.457,119.295,73.766l0,0c-25.192,12.735-48.406,29.795-68.422,50.855l0,0
		c-0.553,38.301,75.167,111.547,181.94,173.192c106.772,61.645,208.066,90.598,240.958,70.969l0,0
		C482.005,340.919,485.173,312.285,483.605,284.101z"/>
</g>
<path style="fill:#FF5252;" d="M50.874,124.623c-0.312,21.673,23.805,54.537,64.144,90.156
	c0.084-35.877,7.174-70.102,19.966-101.395c-11.684-15.702-17.399-29.402-15.688-39.614
	C93.155,86.982,70.008,104.443,50.874,124.623z"/>
<path style="fill:#FF7171;" d="M15.858,344.612c31.542,31.407,78.137,66.393,133.239,98.206
	c54.136,31.255,106.808,53.858,149.389,65.654c29.311-4.926,58.255-15.065,85.509-30.8c13.164-7.6,25.391-16.198,36.654-25.635
	c-48.445,2.021-137.129-28.28-229.691-81.721C96.809,315.96,25.402,253.11,4.227,210.068
	C-3.854,254.236-0.406,300.686,15.858,344.612z"/>
<path style="fill:#FF5252;" d="M147.277,343.458C75.078,296.193,21.986,246.165,4.227,210.069
	c-8.266,45.169-4.268,91.59,11.634,134.545c31.542,31.407,78.136,66.391,133.236,98.203
	c54.117,31.245,106.773,53.843,149.345,65.641c25.096-4.216,49.204-12.089,72.005-23.512
	C273.847,479.828,190.728,423.928,147.277,343.458z"/>
<g>
</g>
<g>
</g>
<g>
</g>
<g>
</g>
<g>
</g>
<g>
</g>
<g>
</g>
<g>
</g>
<g>
</g>
<g>
</g>
<g>
</g>
<g>
</g>
<g>
</g>
<g>
</g>
<g>
</g>
</svg>
