<?xml version="1.0" encoding="iso-8859-1"?>
<!-- Generator: Adobe Illustrator 19.0.0, SVG Export Plug-In . SVG Version: 6.00 Build 0)  -->
<svg version="1.1" id="Capa_1" xmlns="http://www.w3.org/2000/svg" xmlns:xlink="http://www.w3.org/1999/xlink" x="0px" y="0px"
	 viewBox="0 0 512 512" style="enable-background:new 0 0 512 512;" xml:space="preserve">
<circle style="fill:#662B5A;" cx="256" cy="256" r="256"/>
<path style="fill:#51204A;" d="M32.402,380.715C76.181,459.036,159.898,512,256,512s179.819-52.964,223.598-131.285H32.402z"/>
<path style="fill:#441940;" d="M247.563,380.715H32.402c41.905,74.968,120.404,126.696,211.329,130.988
	C159.064,507.486,162.579,380.715,247.563,380.715z"/>
<path style="fill:#61CBF8;" d="M219.112,230.591c53.455-27.918,110.054-48.608,168.755-61.714c-0.155-0.959-0.359-1.92-0.615-2.879
	c-4.122-15.447-19.987-24.628-35.431-20.505c-41.189,10.991-81.654,25.773-120.272,43.937
	c-14.466,6.804-20.678,24.048-13.873,38.515C218.109,228.865,218.599,229.739,219.112,230.591z"/>
<path style="fill:#5ABDEE;" d="M281.159,168.351c-16.806,6.411-33.373,13.442-49.609,21.079
	c-14.466,6.804-20.678,24.048-13.873,38.515c0.433,0.92,0.922,1.794,1.436,2.646c25.014-13.064,50.723-24.523,77.007-34.385
	C280.993,197.327,272.086,180.022,281.159,168.351z"/>
<path style="fill:#61CBF8;" d="M48.414,386.149l-9.174-8.587c-3.34-3.126-3.461-8.373-0.296-11.676
	c44.31-46.228,94.592-86.002,149.663-118.385c0.062-0.037,0.127-0.064,0.19-0.099c-0.45-0.884-0.948-1.754-1.497-2.606
	c-8.668-13.433-26.585-17.293-40.017-8.627c-47.359,30.559-91.201,66.742-130.309,107.543C5.912,355.254,6.3,373.578,17.841,384.64
	c5.611,5.377,12.823,8.049,20.026,8.049c5.328,0,10.647-1.468,15.311-4.377C51.456,388.136,49.774,387.422,48.414,386.149z"/>
<path style="fill:#5ABDEE;" d="M39.24,377.562c-3.34-3.126-3.461-8.373-0.296-11.676c17.305-18.054,35.532-35.109,54.589-51.138
	c-14.253,3.327-25.921-11.413-19.46-24.492c-19.958,16.772-39.039,34.615-57.098,53.455c-11.062,11.542-10.674,29.866,0.867,40.928
	c5.611,5.377,12.823,8.049,20.026,8.049c5.328,0,10.647-1.468,15.311-4.377c-1.723-0.177-3.405-0.89-4.765-2.163L39.24,377.562z"/>
<g>
	<path style="fill:#CEDDF7;" d="M422.671,180.816l-2.151-12.38c-0.783-4.505-5.101-7.488-9.596-6.651
		c-67.663,12.595-132.771,35.146-193.772,67.117c-4.05,2.122-5.598,7.137-3.427,11.161l5.965,11.059
		c2.125,3.939,7.022,5.45,10.987,3.373c58.385-30.588,120.694-52.17,185.446-64.233
		C420.523,189.442,423.437,185.226,422.671,180.816z"/>
	<path style="fill:#CEDDF7;" d="M198.829,248.337c-2.272-3.971-7.349-5.299-11.293-2.98
		C132.464,277.74,82.183,317.514,37.873,363.742c-3.166,3.303-3.045,8.549,0.296,11.676l9.174,8.587
		c3.266,3.057,8.39,2.938,11.485-0.291c42.436-44.263,90.582-82.349,143.309-113.363c3.855-2.268,5.153-7.225,2.932-11.108
		L198.829,248.337z"/>
</g>
<path style="fill:#AAC5EE;" d="M89.477,315.114c-17.978,15.295-35.202,31.517-51.604,48.629c-3.166,3.303-3.045,8.549,0.296,11.676
	l9.174,8.587c3.266,3.057,8.389,2.938,11.485-0.291c14.876-15.517,30.469-30.256,46.7-44.216
	C92.792,339.69,84.314,326.598,89.477,315.114z"/>
<path style="fill:#CEDDF7;" d="M422.836,137.719c-1.985-7.742-9.872-12.411-17.614-10.426c-7.743,1.985-12.411,9.871-10.426,17.614
	l61.11,238.364c1.81,7.06,8.564,11.632,15.72,10.778c4.209-6.561,8.117-13.333,11.726-20.285L422.836,137.719z"/>
<path style="fill:#AAC5EE;" d="M409.997,143.75c-1.513-5.902,0.846-11.878,5.478-15.269c-3.05-1.584-6.663-2.108-10.253-1.188
	c-7.743,1.985-12.411,9.871-10.426,17.614l61.11,238.364c1.81,7.06,8.564,11.632,15.72,10.778c1.12-1.746,2.215-3.509,3.292-5.284
	C469.536,383.414,474.778,393.334,409.997,143.75z"/>
<g>
	<path style="fill:#CEDDF7;" d="M217.388,294.599l-26.421-15.254c-5.128-2.961-6.885-9.517-3.924-14.645
		c2.96-5.128,9.519-6.884,14.645-3.924l26.421,15.254c5.128,2.961,6.885,9.517,3.924,14.645
		C229.069,295.81,222.51,297.556,217.388,294.599z"/>
	<path style="fill:#CEDDF7;" d="M233.237,290.501c-0.076,0-0.153-0.001-0.23-0.002c-5.92-0.125-10.617-5.024-10.493-10.944
		l0.65-30.891c0.124-5.92,5.009-10.595,10.944-10.494c5.92,0.125,10.617,5.024,10.493,10.944l-0.65,30.891
		C243.829,285.848,239.053,290.501,233.237,290.501z"/>
</g>
<circle style="fill:#AAC5EE;" cx="230.31" cy="286.4" r="17.567"/>
<ellipse style="fill:#8FB1DB;" cx="35.576" cy="387.856" rx="35.44" ry="35.44"/>
<path style="fill:#7AA4CE;" d="M27.57,392.495c-7.473-12.943-5.845-28.635,2.885-39.691c-4.317,0.629-8.589,2.061-12.597,4.375
	c-16.951,9.787-22.759,31.462-12.972,48.413s31.462,22.759,48.413,12.972c4.008-2.314,7.384-5.298,10.087-8.722
	C49.446,411.874,35.043,405.438,27.57,392.495z"/>
<path style="fill:#CEDDF7;" d="M447.431,365.164c-4.701-0.009-8.519,3.794-8.528,8.495l-0.04,22.579l31.303,0.029
	c6.471-9.86,12.281-20.191,17.363-30.935C485.969,365.045,487.718,365.24,447.431,365.164z"/>
<path style="fill:#AAC5EE;" d="M470.458,373.659c0.009-4.605,3.675-8.339,8.243-8.481l-31.271-0.014
	c-4.701-0.009-8.519,3.794-8.528,8.495l-0.04,22.579l31.303,0.029c0.086-0.13,0.168-0.263,0.254-0.394L470.458,373.659z"/>
<g>
	<path style="fill:#8FB1DB;" d="M471.417,394.365H436.06c-7.96,0-14.473,6.513-14.473,14.473s6.513,14.473,14.473,14.473h13.701
		C457.634,414.202,464.875,404.53,471.417,394.365z"/>
	<ellipse style="fill:#8FB1DB;" cx="405.538" cy="127.491" rx="22.91" ry="22.91"/>
</g>
<path style="fill:#7AA4CE;" d="M397.545,132.118c-5.137-8.897-3.627-19.808,2.987-26.983c-2.205,0.496-4.374,1.329-6.435,2.518
	c-10.958,6.327-14.712,20.339-8.386,31.297c6.327,10.958,20.339,14.713,31.297,8.386c2.061-1.19,3.866-2.652,5.398-4.314
	C412.885,145.163,402.682,141.015,397.545,132.118z"/>
<g>
	<circle style="fill:#AAC5EE;" cx="35.578" cy="387.87" r="9.247"/>
	<circle style="fill:#AAC5EE;" cx="458.79" cy="247.95" r="22.911"/>
</g>
<g>
	<path style="fill:#8FB1DB;" d="M423.64,265.477c-3.545,0-6.79-2.361-7.758-5.947c-1.157-4.287,1.38-8.701,5.667-9.859l35.143-9.488
		c4.292-1.151,8.701,1.381,9.858,5.667c1.157,4.287-1.38,8.701-5.667,9.859l-35.143,9.488
		C425.039,265.386,424.333,265.477,423.64,265.477z"/>
	<circle style="fill:#8FB1DB;" cx="417.79" cy="175.72" r="9.247"/>
</g>
<ellipse style="fill:#CEDDF7;" cx="230.327" cy="286.408" rx="9.247" ry="9.247"/>
<circle style="fill:#8FB1DB;" cx="461.17" cy="345.41" r="9.247"/>
<g>
	<circle style="fill:#AAC5EE;" cx="405.55" cy="127.49" r="9.247"/>
	<path style="fill:#AAC5EE;" d="M290.5,195.759c-25.015,9.588-49.497,20.642-73.349,33.143c-4.05,2.122-5.598,7.137-3.427,11.161
		l5.966,11.059c2.125,3.939,7.022,5.45,10.987,3.373c23.487-12.305,47.619-23.126,72.28-32.483
		C290.504,220.391,283.887,206.421,290.5,195.759z"/>
</g>
<g>
</g>
<g>
</g>
<g>
</g>
<g>
</g>
<g>
</g>
<g>
</g>
<g>
</g>
<g>
</g>
<g>
</g>
<g>
</g>
<g>
</g>
<g>
</g>
<g>
</g>
<g>
</g>
<g>
</g>
</svg>
