<?xml version="1.0" encoding="iso-8859-1"?>
<!-- Generator: Adobe Illustrator 19.0.0, SVG Export Plug-In . SVG Version: 6.00 Build 0)  -->
<svg version="1.1" id="Capa_1" xmlns="http://www.w3.org/2000/svg" xmlns:xlink="http://www.w3.org/1999/xlink" x="0px" y="0px"
	 viewBox="0 0 512 512" style="enable-background:new 0 0 512 512;" xml:space="preserve">
<circle style="fill:#504A7F;" cx="256" cy="256" r="256"/>
<path style="fill:#61CBF8;" d="M308.731,187.735l90.638-90.638c1.994-1.994,4.383-3.348,6.914-4.073
	c-0.444-0.496-0.901-0.985-1.378-1.462c-13.931-13.93-36.519-13.933-50.45,0l-45.724,45.723
	C294.8,151.216,294.799,173.803,308.731,187.735L308.731,187.735z"/>
<path style="fill:#5ABDEE;" d="M351.208,139.21c-10.465,0-18.948-8.483-18.948-18.948c0-3.088,0.754-5.994,2.064-8.57
	l-25.593,25.593c-13.932,13.93-13.932,36.518,0,50.45l0,0l50.164-50.164C356.544,138.617,353.947,139.21,351.208,139.21z"/>
<path style="fill:#3B3868;" d="M55.231,414.834C102.122,474.023,174.623,512,256,512s153.878-37.977,200.769-97.166L55.231,414.834
	L55.231,414.834z"/>
<path style="fill:#31315B;" d="M245.824,414.834H55.231c44.231,55.833,111.255,92.774,187.017,96.787
	C180.352,507.767,183.32,414.834,245.824,414.834z"/>
<path style="fill:#CEDDF7;" d="M381.501,401.159v-57.673c0-0.018-0.003-0.035-0.003-0.053c-0.014-4.368-1.851-8.452-4.702-11.302
	l-84.782-84.782l-22.498,22.907l79.878,79.878v51.023h32.107V401.159z"/>
<path style="fill:#AAC5EE;" d="M331.14,286.476l-39.125-39.126l-22.498,22.907l37.745,37.745
	C303.178,293.633,317.411,280.971,331.14,286.476z"/>
<path style="fill:#61CBF8;" d="M495.459,131.184H440.29v32.106h55.169c8.866,0,16.053-7.187,16.053-16.053
	C511.513,138.371,504.326,131.184,495.459,131.184z"/>
<path style="fill:#5ABDEE;" d="M495.459,147.237H440.29v16.053h55.169c8.866,0,16.053-7.187,16.053-16.053
	c0-2.927-0.796-5.664-2.165-8.027C506.571,144.004,501.398,147.237,495.459,147.237z"/>
<polygon style="fill:#CEDDF7;" points="448.615,131.184 409.499,131.184 377.392,163.29 448.615,163.29 "/>
<polygon style="fill:#AAC5EE;" points="377.393,163.29 448.615,163.29 448.615,147.174 393.509,147.174 "/>
<path style="fill:#5ABDEE;" d="M440.291,172.208c-4.925,0-8.918-3.992-8.918-8.918v-32.106c0-4.926,3.993-8.918,8.918-8.918
	s8.918,3.992,8.918,8.918v32.106C449.209,168.216,445.216,172.208,440.291,172.208z"/>
<path style="fill:#52AFE5;" d="M440.291,151.25c-4.925,0-8.918-3.992-8.918-8.918v20.958c0,4.926,3.993,8.918,8.918,8.918
	c4.926,0,8.918-3.992,8.918-8.918v-20.958C449.209,147.258,445.216,151.25,440.291,151.25z"/>
<path style="fill:#CEDDF7;" d="M422.072,95.908c-6.269-6.269-16.433-6.269-22.703,0L96.497,398.78h45.405l280.17-280.17
	C428.341,112.341,428.341,102.177,422.072,95.908z"/>
<path style="fill:#AAC5EE;" d="M182.643,312.635L96.497,398.78h45.405l63.385-63.385
	C190.968,340.995,177.035,326.76,182.643,312.635z"/>
<circle style="fill:#8FB1DB;" cx="393.94" cy="147.17" r="25.412"/>
<path style="fill:#61CBF8;" d="M159.538,407.55h54.743L104.67,297.94c-10.392-10.393-26.132-12.163-38.356-5.328l-8.797,8.797
	l97.572,97.572C157.513,401.404,158.989,404.412,159.538,407.55z"/>
<path style="fill:#5ABDEE;" d="M145.869,339.139L104.67,297.94c-10.392-10.393-26.132-12.163-38.356-5.328l-8.797,8.797
	l63.157,63.157C115.19,348.896,130.177,333.806,145.869,339.139z"/>
<polygon style="fill:#8FB1DB;" points="453.645,364.102 413.612,402.173 453.645,402.173 "/>
<path style="fill:#AAC5EE;" d="M160.728,407.55c-0.549-3.138-2.025-6.146-4.449-8.57l-97.572-97.572l32.049-32.048
	c6.269-6.27,6.269-16.433,0-22.703c-6.27-6.268-16.433-6.268-22.703,0l-37.309,37.309c-9.618,9.618-9.618,25.268,0,34.885
	l88.7,88.699H160.728z"/>
<g>
	<path style="fill:#8FB1DB;" d="M120.071,362.773l-61.365-61.365l32.049-32.048c6.269-6.27,6.269-16.433,0-22.703
		c-6.27-6.268-16.433-6.268-22.703,0l-37.309,37.309c-9.618,9.617-9.618,25.268,0,34.885l68.723,68.723
		C93.848,374.099,105.682,359.717,120.071,362.773z"/>
	<circle style="fill:#8FB1DB;" cx="92.13" cy="244.99" r="25.412"/>
</g>
<path style="fill:#CEDDF7;" d="M453.645,424.839c0-5.078,0-15.354,0-26.059H43.489c7.667,11.388,16.233,22.118,25.583,32.106
	h390.621C456.353,430.887,453.645,428.179,453.645,424.839z"/>
<path style="fill:#AAC5EE;" d="M198.557,414.834c0-7.18,4.322-13.344,10.502-16.053H43.489
	c7.667,11.388,16.233,22.118,25.583,32.106h139.987C202.879,428.177,198.557,422.014,198.557,414.834z"/>
<path style="fill:#7477AD;" d="M490.703,360.877h-34.578c-3.34,0-6.048,2.708-6.048,6.048c0,11.074,0,46.845,0,57.914
	c0,3.34,2.708,6.048,6.048,6.048h34.578c3.34,0,6.048-2.708,6.048-6.048c0-11.074,0-46.845,0-57.914
	C496.751,363.585,494.043,360.877,490.703,360.877z"/>
<path style="fill:#65669E;" d="M473.414,424.839c0-11.069,0-46.84,0-57.914c0-3.34,2.708-6.048,6.048-6.048h-23.337
	c-3.34,0-6.048,2.708-6.048,6.048c0,11.074,0,46.845,0,57.914c0,3.34,2.708,6.048,6.048,6.048h23.337
	C476.122,430.887,473.414,428.179,473.414,424.839z"/>
<circle style="fill:#8FB1DB;" cx="269.52" cy="248.39" r="10.256"/>
<circle style="fill:#7AA4CE;" cx="42.597" cy="301.57" r="10.256"/>
<circle style="fill:#AAC5EE;" cx="92.13" cy="244.99" r="10.256"/>
<g>
	<circle style="fill:#8FB1DB;" cx="135.9" cy="414.83" r="10.256"/>
	<circle style="fill:#8FB1DB;" cx="365.52" cy="414.83" r="10.256"/>
</g>
<circle style="fill:#AAC5EE;" cx="393.94" cy="147.24" r="10.256"/>
<g>
</g>
<g>
</g>
<g>
</g>
<g>
</g>
<g>
</g>
<g>
</g>
<g>
</g>
<g>
</g>
<g>
</g>
<g>
</g>
<g>
</g>
<g>
</g>
<g>
</g>
<g>
</g>
<g>
</g>
</svg>
