<?xml version="1.0" encoding="iso-8859-1"?>
<!-- Generator: Adobe Illustrator 19.0.0, SVG Export Plug-In . SVG Version: 6.00 Build 0)  -->
<svg version="1.1" id="Capa_1" xmlns="http://www.w3.org/2000/svg" xmlns:xlink="http://www.w3.org/1999/xlink" x="0px" y="0px"
	 viewBox="0 0 512 512" style="enable-background:new 0 0 512 512;" xml:space="preserve">
<circle style="fill:#504A7F;" cx="251.04" cy="256" r="251.04"/>
<path style="fill:#3B3868;" d="M37.814,388.529c98.372,157.935,328.084,157.929,426.452,0H37.814z"/>
<path style="fill:#31315B;" d="M238.461,506.731c-76.536-3.778-73.229-118.202,3.401-118.202H37.814
	c43.161,69.295,119.147,116.02,206.218,118.408C242.171,506.886,240.312,506.822,238.461,506.731z"/>
<path style="fill:#CEDDF7;" d="M474.799,187.707H9.406c-2.873,10.184-5.111,20.632-6.687,31.297h462.685
	c5.188,0,9.394-4.206,9.394-9.394v-21.903H474.799z"/>
<g>
	<path style="fill:#AAC5EE;" d="M162.184,203.355c0-6.646,3.557-12.447,8.86-15.649H9.406c-2.873,10.184-5.111,20.632-6.687,31.297
		h168.325C165.742,215.802,162.184,210.002,162.184,203.355z"/>
	<path style="fill:#AAC5EE;" d="M404.465,219.004H53.089c-20.992,0-39.852,9.256-52.75,23.887C0.115,247.232,0,251.603,0,256
		c0,29.078,4.961,56.993,14.053,82.966v-49.629c0-21.525,17.511-39.036,39.036-39.036h351.376c21.525,0,39.036,17.511,39.036,39.036
		v83.048l31.297-0.244v-82.804C474.799,250.555,443.248,219.004,404.465,219.004z"/>
</g>
<path style="fill:#8FB1DB;" d="M162.184,234.871c0-6.797,3.716-12.715,9.22-15.867H53.089c-20.992,0-39.852,9.256-52.75,23.887
	C0.115,247.232,0,251.603,0,256c0,29.078,4.961,56.993,14.053,82.966v-49.629c0-21.525,17.511-39.036,39.036-39.036h117.596
	C165.581,247.057,162.184,241.367,162.184,234.871z"/>
<path style="fill:#7AA4CE;" d="M79.825,258.11c-4.801,0-8.694-3.892-8.694-8.694v-62.91c0-4.802,3.892-8.694,8.694-8.694
	c4.801,0,8.694,3.892,8.694,8.694v62.91C88.519,254.218,84.626,258.11,79.825,258.11z"/>
<path style="fill:#8FB1DB;" d="M377.73,258.11c-4.801,0-8.694-3.892-8.694-8.694v-62.91c0-4.802,3.892-8.694,8.694-8.694
	s8.694,3.892,8.694,8.694v62.91C386.424,254.218,382.531,258.11,377.73,258.11z"/>
<path style="fill:#FBCC68;" d="M459.636,125.908H36.296c-11.723,19.31-20.904,40.331-27.105,62.595H483.3
	c7.465,0,13.517-6.052,13.517-13.517v-11.898C496.817,142.554,480.171,125.908,459.636,125.908z"/>
<path style="fill:#FDBF49;" d="M157.858,174.986v-11.898c0-20.534,16.646-37.181,37.181-37.181H36.296
	c-11.723,19.31-20.904,40.331-27.105,62.595h162.183C163.909,188.503,157.858,182.451,157.858,174.986z"/>
<path style="fill:#CEDDF7;" d="M483.729,370.949l-49.782,0.314c-5.083,0.032-9.177,4.178-9.145,9.261l0.134,25.572l68.378-0.431
	l-0.133-25.381C493.148,375.096,488.916,370.917,483.729,370.949z"/>
<g>
	<path style="fill:#AAC5EE;" d="M464.735,380.251c-0.028-4.402,2.942-8.114,6.994-9.226l-37.782,0.238
		c-5.083,0.032-9.177,4.178-9.145,9.261l0.134,25.572l39.933-0.252L464.735,380.251z"/>
	<path style="fill:#AAC5EE;" d="M496.351,403.828h-74.573c-8.607,0-15.649,7.042-15.649,15.649s7.042,15.649,15.649,15.649h74.573
		c8.607,0,15.649-7.042,15.649-15.649C512,410.869,504.958,403.828,496.351,403.828z"/>
</g>
<g>
	<path style="fill:#8FB1DB;" d="M452.129,419.476c0-8.607,7.042-15.649,15.649-15.649h-46c-8.607,0-15.649,7.042-15.649,15.649
		s7.042,15.649,15.649,15.649h46C459.171,435.125,452.129,428.083,452.129,419.476z"/>
	<circle style="fill:#8FB1DB;" cx="331.73" cy="234.87" r="9.998"/>
</g>
<circle style="fill:#7AA4CE;" cx="122.08" cy="234.87" r="9.998"/>
<g>
</g>
<g>
</g>
<g>
</g>
<g>
</g>
<g>
</g>
<g>
</g>
<g>
</g>
<g>
</g>
<g>
</g>
<g>
</g>
<g>
</g>
<g>
</g>
<g>
</g>
<g>
</g>
<g>
</g>
</svg>
