<?xml version="1.0" encoding="iso-8859-1"?>
<!-- Generator: Adobe Illustrator 19.0.0, SVG Export Plug-In . SVG Version: 6.00 Build 0)  -->
<svg version="1.1" id="Capa_1" xmlns="http://www.w3.org/2000/svg" xmlns:xlink="http://www.w3.org/1999/xlink" x="0px" y="0px"
	 viewBox="0 0 512 512" style="enable-background:new 0 0 512 512;" xml:space="preserve">
<circle style="fill:#504A7F;" cx="256" cy="261.28" r="250.72"/>
<path style="fill:#CEDDF7;" d="M366.561,32.223l6.178-10.701c1.754-3.037,5.439-4.192,8.232-2.58l20.367,11.759
	c2.793,1.612,3.635,5.382,1.882,8.419l-6.178,10.701L366.561,32.223z"/>
<g>
	<path style="fill:#AAC5EE;" d="M387.752,29.854c1.3-2.251,3.332-3.691,5.262-3.958l-12.042-6.953
		c-2.793-1.612-6.479-0.458-8.232,2.58l-6.178,10.701l14.867,8.583L387.752,29.854z"/>
	
		<rect x="112.105" y="266.649" transform="matrix(-0.5 0.866 -0.866 -0.5 615.5596 206.0591)" style="fill:#AAC5EE;" width="272.384" height="28.149"/>
</g>
<rect x="106.011" y="270.163" transform="matrix(-0.5 0.866 -0.866 -0.5 603.3659 206.0469)" style="fill:#8FB1DB;" width="272.384" height="14.07"/>
<rect x="244.89" y="230.116" transform="matrix(-0.5 0.866 -0.866 -0.5 615.5601 132.9931)" style="fill:#CEDDF7;" width="48.998" height="28.149"/>
<rect x="238.788" y="233.625" transform="matrix(-0.5 0.866 -0.866 -0.5 603.3491 132.9809)" style="fill:#AAC5EE;" width="48.998" height="14.07"/>
<rect x="202.717" y="303.155" transform="matrix(-0.5 0.866 -0.866 -0.5 615.5544 279.0749)" style="fill:#CEDDF7;" width="48.998" height="28.149"/>
<rect x="196.624" y="306.669" transform="matrix(-0.5 0.866 -0.866 -0.5 603.3608 279.0626)" style="fill:#AAC5EE;" width="48.998" height="14.07"/>
<path style="fill:#CEDDF7;" d="M292.879,129.732l-6.364,11.022c-1.806,3.128-1.006,6.972,1.787,8.584l53.773,31.046
	c2.793,1.612,6.521,0.384,8.327-2.745l6.364-11.022L292.879,129.732z"/>
<path style="fill:#AAC5EE;" d="M314.904,157.338l6.448-11.168l-28.473-16.438l-6.364,11.022c-1.806,3.128-1.006,6.972,1.787,8.584
	l26.636,15.378C313.584,162.684,313.481,159.803,314.904,157.338z"/>
<path style="fill:#FF5252;" d="M253.635,109.46l140.309,81.007c4.744,2.739,10.811,1.114,13.55-3.631l10.89-18.863
	c2.739-4.744,1.114-10.811-3.631-13.55L274.444,73.417c-4.744-2.739-10.811-1.114-13.55,3.631l-10.89,18.863
	C247.265,100.654,248.891,106.721,253.635,109.46z"/>
<path style="fill:#FF7171;" d="M274.444,73.417l140.309,81.007c4.744,2.739,10.811,1.114,13.55-3.631l10.89-18.863
	c2.739-4.744,1.114-10.811-3.631-13.55L295.254,37.374c-4.744-2.739-10.811-1.114-13.55,3.631l-10.89,18.863
	C268.075,64.611,269.7,70.678,274.444,73.417z"/>
<path style="fill:#FF5252;" d="M295.254,37.374l140.309,81.007c4.744,2.739,10.811,1.114,13.55-3.631l10.89-18.863
	c2.739-4.744,1.114-10.811-3.631-13.55L316.063,1.331c-4.744-2.739-10.811-1.114-13.55,3.631l-10.89,18.863
	C288.884,28.568,290.509,34.635,295.254,37.374z"/>
<path style="fill:#EA3D3D;" d="M318.076,135.541l11.175-19.356c2.239-3.879,6.514-5.792,10.494-5.066l-65.302-37.702
	c-4.744-2.739-10.811-1.114-13.55,3.631l-10.89,18.863c-2.739,4.744-1.114,10.811,3.631,13.549l65.301,37.702
	C316.318,144.078,315.837,139.419,318.076,135.541z"/>
<path style="fill:#FF5252;" d="M338.838,99.581l11.271-19.522c2.167-3.753,6.224-5.682,10.095-5.186l-64.95-37.499
	c-4.744-2.739-10.811-1.114-13.55,3.631l-10.891,18.862c-2.739,4.745-1.114,10.811,3.631,13.55l64.95,37.499
	C337.03,107.811,336.671,103.334,338.838,99.581z"/>
<path style="fill:#EA3D3D;" d="M359.682,63.477l11.201-19.401c2.22-3.845,6.435-5.76,10.386-5.099L316.063,1.331
	c-4.744-2.739-10.811-1.114-13.55,3.63l-10.89,18.863c-2.739,4.744-1.114,10.811,3.631,13.55l65.207,37.647
	C357.912,71.93,357.463,67.321,359.682,63.477z"/>
<path style="fill:#CEDDF7;" d="M140.148,394.269l6.166-10.68c1.75-3.031,5.433-4.181,8.226-2.569l53.773,31.046
	c2.793,1.612,3.638,5.377,1.888,8.408l-6.166,10.68L140.148,394.269z"/>
<path style="fill:#AAC5EE;" d="M173.429,399.64c1.645-2.85,4.876-4.154,7.671-3.285l-26.561-15.334
	c-2.793-1.613-6.476-0.462-8.226,2.568l-6.166,10.68l27.287,15.754L173.429,399.64z"/>
<path style="fill:#FF5252;" d="M102.671,370.937l140.309,81.007c4.744,2.739,6.37,8.806,3.631,13.55l-10.89,18.863
	c-2.739,4.744-8.805,6.37-13.55,3.631L81.862,406.98c-4.744-2.739-6.37-8.806-3.631-13.55l10.89-18.863
	C91.86,369.823,97.927,368.198,102.671,370.937z"/>
<path style="fill:#FF7171;" d="M222.17,487.987L81.861,406.98c-4.744-2.739-10.811-1.113-13.55,3.631l-5.826,10.091
	c39.006,47.294,95.019,80.026,158.672,88.877l4.643-8.042C228.54,496.793,226.914,490.726,222.17,487.987z"/>
<path style="fill:#EA3D3D;" d="M146.29,433.083l11.201-19.401c2.22-3.845,6.435-5.76,10.386-5.099l-65.207-37.647
	c-4.744-2.739-10.811-1.114-13.55,3.63l-10.89,18.863c-2.739,4.744-1.114,10.811,3.631,13.55l65.207,37.647
	C144.519,441.536,144.071,436.928,146.29,433.083z"/>
<path style="fill:#FF5252;" d="M81.861,406.98c-4.744-2.739-10.811-1.113-13.55,3.631l-5.826,10.091
	c17.556,21.286,38.565,39.609,62.157,54.146c-0.021-1.835,0.44-3.72,1.44-5.453l11.326-19.617c2.051-3.552,5.786-5.469,9.463-5.264
	L81.861,406.98z"/>
<g>
</g>
<g>
</g>
<g>
</g>
<g>
</g>
<g>
</g>
<g>
</g>
<g>
</g>
<g>
</g>
<g>
</g>
<g>
</g>
<g>
</g>
<g>
</g>
<g>
</g>
<g>
</g>
<g>
</g>
</svg>
