<?xml version="1.0" encoding="iso-8859-1"?>
<!-- Generator: Adobe Illustrator 19.0.0, SVG Export Plug-In . SVG Version: 6.00 Build 0)  -->
<svg version="1.1" id="Capa_1" xmlns="http://www.w3.org/2000/svg" xmlns:xlink="http://www.w3.org/1999/xlink" x="0px" y="0px"
	 viewBox="0 0 512 512" style="enable-background:new 0 0 512 512;" xml:space="preserve">
<circle style="fill:#FDBF49;" cx="256" cy="262.57" r="249.43"/>
<path style="fill:#8B8C87;" d="M119.209,192.152L92.558,51.619c29.581,154.295-33.043,213.427-33.043,213.427
	c0.738,0,1.469-0.012,2.193-0.034C99.06,263.838,126.171,228.867,119.209,192.152z"/>
<path style="fill:#999B94;" d="M392.791,192.152l26.651-140.533c-29.581,154.295,33.043,213.427,33.043,213.427
	C413.479,265.046,385.767,229.192,392.791,192.152z"/>
<path style="fill:#BDC2B8;" d="M452.485,265.046c-39.008,0-66.718-35.857-59.694-72.895L415.76,71.032
	c-20.083-16.77-42.84-30.442-67.544-40.278l-19.656,75.05c-4.077,15.566-14.581,28.694-28.943,35.95
	c-27.537,13.912-57.536,15.005-87.236,0c-14.362-7.256-24.866-20.384-28.943-35.95l-19.656-75.05
	c-24.704,9.836-47.46,23.508-67.544,40.278l22.969,121.119c6.963,36.715-20.149,71.687-57.5,72.86
	c-0.724,0.023-1.455,0.034-2.193,0.034V416.23C105.172,474.531,176.209,512,256,512s150.828-37.469,196.485-95.769V265.046z"/>
<g>
	<path style="fill:#CCCEC8;" d="M256.771,152.599c-14.641,0.13-29.552-3.348-44.389-10.844
		c-14.362-7.256-24.866-20.384-28.943-35.95L157.77,7.794c-1.55-5.919-7.838-9.24-13.601-7.183l-43.63,15.575
		c-7.927,2.83-12.613,11.01-11.045,19.279l26.02,137.205l0,0C115.619,172.656,167.193,152.477,256.771,152.599z"/>
	<path style="fill:#CCCEC8;" d="M411.461,16.187l-43.63-15.575c-5.763-2.057-12.051,1.263-13.601,7.183l-25.67,98.011
		c-4.077,15.566-14.581,28.694-28.943,35.95c-13.767,6.956-28.15,10.707-42.803,10.844c88.467,0.123,139.671,20.072,139.671,20.072
		l0,0l26.02-137.205C424.074,27.196,419.388,19.016,411.461,16.187z"/>
</g>
<path style="fill:#A6A9A0;" d="M256,38.696c63.613,0,98.23-30.902,98.23-30.902l-25.67,98.011
	c-4.077,15.566-14.581,28.694-28.943,35.95c-27.752,14.021-57.779,14.882-87.236,0c-14.362-7.256-24.866-20.384-28.943-35.95
	L157.77,7.794C157.77,7.794,192.387,38.696,256,38.696z"/>
<g>
	<path style="fill:#999B94;" d="M258.076,141.755c10.156-7.256,17.584-20.384,20.467-35.95l13.062-70.526
		c40.8-8.033,62.626-27.485,62.626-27.485l-25.67,98.011c-4.077,15.566-14.581,28.694-28.943,35.95
		c-19.369,9.785-39.845,13.151-60.463,9.239C245.579,149.267,251.907,146.162,258.076,141.755z"/>
	<path style="fill:#999B94;" d="M168.849,50.096L157.77,7.794c0,0,34.617,30.902,98.23,30.902s98.23-30.902,98.23-30.902
		l-11.079,42.302C291.554,75.75,222.078,76.561,168.849,50.096z"/>
</g>
<path style="fill:#8B8C87;" d="M343.151,50.096c-13.752,6.837-33.055,14.055-57.528,17.482l5.982-32.299
	c31.89-6.279,52.172-19.514,59.511-25.007c0.01-0.008,0.02-0.015,0.03-0.023c0.857-0.642,1.545-1.18,2.043-1.584
	c0.009-0.007,0.02-0.016,0.029-0.023c0.127-0.103,0.229-0.187,0.332-0.272c0.064-0.053,0.124-0.102,0.179-0.148
	c0.075-0.062,0.135-0.113,0.192-0.162c0.067-0.057,0.116-0.098,0.161-0.137c0.029-0.025,0.05-0.042,0.069-0.06
	c0.05-0.044,0.08-0.07,0.08-0.07L343.151,50.096z"/>
<g>
	<path style="fill:#BDC2B8;" d="M176.732,80.195L157.77,7.794c-1.55-5.919-7.838-9.24-13.601-7.183l-43.63,15.575
		c-7.927,2.83-12.613,11.01-11.045,19.279l11.553,60.922C144.401,104.63,176.731,80.196,176.732,80.195z"/>
	<path style="fill:#BDC2B8;" d="M335.268,80.195L354.23,7.794c1.55-5.919,7.838-9.24,13.601-7.183l43.63,15.575
		c7.927,2.83,12.613,11.01,11.045,19.279l-11.553,60.922C367.599,104.63,335.269,80.196,335.268,80.195z"/>
	<path style="fill:#BDC2B8;" d="M119.209,192.152c6.963,36.715-20.149,71.687-57.5,72.86c-0.724,0.023-1.455,0.034-2.193,0.034
		v151.185c18.499,23.621,41.162,43.822,66.889,59.497V169.101c-7.165,2.12-10.889,3.57-10.889,3.57L119.209,192.152z"/>
	<path style="fill:#BDC2B8;" d="M191.899,156.261v36.687V503.67C212.355,509.094,233.837,512,256,512V152.596
		C231.748,152.596,210.296,154.09,191.899,156.261z"/>
</g>
<g>
	<path style="fill:#A6A9A0;" d="M126.404,169.101v306.627c20.133,12.267,42.144,21.749,65.495,27.942V156.258
		C150.897,161.092,129.433,168.417,126.404,169.101z"/>
	<path style="fill:#A6A9A0;" d="M256,512c22.163,0,43.645-2.906,64.101-8.33c0-51.732,0-295.497,0-347.412
		c-18.397-2.169-39.854-3.661-64.101-3.661V512z"/>
	<path style="fill:#A6A9A0;" d="M452.485,416.231V265.046c-39.008,0-66.718-35.856-59.693-72.895l3.694-19.48
		c0,0-3.724-1.45-10.889-3.57v306.627C411.323,460.053,433.986,439.852,452.485,416.231z"/>
</g>
<path style="fill:#BDC2B8;" d="M320.101,156.258V503.67c23.351-6.193,45.363-15.675,65.495-27.942V169.101
	C367.04,163.984,349.867,159.767,320.101,156.258z"/>
<path style="fill:#999B94;" d="M316.554,281.946c2.763,3.681,4.42,8.239,4.42,13.196v36.759c0,4.957-1.657,9.515-4.42,13.196
	h135.931v-63.151L316.554,281.946L316.554,281.946z"/>
<g>
	<path style="fill:#8B8C87;" d="M316.554,345.097h46.116c-5.936-4.15-9.822-11.031-9.822-18.824v-25.545
		c0-7.774,3.874-14.639,9.793-18.782h-46.088c2.763,3.681,4.42,8.239,4.42,13.196v36.759
		C320.974,336.858,319.317,341.416,316.554,345.097z"/>
	<path style="fill:#8B8C87;" d="M320.974,313.521v18.38c0,4.957-1.657,9.515-4.42,13.196h135.931v-31.576L320.974,313.521
		L320.974,313.521z"/>
</g>
<g>
	<path style="fill:#7C7C79;" d="M352.849,326.273v-12.752h-31.874v18.38c0,4.957-1.657,9.515-4.42,13.196h46.116
		C356.734,340.946,352.849,334.065,352.849,326.273z"/>
	<path style="fill:#7C7C79;" d="M59.515,353.928h239.432c12.165,0,22.027-9.862,22.027-22.027v-36.759
		c0-12.165-9.862-22.027-22.027-22.027H59.515V353.928z"/>
</g>
<path style="fill:#8B8C87;" d="M126.085,335.549v-44.055c0-10.151,8.229-18.38,18.38-18.38h-84.95v80.814h84.95
	C134.314,353.928,126.085,345.699,126.085,335.549z"/>
<path style="fill:#999B94;" d="M320.974,331.901v-36.759c0-12.165-9.862-22.027-22.027-22.027h-85.522
	c-12.165,0-22.027,9.862-22.027,22.027v36.759c0,12.165,9.862,22.027,22.027,22.027h85.522
	C311.112,353.928,320.974,344.066,320.974,331.901z"/>
<path style="fill:#8B8C87;" d="M242.398,331.901v-36.759c0-12.165,9.862-22.027,22.027-22.027h-52
	c-12.165,0-22.027,9.862-22.027,22.027v36.759c0,12.165,9.862,22.027,22.027,22.027h52
	C252.26,353.928,242.398,344.066,242.398,331.901z"/>
<path style="fill:#A6A9A0;" d="M288.051,322.165H223.95c-4.774,0-8.644-3.87-8.644-8.644c0-4.775,3.87-8.644,8.644-8.644h64.101
	c4.774,0,8.644,3.87,8.644,8.644C296.695,318.296,292.825,322.165,288.051,322.165z"/>
<path style="fill:#999B94;" d="M223.949,322.165h18.448v-17.289h-18.448c-4.774,0-8.644,3.87-8.644,8.644
	C215.305,318.295,219.175,322.165,223.949,322.165z"/>
<path style="fill:#8B8C87;" d="M195.446,394.453H59.515v21.778c12.011,15.337,25.785,29.223,41.006,41.373h94.925
	c-2.763-3.681-4.42-8.239-4.42-13.196v-36.759C191.026,402.692,192.683,398.134,195.446,394.453z"/>
<path style="fill:#A6A9A0;" d="M126.085,443.242v-34.426c0-7.932,8.229-14.363,18.38-14.363h-84.95v21.778
	c12.011,15.337,25.785,29.223,41.006,41.373h43.944C134.314,457.604,126.085,451.174,126.085,443.242z"/>
<path style="fill:#7C7C79;" d="M191.026,426.029H67.595c9.986,11.5,21.015,22.067,32.926,31.576h94.925
	c-2.763-3.681-4.42-8.239-4.42-13.196V426.029z"/>
<g>
	<path style="fill:#8B8C87;" d="M126.085,443.242v-17.213h-58.46c9.336,10.745,20.191,21.434,32.896,31.576h43.944
		C134.314,457.604,126.085,451.174,126.085,443.242z"/>
	<path style="fill:#8B8C87;" d="M452.485,385.622H213.053c-12.165,0-22.027,9.862-22.027,22.027v36.759
		c0,12.165,9.862,22.027,22.027,22.027h186.683c19.938-14.083,37.719-31.013,52.749-50.204L452.485,385.622L452.485,385.622z"/>
</g>
<path style="fill:#7C7C79;" d="M352.849,444.408v-36.759c0-12.165,9.862-22.027,22.027-22.027H213.053
	c-12.165,0-22.027,9.862-22.027,22.027v36.759c0,12.165,9.862,22.027,22.027,22.027h161.823
	C362.711,466.436,352.849,456.574,352.849,444.408z"/>
<path style="fill:#999B94;" d="M191.026,444.408v-36.759c0-12.165,9.862-22.027,22.027-22.027h85.522
	c12.165,0,22.027,9.862,22.027,22.027v36.759c0,12.165-9.862,22.027-22.027,22.027h-85.522
	C200.888,466.436,191.026,456.574,191.026,444.408z"/>
<path style="fill:#8B8C87;" d="M242.398,444.408v-36.759c0-12.165,9.862-22.027,22.027-22.027h-52
	c-12.165,0-22.027,9.862-22.027,22.027v36.759c0,12.165,9.862,22.027,22.027,22.027h52
	C252.26,466.436,242.398,456.574,242.398,444.408z"/>
<path style="fill:#A6A9A0;" d="M223.949,434.673h64.101c4.774,0,8.644-3.87,8.644-8.644s-3.87-8.644-8.644-8.644h-64.101
	c-4.774,0-8.644,3.87-8.644,8.644S219.175,434.673,223.949,434.673z"/>
<path style="fill:#999B94;" d="M223.949,434.673h18.448v-17.289h-18.448c-4.774,0-8.644,3.87-8.644,8.644
	C215.305,430.803,219.175,434.673,223.949,434.673z"/>
<g>
</g>
<g>
</g>
<g>
</g>
<g>
</g>
<g>
</g>
<g>
</g>
<g>
</g>
<g>
</g>
<g>
</g>
<g>
</g>
<g>
</g>
<g>
</g>
<g>
</g>
<g>
</g>
<g>
</g>
</svg>
