<?xml version="1.0" encoding="iso-8859-1"?>
<!-- Generator: Adobe Illustrator 19.0.0, SVG Export Plug-In . SVG Version: 6.00 Build 0)  -->
<svg version="1.1" id="Capa_1" xmlns="http://www.w3.org/2000/svg" xmlns:xlink="http://www.w3.org/1999/xlink" x="0px" y="0px"
	 viewBox="0 0 512.003 512.003" style="enable-background:new 0 0 512.003 512.003;" xml:space="preserve">
<ellipse style="fill:#BCCC23;" cx="251.055" cy="256.001" rx="251.013" ry="251.013"/>
<path style="fill:#A5B50F;" d="M60.921,419.929c99.538,115.72,280.003,116.363,380.306,0H60.921z"/>
<path style="fill:#9CA30A;" d="M240.317,419.929H60.921c46.658,54.244,111.099,83.202,176.73,86.676
	C181.643,503.641,184.23,419.929,240.317,419.929z"/>
<path style="fill:#AAC5EE;" d="M253.208,223.703c-29.139,13.009-41.678,25.969-84.957,56.216l11.067,19.168l3.877,6.716
	l11.067,19.168l55.656-24.935c29.317-13.135,42.758-26.797,84.032-55.714c-3.614-6.26-11.399-19.744-14.944-25.884L307.94,199.27
	L253.208,223.703z"/>
<path style="fill:#8FB1DB;" d="M183.039,305.533l49.969-32.382c28.177-18.261,46.375-25.698,89.718-48.27l-3.719-6.443
	l-11.067-19.168l-54.732,24.434c-29.143,13.01-41.501,25.845-84.956,56.216l11.066,19.168L183.039,305.533z"/>
<path style="fill:#CEDDF7;" d="M210.764,249.183l31.373,54.339l7.782-3.486c23.492-10.525,37.679-22.339,41.555-24.917
	l-31.443-54.461l-6.823,3.046C229.375,234.342,215.12,246.287,210.764,249.183z"/>
<path style="fill:#AAC5EE;" d="M226.89,277.115l6.117-3.964c22.378-14.503,39.781-22.716,43.165-24.534l-16.142-27.96l-6.823,3.046
	c-23.879,10.66-38.157,22.638-42.444,25.48L226.89,277.115z"/>
<path style="fill:#CEDDF7;" d="M192.762,348.308c-6.732,3.886-15.34,1.581-19.227-5.152l-31.397-54.38
	c-3.886-6.732-1.581-15.34,5.152-19.227c6.733-3.886,15.34-1.581,19.227,5.152l31.397,54.38
	C201.8,335.813,199.494,344.422,192.762,348.308z"/>
<path style="fill:#AAC5EE;" d="M168.829,306.855c5.563-3.211,11.359-4.115,14.736-2.629l-17.047-29.526
	c-3.886-6.732-12.495-9.039-19.227-5.152c-6.732,3.886-9.038,12.495-5.152,19.227l17.047,29.526
	C159.585,314.635,163.267,310.068,168.829,306.855z"/>
<rect x="368.197" y="70.271" transform="matrix(0.866 -0.5 0.5 0.866 -30.7483 227.3521)" style="fill:#504A7F;" width="81.325" height="201.562"/>
<path style="fill:#65669E;" d="M307.418,130.805l15.823-26.712l100.784,174.564l-31.045,0.348c-4.467,0.05-8.615-2.314-10.848-6.182
	l-74.786-129.531C305.114,139.423,305.14,134.65,307.418,130.805z"/>
<path id="SVGCleanerId_0" style="fill:#65669E;" d="M424.713,63.085l-31.045,0.348l100.784,174.564l15.823-26.712
	c2.277-3.843,2.304-8.617,0.07-12.486L435.561,69.268C433.328,65.398,429.18,63.035,424.713,63.085z"/>
<rect x="337.719" y="78.414" transform="matrix(-0.866 0.5 -0.5 -0.866 765.2087 31.5217)" style="fill:#3B3868;" width="81.325" height="79.735"/>
<g>
	<path id="SVGCleanerId_0_1_" style="fill:#65669E;" d="M424.713,63.085l-31.045,0.348l100.784,174.564l15.823-26.712
		c2.277-3.843,2.304-8.617,0.07-12.486L435.561,69.268C433.328,65.398,429.18,63.035,424.713,63.085z"/>
</g>
<path style="fill:#504A7F;" d="M459.537,122.266c2.514-0.989,4.553-1.437,5.852-1.335l-29.828-51.663
	c-2.234-3.869-6.381-6.233-10.848-6.182l-31.045,0.348l39.872,69.061L459.537,122.266z"/>
<path style="fill:#CEDDF7;" d="M355.287,254.475c6.732-3.886,9.039-12.495,5.152-19.227l-31.397-54.38
	c-3.886-6.732-12.495-9.038-19.227-5.152c-6.732,3.886-9.039,12.495-5.152,19.227l31.397,54.38
	C339.946,256.055,348.554,258.361,355.287,254.475z"/>
<path style="fill:#AAC5EE;" d="M330.565,211.655c5.755-3.322,11.812-4.05,15.034-2.111l-16.556-28.677
	c-3.886-6.732-12.495-9.038-19.227-5.152c-6.732,3.887-9.039,12.495-5.152,19.227l16.557,28.677
	C321.15,219.86,324.81,214.978,330.565,211.655z"/>
<g>
	<path style="fill:#504A7F;" d="M341.872,192.525l21.237-19.377l-39.868-69.055l-15.823,26.712
		c-2.277,3.843-2.304,8.617-0.07,12.486l31.016,53.722C338.951,195.66,340.135,194.11,341.872,192.525z"/>
	
		<rect x="53.077" y="252.208" transform="matrix(0.866 -0.5 0.5 0.866 -163.9392 94.1645)" style="fill:#504A7F;" width="81.325" height="201.562"/>
</g>
<path style="fill:#65669E;" d="M2.99,294.693c4.633,29.758,14.724,59.18,30.685,86.827c18.64,32.285,43.374,58.851,71.903,79.109
	l3.329-0.037L8.123,286.028L2.99,294.693z"/>
<path id="SVGCleanerId_1" style="fill:#65669E;" d="M109.596,245.018l-31.045,0.348L179.335,419.93l15.823-26.712
	c2.277-3.843,2.304-8.617,0.07-12.486L120.444,251.2C118.21,247.331,114.063,244.968,109.596,245.018z"/>
<rect x="22.613" y="260.352" transform="matrix(-0.866 0.5 -0.5 -0.866 268.186 528.5765)" style="fill:#3B3868;" width="81.325" height="79.735"/>
<g>
	<path id="SVGCleanerId_1_1_" style="fill:#65669E;" d="M109.596,245.018l-31.045,0.348L179.335,419.93l15.823-26.712
		c2.277-3.843,2.304-8.617,0.07-12.486L120.444,251.2C118.21,247.331,114.063,244.968,109.596,245.018z"/>
</g>
<g>
	<path style="fill:#504A7F;" d="M144.42,304.2c2.514-0.989,4.553-1.437,5.852-1.335L120.444,251.2
		c-2.234-3.869-6.381-6.233-10.848-6.182l-31.045,0.348l39.872,69.061L144.42,304.2z"/>
	<path style="fill:#504A7F;" d="M28.785,372.606l19.207-17.524L8.124,286.028l-5.134,8.666
		C7.129,321.276,15.639,347.585,28.785,372.606z"/>
</g>
<g>
</g>
<g>
</g>
<g>
</g>
<g>
</g>
<g>
</g>
<g>
</g>
<g>
</g>
<g>
</g>
<g>
</g>
<g>
</g>
<g>
</g>
<g>
</g>
<g>
</g>
<g>
</g>
<g>
</g>
</svg>
