<?xml version="1.0" encoding="iso-8859-1"?>
<!-- Generator: Adobe Illustrator 19.0.0, SVG Export Plug-In . SVG Version: 6.00 Build 0)  -->
<svg version="1.1" id="Capa_1" xmlns="http://www.w3.org/2000/svg" xmlns:xlink="http://www.w3.org/1999/xlink" x="0px" y="0px"
	 viewBox="0 0 512.004 512.004" style="enable-background:new 0 0 512.004 512.004;" xml:space="preserve">
<circle style="fill:#662B5A;" cx="256.002" cy="269.311" r="242.693"/>
<path style="fill:#FF7171;" d="M90.202,211.114c9.764,19.963,9.913,43.261,0.486,63.385c-0.136,0.29-0.262,0.585-0.396,0.876
	c16.48-35.672,44.13-65.125,78.475-83.857c-8.459,4.602-19.063,1.262-23.223-7.425c-0.012-0.025-0.018-0.038-0.018-0.038
	c-27.664-56.563,13.571-122.413,76.399-122.413c8.241,0,59.854,0,68.151,0c62.964,0,104.004,65.973,76.398,122.414l-0.003,0.005
	c-4.204,8.735-14.851,12.103-23.363,7.47c34.404,18.777,62.13,48.312,78.634,84.05c-0.14-0.303-0.271-0.61-0.413-0.912
	c-9.454-20.178-9.322-43.537,0.468-63.554l0,0c47.7-97.522-23.394-211.059-131.721-211.059c-8.241,0-59.854,0-68.151,0
	C113.371,0.056,42.604,113.798,90.202,211.114L90.202,211.114z"/>
<path style="fill:#FF5252;" d="M221.925,61.642c4.602,0,22.724,0,39.277,0c-10.684-5.541-17.989-16.694-17.989-29.561
	c0-15.237,10.242-28.074,24.214-32.025c-17.922,0-40.284,0-45.503,0c-108.554,0-179.321,113.742-131.723,211.058l0,0
	c9.764,19.963,9.913,43.261,0.486,63.385c-0.136,0.29-0.262,0.585-0.396,0.876c16.48-35.672,44.13-65.125,78.475-83.857
	c-8.459,4.602-19.063,1.262-23.223-7.425c-0.012-0.025-0.018-0.038-0.018-0.038C117.862,127.493,159.097,61.642,221.925,61.642z"/>
<path style="fill:#EA3D3D;" d="M221.925,0.056c-9.477,0-18.658,0.885-27.505,2.532v63.531c8.531-2.89,17.757-4.477,27.505-4.477
	c71.423,0,78.169-1.445,95.654,4.471V2.593C300.449-0.602,296.17,0.056,221.925,0.056z"/>
<path style="fill:#DB3535;" d="M243.213,32.081c0-15.237,10.242-28.074,24.214-32.025c-17.922,0-40.284,0-45.503,0
	c-9.405,0-18.812,0.914-27.505,2.532v63.531c8.338-2.824,17.719-4.477,27.505-4.477c4.602,0,22.724,0,39.277,0
	C250.519,56.102,243.213,44.948,243.213,32.081z"/>
<path style="fill:#FF7171;" d="M438.452,350.665c0.001-100.669-81.98-182.56-182.649-182.453
	c-100.675,0.106-182.255,81.751-182.255,182.451c0,44.439,15.897,85.157,42.305,116.801C155.439,495.512,203.793,512,256,512
	c52.216,0,100.578-16.494,140.167-44.55C422.565,435.808,438.451,395.095,438.452,350.665z"/>
<g>
	<path style="fill:#FF5252;" d="M306.466,438.073c-48.199,27.827-110.051,11.254-137.878-36.944s-11.254-110.051,36.944-137.878
		s110.051-11.254,137.878,36.944C371.237,348.393,354.665,410.246,306.466,438.073z"/>
	<path style="fill:#FF5252;" d="M168.426,190.569C66.886,246.232,42.84,379.971,115.853,467.464
		C155.439,495.512,203.793,512,256,512c2.242,0,4.474-0.042,6.7-0.102C125.345,469.118,76.427,300.444,168.426,190.569z"/>
</g>
<path style="fill:#EA3D3D;" d="M223.431,369.467c-22.3-38.624-16.081-86.012,12.07-117.636
	c-10.279,2.124-20.393,5.893-29.968,11.421c-48.199,27.827-64.772,89.679-36.944,137.878s89.679,64.772,137.878,36.944
	c9.575-5.528,17.896-12.403,24.875-20.242C289.878,426.398,245.73,408.089,223.431,369.467z"/>
<path style="fill:#FC9292;" d="M276.079,222.959c-2.572,0-17.262-3.262-38.907-0.091c-4.68,0.684-9.018-2.55-9.703-7.224
	c-0.684-4.674,2.55-9.019,7.224-9.703c13.72-2.01,27.876-2.159,42.615,0c4.674,0.684,7.908,5.028,7.224,9.703
	C283.909,219.897,280.254,222.959,276.079,222.959z"/>
<path style="fill:#EA3D3D;" d="M256,280.522c-38.676,0-70.14,31.465-70.14,70.14s31.465,70.14,70.14,70.14s70.14-31.465,70.14-70.14
	S294.675,280.522,256,280.522z"/>
<path style="fill:#DB3535;" d="M212.748,295.507c-16.353,12.853-26.888,32.79-26.888,55.156c0,49.465,50.245,83.671,96.328,65.049
	C230.679,400.469,200.205,347.802,212.748,295.507z"/>
<g>
</g>
<g>
</g>
<g>
</g>
<g>
</g>
<g>
</g>
<g>
</g>
<g>
</g>
<g>
</g>
<g>
</g>
<g>
</g>
<g>
</g>
<g>
</g>
<g>
</g>
<g>
</g>
<g>
</g>
</svg>
