<?xml version="1.0" encoding="iso-8859-1"?>
<!-- Generator: Adobe Illustrator 19.0.0, SVG Export Plug-In . SVG Version: 6.00 Build 0)  -->
<svg version="1.1" id="Capa_1" xmlns="http://www.w3.org/2000/svg" xmlns:xlink="http://www.w3.org/1999/xlink" x="0px" y="0px"
	 viewBox="0 0 512.001 512.001" style="enable-background:new 0 0 512.001 512.001;" xml:space="preserve">
<circle style="fill:#FF5252;" cx="256" cy="256.001" r="256"/>
<path style="fill:#EA3D3D;" d="M31.974,379.952C75.634,458.693,159.586,512,256,512s180.366-53.308,224.026-132.049H31.974z"/>
<path style="fill:#DB3535;" d="M247.556,379.952H31.974c41.791,75.37,120.499,127.431,211.716,131.751
	C158.538,507.449,162.084,379.952,247.556,379.952z"/>
<path style="fill:#CEDDF7;" d="M279.633,425.14v-25.182H44.293c7.486,10.987,15.808,21.356,24.869,31.026h216.316
	C282.25,430.984,279.633,428.367,279.633,425.14z"/>
<path style="fill:#61CBF8;" d="M191.94,69.095l-61.861,83.784c-0.711,0.972-1.309,1.991-1.848,3.029
	c5.451,3.89,11.739,5.782,17.981,5.782c9.512,0,18.901-4.36,24.985-12.6l27.118-36.729C208.452,98.63,205.587,79.304,191.94,69.095z
	"/>
<path style="fill:#5ABDEE;" d="M179.138,128.643c-9.716,0-17.712-7.319-18.803-16.742l-30.257,40.979
	c-0.711,0.972-1.309,1.991-1.848,3.029c5.451,3.89,11.739,5.782,17.981,5.782c9.512,0,18.901-4.36,24.985-12.6l16.683-22.595
	C185.263,127.86,182.294,128.643,179.138,128.643z"/>
<path style="fill:#7477AD;" d="M485.161,412.024c-2.724,0-5.403-1.288-7.078-3.692l-56.418-80.961
	c-2.721-3.905-1.762-9.277,2.143-11.998c3.905-2.72,9.276-1.762,11.998,2.143l56.418,80.961c2.721,3.905,1.762,9.277-2.143,11.998
	C488.58,411.522,486.862,412.024,485.161,412.024z"/>
<path style="fill:#61CBF8;" d="M385.922,353.519l98.543-134.639l0,0c-13.826-10.119-33.241-7.115-43.361,6.713l-61.893,84.565
	C369.09,323.985,372.095,343.397,385.922,353.519z"/>
<path style="fill:#5ABDEE;" d="M413.531,263.266l-34.32,46.892c-10.12,13.828-7.115,33.24,6.712,43.361l52.552-71.801
	C425.944,287.168,411.986,277.063,413.531,263.266z"/>
<path style="fill:#61CBF8;" d="M344.978,352.523c10.21-13.514,7.702-32.763-5.713-43.19l-35.743-27.781
	c-13.415-10.425-32.687-8.106-43.263,5.123L344.978,352.523z"/>
<path style="fill:#5ABDEE;" d="M324.319,297.716l-20.797-16.164c-13.415-10.425-32.687-8.106-43.263,5.123l47.576,36.979
	C299.257,311.636,309.591,295.041,324.319,297.716z"/>
<path style="fill:#CEDDF7;" d="M372.178,371.622L42.215,115.157c-5.74,8.695-10.962,17.759-15.626,27.151l326.549,253.811
	c2.83,2.2,6.182,3.266,9.509,3.266c4.625,0,9.201-2.06,12.259-5.994C380.164,386.625,378.943,376.88,372.178,371.622z"/>
<path style="fill:#AAC5EE;" d="M240.167,269.016L42.215,115.157c-5.74,8.695-10.962,17.759-15.626,27.151l194.578,151.236
	C215.581,280.864,226.202,266.758,240.167,269.016z"/>
<path style="fill:#7477AD;" d="M381.649,425.14v-33.414c0-3.228-2.617-5.844-5.844-5.844c-27.549,0-62.09,0-92.626,0
	c-3.228,0-5.844,2.617-5.844,5.844v33.414c0,3.228,2.617,5.844,5.844,5.844c16.584,0,62.964,0,92.626,0
	C379.033,430.984,381.649,428.367,381.649,425.14z"/>
<path style="fill:#65669E;" d="M375.805,385.881c-21.543,0-47.356,0-72.191,0c12.455,0,22.551,10.097,22.551,22.551
	s-10.097,22.552-22.551,22.552c21.295,0,51.004,0,72.191,0c3.228,0,5.844-2.617,5.844-5.844v-33.414
	C381.649,388.498,379.033,385.881,375.805,385.881z"/>
<path style="fill:#CEDDF7;" d="M372.444,410.979c-3.18,0-6.387-0.974-9.15-2.996c-6.914-5.06-8.416-14.767-3.356-21.681
	l124.03-169.461c5.061-6.914,14.768-8.418,21.681-3.355c6.914,5.06,8.416,14.767,3.356,21.681l-124.03,169.461
	C381.936,408.778,377.222,410.979,372.444,410.979z"/>
<g>
	<path style="fill:#AAC5EE;" d="M435.825,282.618l-75.887,103.684c-5.06,6.914-3.557,16.621,3.357,21.681
		c2.762,2.022,5.97,2.996,9.15,2.996c4.778,0,9.492-2.201,12.531-6.352l75.786-103.546
		C448.408,305.203,435.487,295.909,435.825,282.618z"/>
	<path style="fill:#AAC5EE;" d="M30.956,378.13V133.871C11.216,170.17,0,211.775,0,256.001S11.216,341.832,30.956,378.13z"/>
</g>
<path style="fill:#7477AD;" d="M158.645,328.272c-35.649,20.582-81.397,8.324-101.979-27.325s-8.324-81.397,27.325-101.979
	s81.397-8.324,101.979,27.325S194.294,307.69,158.645,328.272z"/>
<g>
	<path style="fill:#65669E;" d="M101.699,274.947c-16.012-27.733-12.142-61.573,7.148-84.927c-8.526,1.435-16.94,4.378-24.856,8.948
		c-35.649,20.582-47.907,66.33-27.325,101.979s66.329,47.907,101.979,27.325c7.916-4.57,14.672-10.386,20.177-17.052
		C148.953,316.248,117.711,302.68,101.699,274.947z"/>
	<path style="fill:#65669E;" d="M201.557,250.82l-79.289-61.627c-13.669-10.625-16.368-29.891-6.145-43.861l67.052-90.815
		c2.828-3.828,8.223-4.641,12.053-1.813c3.829,2.827,4.641,8.223,1.814,12.052l-67.03,90.785
		c-4.657,6.364-3.422,15.181,2.834,20.042l79.289,61.627c3.758,2.921,4.437,8.336,1.516,12.094
		C210.734,253.056,205.319,253.744,201.557,250.82z"/>
</g>
<path style="fill:#CEDDF7;" d="M403.086,399.958c-2.217,17.47-12.567,31.026-30.629,31.026h131.045c4.694,0,8.499-3.805,8.499-8.499
	v-14.594c0-4.382-3.552-7.933-7.933-7.933H403.086z"/>
<path style="fill:#AAC5EE;" d="M435.563,415.175L435.563,415.175c0-7.155,4.718-13.207,11.212-15.218h-43.689
	c-2.217,17.47-12.567,31.026-30.629,31.026h74.837C440.506,428.931,435.563,422.633,435.563,415.175z"/>
<path style="fill:#65669E;" d="M96.472,220.585c-23.729,13.7-31.889,44.151-18.189,67.881c13.7,23.729,44.151,31.889,67.881,18.189
	s31.889-44.151,18.189-67.881C150.653,215.045,120.201,206.885,96.472,220.585z"/>
<g>
	<path style="fill:#504A7F;" d="M101.699,274.947c-9.495-16.447-11.998-35.041-8.439-52.322
		c-21.22,14.503-28.036,43.221-14.976,65.842c13.06,22.62,41.338,31.076,64.509,19.951
		C126.047,302.857,111.195,291.393,101.699,274.947z"/>
	<ellipse style="fill:#504A7F;" cx="121.313" cy="263.615" rx="13.251" ry="13.251"/>
</g>
<path style="fill:#8FB1DB;" d="M354.696,364.703c-16.962,9.793-22.794,31.559-13.001,48.522
	c9.793,16.962,31.559,22.794,48.521,13.001s22.794-31.559,13.001-48.521C393.425,360.742,371.658,354.91,354.696,364.703z"/>
<path style="fill:#7AA4CE;" d="M359.021,403.222c-8.057-13.955-5.53-31.155,5.06-42.27c-3.216,0.779-6.377,2.015-9.384,3.751
	c-16.962,9.793-22.794,31.559-13.001,48.522c11.789,20.419,40.08,23.943,56.462,6.749
	C383.236,423.587,367.077,417.175,359.021,403.222z"/>
<circle style="fill:#AAC5EE;" cx="372.46" cy="395.461" r="15.513"/>
<g>
	<circle style="fill:#8FB1DB;" cx="493.77" cy="415.471" r="9.911"/>
	<circle style="fill:#8FB1DB;" cx="426.62" cy="320.641" r="9.911"/>
	<circle style="fill:#8FB1DB;" cx="293.83" cy="330.561" r="9.911"/>
</g>
<path style="fill:#AAC5EE;" d="M173.5,415.471c0-6.796,3.914-12.663,9.603-15.513H44.293c7.486,10.987,15.808,21.356,24.869,31.026
	h113.942C177.414,428.134,173.5,422.267,173.5,415.471z"/>
<g>
</g>
<g>
</g>
<g>
</g>
<g>
</g>
<g>
</g>
<g>
</g>
<g>
</g>
<g>
</g>
<g>
</g>
<g>
</g>
<g>
</g>
<g>
</g>
<g>
</g>
<g>
</g>
<g>
</g>
</svg>
